# https://github.com/mikedh/trimesh
v -2.60000000 -1.80000000 -1.10000000
v -2.60000000 -1.80000000 1.10000000
v -2.60000000 1.80000000 -1.10000000
v -2.60000000 1.80000000 1.10000000
v 2.60000000 -1.80000000 -1.10000000
v 2.60000000 -1.80000000 1.10000000
v 2.60000000 1.80000000 -1.10000000
v 2.60000000 1.80000000 1.10000000
v -1.60000000 -1.00000000 -0.85000000
v -1.15000000 -1.00000000 -0.85000000
v -1.15000000 -1.00000000 0.85000000
v -1.60000000 -1.00000000 0.85000000
v -1.16533338 -0.88353143 -0.85000000
v -1.16533338 -0.88353143 0.85000000
v -1.21028857 -0.77500000 -0.85000000
v -1.21028857 -0.77500000 0.85000000
v -1.28180195 -0.68180195 -0.85000000
v -1.28180195 -0.68180195 0.85000000
v -1.37500000 -0.61028857 -0.85000000
v -1.37500000 -0.61028857 0.85000000
v -1.48353143 -0.56533338 -0.85000000
v -1.48353143 -0.56533338 0.85000000
v -1.60000000 -0.55000000 -0.85000000
v -1.60000000 -0.55000000 0.85000000
v -1.71646857 -0.56533338 -0.85000000
v -1.71646857 -0.56533338 0.85000000
v -1.82500000 -0.61028857 -0.85000000
v -1.82500000 -0.61028857 0.85000000
v -1.91819805 -0.68180195 -0.85000000
v -1.91819805 -0.68180195 0.85000000
v -1.98971143 -0.77500000 -0.85000000
v -1.98971143 -0.77500000 0.85000000
v -2.03466662 -0.88353143 -0.85000000
v -2.03466662 -0.88353143 0.85000000
v -2.05000000 -1.00000000 -0.85000000
v -2.05000000 -1.00000000 0.85000000
v -2.03466662 -1.11646857 -0.85000000
v -2.03466662 -1.11646857 0.85000000
v -1.98971143 -1.22500000 -0.85000000
v -1.98971143 -1.22500000 0.85000000
v -1.91819805 -1.31819805 -0.85000000
v -1.91819805 -1.31819805 0.85000000
v -1.82500000 -1.38971143 -0.85000000
v -1.82500000 -1.38971143 0.85000000
v -1.71646857 -1.43466662 -0.85000000
v -1.71646857 -1.43466662 0.85000000
v -1.60000000 -1.45000000 -0.85000000
v -1.60000000 -1.45000000 0.85000000
v -1.48353143 -1.43466662 -0.85000000
v -1.48353143 -1.43466662 0.85000000
v -1.37500000 -1.38971143 -0.85000000
v -1.37500000 -1.38971143 0.85000000
v -1.28180195 -1.31819805 -0.85000000
v -1.28180195 -1.31819805 0.85000000
v -1.21028857 -1.22500000 -0.85000000
v -1.21028857 -1.22500000 0.85000000
v -1.16533338 -1.11646857 -0.85000000
v -1.16533338 -1.11646857 0.85000000
v -1.60000000 0.00000000 -0.85000000
v -1.15000000 0.00000000 -0.85000000
v -1.15000000 0.00000000 0.85000000
v -1.60000000 0.00000000 0.85000000
v -1.16533338 0.11646857 -0.85000000
v -1.16533338 0.11646857 0.85000000
v -1.21028857 0.22500000 -0.85000000
v -1.21028857 0.22500000 0.85000000
v -1.28180195 0.31819805 -0.85000000
v -1.28180195 0.31819805 0.85000000
v -1.37500000 0.38971143 -0.85000000
v -1.37500000 0.38971143 0.85000000
v -1.48353143 0.43466662 -0.85000000
v -1.48353143 0.43466662 0.85000000
v -1.60000000 0.45000000 -0.85000000
v -1.60000000 0.45000000 0.85000000
v -1.71646857 0.43466662 -0.85000000
v -1.71646857 0.43466662 0.85000000
v -1.82500000 0.38971143 -0.85000000
v -1.82500000 0.38971143 0.85000000
v -1.91819805 0.31819805 -0.85000000
v -1.91819805 0.31819805 0.85000000
v -1.98971143 0.22500000 -0.85000000
v -1.98971143 0.22500000 0.85000000
v -2.03466662 0.11646857 -0.85000000
v -2.03466662 0.11646857 0.85000000
v -2.05000000 0.00000000 -0.85000000
v -2.05000000 0.00000000 0.85000000
v -2.03466662 -0.11646857 -0.85000000
v -2.03466662 -0.11646857 0.85000000
v -1.98971143 -0.22500000 -0.85000000
v -1.98971143 -0.22500000 0.85000000
v -1.91819805 -0.31819805 -0.85000000
v -1.91819805 -0.31819805 0.85000000
v -1.82500000 -0.38971143 -0.85000000
v -1.82500000 -0.38971143 0.85000000
v -1.71646857 -0.43466662 -0.85000000
v -1.71646857 -0.43466662 0.85000000
v -1.60000000 -0.45000000 -0.85000000
v -1.60000000 -0.45000000 0.85000000
v -1.48353143 -0.43466662 -0.85000000
v -1.48353143 -0.43466662 0.85000000
v -1.37500000 -0.38971143 -0.85000000
v -1.37500000 -0.38971143 0.85000000
v -1.28180195 -0.31819805 -0.85000000
v -1.28180195 -0.31819805 0.85000000
v -1.21028857 -0.22500000 -0.85000000
v -1.21028857 -0.22500000 0.85000000
v -1.16533338 -0.11646857 -0.85000000
v -1.16533338 -0.11646857 0.85000000
v -1.60000000 1.00000000 -0.85000000
v -1.15000000 1.00000000 -0.85000000
v -1.15000000 1.00000000 0.85000000
v -1.60000000 1.00000000 0.85000000
v -1.16533338 1.11646857 -0.85000000
v -1.16533338 1.11646857 0.85000000
v -1.21028857 1.22500000 -0.85000000
v -1.21028857 1.22500000 0.85000000
v -1.28180195 1.31819805 -0.85000000
v -1.28180195 1.31819805 0.85000000
v -1.37500000 1.38971143 -0.85000000
v -1.37500000 1.38971143 0.85000000
v -1.48353143 1.43466662 -0.85000000
v -1.48353143 1.43466662 0.85000000
v -1.60000000 1.45000000 -0.85000000
v -1.60000000 1.45000000 0.85000000
v -1.71646857 1.43466662 -0.85000000
v -1.71646857 1.43466662 0.85000000
v -1.82500000 1.38971143 -0.85000000
v -1.82500000 1.38971143 0.85000000
v -1.91819805 1.31819805 -0.85000000
v -1.91819805 1.31819805 0.85000000
v -1.98971143 1.22500000 -0.85000000
v -1.98971143 1.22500000 0.85000000
v -2.03466662 1.11646857 -0.85000000
v -2.03466662 1.11646857 0.85000000
v -2.05000000 1.00000000 -0.85000000
v -2.05000000 1.00000000 0.85000000
v -2.03466662 0.88353143 -0.85000000
v -2.03466662 0.88353143 0.85000000
v -1.98971143 0.77500000 -0.85000000
v -1.98971143 0.77500000 0.85000000
v -1.91819805 0.68180195 -0.85000000
v -1.91819805 0.68180195 0.85000000
v -1.82500000 0.61028857 -0.85000000
v -1.82500000 0.61028857 0.85000000
v -1.71646857 0.56533338 -0.85000000
v -1.71646857 0.56533338 0.85000000
v -1.60000000 0.55000000 -0.85000000
v -1.60000000 0.55000000 0.85000000
v -1.48353143 0.56533338 -0.85000000
v -1.48353143 0.56533338 0.85000000
v -1.37500000 0.61028857 -0.85000000
v -1.37500000 0.61028857 0.85000000
v -1.28180195 0.68180195 -0.85000000
v -1.28180195 0.68180195 0.85000000
v -1.21028857 0.77500000 -0.85000000
v -1.21028857 0.77500000 0.85000000
v -1.16533338 0.88353143 -0.85000000
v -1.16533338 0.88353143 0.85000000
v 0.00000000 -1.00000000 -0.85000000
v 0.45000000 -1.00000000 -0.85000000
v 0.45000000 -1.00000000 0.85000000
v 0.00000000 -1.00000000 0.85000000
v 0.43466662 -0.88353143 -0.85000000
v 0.43466662 -0.88353143 0.85000000
v 0.38971143 -0.77500000 -0.85000000
v 0.38971143 -0.77500000 0.85000000
v 0.31819805 -0.68180195 -0.85000000
v 0.31819805 -0.68180195 0.85000000
v 0.22500000 -0.61028857 -0.85000000
v 0.22500000 -0.61028857 0.85000000
v 0.11646857 -0.56533338 -0.85000000
v 0.11646857 -0.56533338 0.85000000
v 0.00000000 -0.55000000 -0.85000000
v 0.00000000 -0.55000000 0.85000000
v -0.11646857 -0.56533338 -0.85000000
v -0.11646857 -0.56533338 0.85000000
v -0.22500000 -0.61028857 -0.85000000
v -0.22500000 -0.61028857 0.85000000
v -0.31819805 -0.68180195 -0.85000000
v -0.31819805 -0.68180195 0.85000000
v -0.38971143 -0.77500000 -0.85000000
v -0.38971143 -0.77500000 0.85000000
v -0.43466662 -0.88353143 -0.85000000
v -0.43466662 -0.88353143 0.85000000
v -0.45000000 -1.00000000 -0.85000000
v -0.45000000 -1.00000000 0.85000000
v -0.43466662 -1.11646857 -0.85000000
v -0.43466662 -1.11646857 0.85000000
v -0.38971143 -1.22500000 -0.85000000
v -0.38971143 -1.22500000 0.85000000
v -0.31819805 -1.31819805 -0.85000000
v -0.31819805 -1.31819805 0.85000000
v -0.22500000 -1.38971143 -0.85000000
v -0.22500000 -1.38971143 0.85000000
v -0.11646857 -1.43466662 -0.85000000
v -0.11646857 -1.43466662 0.85000000
v -0.00000000 -1.45000000 -0.85000000
v -0.00000000 -1.45000000 0.85000000
v 0.11646857 -1.43466662 -0.85000000
v 0.11646857 -1.43466662 0.85000000
v 0.22500000 -1.38971143 -0.85000000
v 0.22500000 -1.38971143 0.85000000
v 0.31819805 -1.31819805 -0.85000000
v 0.31819805 -1.31819805 0.85000000
v 0.38971143 -1.22500000 -0.85000000
v 0.38971143 -1.22500000 0.85000000
v 0.43466662 -1.11646857 -0.85000000
v 0.43466662 -1.11646857 0.85000000
v 0.00000000 0.00000000 -0.85000000
v 0.45000000 0.00000000 -0.85000000
v 0.45000000 0.00000000 0.85000000
v 0.00000000 0.00000000 0.85000000
v 0.43466662 0.11646857 -0.85000000
v 0.43466662 0.11646857 0.85000000
v 0.38971143 0.22500000 -0.85000000
v 0.38971143 0.22500000 0.85000000
v 0.31819805 0.31819805 -0.85000000
v 0.31819805 0.31819805 0.85000000
v 0.22500000 0.38971143 -0.85000000
v 0.22500000 0.38971143 0.85000000
v 0.11646857 0.43466662 -0.85000000
v 0.11646857 0.43466662 0.85000000
v 0.00000000 0.45000000 -0.85000000
v 0.00000000 0.45000000 0.85000000
v -0.11646857 0.43466662 -0.85000000
v -0.11646857 0.43466662 0.85000000
v -0.22500000 0.38971143 -0.85000000
v -0.22500000 0.38971143 0.85000000
v -0.31819805 0.31819805 -0.85000000
v -0.31819805 0.31819805 0.85000000
v -0.38971143 0.22500000 -0.85000000
v -0.38971143 0.22500000 0.85000000
v -0.43466662 0.11646857 -0.85000000
v -0.43466662 0.11646857 0.85000000
v -0.45000000 0.00000000 -0.85000000
v -0.45000000 0.00000000 0.85000000
v -0.43466662 -0.11646857 -0.85000000
v -0.43466662 -0.11646857 0.85000000
v -0.38971143 -0.22500000 -0.85000000
v -0.38971143 -0.22500000 0.85000000
v -0.31819805 -0.31819805 -0.85000000
v -0.31819805 -0.31819805 0.85000000
v -0.22500000 -0.38971143 -0.85000000
v -0.22500000 -0.38971143 0.85000000
v -0.11646857 -0.43466662 -0.85000000
v -0.11646857 -0.43466662 0.85000000
v -0.00000000 -0.45000000 -0.85000000
v -0.00000000 -0.45000000 0.85000000
v 0.11646857 -0.43466662 -0.85000000
v 0.11646857 -0.43466662 0.85000000
v 0.22500000 -0.38971143 -0.85000000
v 0.22500000 -0.38971143 0.85000000
v 0.31819805 -0.31819805 -0.85000000
v 0.31819805 -0.31819805 0.85000000
v 0.38971143 -0.22500000 -0.85000000
v 0.38971143 -0.22500000 0.85000000
v 0.43466662 -0.11646857 -0.85000000
v 0.43466662 -0.11646857 0.85000000
v 0.00000000 1.00000000 -0.85000000
v 0.45000000 1.00000000 -0.85000000
v 0.45000000 1.00000000 0.85000000
v 0.00000000 1.00000000 0.85000000
v 0.43466662 1.11646857 -0.85000000
v 0.43466662 1.11646857 0.85000000
v 0.38971143 1.22500000 -0.85000000
v 0.38971143 1.22500000 0.85000000
v 0.31819805 1.31819805 -0.85000000
v 0.31819805 1.31819805 0.85000000
v 0.22500000 1.38971143 -0.85000000
v 0.22500000 1.38971143 0.85000000
v 0.11646857 1.43466662 -0.85000000
v 0.11646857 1.43466662 0.85000000
v 0.00000000 1.45000000 -0.85000000
v 0.00000000 1.45000000 0.85000000
v -0.11646857 1.43466662 -0.85000000
v -0.11646857 1.43466662 0.85000000
v -0.22500000 1.38971143 -0.85000000
v -0.22500000 1.38971143 0.85000000
v -0.31819805 1.31819805 -0.85000000
v -0.31819805 1.31819805 0.85000000
v -0.38971143 1.22500000 -0.85000000
v -0.38971143 1.22500000 0.85000000
v -0.43466662 1.11646857 -0.85000000
v -0.43466662 1.11646857 0.85000000
v -0.45000000 1.00000000 -0.85000000
v -0.45000000 1.00000000 0.85000000
v -0.43466662 0.88353143 -0.85000000
v -0.43466662 0.88353143 0.85000000
v -0.38971143 0.77500000 -0.85000000
v -0.38971143 0.77500000 0.85000000
v -0.31819805 0.68180195 -0.85000000
v -0.31819805 0.68180195 0.85000000
v -0.22500000 0.61028857 -0.85000000
v -0.22500000 0.61028857 0.85000000
v -0.11646857 0.56533338 -0.85000000
v -0.11646857 0.56533338 0.85000000
v -0.00000000 0.55000000 -0.85000000
v -0.00000000 0.55000000 0.85000000
v 0.11646857 0.56533338 -0.85000000
v 0.11646857 0.56533338 0.85000000
v 0.22500000 0.61028857 -0.85000000
v 0.22500000 0.61028857 0.85000000
v 0.31819805 0.68180195 -0.85000000
v 0.31819805 0.68180195 0.85000000
v 0.38971143 0.77500000 -0.85000000
v 0.38971143 0.77500000 0.85000000
v 0.43466662 0.88353143 -0.85000000
v 0.43466662 0.88353143 0.85000000
v 1.60000000 -1.00000000 -0.85000000
v 2.05000000 -1.00000000 -0.85000000
v 2.05000000 -1.00000000 0.85000000
v 1.60000000 -1.00000000 0.85000000
v 2.03466662 -0.88353143 -0.85000000
v 2.03466662 -0.88353143 0.85000000
v 1.98971143 -0.77500000 -0.85000000
v 1.98971143 -0.77500000 0.85000000
v 1.91819805 -0.68180195 -0.85000000
v 1.91819805 -0.68180195 0.85000000
v 1.82500000 -0.61028857 -0.85000000
v 1.82500000 -0.61028857 0.85000000
v 1.71646857 -0.56533338 -0.85000000
v 1.71646857 -0.56533338 0.85000000
v 1.60000000 -0.55000000 -0.85000000
v 1.60000000 -0.55000000 0.85000000
v 1.48353143 -0.56533338 -0.85000000
v 1.48353143 -0.56533338 0.85000000
v 1.37500000 -0.61028857 -0.85000000
v 1.37500000 -0.61028857 0.85000000
v 1.28180195 -0.68180195 -0.85000000
v 1.28180195 -0.68180195 0.85000000
v 1.21028857 -0.77500000 -0.85000000
v 1.21028857 -0.77500000 0.85000000
v 1.16533338 -0.88353143 -0.85000000
v 1.16533338 -0.88353143 0.85000000
v 1.15000000 -1.00000000 -0.85000000
v 1.15000000 -1.00000000 0.85000000
v 1.16533338 -1.11646857 -0.85000000
v 1.16533338 -1.11646857 0.85000000
v 1.21028857 -1.22500000 -0.85000000
v 1.21028857 -1.22500000 0.85000000
v 1.28180195 -1.31819805 -0.85000000
v 1.28180195 -1.31819805 0.85000000
v 1.37500000 -1.38971143 -0.85000000
v 1.37500000 -1.38971143 0.85000000
v 1.48353143 -1.43466662 -0.85000000
v 1.48353143 -1.43466662 0.85000000
v 1.60000000 -1.45000000 -0.85000000
v 1.60000000 -1.45000000 0.85000000
v 1.71646857 -1.43466662 -0.85000000
v 1.71646857 -1.43466662 0.85000000
v 1.82500000 -1.38971143 -0.85000000
v 1.82500000 -1.38971143 0.85000000
v 1.91819805 -1.31819805 -0.85000000
v 1.91819805 -1.31819805 0.85000000
v 1.98971143 -1.22500000 -0.85000000
v 1.98971143 -1.22500000 0.85000000
v 2.03466662 -1.11646857 -0.85000000
v 2.03466662 -1.11646857 0.85000000
v 1.60000000 0.00000000 -0.85000000
v 2.05000000 0.00000000 -0.85000000
v 2.05000000 0.00000000 0.85000000
v 1.60000000 0.00000000 0.85000000
v 2.03466662 0.11646857 -0.85000000
v 2.03466662 0.11646857 0.85000000
v 1.98971143 0.22500000 -0.85000000
v 1.98971143 0.22500000 0.85000000
v 1.91819805 0.31819805 -0.85000000
v 1.91819805 0.31819805 0.85000000
v 1.82500000 0.38971143 -0.85000000
v 1.82500000 0.38971143 0.85000000
v 1.71646857 0.43466662 -0.85000000
v 1.71646857 0.43466662 0.85000000
v 1.60000000 0.45000000 -0.85000000
v 1.60000000 0.45000000 0.85000000
v 1.48353143 0.43466662 -0.85000000
v 1.48353143 0.43466662 0.85000000
v 1.37500000 0.38971143 -0.85000000
v 1.37500000 0.38971143 0.85000000
v 1.28180195 0.31819805 -0.85000000
v 1.28180195 0.31819805 0.85000000
v 1.21028857 0.22500000 -0.85000000
v 1.21028857 0.22500000 0.85000000
v 1.16533338 0.11646857 -0.85000000
v 1.16533338 0.11646857 0.85000000
v 1.15000000 0.00000000 -0.85000000
v 1.15000000 0.00000000 0.85000000
v 1.16533338 -0.11646857 -0.85000000
v 1.16533338 -0.11646857 0.85000000
v 1.21028857 -0.22500000 -0.85000000
v 1.21028857 -0.22500000 0.85000000
v 1.28180195 -0.31819805 -0.85000000
v 1.28180195 -0.31819805 0.85000000
v 1.37500000 -0.38971143 -0.85000000
v 1.37500000 -0.38971143 0.85000000
v 1.48353143 -0.43466662 -0.85000000
v 1.48353143 -0.43466662 0.85000000
v 1.60000000 -0.45000000 -0.85000000
v 1.60000000 -0.45000000 0.85000000
v 1.71646857 -0.43466662 -0.85000000
v 1.71646857 -0.43466662 0.85000000
v 1.82500000 -0.38971143 -0.85000000
v 1.82500000 -0.38971143 0.85000000
v 1.91819805 -0.31819805 -0.85000000
v 1.91819805 -0.31819805 0.85000000
v 1.98971143 -0.22500000 -0.85000000
v 1.98971143 -0.22500000 0.85000000
v 2.03466662 -0.11646857 -0.85000000
v 2.03466662 -0.11646857 0.85000000
v 1.60000000 1.00000000 -0.85000000
v 2.05000000 1.00000000 -0.85000000
v 2.05000000 1.00000000 0.85000000
v 1.60000000 1.00000000 0.85000000
v 2.03466662 1.11646857 -0.85000000
v 2.03466662 1.11646857 0.85000000
v 1.98971143 1.22500000 -0.85000000
v 1.98971143 1.22500000 0.85000000
v 1.91819805 1.31819805 -0.85000000
v 1.91819805 1.31819805 0.85000000
v 1.82500000 1.38971143 -0.85000000
v 1.82500000 1.38971143 0.85000000
v 1.71646857 1.43466662 -0.85000000
v 1.71646857 1.43466662 0.85000000
v 1.60000000 1.45000000 -0.85000000
v 1.60000000 1.45000000 0.85000000
v 1.48353143 1.43466662 -0.85000000
v 1.48353143 1.43466662 0.85000000
v 1.37500000 1.38971143 -0.85000000
v 1.37500000 1.38971143 0.85000000
v 1.28180195 1.31819805 -0.85000000
v 1.28180195 1.31819805 0.85000000
v 1.21028857 1.22500000 -0.85000000
v 1.21028857 1.22500000 0.85000000
v 1.16533338 1.11646857 -0.85000000
v 1.16533338 1.11646857 0.85000000
v 1.15000000 1.00000000 -0.85000000
v 1.15000000 1.00000000 0.85000000
v 1.16533338 0.88353143 -0.85000000
v 1.16533338 0.88353143 0.85000000
v 1.21028857 0.77500000 -0.85000000
v 1.21028857 0.77500000 0.85000000
v 1.28180195 0.68180195 -0.85000000
v 1.28180195 0.68180195 0.85000000
v 1.37500000 0.61028857 -0.85000000
v 1.37500000 0.61028857 0.85000000
v 1.48353143 0.56533338 -0.85000000
v 1.48353143 0.56533338 0.85000000
v 1.60000000 0.55000000 -0.85000000
v 1.60000000 0.55000000 0.85000000
v 1.71646857 0.56533338 -0.85000000
v 1.71646857 0.56533338 0.85000000
v 1.82500000 0.61028857 -0.85000000
v 1.82500000 0.61028857 0.85000000
v 1.91819805 0.68180195 -0.85000000
v 1.91819805 0.68180195 0.85000000
v 1.98971143 0.77500000 -0.85000000
v 1.98971143 0.77500000 0.85000000
v 2.03466662 0.88353143 -0.85000000
v 2.03466662 0.88353143 0.85000000
vn -0.57735027 -0.57735027 -0.57735027
vn -0.57735027 -0.57735027 0.57735027
vn -0.57735027 0.57735027 -0.57735027
vn -0.57735027 0.57735027 0.57735027
vn 0.57735027 -0.57735027 -0.57735027
vn 0.57735027 -0.57735027 0.57735027
vn 0.57735027 0.57735027 -0.57735027
vn 0.57735027 0.57735027 0.57735027
vn 0.00000000 0.00000000 -1.00000000
vn 0.73425441 0.00000000 -0.67887441
vn 0.73425441 0.00000000 0.67887441
vn 0.00000000 0.00000000 1.00000000
vn 0.70923530 0.19003903 -0.67887441
vn 0.70923530 0.19003903 0.67887441
vn 0.63588297 0.36712721 -0.67887441
vn 0.63588297 0.36712721 0.67887441
vn 0.51919627 0.51919627 -0.67887441
vn 0.51919627 0.51919627 0.67887441
vn 0.36712721 0.63588297 -0.67887441
vn 0.36712721 0.63588297 0.67887441
vn 0.19003903 0.70923530 -0.67887441
vn 0.19003903 0.70923530 0.67887441
vn -0.00000000 0.73425441 -0.67887441
vn 0.00000000 0.73425441 0.67887441
vn -0.19003903 0.70923530 -0.67887441
vn -0.19003903 0.70923530 0.67887441
vn -0.36712721 0.63588297 -0.67887441
vn -0.36712721 0.63588297 0.67887441
vn -0.51919627 0.51919627 -0.67887441
vn -0.51919627 0.51919627 0.67887441
vn -0.63588297 0.36712721 -0.67887441
vn -0.63588297 0.36712721 0.67887441
vn -0.70923530 0.19003903 -0.67887441
vn -0.70923530 0.19003903 0.67887441
vn -0.73425441 -0.00000000 -0.67887441
vn -0.73425441 -0.00000000 0.67887441
vn -0.70923530 -0.19003903 -0.67887441
vn -0.70923530 -0.19003903 0.67887441
vn -0.63588297 -0.36712721 -0.67887441
vn -0.63588297 -0.36712721 0.67887441
vn -0.51919627 -0.51919627 -0.67887441
vn -0.51919627 -0.51919627 0.67887441
vn -0.36712721 -0.63588297 -0.67887441
vn -0.36712721 -0.63588297 0.67887441
vn -0.19003903 -0.70923530 -0.67887441
vn -0.19003903 -0.70923530 0.67887441
vn 0.00000000 -0.73425441 -0.67887441
vn 0.00000000 -0.73425441 0.67887441
vn 0.19003903 -0.70923530 -0.67887441
vn 0.19003903 -0.70923530 0.67887441
vn 0.36712721 -0.63588297 -0.67887441
vn 0.36712721 -0.63588297 0.67887441
vn 0.51919627 -0.51919627 -0.67887441
vn 0.51919627 -0.51919627 0.67887441
vn 0.63588297 -0.36712721 -0.67887441
vn 0.63588297 -0.36712721 0.67887441
vn 0.70923530 -0.19003903 -0.67887441
vn 0.70923530 -0.19003903 0.67887441
vn 0.00000000 0.00000000 -1.00000000
vn 0.73425441 0.00000000 -0.67887441
vn 0.73425441 0.00000000 0.67887441
vn 0.00000000 0.00000000 1.00000000
vn 0.70923530 0.19003903 -0.67887441
vn 0.70923530 0.19003903 0.67887441
vn 0.63588297 0.36712721 -0.67887441
vn 0.63588297 0.36712721 0.67887441
vn 0.51919627 0.51919627 -0.67887441
vn 0.51919627 0.51919627 0.67887441
vn 0.36712721 0.63588297 -0.67887441
vn 0.36712721 0.63588297 0.67887441
vn 0.19003903 0.70923530 -0.67887441
vn 0.19003903 0.70923530 0.67887441
vn 0.00000000 0.73425441 -0.67887441
vn 0.00000000 0.73425441 0.67887441
vn -0.19003903 0.70923530 -0.67887441
vn -0.19003903 0.70923530 0.67887441
vn -0.36712721 0.63588297 -0.67887441
vn -0.36712721 0.63588297 0.67887441
vn -0.51919627 0.51919627 -0.67887441
vn -0.51919627 0.51919627 0.67887441
vn -0.63588297 0.36712721 -0.67887441
vn -0.63588297 0.36712721 0.67887441
vn -0.70923530 0.19003903 -0.67887441
vn -0.70923530 0.19003903 0.67887441
vn -0.73425441 -0.00000000 -0.67887441
vn -0.73425441 -0.00000000 0.67887441
vn -0.70923530 -0.19003903 -0.67887441
vn -0.70923530 -0.19003903 0.67887441
vn -0.63588297 -0.36712721 -0.67887441
vn -0.63588297 -0.36712721 0.67887441
vn -0.51919627 -0.51919627 -0.67887441
vn -0.51919627 -0.51919627 0.67887441
vn -0.36712721 -0.63588297 -0.67887441
vn -0.36712721 -0.63588297 0.67887441
vn -0.19003903 -0.70923530 -0.67887441
vn -0.19003903 -0.70923530 0.67887441
vn -0.00000000 -0.73425441 -0.67887441
vn -0.00000000 -0.73425441 0.67887441
vn 0.19003903 -0.70923530 -0.67887441
vn 0.19003903 -0.70923530 0.67887441
vn 0.36712721 -0.63588297 -0.67887441
vn 0.36712721 -0.63588297 0.67887441
vn 0.51919627 -0.51919627 -0.67887441
vn 0.51919627 -0.51919627 0.67887441
vn 0.63588297 -0.36712721 -0.67887441
vn 0.63588297 -0.36712721 0.67887441
vn 0.70923530 -0.19003903 -0.67887441
vn 0.70923530 -0.19003903 0.67887441
vn 0.00000000 0.00000000 -1.00000000
vn 0.73425441 0.00000000 -0.67887441
vn 0.73425441 0.00000000 0.67887441
vn 0.00000000 0.00000000 1.00000000
vn 0.70923530 0.19003903 -0.67887441
vn 0.70923530 0.19003903 0.67887441
vn 0.63588297 0.36712721 -0.67887441
vn 0.63588297 0.36712721 0.67887441
vn 0.51919627 0.51919627 -0.67887441
vn 0.51919627 0.51919627 0.67887441
vn 0.36712721 0.63588297 -0.67887441
vn 0.36712721 0.63588297 0.67887441
vn 0.19003903 0.70923530 -0.67887441
vn 0.19003903 0.70923530 0.67887441
vn -0.00000000 0.73425441 -0.67887441
vn 0.00000000 0.73425441 0.67887441
vn -0.19003903 0.70923530 -0.67887441
vn -0.19003903 0.70923530 0.67887441
vn -0.36712721 0.63588297 -0.67887441
vn -0.36712721 0.63588297 0.67887441
vn -0.51919627 0.51919627 -0.67887441
vn -0.51919627 0.51919627 0.67887441
vn -0.63588297 0.36712721 -0.67887441
vn -0.63588297 0.36712721 0.67887441
vn -0.70923530 0.19003903 -0.67887441
vn -0.70923530 0.19003903 0.67887441
vn -0.73425441 -0.00000000 -0.67887441
vn -0.73425441 -0.00000000 0.67887441
vn -0.70923530 -0.19003903 -0.67887441
vn -0.70923530 -0.19003903 0.67887441
vn -0.63588297 -0.36712721 -0.67887441
vn -0.63588297 -0.36712721 0.67887441
vn -0.51919627 -0.51919627 -0.67887441
vn -0.51919627 -0.51919627 0.67887441
vn -0.36712721 -0.63588297 -0.67887441
vn -0.36712721 -0.63588297 0.67887441
vn -0.19003903 -0.70923530 -0.67887441
vn -0.19003903 -0.70923530 0.67887441
vn -0.00000000 -0.73425441 -0.67887441
vn -0.00000000 -0.73425441 0.67887441
vn 0.19003903 -0.70923530 -0.67887441
vn 0.19003903 -0.70923530 0.67887441
vn 0.36712721 -0.63588297 -0.67887441
vn 0.36712721 -0.63588297 0.67887441
vn 0.51919627 -0.51919627 -0.67887441
vn 0.51919627 -0.51919627 0.67887441
vn 0.63588297 -0.36712721 -0.67887441
vn 0.63588297 -0.36712721 0.67887441
vn 0.70923530 -0.19003903 -0.67887441
vn 0.70923530 -0.19003903 0.67887441
vn 0.00000000 0.00000000 -1.00000000
vn 0.73425441 -0.00000000 -0.67887441
vn 0.73425441 -0.00000000 0.67887441
vn 0.00000000 0.00000000 1.00000000
vn 0.70923530 0.19003903 -0.67887441
vn 0.70923530 0.19003903 0.67887441
vn 0.63588297 0.36712721 -0.67887441
vn 0.63588297 0.36712721 0.67887441
vn 0.51919627 0.51919627 -0.67887441
vn 0.51919627 0.51919627 0.67887441
vn 0.36712721 0.63588297 -0.67887441
vn 0.36712721 0.63588297 0.67887441
vn 0.19003903 0.70923530 -0.67887441
vn 0.19003903 0.70923530 0.67887441
vn -0.00000000 0.73425441 -0.67887441
vn -0.00000000 0.73425441 0.67887441
vn -0.19003903 0.70923530 -0.67887441
vn -0.19003903 0.70923530 0.67887441
vn -0.36712721 0.63588297 -0.67887441
vn -0.36712721 0.63588297 0.67887441
vn -0.51919627 0.51919627 -0.67887441
vn -0.51919627 0.51919627 0.67887441
vn -0.63588297 0.36712721 -0.67887441
vn -0.63588297 0.36712721 0.67887441
vn -0.70923530 0.19003903 -0.67887441
vn -0.70923530 0.19003903 0.67887441
vn -0.73425441 0.00000000 -0.67887441
vn -0.73425441 0.00000000 0.67887441
vn -0.70923530 -0.19003903 -0.67887441
vn -0.70923530 -0.19003903 0.67887441
vn -0.63588297 -0.36712721 -0.67887441
vn -0.63588297 -0.36712721 0.67887441
vn -0.51919627 -0.51919627 -0.67887441
vn -0.51919627 -0.51919627 0.67887441
vn -0.36712721 -0.63588297 -0.67887441
vn -0.36712721 -0.63588297 0.67887441
vn -0.19003903 -0.70923530 -0.67887441
vn -0.19003903 -0.70923530 0.67887441
vn 0.00000000 -0.73425441 -0.67887441
vn 0.00000000 -0.73425441 0.67887441
vn 0.19003903 -0.70923530 -0.67887441
vn 0.19003903 -0.70923530 0.67887441
vn 0.36712721 -0.63588297 -0.67887441
vn 0.36712721 -0.63588297 0.67887441
vn 0.51919627 -0.51919627 -0.67887441
vn 0.51919627 -0.51919627 0.67887441
vn 0.63588297 -0.36712721 -0.67887441
vn 0.63588297 -0.36712721 0.67887441
vn 0.70923530 -0.19003903 -0.67887441
vn 0.70923530 -0.19003903 0.67887441
vn 0.00000000 0.00000000 -1.00000000
vn 0.73425441 -0.00000000 -0.67887441
vn 0.73425441 -0.00000000 0.67887441
vn 0.00000000 0.00000000 1.00000000
vn 0.70923530 0.19003903 -0.67887441
vn 0.70923530 0.19003903 0.67887441
vn 0.63588297 0.36712721 -0.67887441
vn 0.63588297 0.36712721 0.67887441
vn 0.51919627 0.51919627 -0.67887441
vn 0.51919627 0.51919627 0.67887441
vn 0.36712721 0.63588297 -0.67887441
vn 0.36712721 0.63588297 0.67887441
vn 0.19003903 0.70923530 -0.67887441
vn 0.19003903 0.70923530 0.67887441
vn 0.00000000 0.73425441 -0.67887441
vn 0.00000000 0.73425441 0.67887441
vn -0.19003903 0.70923530 -0.67887441
vn -0.19003903 0.70923530 0.67887441
vn -0.36712721 0.63588297 -0.67887441
vn -0.36712721 0.63588297 0.67887441
vn -0.51919627 0.51919627 -0.67887441
vn -0.51919627 0.51919627 0.67887441
vn -0.63588297 0.36712721 -0.67887441
vn -0.63588297 0.36712721 0.67887441
vn -0.70923530 0.19003903 -0.67887441
vn -0.70923530 0.19003903 0.67887441
vn -0.73425441 0.00000000 -0.67887441
vn -0.73425441 0.00000000 0.67887441
vn -0.70923530 -0.19003903 -0.67887441
vn -0.70923530 -0.19003903 0.67887441
vn -0.63588297 -0.36712721 -0.67887441
vn -0.63588297 -0.36712721 0.67887441
vn -0.51919627 -0.51919627 -0.67887441
vn -0.51919627 -0.51919627 0.67887441
vn -0.36712721 -0.63588297 -0.67887441
vn -0.36712721 -0.63588297 0.67887441
vn -0.19003903 -0.70923530 -0.67887441
vn -0.19003903 -0.70923530 0.67887441
vn -0.00000000 -0.73425441 -0.67887441
vn -0.00000000 -0.73425441 0.67887441
vn 0.19003903 -0.70923530 -0.67887441
vn 0.19003903 -0.70923530 0.67887441
vn 0.36712721 -0.63588297 -0.67887441
vn 0.36712721 -0.63588297 0.67887441
vn 0.51919627 -0.51919627 -0.67887441
vn 0.51919627 -0.51919627 0.67887441
vn 0.63588297 -0.36712721 -0.67887441
vn 0.63588297 -0.36712721 0.67887441
vn 0.70923530 -0.19003903 -0.67887441
vn 0.70923530 -0.19003903 0.67887441
vn 0.00000000 0.00000000 -1.00000000
vn 0.73425441 -0.00000000 -0.67887441
vn 0.73425441 -0.00000000 0.67887441
vn 0.00000000 0.00000000 1.00000000
vn 0.70923530 0.19003903 -0.67887441
vn 0.70923530 0.19003903 0.67887441
vn 0.63588297 0.36712721 -0.67887441
vn 0.63588297 0.36712721 0.67887441
vn 0.51919627 0.51919627 -0.67887441
vn 0.51919627 0.51919627 0.67887441
vn 0.36712721 0.63588297 -0.67887441
vn 0.36712721 0.63588297 0.67887441
vn 0.19003903 0.70923530 -0.67887441
vn 0.19003903 0.70923530 0.67887441
vn -0.00000000 0.73425441 -0.67887441
vn -0.00000000 0.73425441 0.67887441
vn -0.19003903 0.70923530 -0.67887441
vn -0.19003903 0.70923530 0.67887441
vn -0.36712721 0.63588297 -0.67887441
vn -0.36712721 0.63588297 0.67887441
vn -0.51919627 0.51919627 -0.67887441
vn -0.51919627 0.51919627 0.67887441
vn -0.63588297 0.36712721 -0.67887441
vn -0.63588297 0.36712721 0.67887441
vn -0.70923530 0.19003903 -0.67887441
vn -0.70923530 0.19003903 0.67887441
vn -0.73425441 0.00000000 -0.67887441
vn -0.73425441 0.00000000 0.67887441
vn -0.70923530 -0.19003903 -0.67887441
vn -0.70923530 -0.19003903 0.67887441
vn -0.63588297 -0.36712721 -0.67887441
vn -0.63588297 -0.36712721 0.67887441
vn -0.51919627 -0.51919627 -0.67887441
vn -0.51919627 -0.51919627 0.67887441
vn -0.36712721 -0.63588297 -0.67887441
vn -0.36712721 -0.63588297 0.67887441
vn -0.19003903 -0.70923530 -0.67887441
vn -0.19003903 -0.70923530 0.67887441
vn -0.00000000 -0.73425441 -0.67887441
vn -0.00000000 -0.73425441 0.67887441
vn 0.19003903 -0.70923530 -0.67887441
vn 0.19003903 -0.70923530 0.67887441
vn 0.36712721 -0.63588297 -0.67887441
vn 0.36712721 -0.63588297 0.67887441
vn 0.51919627 -0.51919627 -0.67887441
vn 0.51919627 -0.51919627 0.67887441
vn 0.63588297 -0.36712721 -0.67887441
vn 0.63588297 -0.36712721 0.67887441
vn 0.70923530 -0.19003903 -0.67887441
vn 0.70923530 -0.19003903 0.67887441
vn 0.00000000 0.00000000 -1.00000000
vn 0.73425441 0.00000000 -0.67887441
vn 0.73425441 0.00000000 0.67887441
vn 0.00000000 0.00000000 1.00000000
vn 0.70923530 0.19003903 -0.67887441
vn 0.70923530 0.19003903 0.67887441
vn 0.63588297 0.36712721 -0.67887441
vn 0.63588297 0.36712721 0.67887441
vn 0.51919627 0.51919627 -0.67887441
vn 0.51919627 0.51919627 0.67887441
vn 0.36712721 0.63588297 -0.67887441
vn 0.36712721 0.63588297 0.67887441
vn 0.19003903 0.70923530 -0.67887441
vn 0.19003903 0.70923530 0.67887441
vn -0.00000000 0.73425441 -0.67887441
vn 0.00000000 0.73425441 0.67887441
vn -0.19003903 0.70923530 -0.67887441
vn -0.19003903 0.70923530 0.67887441
vn -0.36712721 0.63588297 -0.67887441
vn -0.36712721 0.63588297 0.67887441
vn -0.51919627 0.51919627 -0.67887441
vn -0.51919627 0.51919627 0.67887441
vn -0.63588297 0.36712721 -0.67887441
vn -0.63588297 0.36712721 0.67887441
vn -0.70923530 0.19003903 -0.67887441
vn -0.70923530 0.19003903 0.67887441
vn -0.73425441 -0.00000000 -0.67887441
vn -0.73425441 -0.00000000 0.67887441
vn -0.70923530 -0.19003903 -0.67887441
vn -0.70923530 -0.19003903 0.67887441
vn -0.63588297 -0.36712721 -0.67887441
vn -0.63588297 -0.36712721 0.67887441
vn -0.51919627 -0.51919627 -0.67887441
vn -0.51919627 -0.51919627 0.67887441
vn -0.36712721 -0.63588297 -0.67887441
vn -0.36712721 -0.63588297 0.67887441
vn -0.19003903 -0.70923530 -0.67887441
vn -0.19003903 -0.70923530 0.67887441
vn 0.00000000 -0.73425441 -0.67887441
vn 0.00000000 -0.73425441 0.67887441
vn 0.19003903 -0.70923530 -0.67887441
vn 0.19003903 -0.70923530 0.67887441
vn 0.36712721 -0.63588297 -0.67887441
vn 0.36712721 -0.63588297 0.67887441
vn 0.51919627 -0.51919627 -0.67887441
vn 0.51919627 -0.51919627 0.67887441
vn 0.63588297 -0.36712721 -0.67887441
vn 0.63588297 -0.36712721 0.67887441
vn 0.70923530 -0.19003903 -0.67887441
vn 0.70923530 -0.19003903 0.67887441
vn 0.00000000 0.00000000 -1.00000000
vn 0.73425441 0.00000000 -0.67887441
vn 0.73425441 0.00000000 0.67887441
vn 0.00000000 0.00000000 1.00000000
vn 0.70923530 0.19003903 -0.67887441
vn 0.70923530 0.19003903 0.67887441
vn 0.63588297 0.36712721 -0.67887441
vn 0.63588297 0.36712721 0.67887441
vn 0.51919627 0.51919627 -0.67887441
vn 0.51919627 0.51919627 0.67887441
vn 0.36712721 0.63588297 -0.67887441
vn 0.36712721 0.63588297 0.67887441
vn 0.19003903 0.70923530 -0.67887441
vn 0.19003903 0.70923530 0.67887441
vn 0.00000000 0.73425441 -0.67887441
vn 0.00000000 0.73425441 0.67887441
vn -0.19003903 0.70923530 -0.67887441
vn -0.19003903 0.70923530 0.67887441
vn -0.36712721 0.63588297 -0.67887441
vn -0.36712721 0.63588297 0.67887441
vn -0.51919627 0.51919627 -0.67887441
vn -0.51919627 0.51919627 0.67887441
vn -0.63588297 0.36712721 -0.67887441
vn -0.63588297 0.36712721 0.67887441
vn -0.70923530 0.19003903 -0.67887441
vn -0.70923530 0.19003903 0.67887441
vn -0.73425441 -0.00000000 -0.67887441
vn -0.73425441 -0.00000000 0.67887441
vn -0.70923530 -0.19003903 -0.67887441
vn -0.70923530 -0.19003903 0.67887441
vn -0.63588297 -0.36712721 -0.67887441
vn -0.63588297 -0.36712721 0.67887441
vn -0.51919627 -0.51919627 -0.67887441
vn -0.51919627 -0.51919627 0.67887441
vn -0.36712721 -0.63588297 -0.67887441
vn -0.36712721 -0.63588297 0.67887441
vn -0.19003903 -0.70923530 -0.67887441
vn -0.19003903 -0.70923530 0.67887441
vn -0.00000000 -0.73425441 -0.67887441
vn -0.00000000 -0.73425441 0.67887441
vn 0.19003903 -0.70923530 -0.67887441
vn 0.19003903 -0.70923530 0.67887441
vn 0.36712721 -0.63588297 -0.67887441
vn 0.36712721 -0.63588297 0.67887441
vn 0.51919627 -0.51919627 -0.67887441
vn 0.51919627 -0.51919627 0.67887441
vn 0.63588297 -0.36712721 -0.67887441
vn 0.63588297 -0.36712721 0.67887441
vn 0.70923530 -0.19003903 -0.67887441
vn 0.70923530 -0.19003903 0.67887441
vn 0.00000000 0.00000000 -1.00000000
vn 0.73425441 0.00000000 -0.67887441
vn 0.73425441 0.00000000 0.67887441
vn 0.00000000 0.00000000 1.00000000
vn 0.70923530 0.19003903 -0.67887441
vn 0.70923530 0.19003903 0.67887441
vn 0.63588297 0.36712721 -0.67887441
vn 0.63588297 0.36712721 0.67887441
vn 0.51919627 0.51919627 -0.67887441
vn 0.51919627 0.51919627 0.67887441
vn 0.36712721 0.63588297 -0.67887441
vn 0.36712721 0.63588297 0.67887441
vn 0.19003903 0.70923530 -0.67887441
vn 0.19003903 0.70923530 0.67887441
vn -0.00000000 0.73425441 -0.67887441
vn 0.00000000 0.73425441 0.67887441
vn -0.19003903 0.70923530 -0.67887441
vn -0.19003903 0.70923530 0.67887441
vn -0.36712721 0.63588297 -0.67887441
vn -0.36712721 0.63588297 0.67887441
vn -0.51919627 0.51919627 -0.67887441
vn -0.51919627 0.51919627 0.67887441
vn -0.63588297 0.36712721 -0.67887441
vn -0.63588297 0.36712721 0.67887441
vn -0.70923530 0.19003903 -0.67887441
vn -0.70923530 0.19003903 0.67887441
vn -0.73425441 -0.00000000 -0.67887441
vn -0.73425441 -0.00000000 0.67887441
vn -0.70923530 -0.19003903 -0.67887441
vn -0.70923530 -0.19003903 0.67887441
vn -0.63588297 -0.36712721 -0.67887441
vn -0.63588297 -0.36712721 0.67887441
vn -0.51919627 -0.51919627 -0.67887441
vn -0.51919627 -0.51919627 0.67887441
vn -0.36712721 -0.63588297 -0.67887441
vn -0.36712721 -0.63588297 0.67887441
vn -0.19003903 -0.70923530 -0.67887441
vn -0.19003903 -0.70923530 0.67887441
vn -0.00000000 -0.73425441 -0.67887441
vn -0.00000000 -0.73425441 0.67887441
vn 0.19003903 -0.70923530 -0.67887441
vn 0.19003903 -0.70923530 0.67887441
vn 0.36712721 -0.63588297 -0.67887441
vn 0.36712721 -0.63588297 0.67887441
vn 0.51919627 -0.51919627 -0.67887441
vn 0.51919627 -0.51919627 0.67887441
vn 0.63588297 -0.36712721 -0.67887441
vn 0.63588297 -0.36712721 0.67887441
vn 0.70923530 -0.19003903 -0.67887441
vn 0.70923530 -0.19003903 0.67887441
f 2//2 4//4 1//1
f 5//5 2//2 1//1
f 1//1 4//4 3//3
f 3//3 5//5 1//1
f 2//2 8//8 4//4
f 6//6 2//2 5//5
f 6//6 8//8 2//2
f 4//4 8//8 3//3
f 7//7 5//5 3//3
f 3//3 8//8 7//7
f 7//7 6//6 5//5
f 8//8 6//6 7//7
f 10//10 9//9 13//13
f 10//10 13//13 11//11
f 11//11 13//13 14//14
f 11//11 14//14 12//12
f 13//13 9//9 15//15
f 13//13 15//15 14//14
f 14//14 15//15 16//16
f 14//14 16//16 12//12
f 15//15 9//9 17//17
f 15//15 17//17 16//16
f 16//16 17//17 18//18
f 16//16 18//18 12//12
f 17//17 9//9 19//19
f 17//17 19//19 18//18
f 18//18 19//19 20//20
f 18//18 20//20 12//12
f 19//19 9//9 21//21
f 19//19 21//21 20//20
f 20//20 21//21 22//22
f 20//20 22//22 12//12
f 21//21 9//9 23//23
f 21//21 23//23 22//22
f 22//22 23//23 24//24
f 22//22 24//24 12//12
f 23//23 9//9 25//25
f 23//23 25//25 24//24
f 24//24 25//25 26//26
f 24//24 26//26 12//12
f 25//25 9//9 27//27
f 25//25 27//27 26//26
f 26//26 27//27 28//28
f 26//26 28//28 12//12
f 27//27 9//9 29//29
f 27//27 29//29 28//28
f 28//28 29//29 30//30
f 28//28 30//30 12//12
f 29//29 9//9 31//31
f 29//29 31//31 30//30
f 30//30 31//31 32//32
f 30//30 32//32 12//12
f 31//31 9//9 33//33
f 31//31 33//33 32//32
f 32//32 33//33 34//34
f 32//32 34//34 12//12
f 33//33 9//9 35//35
f 33//33 35//35 34//34
f 34//34 35//35 36//36
f 34//34 36//36 12//12
f 35//35 9//9 37//37
f 35//35 37//37 36//36
f 36//36 37//37 38//38
f 36//36 38//38 12//12
f 37//37 9//9 39//39
f 37//37 39//39 38//38
f 38//38 39//39 40//40
f 38//38 40//40 12//12
f 39//39 9//9 41//41
f 39//39 41//41 40//40
f 40//40 41//41 42//42
f 40//40 42//42 12//12
f 41//41 9//9 43//43
f 41//41 43//43 42//42
f 42//42 43//43 44//44
f 42//42 44//44 12//12
f 43//43 9//9 45//45
f 43//43 45//45 44//44
f 44//44 45//45 46//46
f 44//44 46//46 12//12
f 45//45 9//9 47//47
f 45//45 47//47 46//46
f 46//46 47//47 48//48
f 46//46 48//48 12//12
f 47//47 9//9 49//49
f 47//47 49//49 48//48
f 48//48 49//49 50//50
f 48//48 50//50 12//12
f 49//49 9//9 51//51
f 49//49 51//51 50//50
f 50//50 51//51 52//52
f 50//50 52//52 12//12
f 51//51 9//9 53//53
f 51//51 53//53 52//52
f 52//52 53//53 54//54
f 52//52 54//54 12//12
f 53//53 9//9 55//55
f 53//53 55//55 54//54
f 54//54 55//55 56//56
f 54//54 56//56 12//12
f 55//55 9//9 57//57
f 55//55 57//57 56//56
f 56//56 57//57 58//58
f 56//56 58//58 12//12
f 57//57 9//9 10//10
f 57//57 10//10 58//58
f 58//58 10//10 11//11
f 58//58 11//11 12//12
f 60//60 59//59 63//63
f 60//60 63//63 61//61
f 61//61 63//63 64//64
f 61//61 64//64 62//62
f 63//63 59//59 65//65
f 63//63 65//65 64//64
f 64//64 65//65 66//66
f 64//64 66//66 62//62
f 65//65 59//59 67//67
f 65//65 67//67 66//66
f 66//66 67//67 68//68
f 66//66 68//68 62//62
f 67//67 59//59 69//69
f 67//67 69//69 68//68
f 68//68 69//69 70//70
f 68//68 70//70 62//62
f 69//69 59//59 71//71
f 69//69 71//71 70//70
f 70//70 71//71 72//72
f 70//70 72//72 62//62
f 71//71 59//59 73//73
f 71//71 73//73 72//72
f 72//72 73//73 74//74
f 72//72 74//74 62//62
f 73//73 59//59 75//75
f 73//73 75//75 74//74
f 74//74 75//75 76//76
f 74//74 76//76 62//62
f 75//75 59//59 77//77
f 75//75 77//77 76//76
f 76//76 77//77 78//78
f 76//76 78//78 62//62
f 77//77 59//59 79//79
f 77//77 79//79 78//78
f 78//78 79//79 80//80
f 78//78 80//80 62//62
f 79//79 59//59 81//81
f 79//79 81//81 80//80
f 80//80 81//81 82//82
f 80//80 82//82 62//62
f 81//81 59//59 83//83
f 81//81 83//83 82//82
f 82//82 83//83 84//84
f 82//82 84//84 62//62
f 83//83 59//59 85//85
f 83//83 85//85 84//84
f 84//84 85//85 86//86
f 84//84 86//86 62//62
f 85//85 59//59 87//87
f 85//85 87//87 86//86
f 86//86 87//87 88//88
f 86//86 88//88 62//62
f 87//87 59//59 89//89
f 87//87 89//89 88//88
f 88//88 89//89 90//90
f 88//88 90//90 62//62
f 89//89 59//59 91//91
f 89//89 91//91 90//90
f 90//90 91//91 92//92
f 90//90 92//92 62//62
f 91//91 59//59 93//93
f 91//91 93//93 92//92
f 92//92 93//93 94//94
f 92//92 94//94 62//62
f 93//93 59//59 95//95
f 93//93 95//95 94//94
f 94//94 95//95 96//96
f 94//94 96//96 62//62
f 95//95 59//59 97//97
f 95//95 97//97 96//96
f 96//96 97//97 98//98
f 96//96 98//98 62//62
f 97//97 59//59 99//99
f 97//97 99//99 98//98
f 98//98 99//99 100//100
f 98//98 100//100 62//62
f 99//99 59//59 101//101
f 99//99 101//101 100//100
f 100//100 101//101 102//102
f 100//100 102//102 62//62
f 101//101 59//59 103//103
f 101//101 103//103 102//102
f 102//102 103//103 104//104
f 102//102 104//104 62//62
f 103//103 59//59 105//105
f 103//103 105//105 104//104
f 104//104 105//105 106//106
f 104//104 106//106 62//62
f 105//105 59//59 107//107
f 105//105 107//107 106//106
f 106//106 107//107 108//108
f 106//106 108//108 62//62
f 107//107 59//59 60//60
f 107//107 60//60 108//108
f 108//108 60//60 61//61
f 108//108 61//61 62//62
f 110//110 109//109 113//113
f 110//110 113//113 111//111
f 111//111 113//113 114//114
f 111//111 114//114 112//112
f 113//113 109//109 115//115
f 113//113 115//115 114//114
f 114//114 115//115 116//116
f 114//114 116//116 112//112
f 115//115 109//109 117//117
f 115//115 117//117 116//116
f 116//116 117//117 118//118
f 116//116 118//118 112//112
f 117//117 109//109 119//119
f 117//117 119//119 118//118
f 118//118 119//119 120//120
f 118//118 120//120 112//112
f 119//119 109//109 121//121
f 119//119 121//121 120//120
f 120//120 121//121 122//122
f 120//120 122//122 112//112
f 121//121 109//109 123//123
f 121//121 123//123 122//122
f 122//122 123//123 124//124
f 122//122 124//124 112//112
f 123//123 109//109 125//125
f 123//123 125//125 124//124
f 124//124 125//125 126//126
f 124//124 126//126 112//112
f 125//125 109//109 127//127
f 125//125 127//127 126//126
f 126//126 127//127 128//128
f 126//126 128//128 112//112
f 127//127 109//109 129//129
f 127//127 129//129 128//128
f 128//128 129//129 130//130
f 128//128 130//130 112//112
f 129//129 109//109 131//131
f 129//129 131//131 130//130
f 130//130 131//131 132//132
f 130//130 132//132 112//112
f 131//131 109//109 133//133
f 131//131 133//133 132//132
f 132//132 133//133 134//134
f 132//132 134//134 112//112
f 133//133 109//109 135//135
f 133//133 135//135 134//134
f 134//134 135//135 136//136
f 134//134 136//136 112//112
f 135//135 109//109 137//137
f 135//135 137//137 136//136
f 136//136 137//137 138//138
f 136//136 138//138 112//112
f 137//137 109//109 139//139
f 137//137 139//139 138//138
f 138//138 139//139 140//140
f 138//138 140//140 112//112
f 139//139 109//109 141//141
f 139//139 141//141 140//140
f 140//140 141//141 142//142
f 140//140 142//142 112//112
f 141//141 109//109 143//143
f 141//141 143//143 142//142
f 142//142 143//143 144//144
f 142//142 144//144 112//112
f 143//143 109//109 145//145
f 143//143 145//145 144//144
f 144//144 145//145 146//146
f 144//144 146//146 112//112
f 145//145 109//109 147//147
f 145//145 147//147 146//146
f 146//146 147//147 148//148
f 146//146 148//148 112//112
f 147//147 109//109 149//149
f 147//147 149//149 148//148
f 148//148 149//149 150//150
f 148//148 150//150 112//112
f 149//149 109//109 151//151
f 149//149 151//151 150//150
f 150//150 151//151 152//152
f 150//150 152//152 112//112
f 151//151 109//109 153//153
f 151//151 153//153 152//152
f 152//152 153//153 154//154
f 152//152 154//154 112//112
f 153//153 109//109 155//155
f 153//153 155//155 154//154
f 154//154 155//155 156//156
f 154//154 156//156 112//112
f 155//155 109//109 157//157
f 155//155 157//157 156//156
f 156//156 157//157 158//158
f 156//156 158//158 112//112
f 157//157 109//109 110//110
f 157//157 110//110 158//158
f 158//158 110//110 111//111
f 158//158 111//111 112//112
f 160//160 159//159 163//163
f 160//160 163//163 161//161
f 161//161 163//163 164//164
f 161//161 164//164 162//162
f 163//163 159//159 165//165
f 163//163 165//165 164//164
f 164//164 165//165 166//166
f 164//164 166//166 162//162
f 165//165 159//159 167//167
f 165//165 167//167 166//166
f 166//166 167//167 168//168
f 166//166 168//168 162//162
f 167//167 159//159 169//169
f 167//167 169//169 168//168
f 168//168 169//169 170//170
f 168//168 170//170 162//162
f 169//169 159//159 171//171
f 169//169 171//171 170//170
f 170//170 171//171 172//172
f 170//170 172//172 162//162
f 171//171 159//159 173//173
f 171//171 173//173 172//172
f 172//172 173//173 174//174
f 172//172 174//174 162//162
f 173//173 159//159 175//175
f 173//173 175//175 174//174
f 174//174 175//175 176//176
f 174//174 176//176 162//162
f 175//175 159//159 177//177
f 175//175 177//177 176//176
f 176//176 177//177 178//178
f 176//176 178//178 162//162
f 177//177 159//159 179//179
f 177//177 179//179 178//178
f 178//178 179//179 180//180
f 178//178 180//180 162//162
f 179//179 159//159 181//181
f 179//179 181//181 180//180
f 180//180 181//181 182//182
f 180//180 182//182 162//162
f 181//181 159//159 183//183
f 181//181 183//183 182//182
f 182//182 183//183 184//184
f 182//182 184//184 162//162
f 183//183 159//159 185//185
f 183//183 185//185 184//184
f 184//184 185//185 186//186
f 184//184 186//186 162//162
f 185//185 159//159 187//187
f 185//185 187//187 186//186
f 186//186 187//187 188//188
f 186//186 188//188 162//162
f 187//187 159//159 189//189
f 187//187 189//189 188//188
f 188//188 189//189 190//190
f 188//188 190//190 162//162
f 189//189 159//159 191//191
f 189//189 191//191 190//190
f 190//190 191//191 192//192
f 190//190 192//192 162//162
f 191//191 159//159 193//193
f 191//191 193//193 192//192
f 192//192 193//193 194//194
f 192//192 194//194 162//162
f 193//193 159//159 195//195
f 193//193 195//195 194//194
f 194//194 195//195 196//196
f 194//194 196//196 162//162
f 195//195 159//159 197//197
f 195//195 197//197 196//196
f 196//196 197//197 198//198
f 196//196 198//198 162//162
f 197//197 159//159 199//199
f 197//197 199//199 198//198
f 198//198 199//199 200//200
f 198//198 200//200 162//162
f 199//199 159//159 201//201
f 199//199 201//201 200//200
f 200//200 201//201 202//202
f 200//200 202//202 162//162
f 201//201 159//159 203//203
f 201//201 203//203 202//202
f 202//202 203//203 204//204
f 202//202 204//204 162//162
f 203//203 159//159 205//205
f 203//203 205//205 204//204
f 204//204 205//205 206//206
f 204//204 206//206 162//162
f 205//205 159//159 207//207
f 205//205 207//207 206//206
f 206//206 207//207 208//208
f 206//206 208//208 162//162
f 207//207 159//159 160//160
f 207//207 160//160 208//208
f 208//208 160//160 161//161
f 208//208 161//161 162//162
f 210//210 209//209 213//213
f 210//210 213//213 211//211
f 211//211 213//213 214//214
f 211//211 214//214 212//212
f 213//213 209//209 215//215
f 213//213 215//215 214//214
f 214//214 215//215 216//216
f 214//214 216//216 212//212
f 215//215 209//209 217//217
f 215//215 217//217 216//216
f 216//216 217//217 218//218
f 216//216 218//218 212//212
f 217//217 209//209 219//219
f 217//217 219//219 218//218
f 218//218 219//219 220//220
f 218//218 220//220 212//212
f 219//219 209//209 221//221
f 219//219 221//221 220//220
f 220//220 221//221 222//222
f 220//220 222//222 212//212
f 221//221 209//209 223//223
f 221//221 223//223 222//222
f 222//222 223//223 224//224
f 222//222 224//224 212//212
f 223//223 209//209 225//225
f 223//223 225//225 224//224
f 224//224 225//225 226//226
f 224//224 226//226 212//212
f 225//225 209//209 227//227
f 225//225 227//227 226//226
f 226//226 227//227 228//228
f 226//226 228//228 212//212
f 227//227 209//209 229//229
f 227//227 229//229 228//228
f 228//228 229//229 230//230
f 228//228 230//230 212//212
f 229//229 209//209 231//231
f 229//229 231//231 230//230
f 230//230 231//231 232//232
f 230//230 232//232 212//212
f 231//231 209//209 233//233
f 231//231 233//233 232//232
f 232//232 233//233 234//234
f 232//232 234//234 212//212
f 233//233 209//209 235//235
f 233//233 235//235 234//234
f 234//234 235//235 236//236
f 234//234 236//236 212//212
f 235//235 209//209 237//237
f 235//235 237//237 236//236
f 236//236 237//237 238//238
f 236//236 238//238 212//212
f 237//237 209//209 239//239
f 237//237 239//239 238//238
f 238//238 239//239 240//240
f 238//238 240//240 212//212
f 239//239 209//209 241//241
f 239//239 241//241 240//240
f 240//240 241//241 242//242
f 240//240 242//242 212//212
f 241//241 209//209 243//243
f 241//241 243//243 242//242
f 242//242 243//243 244//244
f 242//242 244//244 212//212
f 243//243 209//209 245//245
f 243//243 245//245 244//244
f 244//244 245//245 246//246
f 244//244 246//246 212//212
f 245//245 209//209 247//247
f 245//245 247//247 246//246
f 246//246 247//247 248//248
f 246//246 248//248 212//212
f 247//247 209//209 249//249
f 247//247 249//249 248//248
f 248//248 249//249 250//250
f 248//248 250//250 212//212
f 249//249 209//209 251//251
f 249//249 251//251 250//250
f 250//250 251//251 252//252
f 250//250 252//252 212//212
f 251//251 209//209 253//253
f 251//251 253//253 252//252
f 252//252 253//253 254//254
f 252//252 254//254 212//212
f 253//253 209//209 255//255
f 253//253 255//255 254//254
f 254//254 255//255 256//256
f 254//254 256//256 212//212
f 255//255 209//209 257//257
f 255//255 257//257 256//256
f 256//256 257//257 258//258
f 256//256 258//258 212//212
f 257//257 209//209 210//210
f 257//257 210//210 258//258
f 258//258 210//210 211//211
f 258//258 211//211 212//212
f 260//260 259//259 263//263
f 260//260 263//263 261//261
f 261//261 263//263 264//264
f 261//261 264//264 262//262
f 263//263 259//259 265//265
f 263//263 265//265 264//264
f 264//264 265//265 266//266
f 264//264 266//266 262//262
f 265//265 259//259 267//267
f 265//265 267//267 266//266
f 266//266 267//267 268//268
f 266//266 268//268 262//262
f 267//267 259//259 269//269
f 267//267 269//269 268//268
f 268//268 269//269 270//270
f 268//268 270//270 262//262
f 269//269 259//259 271//271
f 269//269 271//271 270//270
f 270//270 271//271 272//272
f 270//270 272//272 262//262
f 271//271 259//259 273//273
f 271//271 273//273 272//272
f 272//272 273//273 274//274
f 272//272 274//274 262//262
f 273//273 259//259 275//275
f 273//273 275//275 274//274
f 274//274 275//275 276//276
f 274//274 276//276 262//262
f 275//275 259//259 277//277
f 275//275 277//277 276//276
f 276//276 277//277 278//278
f 276//276 278//278 262//262
f 277//277 259//259 279//279
f 277//277 279//279 278//278
f 278//278 279//279 280//280
f 278//278 280//280 262//262
f 279//279 259//259 281//281
f 279//279 281//281 280//280
f 280//280 281//281 282//282
f 280//280 282//282 262//262
f 281//281 259//259 283//283
f 281//281 283//283 282//282
f 282//282 283//283 284//284
f 282//282 284//284 262//262
f 283//283 259//259 285//285
f 283//283 285//285 284//284
f 284//284 285//285 286//286
f 284//284 286//286 262//262
f 285//285 259//259 287//287
f 285//285 287//287 286//286
f 286//286 287//287 288//288
f 286//286 288//288 262//262
f 287//287 259//259 289//289
f 287//287 289//289 288//288
f 288//288 289//289 290//290
f 288//288 290//290 262//262
f 289//289 259//259 291//291
f 289//289 291//291 290//290
f 290//290 291//291 292//292
f 290//290 292//292 262//262
f 291//291 259//259 293//293
f 291//291 293//293 292//292
f 292//292 293//293 294//294
f 292//292 294//294 262//262
f 293//293 259//259 295//295
f 293//293 295//295 294//294
f 294//294 295//295 296//296
f 294//294 296//296 262//262
f 295//295 259//259 297//297
f 295//295 297//297 296//296
f 296//296 297//297 298//298
f 296//296 298//298 262//262
f 297//297 259//259 299//299
f 297//297 299//299 298//298
f 298//298 299//299 300//300
f 298//298 300//300 262//262
f 299//299 259//259 301//301
f 299//299 301//301 300//300
f 300//300 301//301 302//302
f 300//300 302//302 262//262
f 301//301 259//259 303//303
f 301//301 303//303 302//302
f 302//302 303//303 304//304
f 302//302 304//304 262//262
f 303//303 259//259 305//305
f 303//303 305//305 304//304
f 304//304 305//305 306//306
f 304//304 306//306 262//262
f 305//305 259//259 307//307
f 305//305 307//307 306//306
f 306//306 307//307 308//308
f 306//306 308//308 262//262
f 307//307 259//259 260//260
f 307//307 260//260 308//308
f 308//308 260//260 261//261
f 308//308 261//261 262//262
f 310//310 309//309 313//313
f 310//310 313//313 311//311
f 311//311 313//313 314//314
f 311//311 314//314 312//312
f 313//313 309//309 315//315
f 313//313 315//315 314//314
f 314//314 315//315 316//316
f 314//314 316//316 312//312
f 315//315 309//309 317//317
f 315//315 317//317 316//316
f 316//316 317//317 318//318
f 316//316 318//318 312//312
f 317//317 309//309 319//319
f 317//317 319//319 318//318
f 318//318 319//319 320//320
f 318//318 320//320 312//312
f 319//319 309//309 321//321
f 319//319 321//321 320//320
f 320//320 321//321 322//322
f 320//320 322//322 312//312
f 321//321 309//309 323//323
f 321//321 323//323 322//322
f 322//322 323//323 324//324
f 322//322 324//324 312//312
f 323//323 309//309 325//325
f 323//323 325//325 324//324
f 324//324 325//325 326//326
f 324//324 326//326 312//312
f 325//325 309//309 327//327
f 325//325 327//327 326//326
f 326//326 327//327 328//328
f 326//326 328//328 312//312
f 327//327 309//309 329//329
f 327//327 329//329 328//328
f 328//328 329//329 330//330
f 328//328 330//330 312//312
f 329//329 309//309 331//331
f 329//329 331//331 330//330
f 330//330 331//331 332//332
f 330//330 332//332 312//312
f 331//331 309//309 333//333
f 331//331 333//333 332//332
f 332//332 333//333 334//334
f 332//332 334//334 312//312
f 333//333 309//309 335//335
f 333//333 335//335 334//334
f 334//334 335//335 336//336
f 334//334 336//336 312//312
f 335//335 309//309 337//337
f 335//335 337//337 336//336
f 336//336 337//337 338//338
f 336//336 338//338 312//312
f 337//337 309//309 339//339
f 337//337 339//339 338//338
f 338//338 339//339 340//340
f 338//338 340//340 312//312
f 339//339 309//309 341//341
f 339//339 341//341 340//340
f 340//340 341//341 342//342
f 340//340 342//342 312//312
f 341//341 309//309 343//343
f 341//341 343//343 342//342
f 342//342 343//343 344//344
f 342//342 344//344 312//312
f 343//343 309//309 345//345
f 343//343 345//345 344//344
f 344//344 345//345 346//346
f 344//344 346//346 312//312
f 345//345 309//309 347//347
f 345//345 347//347 346//346
f 346//346 347//347 348//348
f 346//346 348//348 312//312
f 347//347 309//309 349//349
f 347//347 349//349 348//348
f 348//348 349//349 350//350
f 348//348 350//350 312//312
f 349//349 309//309 351//351
f 349//349 351//351 350//350
f 350//350 351//351 352//352
f 350//350 352//352 312//312
f 351//351 309//309 353//353
f 351//351 353//353 352//352
f 352//352 353//353 354//354
f 352//352 354//354 312//312
f 353//353 309//309 355//355
f 353//353 355//355 354//354
f 354//354 355//355 356//356
f 354//354 356//356 312//312
f 355//355 309//309 357//357
f 355//355 357//357 356//356
f 356//356 357//357 358//358
f 356//356 358//358 312//312
f 357//357 309//309 310//310
f 357//357 310//310 358//358
f 358//358 310//310 311//311
f 358//358 311//311 312//312
f 360//360 359//359 363//363
f 360//360 363//363 361//361
f 361//361 363//363 364//364
f 361//361 364//364 362//362
f 363//363 359//359 365//365
f 363//363 365//365 364//364
f 364//364 365//365 366//366
f 364//364 366//366 362//362
f 365//365 359//359 367//367
f 365//365 367//367 366//366
f 366//366 367//367 368//368
f 366//366 368//368 362//362
f 367//367 359//359 369//369
f 367//367 369//369 368//368
f 368//368 369//369 370//370
f 368//368 370//370 362//362
f 369//369 359//359 371//371
f 369//369 371//371 370//370
f 370//370 371//371 372//372
f 370//370 372//372 362//362
f 371//371 359//359 373//373
f 371//371 373//373 372//372
f 372//372 373//373 374//374
f 372//372 374//374 362//362
f 373//373 359//359 375//375
f 373//373 375//375 374//374
f 374//374 375//375 376//376
f 374//374 376//376 362//362
f 375//375 359//359 377//377
f 375//375 377//377 376//376
f 376//376 377//377 378//378
f 376//376 378//378 362//362
f 377//377 359//359 379//379
f 377//377 379//379 378//378
f 378//378 379//379 380//380
f 378//378 380//380 362//362
f 379//379 359//359 381//381
f 379//379 381//381 380//380
f 380//380 381//381 382//382
f 380//380 382//382 362//362
f 381//381 359//359 383//383
f 381//381 383//383 382//382
f 382//382 383//383 384//384
f 382//382 384//384 362//362
f 383//383 359//359 385//385
f 383//383 385//385 384//384
f 384//384 385//385 386//386
f 384//384 386//386 362//362
f 385//385 359//359 387//387
f 385//385 387//387 386//386
f 386//386 387//387 388//388
f 386//386 388//388 362//362
f 387//387 359//359 389//389
f 387//387 389//389 388//388
f 388//388 389//389 390//390
f 388//388 390//390 362//362
f 389//389 359//359 391//391
f 389//389 391//391 390//390
f 390//390 391//391 392//392
f 390//390 392//392 362//362
f 391//391 359//359 393//393
f 391//391 393//393 392//392
f 392//392 393//393 394//394
f 392//392 394//394 362//362
f 393//393 359//359 395//395
f 393//393 395//395 394//394
f 394//394 395//395 396//396
f 394//394 396//396 362//362
f 395//395 359//359 397//397
f 395//395 397//397 396//396
f 396//396 397//397 398//398
f 396//396 398//398 362//362
f 397//397 359//359 399//399
f 397//397 399//399 398//398
f 398//398 399//399 400//400
f 398//398 400//400 362//362
f 399//399 359//359 401//401
f 399//399 401//401 400//400
f 400//400 401//401 402//402
f 400//400 402//402 362//362
f 401//401 359//359 403//403
f 401//401 403//403 402//402
f 402//402 403//403 404//404
f 402//402 404//404 362//362
f 403//403 359//359 405//405
f 403//403 405//405 404//404
f 404//404 405//405 406//406
f 404//404 406//406 362//362
f 405//405 359//359 407//407
f 405//405 407//407 406//406
f 406//406 407//407 408//408
f 406//406 408//408 362//362
f 407//407 359//359 360//360
f 407//407 360//360 408//408
f 408//408 360//360 361//361
f 408//408 361//361 362//362
f 410//410 409//409 413//413
f 410//410 413//413 411//411
f 411//411 413//413 414//414
f 411//411 414//414 412//412
f 413//413 409//409 415//415
f 413//413 415//415 414//414
f 414//414 415//415 416//416
f 414//414 416//416 412//412
f 415//415 409//409 417//417
f 415//415 417//417 416//416
f 416//416 417//417 418//418
f 416//416 418//418 412//412
f 417//417 409//409 419//419
f 417//417 419//419 418//418
f 418//418 419//419 420//420
f 418//418 420//420 412//412
f 419//419 409//409 421//421
f 419//419 421//421 420//420
f 420//420 421//421 422//422
f 420//420 422//422 412//412
f 421//421 409//409 423//423
f 421//421 423//423 422//422
f 422//422 423//423 424//424
f 422//422 424//424 412//412
f 423//423 409//409 425//425
f 423//423 425//425 424//424
f 424//424 425//425 426//426
f 424//424 426//426 412//412
f 425//425 409//409 427//427
f 425//425 427//427 426//426
f 426//426 427//427 428//428
f 426//426 428//428 412//412
f 427//427 409//409 429//429
f 427//427 429//429 428//428
f 428//428 429//429 430//430
f 428//428 430//430 412//412
f 429//429 409//409 431//431
f 429//429 431//431 430//430
f 430//430 431//431 432//432
f 430//430 432//432 412//412
f 431//431 409//409 433//433
f 431//431 433//433 432//432
f 432//432 433//433 434//434
f 432//432 434//434 412//412
f 433//433 409//409 435//435
f 433//433 435//435 434//434
f 434//434 435//435 436//436
f 434//434 436//436 412//412
f 435//435 409//409 437//437
f 435//435 437//437 436//436
f 436//436 437//437 438//438
f 436//436 438//438 412//412
f 437//437 409//409 439//439
f 437//437 439//439 438//438
f 438//438 439//439 440//440
f 438//438 440//440 412//412
f 439//439 409//409 441//441
f 439//439 441//441 440//440
f 440//440 441//441 442//442
f 440//440 442//442 412//412
f 441//441 409//409 443//443
f 441//441 443//443 442//442
f 442//442 443//443 444//444
f 442//442 444//444 412//412
f 443//443 409//409 445//445
f 443//443 445//445 444//444
f 444//444 445//445 446//446
f 444//444 446//446 412//412
f 445//445 409//409 447//447
f 445//445 447//447 446//446
f 446//446 447//447 448//448
f 446//446 448//448 412//412
f 447//447 409//409 449//449
f 447//447 449//449 448//448
f 448//448 449//449 450//450
f 448//448 450//450 412//412
f 449//449 409//409 451//451
f 449//449 451//451 450//450
f 450//450 451//451 452//452
f 450//450 452//452 412//412
f 451//451 409//409 453//453
f 451//451 453//453 452//452
f 452//452 453//453 454//454
f 452//452 454//454 412//412
f 453//453 409//409 455//455
f 453//453 455//455 454//454
f 454//454 455//455 456//456
f 454//454 456//456 412//412
f 455//455 409//409 457//457
f 455//455 457//457 456//456
f 456//456 457//457 458//458
f 456//456 458//458 412//412
f 457//457 409//409 410//410
f 457//457 410//410 458//458
f 458//458 410//410 411//411
f 458//458 411//411 412//412
