# https://github.com/mikedh/trimesh
v -2.75000000 -1.60000000 -1.15000000
v -2.75000000 -1.60000000 -0.85000000
v -2.75000000 1.60000000 -1.15000000
v -2.75000000 1.60000000 -0.85000000
v 2.75000000 -1.60000000 -1.15000000
v 2.75000000 -1.60000000 -0.85000000
v 2.75000000 1.60000000 -1.15000000
v 2.75000000 1.60000000 -0.85000000
v -1.80000000 0.00000000 -1.00000000
v -1.30000000 0.00000000 -1.00000000
v -1.30000000 0.00000000 1.00000000
v -1.80000000 0.00000000 1.00000000
v -1.31703709 0.12940952 -1.00000000
v -1.31703709 0.12940952 1.00000000
v -1.36698730 0.25000000 -1.00000000
v -1.36698730 0.25000000 1.00000000
v -1.44644661 0.35355339 -1.00000000
v -1.44644661 0.35355339 1.00000000
v -1.55000000 0.43301270 -1.00000000
v -1.55000000 0.43301270 1.00000000
v -1.67059048 0.48296291 -1.00000000
v -1.67059048 0.48296291 1.00000000
v -1.80000000 0.50000000 -1.00000000
v -1.80000000 0.50000000 1.00000000
v -1.92940952 0.48296291 -1.00000000
v -1.92940952 0.48296291 1.00000000
v -2.05000000 0.43301270 -1.00000000
v -2.05000000 0.43301270 1.00000000
v -2.15355339 0.35355339 -1.00000000
v -2.15355339 0.35355339 1.00000000
v -2.23301270 0.25000000 -1.00000000
v -2.23301270 0.25000000 1.00000000
v -2.28296291 0.12940952 -1.00000000
v -2.28296291 0.12940952 1.00000000
v -2.30000000 0.00000000 -1.00000000
v -2.30000000 0.00000000 1.00000000
v -2.28296291 -0.12940952 -1.00000000
v -2.28296291 -0.12940952 1.00000000
v -2.23301270 -0.25000000 -1.00000000
v -2.23301270 -0.25000000 1.00000000
v -2.15355339 -0.35355339 -1.00000000
v -2.15355339 -0.35355339 1.00000000
v -2.05000000 -0.43301270 -1.00000000
v -2.05000000 -0.43301270 1.00000000
v -1.92940952 -0.48296291 -1.00000000
v -1.92940952 -0.48296291 1.00000000
v -1.80000000 -0.50000000 -1.00000000
v -1.80000000 -0.50000000 1.00000000
v -1.67059048 -0.48296291 -1.00000000
v -1.67059048 -0.48296291 1.00000000
v -1.55000000 -0.43301270 -1.00000000
v -1.55000000 -0.43301270 1.00000000
v -1.44644661 -0.35355339 -1.00000000
v -1.44644661 -0.35355339 1.00000000
v -1.36698730 -0.25000000 -1.00000000
v -1.36698730 -0.25000000 1.00000000
v -1.31703709 -0.12940952 -1.00000000
v -1.31703709 -0.12940952 1.00000000
v -0.60000000 0.00000000 -1.00000000
v -0.10000000 0.00000000 -1.00000000
v -0.10000000 0.00000000 1.00000000
v -0.60000000 0.00000000 1.00000000
v -0.11703709 0.12940952 -1.00000000
v -0.11703709 0.12940952 1.00000000
v -0.16698730 0.25000000 -1.00000000
v -0.16698730 0.25000000 1.00000000
v -0.24644661 0.35355339 -1.00000000
v -0.24644661 0.35355339 1.00000000
v -0.35000000 0.43301270 -1.00000000
v -0.35000000 0.43301270 1.00000000
v -0.47059048 0.48296291 -1.00000000
v -0.47059048 0.48296291 1.00000000
v -0.60000000 0.50000000 -1.00000000
v -0.60000000 0.50000000 1.00000000
v -0.72940952 0.48296291 -1.00000000
v -0.72940952 0.48296291 1.00000000
v -0.85000000 0.43301270 -1.00000000
v -0.85000000 0.43301270 1.00000000
v -0.95355339 0.35355339 -1.00000000
v -0.95355339 0.35355339 1.00000000
v -1.03301270 0.25000000 -1.00000000
v -1.03301270 0.25000000 1.00000000
v -1.08296291 0.12940952 -1.00000000
v -1.08296291 0.12940952 1.00000000
v -1.10000000 0.00000000 -1.00000000
v -1.10000000 0.00000000 1.00000000
v -1.08296291 -0.12940952 -1.00000000
v -1.08296291 -0.12940952 1.00000000
v -1.03301270 -0.25000000 -1.00000000
v -1.03301270 -0.25000000 1.00000000
v -0.95355339 -0.35355339 -1.00000000
v -0.95355339 -0.35355339 1.00000000
v -0.85000000 -0.43301270 -1.00000000
v -0.85000000 -0.43301270 1.00000000
v -0.72940952 -0.48296291 -1.00000000
v -0.72940952 -0.48296291 1.00000000
v -0.60000000 -0.50000000 -1.00000000
v -0.60000000 -0.50000000 1.00000000
v -0.47059048 -0.48296291 -1.00000000
v -0.47059048 -0.48296291 1.00000000
v -0.35000000 -0.43301270 -1.00000000
v -0.35000000 -0.43301270 1.00000000
v -0.24644661 -0.35355339 -1.00000000
v -0.24644661 -0.35355339 1.00000000
v -0.16698730 -0.25000000 -1.00000000
v -0.16698730 -0.25000000 1.00000000
v -0.11703709 -0.12940952 -1.00000000
v -0.11703709 -0.12940952 1.00000000
v 0.60000000 0.00000000 -1.00000000
v 1.10000000 0.00000000 -1.00000000
v 1.10000000 0.00000000 1.00000000
v 0.60000000 0.00000000 1.00000000
v 1.08296291 0.12940952 -1.00000000
v 1.08296291 0.12940952 1.00000000
v 1.03301270 0.25000000 -1.00000000
v 1.03301270 0.25000000 1.00000000
v 0.95355339 0.35355339 -1.00000000
v 0.95355339 0.35355339 1.00000000
v 0.85000000 0.43301270 -1.00000000
v 0.85000000 0.43301270 1.00000000
v 0.72940952 0.48296291 -1.00000000
v 0.72940952 0.48296291 1.00000000
v 0.60000000 0.50000000 -1.00000000
v 0.60000000 0.50000000 1.00000000
v 0.47059048 0.48296291 -1.00000000
v 0.47059048 0.48296291 1.00000000
v 0.35000000 0.43301270 -1.00000000
v 0.35000000 0.43301270 1.00000000
v 0.24644661 0.35355339 -1.00000000
v 0.24644661 0.35355339 1.00000000
v 0.16698730 0.25000000 -1.00000000
v 0.16698730 0.25000000 1.00000000
v 0.11703709 0.12940952 -1.00000000
v 0.11703709 0.12940952 1.00000000
v 0.10000000 0.00000000 -1.00000000
v 0.10000000 0.00000000 1.00000000
v 0.11703709 -0.12940952 -1.00000000
v 0.11703709 -0.12940952 1.00000000
v 0.16698730 -0.25000000 -1.00000000
v 0.16698730 -0.25000000 1.00000000
v 0.24644661 -0.35355339 -1.00000000
v 0.24644661 -0.35355339 1.00000000
v 0.35000000 -0.43301270 -1.00000000
v 0.35000000 -0.43301270 1.00000000
v 0.47059048 -0.48296291 -1.00000000
v 0.47059048 -0.48296291 1.00000000
v 0.60000000 -0.50000000 -1.00000000
v 0.60000000 -0.50000000 1.00000000
v 0.72940952 -0.48296291 -1.00000000
v 0.72940952 -0.48296291 1.00000000
v 0.85000000 -0.43301270 -1.00000000
v 0.85000000 -0.43301270 1.00000000
v 0.95355339 -0.35355339 -1.00000000
v 0.95355339 -0.35355339 1.00000000
v 1.03301270 -0.25000000 -1.00000000
v 1.03301270 -0.25000000 1.00000000
v 1.08296291 -0.12940952 -1.00000000
v 1.08296291 -0.12940952 1.00000000
v 1.80000000 0.00000000 -1.00000000
v 2.30000000 0.00000000 -1.00000000
v 2.30000000 0.00000000 1.00000000
v 1.80000000 0.00000000 1.00000000
v 2.28296291 0.12940952 -1.00000000
v 2.28296291 0.12940952 1.00000000
v 2.23301270 0.25000000 -1.00000000
v 2.23301270 0.25000000 1.00000000
v 2.15355339 0.35355339 -1.00000000
v 2.15355339 0.35355339 1.00000000
v 2.05000000 0.43301270 -1.00000000
v 2.05000000 0.43301270 1.00000000
v 1.92940952 0.48296291 -1.00000000
v 1.92940952 0.48296291 1.00000000
v 1.80000000 0.50000000 -1.00000000
v 1.80000000 0.50000000 1.00000000
v 1.67059048 0.48296291 -1.00000000
v 1.67059048 0.48296291 1.00000000
v 1.55000000 0.43301270 -1.00000000
v 1.55000000 0.43301270 1.00000000
v 1.44644661 0.35355339 -1.00000000
v 1.44644661 0.35355339 1.00000000
v 1.36698730 0.25000000 -1.00000000
v 1.36698730 0.25000000 1.00000000
v 1.31703709 0.12940952 -1.00000000
v 1.31703709 0.12940952 1.00000000
v 1.30000000 0.00000000 -1.00000000
v 1.30000000 0.00000000 1.00000000
v 1.31703709 -0.12940952 -1.00000000
v 1.31703709 -0.12940952 1.00000000
v 1.36698730 -0.25000000 -1.00000000
v 1.36698730 -0.25000000 1.00000000
v 1.44644661 -0.35355339 -1.00000000
v 1.44644661 -0.35355339 1.00000000
v 1.55000000 -0.43301270 -1.00000000
v 1.55000000 -0.43301270 1.00000000
v 1.67059048 -0.48296291 -1.00000000
v 1.67059048 -0.48296291 1.00000000
v 1.80000000 -0.50000000 -1.00000000
v 1.80000000 -0.50000000 1.00000000
v 1.92940952 -0.48296291 -1.00000000
v 1.92940952 -0.48296291 1.00000000
v 2.05000000 -0.43301270 -1.00000000
v 2.05000000 -0.43301270 1.00000000
v 2.15355339 -0.35355339 -1.00000000
v 2.15355339 -0.35355339 1.00000000
v 2.23301270 -0.25000000 -1.00000000
v 2.23301270 -0.25000000 1.00000000
v 2.28296291 -0.12940952 -1.00000000
v 2.28296291 -0.12940952 1.00000000
f 2 4 1
f 5 2 1
f 1 4 3
f 3 5 1
f 2 8 4
f 6 2 5
f 6 8 2
f 4 8 3
f 7 5 3
f 3 8 7
f 7 6 5
f 8 6 7
f 10 9 13
f 10 13 11
f 11 13 14
f 11 14 12
f 13 9 15
f 13 15 14
f 14 15 16
f 14 16 12
f 15 9 17
f 15 17 16
f 16 17 18
f 16 18 12
f 17 9 19
f 17 19 18
f 18 19 20
f 18 20 12
f 19 9 21
f 19 21 20
f 20 21 22
f 20 22 12
f 21 9 23
f 21 23 22
f 22 23 24
f 22 24 12
f 23 9 25
f 23 25 24
f 24 25 26
f 24 26 12
f 25 9 27
f 25 27 26
f 26 27 28
f 26 28 12
f 27 9 29
f 27 29 28
f 28 29 30
f 28 30 12
f 29 9 31
f 29 31 30
f 30 31 32
f 30 32 12
f 31 9 33
f 31 33 32
f 32 33 34
f 32 34 12
f 33 9 35
f 33 35 34
f 34 35 36
f 34 36 12
f 35 9 37
f 35 37 36
f 36 37 38
f 36 38 12
f 37 9 39
f 37 39 38
f 38 39 40
f 38 40 12
f 39 9 41
f 39 41 40
f 40 41 42
f 40 42 12
f 41 9 43
f 41 43 42
f 42 43 44
f 42 44 12
f 43 9 45
f 43 45 44
f 44 45 46
f 44 46 12
f 45 9 47
f 45 47 46
f 46 47 48
f 46 48 12
f 47 9 49
f 47 49 48
f 48 49 50
f 48 50 12
f 49 9 51
f 49 51 50
f 50 51 52
f 50 52 12
f 51 9 53
f 51 53 52
f 52 53 54
f 52 54 12
f 53 9 55
f 53 55 54
f 54 55 56
f 54 56 12
f 55 9 57
f 55 57 56
f 56 57 58
f 56 58 12
f 57 9 10
f 57 10 58
f 58 10 11
f 58 11 12
f 60 59 63
f 60 63 61
f 61 63 64
f 61 64 62
f 63 59 65
f 63 65 64
f 64 65 66
f 64 66 62
f 65 59 67
f 65 67 66
f 66 67 68
f 66 68 62
f 67 59 69
f 67 69 68
f 68 69 70
f 68 70 62
f 69 59 71
f 69 71 70
f 70 71 72
f 70 72 62
f 71 59 73
f 71 73 72
f 72 73 74
f 72 74 62
f 73 59 75
f 73 75 74
f 74 75 76
f 74 76 62
f 75 59 77
f 75 77 76
f 76 77 78
f 76 78 62
f 77 59 79
f 77 79 78
f 78 79 80
f 78 80 62
f 79 59 81
f 79 81 80
f 80 81 82
f 80 82 62
f 81 59 83
f 81 83 82
f 82 83 84
f 82 84 62
f 83 59 85
f 83 85 84
f 84 85 86
f 84 86 62
f 85 59 87
f 85 87 86
f 86 87 88
f 86 88 62
f 87 59 89
f 87 89 88
f 88 89 90
f 88 90 62
f 89 59 91
f 89 91 90
f 90 91 92
f 90 92 62
f 91 59 93
f 91 93 92
f 92 93 94
f 92 94 62
f 93 59 95
f 93 95 94
f 94 95 96
f 94 96 62
f 95 59 97
f 95 97 96
f 96 97 98
f 96 98 62
f 97 59 99
f 97 99 98
f 98 99 100
f 98 100 62
f 99 59 101
f 99 101 100
f 100 101 102
f 100 102 62
f 101 59 103
f 101 103 102
f 102 103 104
f 102 104 62
f 103 59 105
f 103 105 104
f 104 105 106
f 104 106 62
f 105 59 107
f 105 107 106
f 106 107 108
f 106 108 62
f 107 59 60
f 107 60 108
f 108 60 61
f 108 61 62
f 110 109 113
f 110 113 111
f 111 113 114
f 111 114 112
f 113 109 115
f 113 115 114
f 114 115 116
f 114 116 112
f 115 109 117
f 115 117 116
f 116 117 118
f 116 118 112
f 117 109 119
f 117 119 118
f 118 119 120
f 118 120 112
f 119 109 121
f 119 121 120
f 120 121 122
f 120 122 112
f 121 109 123
f 121 123 122
f 122 123 124
f 122 124 112
f 123 109 125
f 123 125 124
f 124 125 126
f 124 126 112
f 125 109 127
f 125 127 126
f 126 127 128
f 126 128 112
f 127 109 129
f 127 129 128
f 128 129 130
f 128 130 112
f 129 109 131
f 129 131 130
f 130 131 132
f 130 132 112
f 131 109 133
f 131 133 132
f 132 133 134
f 132 134 112
f 133 109 135
f 133 135 134
f 134 135 136
f 134 136 112
f 135 109 137
f 135 137 136
f 136 137 138
f 136 138 112
f 137 109 139
f 137 139 138
f 138 139 140
f 138 140 112
f 139 109 141
f 139 141 140
f 140 141 142
f 140 142 112
f 141 109 143
f 141 143 142
f 142 143 144
f 142 144 112
f 143 109 145
f 143 145 144
f 144 145 146
f 144 146 112
f 145 109 147
f 145 147 146
f 146 147 148
f 146 148 112
f 147 109 149
f 147 149 148
f 148 149 150
f 148 150 112
f 149 109 151
f 149 151 150
f 150 151 152
f 150 152 112
f 151 109 153
f 151 153 152
f 152 153 154
f 152 154 112
f 153 109 155
f 153 155 154
f 154 155 156
f 154 156 112
f 155 109 157
f 155 157 156
f 156 157 158
f 156 158 112
f 157 109 110
f 157 110 158
f 158 110 111
f 158 111 112
f 160 159 163
f 160 163 161
f 161 163 164
f 161 164 162
f 163 159 165
f 163 165 164
f 164 165 166
f 164 166 162
f 165 159 167
f 165 167 166
f 166 167 168
f 166 168 162
f 167 159 169
f 167 169 168
f 168 169 170
f 168 170 162
f 169 159 171
f 169 171 170
f 170 171 172
f 170 172 162
f 171 159 173
f 171 173 172
f 172 173 174
f 172 174 162
f 173 159 175
f 173 175 174
f 174 175 176
f 174 176 162
f 175 159 177
f 175 177 176
f 176 177 178
f 176 178 162
f 177 159 179
f 177 179 178
f 178 179 180
f 178 180 162
f 179 159 181
f 179 181 180
f 180 181 182
f 180 182 162
f 181 159 183
f 181 183 182
f 182 183 184
f 182 184 162
f 183 159 185
f 183 185 184
f 184 185 186
f 184 186 162
f 185 159 187
f 185 187 186
f 186 187 188
f 186 188 162
f 187 159 189
f 187 189 188
f 188 189 190
f 188 190 162
f 189 159 191
f 189 191 190
f 190 191 192
f 190 192 162
f 191 159 193
f 191 193 192
f 192 193 194
f 192 194 162
f 193 159 195
f 193 195 194
f 194 195 196
f 194 196 162
f 195 159 197
f 195 197 196
f 196 197 198
f 196 198 162
f 197 159 199
f 197 199 198
f 198 199 200
f 198 200 162
f 199 159 201
f 199 201 200
f 200 201 202
f 200 202 162
f 201 159 203
f 201 203 202
f 202 203 204
f 202 204 162
f 203 159 205
f 203 205 204
f 204 205 206
f 204 206 162
f 205 159 207
f 205 207 206
f 206 207 208
f 206 208 162
f 207 159 160
f 207 160 208
f 208 160 161
f 208 161 162
