# https://github.com/mikedh/trimesh
v 0.00000000 0.00000000 -0.80000000
v 4.20000000 0.00000000 -0.80000000
v 0.00000000 0.00000000 1.40000000
v 4.11929818 0.81937935 -0.80000000
v 3.88029404 1.60727042 -0.80000000
v 3.49217237 2.33339498 -0.80000000
v 2.96984848 2.96984848 -0.80000000
v 2.33339498 3.49217237 -0.80000000
v 1.60727042 3.88029404 -0.80000000
v 0.81937935 4.11929818 -0.80000000
v 0.00000000 4.20000000 -0.80000000
v -0.81937935 4.11929818 -0.80000000
v -1.60727042 3.88029404 -0.80000000
v -2.33339498 3.49217237 -0.80000000
v -2.96984848 2.96984848 -0.80000000
v -3.49217237 2.33339498 -0.80000000
v -3.88029404 1.60727042 -0.80000000
v -4.11929818 0.81937935 -0.80000000
v -4.20000000 0.00000000 -0.80000000
v -4.11929818 -0.81937935 -0.80000000
v -3.88029404 -1.60727042 -0.80000000
v -3.49217237 -2.33339498 -0.80000000
v -2.96984848 -2.96984848 -0.80000000
v -2.33339498 -3.49217237 -0.80000000
v -1.60727042 -3.88029404 -0.80000000
v -0.81937935 -4.11929818 -0.80000000
v -0.00000000 -4.20000000 -0.80000000
v 0.81937935 -4.11929818 -0.80000000
v 1.60727042 -3.88029404 -0.80000000
v 2.33339498 -3.49217237 -0.80000000
v 2.96984848 -2.96984848 -0.80000000
v 3.49217237 -2.33339498 -0.80000000
v 3.88029404 -1.60727042 -0.80000000
v 4.11929818 -0.81937935 -0.80000000
v 4.75000000 0.00000000 0.40000000
v 4.71650635 0.00000000 0.52500000
v 4.62500000 0.00000000 0.61650635
v 4.50000000 0.00000000 0.65000000
v 4.37500000 0.00000000 0.61650635
v 4.28349365 0.00000000 0.52500000
v 4.25000000 0.00000000 0.40000000
v 4.28349365 0.00000000 0.27500000
v 4.37500000 0.00000000 0.18349365
v 4.50000000 0.00000000 0.15000000
v 4.62500000 0.00000000 0.18349365
v 4.71650635 0.00000000 0.27500000
v 4.67783683 0.82482884 0.40000000
v 4.64485202 0.81901273 0.52500000
v 4.55473586 0.80312282 0.61650635
v 4.43163489 0.78141680 0.65000000
v 4.30853392 0.75971078 0.61650635
v 4.21841776 0.74382087 0.52500000
v 4.18543295 0.73800476 0.40000000
v 4.21841776 0.74382087 0.27500000
v 4.30853392 0.75971078 0.18349365
v 4.43163489 0.78141680 0.15000000
v 4.55473586 0.80312282 0.18349365
v 4.64485202 0.81901273 0.27500000
v 4.46353995 1.62459568 0.40000000
v 4.43206621 1.61314018 0.52500000
v 4.34607837 1.58184316 0.61650635
v 4.22861679 1.53909064 0.65000000
v 4.11115522 1.49633813 0.61650635
v 4.02516737 1.46504111 0.52500000
v 3.99369364 1.45358561 0.40000000
v 4.02516737 1.46504111 0.27500000
v 4.11115522 1.49633813 0.18349365
v 4.22861679 1.53909064 0.15000000
v 4.34607837 1.58184316 0.18349365
v 4.43206621 1.61314018 0.27500000
v 4.11362067 2.37500000 0.40000000
v 4.08461432 2.35825318 0.52500000
v 4.00536749 2.31250000 0.61650635
v 3.89711432 2.25000000 0.65000000
v 3.78886114 2.18750000 0.61650635
v 3.70961432 2.14174682 0.52500000
v 3.68060797 2.12500000 0.40000000
v 3.70961432 2.14174682 0.27500000
v 3.78886114 2.18750000 0.18349365
v 3.89711432 2.25000000 0.15000000
v 4.00536749 2.31250000 0.18349365
v 4.08461432 2.35825318 0.27500000
v 3.63871110 3.05324115 0.40000000
v 3.61305348 3.03171184 0.52500000
v 3.54295555 2.97289269 0.61650635
v 3.44719999 2.89254424 0.65000000
v 3.35144444 2.81219579 0.61650635
v 3.28134651 2.75337664 0.52500000
v 3.25568888 2.73184734 0.40000000
v 3.28134651 2.75337664 0.27500000
v 3.35144444 2.81219579 0.18349365
v 3.44719999 2.89254424 0.15000000
v 3.54295555 2.97289269 0.18349365
v 3.61305348 3.03171184 0.27500000
v 3.05324115 3.63871110 0.40000000
v 3.03171184 3.61305348 0.52500000
v 2.97289269 3.54295555 0.61650635
v 2.89254424 3.44719999 0.65000000
v 2.81219579 3.35144444 0.61650635
v 2.75337664 3.28134651 0.52500000
v 2.73184734 3.25568888 0.40000000
v 2.75337664 3.28134651 0.27500000
v 2.81219579 3.35144444 0.18349365
v 2.89254424 3.44719999 0.15000000
v 2.97289269 3.54295555 0.18349365
v 3.03171184 3.61305348 0.27500000
v 2.37500000 4.11362067 0.40000000
v 2.35825318 4.08461432 0.52500000
v 2.31250000 4.00536749 0.61650635
v 2.25000000 3.89711432 0.65000000
v 2.18750000 3.78886114 0.61650635
v 2.14174682 3.70961432 0.52500000
v 2.12500000 3.68060797 0.40000000
v 2.14174682 3.70961432 0.27500000
v 2.18750000 3.78886114 0.18349365
v 2.25000000 3.89711432 0.15000000
v 2.31250000 4.00536749 0.18349365
v 2.35825318 4.08461432 0.27500000
v 1.62459568 4.46353995 0.40000000
v 1.61314018 4.43206621 0.52500000
v 1.58184316 4.34607837 0.61650635
v 1.53909064 4.22861679 0.65000000
v 1.49633813 4.11115522 0.61650635
v 1.46504111 4.02516737 0.52500000
v 1.45358561 3.99369364 0.40000000
v 1.46504111 4.02516737 0.27500000
v 1.49633813 4.11115522 0.18349365
v 1.53909064 4.22861679 0.15000000
v 1.58184316 4.34607837 0.18349365
v 1.61314018 4.43206621 0.27500000
v 0.82482884 4.67783683 0.40000000
v 0.81901273 4.64485202 0.52500000
v 0.80312282 4.55473586 0.61650635
v 0.78141680 4.43163489 0.65000000
v 0.75971078 4.30853392 0.61650635
v 0.74382087 4.21841776 0.52500000
v 0.73800476 4.18543295 0.40000000
v 0.74382087 4.21841776 0.27500000
v 0.75971078 4.30853392 0.18349365
v 0.78141680 4.43163489 0.15000000
v 0.80312282 4.55473586 0.18349365
v 0.81901273 4.64485202 0.27500000
v 0.00000000 4.75000000 0.40000000
v 0.00000000 4.71650635 0.52500000
v 0.00000000 4.62500000 0.61650635
v 0.00000000 4.50000000 0.65000000
v 0.00000000 4.37500000 0.61650635
v 0.00000000 4.28349365 0.52500000
v 0.00000000 4.25000000 0.40000000
v 0.00000000 4.28349365 0.27500000
v 0.00000000 4.37500000 0.18349365
v 0.00000000 4.50000000 0.15000000
v 0.00000000 4.62500000 0.18349365
v 0.00000000 4.71650635 0.27500000
v -0.82482884 4.67783683 0.40000000
v -0.81901273 4.64485202 0.52500000
v -0.80312282 4.55473586 0.61650635
v -0.78141680 4.43163489 0.65000000
v -0.75971078 4.30853392 0.61650635
v -0.74382087 4.21841776 0.52500000
v -0.73800476 4.18543295 0.40000000
v -0.74382087 4.21841776 0.27500000
v -0.75971078 4.30853392 0.18349365
v -0.78141680 4.43163489 0.15000000
v -0.80312282 4.55473586 0.18349365
v -0.81901273 4.64485202 0.27500000
v -1.62459568 4.46353995 0.40000000
v -1.61314018 4.43206621 0.52500000
v -1.58184316 4.34607837 0.61650635
v -1.53909064 4.22861679 0.65000000
v -1.49633813 4.11115522 0.61650635
v -1.46504111 4.02516737 0.52500000
v -1.45358561 3.99369364 0.40000000
v -1.46504111 4.02516737 0.27500000
v -1.49633813 4.11115522 0.18349365
v -1.53909064 4.22861679 0.15000000
v -1.58184316 4.34607837 0.18349365
v -1.61314018 4.43206621 0.27500000
v -2.37500000 4.11362067 0.40000000
v -2.35825318 4.08461432 0.52500000
v -2.31250000 4.00536749 0.61650635
v -2.25000000 3.89711432 0.65000000
v -2.18750000 3.78886114 0.61650635
v -2.14174682 3.70961432 0.52500000
v -2.12500000 3.68060797 0.40000000
v -2.14174682 3.70961432 0.27500000
v -2.18750000 3.78886114 0.18349365
v -2.25000000 3.89711432 0.15000000
v -2.31250000 4.00536749 0.18349365
v -2.35825318 4.08461432 0.27500000
v -3.05324115 3.63871110 0.40000000
v -3.03171184 3.61305348 0.52500000
v -2.97289269 3.54295555 0.61650635
v -2.89254424 3.44719999 0.65000000
v -2.81219579 3.35144444 0.61650635
v -2.75337664 3.28134651 0.52500000
v -2.73184734 3.25568888 0.40000000
v -2.75337664 3.28134651 0.27500000
v -2.81219579 3.35144444 0.18349365
v -2.89254424 3.44719999 0.15000000
v -2.97289269 3.54295555 0.18349365
v -3.03171184 3.61305348 0.27500000
v -3.63871110 3.05324115 0.40000000
v -3.61305348 3.03171184 0.52500000
v -3.54295555 2.97289269 0.61650635
v -3.44719999 2.89254424 0.65000000
v -3.35144444 2.81219579 0.61650635
v -3.28134651 2.75337664 0.52500000
v -3.25568888 2.73184734 0.40000000
v -3.28134651 2.75337664 0.27500000
v -3.35144444 2.81219579 0.18349365
v -3.44719999 2.89254424 0.15000000
v -3.54295555 2.97289269 0.18349365
v -3.61305348 3.03171184 0.27500000
v -4.11362067 2.37500000 0.40000000
v -4.08461432 2.35825318 0.52500000
v -4.00536749 2.31250000 0.61650635
v -3.89711432 2.25000000 0.65000000
v -3.78886114 2.18750000 0.61650635
v -3.70961432 2.14174682 0.52500000
v -3.68060797 2.12500000 0.40000000
v -3.70961432 2.14174682 0.27500000
v -3.78886114 2.18750000 0.18349365
v -3.89711432 2.25000000 0.15000000
v -4.00536749 2.31250000 0.18349365
v -4.08461432 2.35825318 0.27500000
v -4.46353995 1.62459568 0.40000000
v -4.43206621 1.61314018 0.52500000
v -4.34607837 1.58184316 0.61650635
v -4.22861679 1.53909064 0.65000000
v -4.11115522 1.49633813 0.61650635
v -4.02516737 1.46504111 0.52500000
v -3.99369364 1.45358561 0.40000000
v -4.02516737 1.46504111 0.27500000
v -4.11115522 1.49633813 0.18349365
v -4.22861679 1.53909064 0.15000000
v -4.34607837 1.58184316 0.18349365
v -4.43206621 1.61314018 0.27500000
v -4.67783683 0.82482884 0.40000000
v -4.64485202 0.81901273 0.52500000
v -4.55473586 0.80312282 0.61650635
v -4.43163489 0.78141680 0.65000000
v -4.30853392 0.75971078 0.61650635
v -4.21841776 0.74382087 0.52500000
v -4.18543295 0.73800476 0.40000000
v -4.21841776 0.74382087 0.27500000
v -4.30853392 0.75971078 0.18349365
v -4.43163489 0.78141680 0.15000000
v -4.55473586 0.80312282 0.18349365
v -4.64485202 0.81901273 0.27500000
v -4.75000000 0.00000000 0.40000000
v -4.71650635 0.00000000 0.52500000
v -4.62500000 0.00000000 0.61650635
v -4.50000000 0.00000000 0.65000000
v -4.37500000 0.00000000 0.61650635
v -4.28349365 0.00000000 0.52500000
v -4.25000000 0.00000000 0.40000000
v -4.28349365 0.00000000 0.27500000
v -4.37500000 0.00000000 0.18349365
v -4.50000000 0.00000000 0.15000000
v -4.62500000 0.00000000 0.18349365
v -4.71650635 0.00000000 0.27500000
v -4.67783683 -0.82482884 0.40000000
v -4.64485202 -0.81901273 0.52500000
v -4.55473586 -0.80312282 0.61650635
v -4.43163489 -0.78141680 0.65000000
v -4.30853392 -0.75971078 0.61650635
v -4.21841776 -0.74382087 0.52500000
v -4.18543295 -0.73800476 0.40000000
v -4.21841776 -0.74382087 0.27500000
v -4.30853392 -0.75971078 0.18349365
v -4.43163489 -0.78141680 0.15000000
v -4.55473586 -0.80312282 0.18349365
v -4.64485202 -0.81901273 0.27500000
v -4.46353995 -1.62459568 0.40000000
v -4.43206621 -1.61314018 0.52500000
v -4.34607837 -1.58184316 0.61650635
v -4.22861679 -1.53909064 0.65000000
v -4.11115522 -1.49633813 0.61650635
v -4.02516737 -1.46504111 0.52500000
v -3.99369364 -1.45358561 0.40000000
v -4.02516737 -1.46504111 0.27500000
v -4.11115522 -1.49633813 0.18349365
v -4.22861679 -1.53909064 0.15000000
v -4.34607837 -1.58184316 0.18349365
v -4.43206621 -1.61314018 0.27500000
v -4.11362067 -2.37500000 0.40000000
v -4.08461432 -2.35825318 0.52500000
v -4.00536749 -2.31250000 0.61650635
v -3.89711432 -2.25000000 0.65000000
v -3.78886114 -2.18750000 0.61650635
v -3.70961432 -2.14174682 0.52500000
v -3.68060797 -2.12500000 0.40000000
v -3.70961432 -2.14174682 0.27500000
v -3.78886114 -2.18750000 0.18349365
v -3.89711432 -2.25000000 0.15000000
v -4.00536749 -2.31250000 0.18349365
v -4.08461432 -2.35825318 0.27500000
v -3.63871110 -3.05324115 0.40000000
v -3.61305348 -3.03171184 0.52500000
v -3.54295555 -2.97289269 0.61650635
v -3.44719999 -2.89254424 0.65000000
v -3.35144444 -2.81219579 0.61650635
v -3.28134651 -2.75337664 0.52500000
v -3.25568888 -2.73184734 0.40000000
v -3.28134651 -2.75337664 0.27500000
v -3.35144444 -2.81219579 0.18349365
v -3.44719999 -2.89254424 0.15000000
v -3.54295555 -2.97289269 0.18349365
v -3.61305348 -3.03171184 0.27500000
v -3.05324115 -3.63871110 0.40000000
v -3.03171184 -3.61305348 0.52500000
v -2.97289269 -3.54295555 0.61650635
v -2.89254424 -3.44719999 0.65000000
v -2.81219579 -3.35144444 0.61650635
v -2.75337664 -3.28134651 0.52500000
v -2.73184734 -3.25568888 0.40000000
v -2.75337664 -3.28134651 0.27500000
v -2.81219579 -3.35144444 0.18349365
v -2.89254424 -3.44719999 0.15000000
v -2.97289269 -3.54295555 0.18349365
v -3.03171184 -3.61305348 0.27500000
v -2.37500000 -4.11362067 0.40000000
v -2.35825318 -4.08461432 0.52500000
v -2.31250000 -4.00536749 0.61650635
v -2.25000000 -3.89711432 0.65000000
v -2.18750000 -3.78886114 0.61650635
v -2.14174682 -3.70961432 0.52500000
v -2.12500000 -3.68060797 0.40000000
v -2.14174682 -3.70961432 0.27500000
v -2.18750000 -3.78886114 0.18349365
v -2.25000000 -3.89711432 0.15000000
v -2.31250000 -4.00536749 0.18349365
v -2.35825318 -4.08461432 0.27500000
v -1.62459568 -4.46353995 0.40000000
v -1.61314018 -4.43206621 0.52500000
v -1.58184316 -4.34607837 0.61650635
v -1.53909064 -4.22861679 0.65000000
v -1.49633813 -4.11115522 0.61650635
v -1.46504111 -4.02516737 0.52500000
v -1.45358561 -3.99369364 0.40000000
v -1.46504111 -4.02516737 0.27500000
v -1.49633813 -4.11115522 0.18349365
v -1.53909064 -4.22861679 0.15000000
v -1.58184316 -4.34607837 0.18349365
v -1.61314018 -4.43206621 0.27500000
v -0.82482884 -4.67783683 0.40000000
v -0.81901273 -4.64485202 0.52500000
v -0.80312282 -4.55473586 0.61650635
v -0.78141680 -4.43163489 0.65000000
v -0.75971078 -4.30853392 0.61650635
v -0.74382087 -4.21841776 0.52500000
v -0.73800476 -4.18543295 0.40000000
v -0.74382087 -4.21841776 0.27500000
v -0.75971078 -4.30853392 0.18349365
v -0.78141680 -4.43163489 0.15000000
v -0.80312282 -4.55473586 0.18349365
v -0.81901273 -4.64485202 0.27500000
v -0.00000000 -4.75000000 0.40000000
v -0.00000000 -4.71650635 0.52500000
v -0.00000000 -4.62500000 0.61650635
v -0.00000000 -4.50000000 0.65000000
v -0.00000000 -4.37500000 0.61650635
v -0.00000000 -4.28349365 0.52500000
v -0.00000000 -4.25000000 0.40000000
v -0.00000000 -4.28349365 0.27500000
v -0.00000000 -4.37500000 0.18349365
v -0.00000000 -4.50000000 0.15000000
v -0.00000000 -4.62500000 0.18349365
v -0.00000000 -4.71650635 0.27500000
v 0.82482884 -4.67783683 0.40000000
v 0.81901273 -4.64485202 0.52500000
v 0.80312282 -4.55473586 0.61650635
v 0.78141680 -4.43163489 0.65000000
v 0.75971078 -4.30853392 0.61650635
v 0.74382087 -4.21841776 0.52500000
v 0.73800476 -4.18543295 0.40000000
v 0.74382087 -4.21841776 0.27500000
v 0.75971078 -4.30853392 0.18349365
v 0.78141680 -4.43163489 0.15000000
v 0.80312282 -4.55473586 0.18349365
v 0.81901273 -4.64485202 0.27500000
v 1.62459568 -4.46353995 0.40000000
v 1.61314018 -4.43206621 0.52500000
v 1.58184316 -4.34607837 0.61650635
v 1.53909064 -4.22861679 0.65000000
v 1.49633813 -4.11115522 0.61650635
v 1.46504111 -4.02516737 0.52500000
v 1.45358561 -3.99369364 0.40000000
v 1.46504111 -4.02516737 0.27500000
v 1.49633813 -4.11115522 0.18349365
v 1.53909064 -4.22861679 0.15000000
v 1.58184316 -4.34607837 0.18349365
v 1.61314018 -4.43206621 0.27500000
v 2.37500000 -4.11362067 0.40000000
v 2.35825318 -4.08461432 0.52500000
v 2.31250000 -4.00536749 0.61650635
v 2.25000000 -3.89711432 0.65000000
v 2.18750000 -3.78886114 0.61650635
v 2.14174682 -3.70961432 0.52500000
v 2.12500000 -3.68060797 0.40000000
v 2.14174682 -3.70961432 0.27500000
v 2.18750000 -3.78886114 0.18349365
v 2.25000000 -3.89711432 0.15000000
v 2.31250000 -4.00536749 0.18349365
v 2.35825318 -4.08461432 0.27500000
v 3.05324115 -3.63871110 0.40000000
v 3.03171184 -3.61305348 0.52500000
v 2.97289269 -3.54295555 0.61650635
v 2.89254424 -3.44719999 0.65000000
v 2.81219579 -3.35144444 0.61650635
v 2.75337664 -3.28134651 0.52500000
v 2.73184734 -3.25568888 0.40000000
v 2.75337664 -3.28134651 0.27500000
v 2.81219579 -3.35144444 0.18349365
v 2.89254424 -3.44719999 0.15000000
v 2.97289269 -3.54295555 0.18349365
v 3.03171184 -3.61305348 0.27500000
v 3.63871110 -3.05324115 0.40000000
v 3.61305348 -3.03171184 0.52500000
v 3.54295555 -2.97289269 0.61650635
v 3.44719999 -2.89254424 0.65000000
v 3.35144444 -2.81219579 0.61650635
v 3.28134651 -2.75337664 0.52500000
v 3.25568888 -2.73184734 0.40000000
v 3.28134651 -2.75337664 0.27500000
v 3.35144444 -2.81219579 0.18349365
v 3.44719999 -2.89254424 0.15000000
v 3.54295555 -2.97289269 0.18349365
v 3.61305348 -3.03171184 0.27500000
v 4.11362067 -2.37500000 0.40000000
v 4.08461432 -2.35825318 0.52500000
v 4.00536749 -2.31250000 0.61650635
v 3.89711432 -2.25000000 0.65000000
v 3.78886114 -2.18750000 0.61650635
v 3.70961432 -2.14174682 0.52500000
v 3.68060797 -2.12500000 0.40000000
v 3.70961432 -2.14174682 0.27500000
v 3.78886114 -2.18750000 0.18349365
v 3.89711432 -2.25000000 0.15000000
v 4.00536749 -2.31250000 0.18349365
v 4.08461432 -2.35825318 0.27500000
v 4.46353995 -1.62459568 0.40000000
v 4.43206621 -1.61314018 0.52500000
v 4.34607837 -1.58184316 0.61650635
v 4.22861679 -1.53909064 0.65000000
v 4.11115522 -1.49633813 0.61650635
v 4.02516737 -1.46504111 0.52500000
v 3.99369364 -1.45358561 0.40000000
v 4.02516737 -1.46504111 0.27500000
v 4.11115522 -1.49633813 0.18349365
v 4.22861679 -1.53909064 0.15000000
v 4.34607837 -1.58184316 0.18349365
v 4.43206621 -1.61314018 0.27500000
v 4.67783683 -0.82482884 0.40000000
v 4.64485202 -0.81901273 0.52500000
v 4.55473586 -0.80312282 0.61650635
v 4.43163489 -0.78141680 0.65000000
v 4.30853392 -0.75971078 0.61650635
v 4.21841776 -0.74382087 0.52500000
v 4.18543295 -0.73800476 0.40000000
v 4.21841776 -0.74382087 0.27500000
v 4.30853392 -0.75971078 0.18349365
v 4.43163489 -0.78141680 0.15000000
v 4.55473586 -0.80312282 0.18349365
v 4.64485202 -0.81901273 0.27500000
v 3.48000000 0.00000000 0.80000000
v 3.45588457 0.00000000 0.89000000
v 3.39000000 0.00000000 0.95588457
v 3.30000000 0.00000000 0.98000000
v 3.21000000 0.00000000 0.95588457
v 3.14411543 0.00000000 0.89000000
v 3.12000000 0.00000000 0.80000000
v 3.14411543 0.00000000 0.71000000
v 3.21000000 0.00000000 0.64411543
v 3.30000000 0.00000000 0.62000000
v 3.39000000 0.00000000 0.64411543
v 3.45588457 0.00000000 0.71000000
v 3.42713098 0.60429566 0.80000000
v 3.40338192 0.60010806 0.89000000
v 3.33849828 0.58866732 0.95588457
v 3.24986558 0.57303899 0.98000000
v 3.16123289 0.55741065 0.95588457
v 3.09634925 0.54596991 0.89000000
v 3.07260019 0.54178231 0.80000000
v 3.09634925 0.54596991 0.71000000
v 3.16123289 0.55741065 0.64411543
v 3.24986558 0.57303899 0.62000000
v 3.33849828 0.58866732 0.64411543
v 3.40338192 0.60010806 0.71000000
v 3.27013032 1.19023010 0.80000000
v 3.24746923 1.18198214 0.89000000
v 3.18555798 1.15944829 0.95588457
v 3.10098565 1.12866647 0.98000000
v 3.01641331 1.09788466 0.95588457
v 2.95450207 1.07535081 0.89000000
v 2.93184098 1.06710285 0.80000000
v 2.95450207 1.07535081 0.71000000
v 3.01641331 1.09788466 0.64411543
v 3.10098565 1.12866647 0.62000000
v 3.18555798 1.15944829 0.64411543
v 3.24746923 1.18198214 0.71000000
v 3.01376841 1.74000000 0.80000000
v 2.99288383 1.72794229 0.89000000
v 2.93582612 1.69500000 0.95588457
v 2.85788383 1.65000000 0.98000000
v 2.77994155 1.60500000 0.95588457
v 2.72288383 1.57205771 0.89000000
v 2.70199926 1.56000000 0.80000000
v 2.72288383 1.57205771 0.71000000
v 2.77994155 1.60500000 0.64411543
v 2.85788383 1.65000000 0.62000000
v 2.93582612 1.69500000 0.64411543
v 2.99288383 1.72794229 0.71000000
v 2.66583466 2.23690088 0.80000000
v 2.64736117 2.22139978 0.89000000
v 2.59689066 2.17905000 0.95588457
v 2.52794666 2.12119911 0.98000000
v 2.45900266 2.06334823 0.95588457
v 2.40853215 2.02099844 0.89000000
v 2.39005866 2.00549734 0.80000000
v 2.40853215 2.02099844 0.71000000
v 2.45900266 2.06334823 0.64411543
v 2.52794666 2.12119911 0.62000000
v 2.59689066 2.17905000 0.64411543
v 2.64736117 2.22139978 0.71000000
v 2.23690088 2.66583466 0.80000000
v 2.22139978 2.64736117 0.89000000
v 2.17905000 2.59689066 0.95588457
v 2.12119911 2.52794666 0.98000000
v 2.06334823 2.45900266 0.95588457
v 2.02099844 2.40853215 0.89000000
v 2.00549734 2.39005866 0.80000000
v 2.02099844 2.40853215 0.71000000
v 2.06334823 2.45900266 0.64411543
v 2.12119911 2.52794666 0.62000000
v 2.17905000 2.59689066 0.64411543
v 2.22139978 2.64736117 0.71000000
v 1.74000000 3.01376841 0.80000000
v 1.72794229 2.99288383 0.89000000
v 1.69500000 2.93582612 0.95588457
v 1.65000000 2.85788383 0.98000000
v 1.60500000 2.77994155 0.95588457
v 1.57205771 2.72288383 0.89000000
v 1.56000000 2.70199926 0.80000000
v 1.57205771 2.72288383 0.71000000
v 1.60500000 2.77994155 0.64411543
v 1.65000000 2.85788383 0.62000000
v 1.69500000 2.93582612 0.64411543
v 1.72794229 2.99288383 0.71000000
v 1.19023010 3.27013032 0.80000000
v 1.18198214 3.24746923 0.89000000
v 1.15944829 3.18555798 0.95588457
v 1.12866647 3.10098565 0.98000000
v 1.09788466 3.01641331 0.95588457
v 1.07535081 2.95450207 0.89000000
v 1.06710285 2.93184098 0.80000000
v 1.07535081 2.95450207 0.71000000
v 1.09788466 3.01641331 0.64411543
v 1.12866647 3.10098565 0.62000000
v 1.15944829 3.18555798 0.64411543
v 1.18198214 3.24746923 0.71000000
v 0.60429566 3.42713098 0.80000000
v 0.60010806 3.40338192 0.89000000
v 0.58866732 3.33849828 0.95588457
v 0.57303899 3.24986558 0.98000000
v 0.55741065 3.16123289 0.95588457
v 0.54596991 3.09634925 0.89000000
v 0.54178231 3.07260019 0.80000000
v 0.54596991 3.09634925 0.71000000
v 0.55741065 3.16123289 0.64411543
v 0.57303899 3.24986558 0.62000000
v 0.58866732 3.33849828 0.64411543
v 0.60010806 3.40338192 0.71000000
v 0.00000000 3.48000000 0.80000000
v 0.00000000 3.45588457 0.89000000
v 0.00000000 3.39000000 0.95588457
v 0.00000000 3.30000000 0.98000000
v 0.00000000 3.21000000 0.95588457
v 0.00000000 3.14411543 0.89000000
v 0.00000000 3.12000000 0.80000000
v 0.00000000 3.14411543 0.71000000
v 0.00000000 3.21000000 0.64411543
v 0.00000000 3.30000000 0.62000000
v 0.00000000 3.39000000 0.64411543
v 0.00000000 3.45588457 0.71000000
v -0.60429566 3.42713098 0.80000000
v -0.60010806 3.40338192 0.89000000
v -0.58866732 3.33849828 0.95588457
v -0.57303899 3.24986558 0.98000000
v -0.55741065 3.16123289 0.95588457
v -0.54596991 3.09634925 0.89000000
v -0.54178231 3.07260019 0.80000000
v -0.54596991 3.09634925 0.71000000
v -0.55741065 3.16123289 0.64411543
v -0.57303899 3.24986558 0.62000000
v -0.58866732 3.33849828 0.64411543
v -0.60010806 3.40338192 0.71000000
v -1.19023010 3.27013032 0.80000000
v -1.18198214 3.24746923 0.89000000
v -1.15944829 3.18555798 0.95588457
v -1.12866647 3.10098565 0.98000000
v -1.09788466 3.01641331 0.95588457
v -1.07535081 2.95450207 0.89000000
v -1.06710285 2.93184098 0.80000000
v -1.07535081 2.95450207 0.71000000
v -1.09788466 3.01641331 0.64411543
v -1.12866647 3.10098565 0.62000000
v -1.15944829 3.18555798 0.64411543
v -1.18198214 3.24746923 0.71000000
v -1.74000000 3.01376841 0.80000000
v -1.72794229 2.99288383 0.89000000
v -1.69500000 2.93582612 0.95588457
v -1.65000000 2.85788383 0.98000000
v -1.60500000 2.77994155 0.95588457
v -1.57205771 2.72288383 0.89000000
v -1.56000000 2.70199926 0.80000000
v -1.57205771 2.72288383 0.71000000
v -1.60500000 2.77994155 0.64411543
v -1.65000000 2.85788383 0.62000000
v -1.69500000 2.93582612 0.64411543
v -1.72794229 2.99288383 0.71000000
v -2.23690088 2.66583466 0.80000000
v -2.22139978 2.64736117 0.89000000
v -2.17905000 2.59689066 0.95588457
v -2.12119911 2.52794666 0.98000000
v -2.06334823 2.45900266 0.95588457
v -2.02099844 2.40853215 0.89000000
v -2.00549734 2.39005866 0.80000000
v -2.02099844 2.40853215 0.71000000
v -2.06334823 2.45900266 0.64411543
v -2.12119911 2.52794666 0.62000000
v -2.17905000 2.59689066 0.64411543
v -2.22139978 2.64736117 0.71000000
v -2.66583466 2.23690088 0.80000000
v -2.64736117 2.22139978 0.89000000
v -2.59689066 2.17905000 0.95588457
v -2.52794666 2.12119911 0.98000000
v -2.45900266 2.06334823 0.95588457
v -2.40853215 2.02099844 0.89000000
v -2.39005866 2.00549734 0.80000000
v -2.40853215 2.02099844 0.71000000
v -2.45900266 2.06334823 0.64411543
v -2.52794666 2.12119911 0.62000000
v -2.59689066 2.17905000 0.64411543
v -2.64736117 2.22139978 0.71000000
v -3.01376841 1.74000000 0.80000000
v -2.99288383 1.72794229 0.89000000
v -2.93582612 1.69500000 0.95588457
v -2.85788383 1.65000000 0.98000000
v -2.77994155 1.60500000 0.95588457
v -2.72288383 1.57205771 0.89000000
v -2.70199926 1.56000000 0.80000000
v -2.72288383 1.57205771 0.71000000
v -2.77994155 1.60500000 0.64411543
v -2.85788383 1.65000000 0.62000000
v -2.93582612 1.69500000 0.64411543
v -2.99288383 1.72794229 0.71000000
v -3.27013032 1.19023010 0.80000000
v -3.24746923 1.18198214 0.89000000
v -3.18555798 1.15944829 0.95588457
v -3.10098565 1.12866647 0.98000000
v -3.01641331 1.09788466 0.95588457
v -2.95450207 1.07535081 0.89000000
v -2.93184098 1.06710285 0.80000000
v -2.95450207 1.07535081 0.71000000
v -3.01641331 1.09788466 0.64411543
v -3.10098565 1.12866647 0.62000000
v -3.18555798 1.15944829 0.64411543
v -3.24746923 1.18198214 0.71000000
v -3.42713098 0.60429566 0.80000000
v -3.40338192 0.60010806 0.89000000
v -3.33849828 0.58866732 0.95588457
v -3.24986558 0.57303899 0.98000000
v -3.16123289 0.55741065 0.95588457
v -3.09634925 0.54596991 0.89000000
v -3.07260019 0.54178231 0.80000000
v -3.09634925 0.54596991 0.71000000
v -3.16123289 0.55741065 0.64411543
v -3.24986558 0.57303899 0.62000000
v -3.33849828 0.58866732 0.64411543
v -3.40338192 0.60010806 0.71000000
v -3.48000000 0.00000000 0.80000000
v -3.45588457 0.00000000 0.89000000
v -3.39000000 0.00000000 0.95588457
v -3.30000000 0.00000000 0.98000000
v -3.21000000 0.00000000 0.95588457
v -3.14411543 0.00000000 0.89000000
v -3.12000000 0.00000000 0.80000000
v -3.14411543 0.00000000 0.71000000
v -3.21000000 0.00000000 0.64411543
v -3.30000000 0.00000000 0.62000000
v -3.39000000 0.00000000 0.64411543
v -3.45588457 0.00000000 0.71000000
v -3.42713098 -0.60429566 0.80000000
v -3.40338192 -0.60010806 0.89000000
v -3.33849828 -0.58866732 0.95588457
v -3.24986558 -0.57303899 0.98000000
v -3.16123289 -0.55741065 0.95588457
v -3.09634925 -0.54596991 0.89000000
v -3.07260019 -0.54178231 0.80000000
v -3.09634925 -0.54596991 0.71000000
v -3.16123289 -0.55741065 0.64411543
v -3.24986558 -0.57303899 0.62000000
v -3.33849828 -0.58866732 0.64411543
v -3.40338192 -0.60010806 0.71000000
v -3.27013032 -1.19023010 0.80000000
v -3.24746923 -1.18198214 0.89000000
v -3.18555798 -1.15944829 0.95588457
v -3.10098565 -1.12866647 0.98000000
v -3.01641331 -1.09788466 0.95588457
v -2.95450207 -1.07535081 0.89000000
v -2.93184098 -1.06710285 0.80000000
v -2.95450207 -1.07535081 0.71000000
v -3.01641331 -1.09788466 0.64411543
v -3.10098565 -1.12866647 0.62000000
v -3.18555798 -1.15944829 0.64411543
v -3.24746923 -1.18198214 0.71000000
v -3.01376841 -1.74000000 0.80000000
v -2.99288383 -1.72794229 0.89000000
v -2.93582612 -1.69500000 0.95588457
v -2.85788383 -1.65000000 0.98000000
v -2.77994155 -1.60500000 0.95588457
v -2.72288383 -1.57205771 0.89000000
v -2.70199926 -1.56000000 0.80000000
v -2.72288383 -1.57205771 0.71000000
v -2.77994155 -1.60500000 0.64411543
v -2.85788383 -1.65000000 0.62000000
v -2.93582612 -1.69500000 0.64411543
v -2.99288383 -1.72794229 0.71000000
v -2.66583466 -2.23690088 0.80000000
v -2.64736117 -2.22139978 0.89000000
v -2.59689066 -2.17905000 0.95588457
v -2.52794666 -2.12119911 0.98000000
v -2.45900266 -2.06334823 0.95588457
v -2.40853215 -2.02099844 0.89000000
v -2.39005866 -2.00549734 0.80000000
v -2.40853215 -2.02099844 0.71000000
v -2.45900266 -2.06334823 0.64411543
v -2.52794666 -2.12119911 0.62000000
v -2.59689066 -2.17905000 0.64411543
v -2.64736117 -2.22139978 0.71000000
v -2.23690088 -2.66583466 0.80000000
v -2.22139978 -2.64736117 0.89000000
v -2.17905000 -2.59689066 0.95588457
v -2.12119911 -2.52794666 0.98000000
v -2.06334823 -2.45900266 0.95588457
v -2.02099844 -2.40853215 0.89000000
v -2.00549734 -2.39005866 0.80000000
v -2.02099844 -2.40853215 0.71000000
v -2.06334823 -2.45900266 0.64411543
v -2.12119911 -2.52794666 0.62000000
v -2.17905000 -2.59689066 0.64411543
v -2.22139978 -2.64736117 0.71000000
v -1.74000000 -3.01376841 0.80000000
v -1.72794229 -2.99288383 0.89000000
v -1.69500000 -2.93582612 0.95588457
v -1.65000000 -2.85788383 0.98000000
v -1.60500000 -2.77994155 0.95588457
v -1.57205771 -2.72288383 0.89000000
v -1.56000000 -2.70199926 0.80000000
v -1.57205771 -2.72288383 0.71000000
v -1.60500000 -2.77994155 0.64411543
v -1.65000000 -2.85788383 0.62000000
v -1.69500000 -2.93582612 0.64411543
v -1.72794229 -2.99288383 0.71000000
v -1.19023010 -3.27013032 0.80000000
v -1.18198214 -3.24746923 0.89000000
v -1.15944829 -3.18555798 0.95588457
v -1.12866647 -3.10098565 0.98000000
v -1.09788466 -3.01641331 0.95588457
v -1.07535081 -2.95450207 0.89000000
v -1.06710285 -2.93184098 0.80000000
v -1.07535081 -2.95450207 0.71000000
v -1.09788466 -3.01641331 0.64411543
v -1.12866647 -3.10098565 0.62000000
v -1.15944829 -3.18555798 0.64411543
v -1.18198214 -3.24746923 0.71000000
v -0.60429566 -3.42713098 0.80000000
v -0.60010806 -3.40338192 0.89000000
v -0.58866732 -3.33849828 0.95588457
v -0.57303899 -3.24986558 0.98000000
v -0.55741065 -3.16123289 0.95588457
v -0.54596991 -3.09634925 0.89000000
v -0.54178231 -3.07260019 0.80000000
v -0.54596991 -3.09634925 0.71000000
v -0.55741065 -3.16123289 0.64411543
v -0.57303899 -3.24986558 0.62000000
v -0.58866732 -3.33849828 0.64411543
v -0.60010806 -3.40338192 0.71000000
v -0.00000000 -3.48000000 0.80000000
v -0.00000000 -3.45588457 0.89000000
v -0.00000000 -3.39000000 0.95588457
v -0.00000000 -3.30000000 0.98000000
v -0.00000000 -3.21000000 0.95588457
v -0.00000000 -3.14411543 0.89000000
v -0.00000000 -3.12000000 0.80000000
v -0.00000000 -3.14411543 0.71000000
v -0.00000000 -3.21000000 0.64411543
v -0.00000000 -3.30000000 0.62000000
v -0.00000000 -3.39000000 0.64411543
v -0.00000000 -3.45588457 0.71000000
v 0.60429566 -3.42713098 0.80000000
v 0.60010806 -3.40338192 0.89000000
v 0.58866732 -3.33849828 0.95588457
v 0.57303899 -3.24986558 0.98000000
v 0.55741065 -3.16123289 0.95588457
v 0.54596991 -3.09634925 0.89000000
v 0.54178231 -3.07260019 0.80000000
v 0.54596991 -3.09634925 0.71000000
v 0.55741065 -3.16123289 0.64411543
v 0.57303899 -3.24986558 0.62000000
v 0.58866732 -3.33849828 0.64411543
v 0.60010806 -3.40338192 0.71000000
v 1.19023010 -3.27013032 0.80000000
v 1.18198214 -3.24746923 0.89000000
v 1.15944829 -3.18555798 0.95588457
v 1.12866647 -3.10098565 0.98000000
v 1.09788466 -3.01641331 0.95588457
v 1.07535081 -2.95450207 0.89000000
v 1.06710285 -2.93184098 0.80000000
v 1.07535081 -2.95450207 0.71000000
v 1.09788466 -3.01641331 0.64411543
v 1.12866647 -3.10098565 0.62000000
v 1.15944829 -3.18555798 0.64411543
v 1.18198214 -3.24746923 0.71000000
v 1.74000000 -3.01376841 0.80000000
v 1.72794229 -2.99288383 0.89000000
v 1.69500000 -2.93582612 0.95588457
v 1.65000000 -2.85788383 0.98000000
v 1.60500000 -2.77994155 0.95588457
v 1.57205771 -2.72288383 0.89000000
v 1.56000000 -2.70199926 0.80000000
v 1.57205771 -2.72288383 0.71000000
v 1.60500000 -2.77994155 0.64411543
v 1.65000000 -2.85788383 0.62000000
v 1.69500000 -2.93582612 0.64411543
v 1.72794229 -2.99288383 0.71000000
v 2.23690088 -2.66583466 0.80000000
v 2.22139978 -2.64736117 0.89000000
v 2.17905000 -2.59689066 0.95588457
v 2.12119911 -2.52794666 0.98000000
v 2.06334823 -2.45900266 0.95588457
v 2.02099844 -2.40853215 0.89000000
v 2.00549734 -2.39005866 0.80000000
v 2.02099844 -2.40853215 0.71000000
v 2.06334823 -2.45900266 0.64411543
v 2.12119911 -2.52794666 0.62000000
v 2.17905000 -2.59689066 0.64411543
v 2.22139978 -2.64736117 0.71000000
v 2.66583466 -2.23690088 0.80000000
v 2.64736117 -2.22139978 0.89000000
v 2.59689066 -2.17905000 0.95588457
v 2.52794666 -2.12119911 0.98000000
v 2.45900266 -2.06334823 0.95588457
v 2.40853215 -2.02099844 0.89000000
v 2.39005866 -2.00549734 0.80000000
v 2.40853215 -2.02099844 0.71000000
v 2.45900266 -2.06334823 0.64411543
v 2.52794666 -2.12119911 0.62000000
v 2.59689066 -2.17905000 0.64411543
v 2.64736117 -2.22139978 0.71000000
v 3.01376841 -1.74000000 0.80000000
v 2.99288383 -1.72794229 0.89000000
v 2.93582612 -1.69500000 0.95588457
v 2.85788383 -1.65000000 0.98000000
v 2.77994155 -1.60500000 0.95588457
v 2.72288383 -1.57205771 0.89000000
v 2.70199926 -1.56000000 0.80000000
v 2.72288383 -1.57205771 0.71000000
v 2.77994155 -1.60500000 0.64411543
v 2.85788383 -1.65000000 0.62000000
v 2.93582612 -1.69500000 0.64411543
v 2.99288383 -1.72794229 0.71000000
v 3.27013032 -1.19023010 0.80000000
v 3.24746923 -1.18198214 0.89000000
v 3.18555798 -1.15944829 0.95588457
v 3.10098565 -1.12866647 0.98000000
v 3.01641331 -1.09788466 0.95588457
v 2.95450207 -1.07535081 0.89000000
v 2.93184098 -1.06710285 0.80000000
v 2.95450207 -1.07535081 0.71000000
v 3.01641331 -1.09788466 0.64411543
v 3.10098565 -1.12866647 0.62000000
v 3.18555798 -1.15944829 0.64411543
v 3.24746923 -1.18198214 0.71000000
v 3.42713098 -0.60429566 0.80000000
v 3.40338192 -0.60010806 0.89000000
v 3.33849828 -0.58866732 0.95588457
v 3.24986558 -0.57303899 0.98000000
v 3.16123289 -0.55741065 0.95588457
v 3.09634925 -0.54596991 0.89000000
v 3.07260019 -0.54178231 0.80000000
v 3.09634925 -0.54596991 0.71000000
v 3.16123289 -0.55741065 0.64411543
v 3.24986558 -0.57303899 0.62000000
v 3.33849828 -0.58866732 0.64411543
v 3.40338192 -0.60010806 0.71000000
v -5.50000000 -5.50000000 -2.15000000
v -5.50000000 -5.50000000 -1.85000000
v -5.50000000 5.50000000 -2.15000000
v -5.50000000 5.50000000 -1.85000000
v 5.50000000 -5.50000000 -2.15000000
v 5.50000000 -5.50000000 -1.85000000
v 5.50000000 5.50000000 -2.15000000
v 5.50000000 5.50000000 -1.85000000
f 2 1 4
f 2 4 3
f 4 1 5
f 4 5 3
f 5 1 6
f 5 6 3
f 6 1 7
f 6 7 3
f 7 1 8
f 7 8 3
f 8 1 9
f 8 9 3
f 9 1 10
f 9 10 3
f 10 1 11
f 10 11 3
f 11 1 12
f 11 12 3
f 12 1 13
f 12 13 3
f 13 1 14
f 13 14 3
f 14 1 15
f 14 15 3
f 15 1 16
f 15 16 3
f 16 1 17
f 16 17 3
f 17 1 18
f 17 18 3
f 18 1 19
f 18 19 3
f 19 1 20
f 19 20 3
f 20 1 21
f 20 21 3
f 21 1 22
f 21 22 3
f 22 1 23
f 22 23 3
f 23 1 24
f 23 24 3
f 24 1 25
f 24 25 3
f 25 1 26
f 25 26 3
f 26 1 27
f 26 27 3
f 27 1 28
f 27 28 3
f 28 1 29
f 28 29 3
f 29 1 30
f 29 30 3
f 30 1 31
f 30 31 3
f 31 1 32
f 31 32 3
f 32 1 33
f 32 33 3
f 33 1 34
f 33 34 3
f 34 1 2
f 34 2 3
f 35 47 36
f 36 47 48
f 36 48 37
f 37 48 49
f 37 49 38
f 38 49 50
f 38 50 39
f 39 50 51
f 39 51 40
f 40 51 52
f 40 52 41
f 41 52 53
f 41 53 42
f 42 53 54
f 42 54 43
f 43 54 55
f 43 55 44
f 44 55 56
f 44 56 45
f 45 56 57
f 45 57 46
f 46 57 58
f 46 58 35
f 35 58 47
f 47 59 48
f 48 59 60
f 48 60 49
f 49 60 61
f 49 61 50
f 50 61 62
f 50 62 51
f 51 62 63
f 51 63 52
f 52 63 64
f 52 64 53
f 53 64 65
f 53 65 54
f 54 65 66
f 54 66 55
f 55 66 67
f 55 67 56
f 56 67 68
f 56 68 57
f 57 68 69
f 57 69 58
f 58 69 70
f 58 70 47
f 47 70 59
f 59 71 60
f 60 71 72
f 60 72 61
f 61 72 73
f 61 73 62
f 62 73 74
f 62 74 63
f 63 74 75
f 63 75 64
f 64 75 76
f 64 76 65
f 65 76 77
f 65 77 66
f 66 77 78
f 66 78 67
f 67 78 79
f 67 79 68
f 68 79 80
f 68 80 69
f 69 80 81
f 69 81 70
f 70 81 82
f 70 82 59
f 59 82 71
f 71 83 72
f 72 83 84
f 72 84 73
f 73 84 85
f 73 85 74
f 74 85 86
f 74 86 75
f 75 86 87
f 75 87 76
f 76 87 88
f 76 88 77
f 77 88 89
f 77 89 78
f 78 89 90
f 78 90 79
f 79 90 91
f 79 91 80
f 80 91 92
f 80 92 81
f 81 92 93
f 81 93 82
f 82 93 94
f 82 94 71
f 71 94 83
f 83 95 84
f 84 95 96
f 84 96 85
f 85 96 97
f 85 97 86
f 86 97 98
f 86 98 87
f 87 98 99
f 87 99 88
f 88 99 100
f 88 100 89
f 89 100 101
f 89 101 90
f 90 101 102
f 90 102 91
f 91 102 103
f 91 103 92
f 92 103 104
f 92 104 93
f 93 104 105
f 93 105 94
f 94 105 106
f 94 106 83
f 83 106 95
f 95 107 96
f 96 107 108
f 96 108 97
f 97 108 109
f 97 109 98
f 98 109 110
f 98 110 99
f 99 110 111
f 99 111 100
f 100 111 112
f 100 112 101
f 101 112 113
f 101 113 102
f 102 113 114
f 102 114 103
f 103 114 115
f 103 115 104
f 104 115 116
f 104 116 105
f 105 116 117
f 105 117 106
f 106 117 118
f 106 118 95
f 95 118 107
f 107 119 108
f 108 119 120
f 108 120 109
f 109 120 121
f 109 121 110
f 110 121 122
f 110 122 111
f 111 122 123
f 111 123 112
f 112 123 124
f 112 124 113
f 113 124 125
f 113 125 114
f 114 125 126
f 114 126 115
f 115 126 127
f 115 127 116
f 116 127 128
f 116 128 117
f 117 128 129
f 117 129 118
f 118 129 130
f 118 130 107
f 107 130 119
f 119 131 120
f 120 131 132
f 120 132 121
f 121 132 133
f 121 133 122
f 122 133 134
f 122 134 123
f 123 134 135
f 123 135 124
f 124 135 136
f 124 136 125
f 125 136 137
f 125 137 126
f 126 137 138
f 126 138 127
f 127 138 139
f 127 139 128
f 128 139 140
f 128 140 129
f 129 140 141
f 129 141 130
f 130 141 142
f 130 142 119
f 119 142 131
f 131 143 132
f 132 143 144
f 132 144 133
f 133 144 145
f 133 145 134
f 134 145 146
f 134 146 135
f 135 146 147
f 135 147 136
f 136 147 148
f 136 148 137
f 137 148 149
f 137 149 138
f 138 149 150
f 138 150 139
f 139 150 151
f 139 151 140
f 140 151 152
f 140 152 141
f 141 152 153
f 141 153 142
f 142 153 154
f 142 154 131
f 131 154 143
f 143 155 144
f 144 155 156
f 144 156 145
f 145 156 157
f 145 157 146
f 146 157 158
f 146 158 147
f 147 158 159
f 147 159 148
f 148 159 160
f 148 160 149
f 149 160 161
f 149 161 150
f 150 161 162
f 150 162 151
f 151 162 163
f 151 163 152
f 152 163 164
f 152 164 153
f 153 164 165
f 153 165 154
f 154 165 166
f 154 166 143
f 143 166 155
f 155 167 156
f 156 167 168
f 156 168 157
f 157 168 169
f 157 169 158
f 158 169 170
f 158 170 159
f 159 170 171
f 159 171 160
f 160 171 172
f 160 172 161
f 161 172 173
f 161 173 162
f 162 173 174
f 162 174 163
f 163 174 175
f 163 175 164
f 164 175 176
f 164 176 165
f 165 176 177
f 165 177 166
f 166 177 178
f 166 178 155
f 155 178 167
f 167 179 168
f 168 179 180
f 168 180 169
f 169 180 181
f 169 181 170
f 170 181 182
f 170 182 171
f 171 182 183
f 171 183 172
f 172 183 184
f 172 184 173
f 173 184 185
f 173 185 174
f 174 185 186
f 174 186 175
f 175 186 187
f 175 187 176
f 176 187 188
f 176 188 177
f 177 188 189
f 177 189 178
f 178 189 190
f 178 190 167
f 167 190 179
f 179 191 180
f 180 191 192
f 180 192 181
f 181 192 193
f 181 193 182
f 182 193 194
f 182 194 183
f 183 194 195
f 183 195 184
f 184 195 196
f 184 196 185
f 185 196 197
f 185 197 186
f 186 197 198
f 186 198 187
f 187 198 199
f 187 199 188
f 188 199 200
f 188 200 189
f 189 200 201
f 189 201 190
f 190 201 202
f 190 202 179
f 179 202 191
f 191 203 192
f 192 203 204
f 192 204 193
f 193 204 205
f 193 205 194
f 194 205 206
f 194 206 195
f 195 206 207
f 195 207 196
f 196 207 208
f 196 208 197
f 197 208 209
f 197 209 198
f 198 209 210
f 198 210 199
f 199 210 211
f 199 211 200
f 200 211 212
f 200 212 201
f 201 212 213
f 201 213 202
f 202 213 214
f 202 214 191
f 191 214 203
f 203 215 204
f 204 215 216
f 204 216 205
f 205 216 217
f 205 217 206
f 206 217 218
f 206 218 207
f 207 218 219
f 207 219 208
f 208 219 220
f 208 220 209
f 209 220 221
f 209 221 210
f 210 221 222
f 210 222 211
f 211 222 223
f 211 223 212
f 212 223 224
f 212 224 213
f 213 224 225
f 213 225 214
f 214 225 226
f 214 226 203
f 203 226 215
f 215 227 216
f 216 227 228
f 216 228 217
f 217 228 229
f 217 229 218
f 218 229 230
f 218 230 219
f 219 230 231
f 219 231 220
f 220 231 232
f 220 232 221
f 221 232 233
f 221 233 222
f 222 233 234
f 222 234 223
f 223 234 235
f 223 235 224
f 224 235 236
f 224 236 225
f 225 236 237
f 225 237 226
f 226 237 238
f 226 238 215
f 215 238 227
f 227 239 228
f 228 239 240
f 228 240 229
f 229 240 241
f 229 241 230
f 230 241 242
f 230 242 231
f 231 242 243
f 231 243 232
f 232 243 244
f 232 244 233
f 233 244 245
f 233 245 234
f 234 245 246
f 234 246 235
f 235 246 247
f 235 247 236
f 236 247 248
f 236 248 237
f 237 248 249
f 237 249 238
f 238 249 250
f 238 250 227
f 227 250 239
f 239 251 240
f 240 251 252
f 240 252 241
f 241 252 253
f 241 253 242
f 242 253 254
f 242 254 243
f 243 254 255
f 243 255 244
f 244 255 256
f 244 256 245
f 245 256 257
f 245 257 246
f 246 257 258
f 246 258 247
f 247 258 259
f 247 259 248
f 248 259 260
f 248 260 249
f 249 260 261
f 249 261 250
f 250 261 262
f 250 262 239
f 239 262 251
f 251 263 252
f 252 263 264
f 252 264 253
f 253 264 265
f 253 265 254
f 254 265 266
f 254 266 255
f 255 266 267
f 255 267 256
f 256 267 268
f 256 268 257
f 257 268 269
f 257 269 258
f 258 269 270
f 258 270 259
f 259 270 271
f 259 271 260
f 260 271 272
f 260 272 261
f 261 272 273
f 261 273 262
f 262 273 274
f 262 274 251
f 251 274 263
f 263 275 264
f 264 275 276
f 264 276 265
f 265 276 277
f 265 277 266
f 266 277 278
f 266 278 267
f 267 278 279
f 267 279 268
f 268 279 280
f 268 280 269
f 269 280 281
f 269 281 270
f 270 281 282
f 270 282 271
f 271 282 283
f 271 283 272
f 272 283 284
f 272 284 273
f 273 284 285
f 273 285 274
f 274 285 286
f 274 286 263
f 263 286 275
f 275 287 276
f 276 287 288
f 276 288 277
f 277 288 289
f 277 289 278
f 278 289 290
f 278 290 279
f 279 290 291
f 279 291 280
f 280 291 292
f 280 292 281
f 281 292 293
f 281 293 282
f 282 293 294
f 282 294 283
f 283 294 295
f 283 295 284
f 284 295 296
f 284 296 285
f 285 296 297
f 285 297 286
f 286 297 298
f 286 298 275
f 275 298 287
f 287 299 288
f 288 299 300
f 288 300 289
f 289 300 301
f 289 301 290
f 290 301 302
f 290 302 291
f 291 302 303
f 291 303 292
f 292 303 304
f 292 304 293
f 293 304 305
f 293 305 294
f 294 305 306
f 294 306 295
f 295 306 307
f 295 307 296
f 296 307 308
f 296 308 297
f 297 308 309
f 297 309 298
f 298 309 310
f 298 310 287
f 287 310 299
f 299 311 300
f 300 311 312
f 300 312 301
f 301 312 313
f 301 313 302
f 302 313 314
f 302 314 303
f 303 314 315
f 303 315 304
f 304 315 316
f 304 316 305
f 305 316 317
f 305 317 306
f 306 317 318
f 306 318 307
f 307 318 319
f 307 319 308
f 308 319 320
f 308 320 309
f 309 320 321
f 309 321 310
f 310 321 322
f 310 322 299
f 299 322 311
f 311 323 312
f 312 323 324
f 312 324 313
f 313 324 325
f 313 325 314
f 314 325 326
f 314 326 315
f 315 326 327
f 315 327 316
f 316 327 328
f 316 328 317
f 317 328 329
f 317 329 318
f 318 329 330
f 318 330 319
f 319 330 331
f 319 331 320
f 320 331 332
f 320 332 321
f 321 332 333
f 321 333 322
f 322 333 334
f 322 334 311
f 311 334 323
f 323 335 324
f 324 335 336
f 324 336 325
f 325 336 337
f 325 337 326
f 326 337 338
f 326 338 327
f 327 338 339
f 327 339 328
f 328 339 340
f 328 340 329
f 329 340 341
f 329 341 330
f 330 341 342
f 330 342 331
f 331 342 343
f 331 343 332
f 332 343 344
f 332 344 333
f 333 344 345
f 333 345 334
f 334 345 346
f 334 346 323
f 323 346 335
f 335 347 336
f 336 347 348
f 336 348 337
f 337 348 349
f 337 349 338
f 338 349 350
f 338 350 339
f 339 350 351
f 339 351 340
f 340 351 352
f 340 352 341
f 341 352 353
f 341 353 342
f 342 353 354
f 342 354 343
f 343 354 355
f 343 355 344
f 344 355 356
f 344 356 345
f 345 356 357
f 345 357 346
f 346 357 358
f 346 358 335
f 335 358 347
f 347 359 348
f 348 359 360
f 348 360 349
f 349 360 361
f 349 361 350
f 350 361 362
f 350 362 351
f 351 362 363
f 351 363 352
f 352 363 364
f 352 364 353
f 353 364 365
f 353 365 354
f 354 365 366
f 354 366 355
f 355 366 367
f 355 367 356
f 356 367 368
f 356 368 357
f 357 368 369
f 357 369 358
f 358 369 370
f 358 370 347
f 347 370 359
f 359 371 360
f 360 371 372
f 360 372 361
f 361 372 373
f 361 373 362
f 362 373 374
f 362 374 363
f 363 374 375
f 363 375 364
f 364 375 376
f 364 376 365
f 365 376 377
f 365 377 366
f 366 377 378
f 366 378 367
f 367 378 379
f 367 379 368
f 368 379 380
f 368 380 369
f 369 380 381
f 369 381 370
f 370 381 382
f 370 382 359
f 359 382 371
f 371 383 372
f 372 383 384
f 372 384 373
f 373 384 385
f 373 385 374
f 374 385 386
f 374 386 375
f 375 386 387
f 375 387 376
f 376 387 388
f 376 388 377
f 377 388 389
f 377 389 378
f 378 389 390
f 378 390 379
f 379 390 391
f 379 391 380
f 380 391 392
f 380 392 381
f 381 392 393
f 381 393 382
f 382 393 394
f 382 394 371
f 371 394 383
f 383 395 384
f 384 395 396
f 384 396 385
f 385 396 397
f 385 397 386
f 386 397 398
f 386 398 387
f 387 398 399
f 387 399 388
f 388 399 400
f 388 400 389
f 389 400 401
f 389 401 390
f 390 401 402
f 390 402 391
f 391 402 403
f 391 403 392
f 392 403 404
f 392 404 393
f 393 404 405
f 393 405 394
f 394 405 406
f 394 406 383
f 383 406 395
f 395 407 396
f 396 407 408
f 396 408 397
f 397 408 409
f 397 409 398
f 398 409 410
f 398 410 399
f 399 410 411
f 399 411 400
f 400 411 412
f 400 412 401
f 401 412 413
f 401 413 402
f 402 413 414
f 402 414 403
f 403 414 415
f 403 415 404
f 404 415 416
f 404 416 405
f 405 416 417
f 405 417 406
f 406 417 418
f 406 418 395
f 395 418 407
f 407 419 408
f 408 419 420
f 408 420 409
f 409 420 421
f 409 421 410
f 410 421 422
f 410 422 411
f 411 422 423
f 411 423 412
f 412 423 424
f 412 424 413
f 413 424 425
f 413 425 414
f 414 425 426
f 414 426 415
f 415 426 427
f 415 427 416
f 416 427 428
f 416 428 417
f 417 428 429
f 417 429 418
f 418 429 430
f 418 430 407
f 407 430 419
f 419 431 420
f 420 431 432
f 420 432 421
f 421 432 433
f 421 433 422
f 422 433 434
f 422 434 423
f 423 434 435
f 423 435 424
f 424 435 436
f 424 436 425
f 425 436 437
f 425 437 426
f 426 437 438
f 426 438 427
f 427 438 439
f 427 439 428
f 428 439 440
f 428 440 429
f 429 440 441
f 429 441 430
f 430 441 442
f 430 442 419
f 419 442 431
f 431 443 432
f 432 443 444
f 432 444 433
f 433 444 445
f 433 445 434
f 434 445 446
f 434 446 435
f 435 446 447
f 435 447 436
f 436 447 448
f 436 448 437
f 437 448 449
f 437 449 438
f 438 449 450
f 438 450 439
f 439 450 451
f 439 451 440
f 440 451 452
f 440 452 441
f 441 452 453
f 441 453 442
f 442 453 454
f 442 454 431
f 431 454 443
f 443 455 444
f 444 455 456
f 444 456 445
f 445 456 457
f 445 457 446
f 446 457 458
f 446 458 447
f 447 458 459
f 447 459 448
f 448 459 460
f 448 460 449
f 449 460 461
f 449 461 450
f 450 461 462
f 450 462 451
f 451 462 463
f 451 463 452
f 452 463 464
f 452 464 453
f 453 464 465
f 453 465 454
f 454 465 466
f 454 466 443
f 443 466 455
f 455 35 456
f 456 35 36
f 456 36 457
f 457 36 37
f 457 37 458
f 458 37 38
f 458 38 459
f 459 38 39
f 459 39 460
f 460 39 40
f 460 40 461
f 461 40 41
f 461 41 462
f 462 41 42
f 462 42 463
f 463 42 43
f 463 43 464
f 464 43 44
f 464 44 465
f 465 44 45
f 465 45 466
f 466 45 46
f 466 46 455
f 455 46 35
f 467 479 468
f 468 479 480
f 468 480 469
f 469 480 481
f 469 481 470
f 470 481 482
f 470 482 471
f 471 482 483
f 471 483 472
f 472 483 484
f 472 484 473
f 473 484 485
f 473 485 474
f 474 485 486
f 474 486 475
f 475 486 487
f 475 487 476
f 476 487 488
f 476 488 477
f 477 488 489
f 477 489 478
f 478 489 490
f 478 490 467
f 467 490 479
f 479 491 480
f 480 491 492
f 480 492 481
f 481 492 493
f 481 493 482
f 482 493 494
f 482 494 483
f 483 494 495
f 483 495 484
f 484 495 496
f 484 496 485
f 485 496 497
f 485 497 486
f 486 497 498
f 486 498 487
f 487 498 499
f 487 499 488
f 488 499 500
f 488 500 489
f 489 500 501
f 489 501 490
f 490 501 502
f 490 502 479
f 479 502 491
f 491 503 492
f 492 503 504
f 492 504 493
f 493 504 505
f 493 505 494
f 494 505 506
f 494 506 495
f 495 506 507
f 495 507 496
f 496 507 508
f 496 508 497
f 497 508 509
f 497 509 498
f 498 509 510
f 498 510 499
f 499 510 511
f 499 511 500
f 500 511 512
f 500 512 501
f 501 512 513
f 501 513 502
f 502 513 514
f 502 514 491
f 491 514 503
f 503 515 504
f 504 515 516
f 504 516 505
f 505 516 517
f 505 517 506
f 506 517 518
f 506 518 507
f 507 518 519
f 507 519 508
f 508 519 520
f 508 520 509
f 509 520 521
f 509 521 510
f 510 521 522
f 510 522 511
f 511 522 523
f 511 523 512
f 512 523 524
f 512 524 513
f 513 524 525
f 513 525 514
f 514 525 526
f 514 526 503
f 503 526 515
f 515 527 516
f 516 527 528
f 516 528 517
f 517 528 529
f 517 529 518
f 518 529 530
f 518 530 519
f 519 530 531
f 519 531 520
f 520 531 532
f 520 532 521
f 521 532 533
f 521 533 522
f 522 533 534
f 522 534 523
f 523 534 535
f 523 535 524
f 524 535 536
f 524 536 525
f 525 536 537
f 525 537 526
f 526 537 538
f 526 538 515
f 515 538 527
f 527 539 528
f 528 539 540
f 528 540 529
f 529 540 541
f 529 541 530
f 530 541 542
f 530 542 531
f 531 542 543
f 531 543 532
f 532 543 544
f 532 544 533
f 533 544 545
f 533 545 534
f 534 545 546
f 534 546 535
f 535 546 547
f 535 547 536
f 536 547 548
f 536 548 537
f 537 548 549
f 537 549 538
f 538 549 550
f 538 550 527
f 527 550 539
f 539 551 540
f 540 551 552
f 540 552 541
f 541 552 553
f 541 553 542
f 542 553 554
f 542 554 543
f 543 554 555
f 543 555 544
f 544 555 556
f 544 556 545
f 545 556 557
f 545 557 546
f 546 557 558
f 546 558 547
f 547 558 559
f 547 559 548
f 548 559 560
f 548 560 549
f 549 560 561
f 549 561 550
f 550 561 562
f 550 562 539
f 539 562 551
f 551 563 552
f 552 563 564
f 552 564 553
f 553 564 565
f 553 565 554
f 554 565 566
f 554 566 555
f 555 566 567
f 555 567 556
f 556 567 568
f 556 568 557
f 557 568 569
f 557 569 558
f 558 569 570
f 558 570 559
f 559 570 571
f 559 571 560
f 560 571 572
f 560 572 561
f 561 572 573
f 561 573 562
f 562 573 574
f 562 574 551
f 551 574 563
f 563 575 564
f 564 575 576
f 564 576 565
f 565 576 577
f 565 577 566
f 566 577 578
f 566 578 567
f 567 578 579
f 567 579 568
f 568 579 580
f 568 580 569
f 569 580 581
f 569 581 570
f 570 581 582
f 570 582 571
f 571 582 583
f 571 583 572
f 572 583 584
f 572 584 573
f 573 584 585
f 573 585 574
f 574 585 586
f 574 586 563
f 563 586 575
f 575 587 576
f 576 587 588
f 576 588 577
f 577 588 589
f 577 589 578
f 578 589 590
f 578 590 579
f 579 590 591
f 579 591 580
f 580 591 592
f 580 592 581
f 581 592 593
f 581 593 582
f 582 593 594
f 582 594 583
f 583 594 595
f 583 595 584
f 584 595 596
f 584 596 585
f 585 596 597
f 585 597 586
f 586 597 598
f 586 598 575
f 575 598 587
f 587 599 588
f 588 599 600
f 588 600 589
f 589 600 601
f 589 601 590
f 590 601 602
f 590 602 591
f 591 602 603
f 591 603 592
f 592 603 604
f 592 604 593
f 593 604 605
f 593 605 594
f 594 605 606
f 594 606 595
f 595 606 607
f 595 607 596
f 596 607 608
f 596 608 597
f 597 608 609
f 597 609 598
f 598 609 610
f 598 610 587
f 587 610 599
f 599 611 600
f 600 611 612
f 600 612 601
f 601 612 613
f 601 613 602
f 602 613 614
f 602 614 603
f 603 614 615
f 603 615 604
f 604 615 616
f 604 616 605
f 605 616 617
f 605 617 606
f 606 617 618
f 606 618 607
f 607 618 619
f 607 619 608
f 608 619 620
f 608 620 609
f 609 620 621
f 609 621 610
f 610 621 622
f 610 622 599
f 599 622 611
f 611 623 612
f 612 623 624
f 612 624 613
f 613 624 625
f 613 625 614
f 614 625 626
f 614 626 615
f 615 626 627
f 615 627 616
f 616 627 628
f 616 628 617
f 617 628 629
f 617 629 618
f 618 629 630
f 618 630 619
f 619 630 631
f 619 631 620
f 620 631 632
f 620 632 621
f 621 632 633
f 621 633 622
f 622 633 634
f 622 634 611
f 611 634 623
f 623 635 624
f 624 635 636
f 624 636 625
f 625 636 637
f 625 637 626
f 626 637 638
f 626 638 627
f 627 638 639
f 627 639 628
f 628 639 640
f 628 640 629
f 629 640 641
f 629 641 630
f 630 641 642
f 630 642 631
f 631 642 643
f 631 643 632
f 632 643 644
f 632 644 633
f 633 644 645
f 633 645 634
f 634 645 646
f 634 646 623
f 623 646 635
f 635 647 636
f 636 647 648
f 636 648 637
f 637 648 649
f 637 649 638
f 638 649 650
f 638 650 639
f 639 650 651
f 639 651 640
f 640 651 652
f 640 652 641
f 641 652 653
f 641 653 642
f 642 653 654
f 642 654 643
f 643 654 655
f 643 655 644
f 644 655 656
f 644 656 645
f 645 656 657
f 645 657 646
f 646 657 658
f 646 658 635
f 635 658 647
f 647 659 648
f 648 659 660
f 648 660 649
f 649 660 661
f 649 661 650
f 650 661 662
f 650 662 651
f 651 662 663
f 651 663 652
f 652 663 664
f 652 664 653
f 653 664 665
f 653 665 654
f 654 665 666
f 654 666 655
f 655 666 667
f 655 667 656
f 656 667 668
f 656 668 657
f 657 668 669
f 657 669 658
f 658 669 670
f 658 670 647
f 647 670 659
f 659 671 660
f 660 671 672
f 660 672 661
f 661 672 673
f 661 673 662
f 662 673 674
f 662 674 663
f 663 674 675
f 663 675 664
f 664 675 676
f 664 676 665
f 665 676 677
f 665 677 666
f 666 677 678
f 666 678 667
f 667 678 679
f 667 679 668
f 668 679 680
f 668 680 669
f 669 680 681
f 669 681 670
f 670 681 682
f 670 682 659
f 659 682 671
f 671 683 672
f 672 683 684
f 672 684 673
f 673 684 685
f 673 685 674
f 674 685 686
f 674 686 675
f 675 686 687
f 675 687 676
f 676 687 688
f 676 688 677
f 677 688 689
f 677 689 678
f 678 689 690
f 678 690 679
f 679 690 691
f 679 691 680
f 680 691 692
f 680 692 681
f 681 692 693
f 681 693 682
f 682 693 694
f 682 694 671
f 671 694 683
f 683 695 684
f 684 695 696
f 684 696 685
f 685 696 697
f 685 697 686
f 686 697 698
f 686 698 687
f 687 698 699
f 687 699 688
f 688 699 700
f 688 700 689
f 689 700 701
f 689 701 690
f 690 701 702
f 690 702 691
f 691 702 703
f 691 703 692
f 692 703 704
f 692 704 693
f 693 704 705
f 693 705 694
f 694 705 706
f 694 706 683
f 683 706 695
f 695 707 696
f 696 707 708
f 696 708 697
f 697 708 709
f 697 709 698
f 698 709 710
f 698 710 699
f 699 710 711
f 699 711 700
f 700 711 712
f 700 712 701
f 701 712 713
f 701 713 702
f 702 713 714
f 702 714 703
f 703 714 715
f 703 715 704
f 704 715 716
f 704 716 705
f 705 716 717
f 705 717 706
f 706 717 718
f 706 718 695
f 695 718 707
f 707 719 708
f 708 719 720
f 708 720 709
f 709 720 721
f 709 721 710
f 710 721 722
f 710 722 711
f 711 722 723
f 711 723 712
f 712 723 724
f 712 724 713
f 713 724 725
f 713 725 714
f 714 725 726
f 714 726 715
f 715 726 727
f 715 727 716
f 716 727 728
f 716 728 717
f 717 728 729
f 717 729 718
f 718 729 730
f 718 730 707
f 707 730 719
f 719 731 720
f 720 731 732
f 720 732 721
f 721 732 733
f 721 733 722
f 722 733 734
f 722 734 723
f 723 734 735
f 723 735 724
f 724 735 736
f 724 736 725
f 725 736 737
f 725 737 726
f 726 737 738
f 726 738 727
f 727 738 739
f 727 739 728
f 728 739 740
f 728 740 729
f 729 740 741
f 729 741 730
f 730 741 742
f 730 742 719
f 719 742 731
f 731 743 732
f 732 743 744
f 732 744 733
f 733 744 745
f 733 745 734
f 734 745 746
f 734 746 735
f 735 746 747
f 735 747 736
f 736 747 748
f 736 748 737
f 737 748 749
f 737 749 738
f 738 749 750
f 738 750 739
f 739 750 751
f 739 751 740
f 740 751 752
f 740 752 741
f 741 752 753
f 741 753 742
f 742 753 754
f 742 754 731
f 731 754 743
f 743 755 744
f 744 755 756
f 744 756 745
f 745 756 757
f 745 757 746
f 746 757 758
f 746 758 747
f 747 758 759
f 747 759 748
f 748 759 760
f 748 760 749
f 749 760 761
f 749 761 750
f 750 761 762
f 750 762 751
f 751 762 763
f 751 763 752
f 752 763 764
f 752 764 753
f 753 764 765
f 753 765 754
f 754 765 766
f 754 766 743
f 743 766 755
f 755 767 756
f 756 767 768
f 756 768 757
f 757 768 769
f 757 769 758
f 758 769 770
f 758 770 759
f 759 770 771
f 759 771 760
f 760 771 772
f 760 772 761
f 761 772 773
f 761 773 762
f 762 773 774
f 762 774 763
f 763 774 775
f 763 775 764
f 764 775 776
f 764 776 765
f 765 776 777
f 765 777 766
f 766 777 778
f 766 778 755
f 755 778 767
f 767 779 768
f 768 779 780
f 768 780 769
f 769 780 781
f 769 781 770
f 770 781 782
f 770 782 771
f 771 782 783
f 771 783 772
f 772 783 784
f 772 784 773
f 773 784 785
f 773 785 774
f 774 785 786
f 774 786 775
f 775 786 787
f 775 787 776
f 776 787 788
f 776 788 777
f 777 788 789
f 777 789 778
f 778 789 790
f 778 790 767
f 767 790 779
f 779 791 780
f 780 791 792
f 780 792 781
f 781 792 793
f 781 793 782
f 782 793 794
f 782 794 783
f 783 794 795
f 783 795 784
f 784 795 796
f 784 796 785
f 785 796 797
f 785 797 786
f 786 797 798
f 786 798 787
f 787 798 799
f 787 799 788
f 788 799 800
f 788 800 789
f 789 800 801
f 789 801 790
f 790 801 802
f 790 802 779
f 779 802 791
f 791 803 792
f 792 803 804
f 792 804 793
f 793 804 805
f 793 805 794
f 794 805 806
f 794 806 795
f 795 806 807
f 795 807 796
f 796 807 808
f 796 808 797
f 797 808 809
f 797 809 798
f 798 809 810
f 798 810 799
f 799 810 811
f 799 811 800
f 800 811 812
f 800 812 801
f 801 812 813
f 801 813 802
f 802 813 814
f 802 814 791
f 791 814 803
f 803 815 804
f 804 815 816
f 804 816 805
f 805 816 817
f 805 817 806
f 806 817 818
f 806 818 807
f 807 818 819
f 807 819 808
f 808 819 820
f 808 820 809
f 809 820 821
f 809 821 810
f 810 821 822
f 810 822 811
f 811 822 823
f 811 823 812
f 812 823 824
f 812 824 813
f 813 824 825
f 813 825 814
f 814 825 826
f 814 826 803
f 803 826 815
f 815 827 816
f 816 827 828
f 816 828 817
f 817 828 829
f 817 829 818
f 818 829 830
f 818 830 819
f 819 830 831
f 819 831 820
f 820 831 832
f 820 832 821
f 821 832 833
f 821 833 822
f 822 833 834
f 822 834 823
f 823 834 835
f 823 835 824
f 824 835 836
f 824 836 825
f 825 836 837
f 825 837 826
f 826 837 838
f 826 838 815
f 815 838 827
f 827 839 828
f 828 839 840
f 828 840 829
f 829 840 841
f 829 841 830
f 830 841 842
f 830 842 831
f 831 842 843
f 831 843 832
f 832 843 844
f 832 844 833
f 833 844 845
f 833 845 834
f 834 845 846
f 834 846 835
f 835 846 847
f 835 847 836
f 836 847 848
f 836 848 837
f 837 848 849
f 837 849 838
f 838 849 850
f 838 850 827
f 827 850 839
f 839 851 840
f 840 851 852
f 840 852 841
f 841 852 853
f 841 853 842
f 842 853 854
f 842 854 843
f 843 854 855
f 843 855 844
f 844 855 856
f 844 856 845
f 845 856 857
f 845 857 846
f 846 857 858
f 846 858 847
f 847 858 859
f 847 859 848
f 848 859 860
f 848 860 849
f 849 860 861
f 849 861 850
f 850 861 862
f 850 862 839
f 839 862 851
f 851 863 852
f 852 863 864
f 852 864 853
f 853 864 865
f 853 865 854
f 854 865 866
f 854 866 855
f 855 866 867
f 855 867 856
f 856 867 868
f 856 868 857
f 857 868 869
f 857 869 858
f 858 869 870
f 858 870 859
f 859 870 871
f 859 871 860
f 860 871 872
f 860 872 861
f 861 872 873
f 861 873 862
f 862 873 874
f 862 874 851
f 851 874 863
f 863 875 864
f 864 875 876
f 864 876 865
f 865 876 877
f 865 877 866
f 866 877 878
f 866 878 867
f 867 878 879
f 867 879 868
f 868 879 880
f 868 880 869
f 869 880 881
f 869 881 870
f 870 881 882
f 870 882 871
f 871 882 883
f 871 883 872
f 872 883 884
f 872 884 873
f 873 884 885
f 873 885 874
f 874 885 886
f 874 886 863
f 863 886 875
f 875 887 876
f 876 887 888
f 876 888 877
f 877 888 889
f 877 889 878
f 878 889 890
f 878 890 879
f 879 890 891
f 879 891 880
f 880 891 892
f 880 892 881
f 881 892 893
f 881 893 882
f 882 893 894
f 882 894 883
f 883 894 895
f 883 895 884
f 884 895 896
f 884 896 885
f 885 896 897
f 885 897 886
f 886 897 898
f 886 898 875
f 875 898 887
f 887 467 888
f 888 467 468
f 888 468 889
f 889 468 469
f 889 469 890
f 890 469 470
f 890 470 891
f 891 470 471
f 891 471 892
f 892 471 472
f 892 472 893
f 893 472 473
f 893 473 894
f 894 473 474
f 894 474 895
f 895 474 475
f 895 475 896
f 896 475 476
f 896 476 897
f 897 476 477
f 897 477 898
f 898 477 478
f 898 478 887
f 887 478 467
f 900 902 899
f 903 900 899
f 899 902 901
f 901 903 899
f 900 906 902
f 904 900 903
f 904 906 900
f 902 906 901
f 905 903 901
f 901 906 905
f 905 904 903
f 906 904 905
