# https://github.com/mikedh/trimesh
v -2.50000000 -1.50000000 -1.00000000
v -2.50000000 -1.50000000 1.00000000
v -2.50000000 1.50000000 -1.00000000
v -2.50000000 1.50000000 1.00000000
v 2.50000000 -1.50000000 -1.00000000
v 2.50000000 -1.50000000 1.00000000
v 2.50000000 1.50000000 -1.00000000
v 2.50000000 1.50000000 1.00000000
v -2.10000000 -1.10000000 1.00000000
v -2.10000000 -1.10000000 1.20000000
v -2.10000000 1.10000000 1.00000000
v -2.10000000 1.10000000 1.20000000
v 2.10000000 -1.10000000 1.00000000
v 2.10000000 -1.10000000 1.20000000
v 2.10000000 1.10000000 1.00000000
v 2.10000000 1.10000000 1.20000000
v -1.40000000 0.00000000 0.80000000
v -0.95000000 0.00000000 0.80000000
v -0.95000000 0.00000000 2.20000000
v -1.40000000 0.00000000 2.20000000
v -0.96533338 0.11646857 0.80000000
v -0.96533338 0.11646857 2.20000000
v -1.01028857 0.22500000 0.80000000
v -1.01028857 0.22500000 2.20000000
v -1.08180195 0.31819805 0.80000000
v -1.08180195 0.31819805 2.20000000
v -1.17500000 0.38971143 0.80000000
v -1.17500000 0.38971143 2.20000000
v -1.28353143 0.43466662 0.80000000
v -1.28353143 0.43466662 2.20000000
v -1.40000000 0.45000000 0.80000000
v -1.40000000 0.45000000 2.20000000
v -1.51646857 0.43466662 0.80000000
v -1.51646857 0.43466662 2.20000000
v -1.62500000 0.38971143 0.80000000
v -1.62500000 0.38971143 2.20000000
v -1.71819805 0.31819805 0.80000000
v -1.71819805 0.31819805 2.20000000
v -1.78971143 0.22500000 0.80000000
v -1.78971143 0.22500000 2.20000000
v -1.83466662 0.11646857 0.80000000
v -1.83466662 0.11646857 2.20000000
v -1.85000000 0.00000000 0.80000000
v -1.85000000 0.00000000 2.20000000
v -1.83466662 -0.11646857 0.80000000
v -1.83466662 -0.11646857 2.20000000
v -1.78971143 -0.22500000 0.80000000
v -1.78971143 -0.22500000 2.20000000
v -1.71819805 -0.31819805 0.80000000
v -1.71819805 -0.31819805 2.20000000
v -1.62500000 -0.38971143 0.80000000
v -1.62500000 -0.38971143 2.20000000
v -1.51646857 -0.43466662 0.80000000
v -1.51646857 -0.43466662 2.20000000
v -1.40000000 -0.45000000 0.80000000
v -1.40000000 -0.45000000 2.20000000
v -1.28353143 -0.43466662 0.80000000
v -1.28353143 -0.43466662 2.20000000
v -1.17500000 -0.38971143 0.80000000
v -1.17500000 -0.38971143 2.20000000
v -1.08180195 -0.31819805 0.80000000
v -1.08180195 -0.31819805 2.20000000
v -1.01028857 -0.22500000 0.80000000
v -1.01028857 -0.22500000 2.20000000
v -0.96533338 -0.11646857 0.80000000
v -0.96533338 -0.11646857 2.20000000
v 0.00000000 0.00000000 0.80000000
v 0.45000000 0.00000000 0.80000000
v 0.45000000 0.00000000 2.20000000
v 0.00000000 0.00000000 2.20000000
v 0.43466662 0.11646857 0.80000000
v 0.43466662 0.11646857 2.20000000
v 0.38971143 0.22500000 0.80000000
v 0.38971143 0.22500000 2.20000000
v 0.31819805 0.31819805 0.80000000
v 0.31819805 0.31819805 2.20000000
v 0.22500000 0.38971143 0.80000000
v 0.22500000 0.38971143 2.20000000
v 0.11646857 0.43466662 0.80000000
v 0.11646857 0.43466662 2.20000000
v 0.00000000 0.45000000 0.80000000
v 0.00000000 0.45000000 2.20000000
v -0.11646857 0.43466662 0.80000000
v -0.11646857 0.43466662 2.20000000
v -0.22500000 0.38971143 0.80000000
v -0.22500000 0.38971143 2.20000000
v -0.31819805 0.31819805 0.80000000
v -0.31819805 0.31819805 2.20000000
v -0.38971143 0.22500000 0.80000000
v -0.38971143 0.22500000 2.20000000
v -0.43466662 0.11646857 0.80000000
v -0.43466662 0.11646857 2.20000000
v -0.45000000 0.00000000 0.80000000
v -0.45000000 0.00000000 2.20000000
v -0.43466662 -0.11646857 0.80000000
v -0.43466662 -0.11646857 2.20000000
v -0.38971143 -0.22500000 0.80000000
v -0.38971143 -0.22500000 2.20000000
v -0.31819805 -0.31819805 0.80000000
v -0.31819805 -0.31819805 2.20000000
v -0.22500000 -0.38971143 0.80000000
v -0.22500000 -0.38971143 2.20000000
v -0.11646857 -0.43466662 0.80000000
v -0.11646857 -0.43466662 2.20000000
v -0.00000000 -0.45000000 0.80000000
v -0.00000000 -0.45000000 2.20000000
v 0.11646857 -0.43466662 0.80000000
v 0.11646857 -0.43466662 2.20000000
v 0.22500000 -0.38971143 0.80000000
v 0.22500000 -0.38971143 2.20000000
v 0.31819805 -0.31819805 0.80000000
v 0.31819805 -0.31819805 2.20000000
v 0.38971143 -0.22500000 0.80000000
v 0.38971143 -0.22500000 2.20000000
v 0.43466662 -0.11646857 0.80000000
v 0.43466662 -0.11646857 2.20000000
v 1.40000000 0.00000000 0.80000000
v 1.85000000 0.00000000 0.80000000
v 1.85000000 0.00000000 2.20000000
v 1.40000000 0.00000000 2.20000000
v 1.83466662 0.11646857 0.80000000
v 1.83466662 0.11646857 2.20000000
v 1.78971143 0.22500000 0.80000000
v 1.78971143 0.22500000 2.20000000
v 1.71819805 0.31819805 0.80000000
v 1.71819805 0.31819805 2.20000000
v 1.62500000 0.38971143 0.80000000
v 1.62500000 0.38971143 2.20000000
v 1.51646857 0.43466662 0.80000000
v 1.51646857 0.43466662 2.20000000
v 1.40000000 0.45000000 0.80000000
v 1.40000000 0.45000000 2.20000000
v 1.28353143 0.43466662 0.80000000
v 1.28353143 0.43466662 2.20000000
v 1.17500000 0.38971143 0.80000000
v 1.17500000 0.38971143 2.20000000
v 1.08180195 0.31819805 0.80000000
v 1.08180195 0.31819805 2.20000000
v 1.01028857 0.22500000 0.80000000
v 1.01028857 0.22500000 2.20000000
v 0.96533338 0.11646857 0.80000000
v 0.96533338 0.11646857 2.20000000
v 0.95000000 0.00000000 0.80000000
v 0.95000000 0.00000000 2.20000000
v 0.96533338 -0.11646857 0.80000000
v 0.96533338 -0.11646857 2.20000000
v 1.01028857 -0.22500000 0.80000000
v 1.01028857 -0.22500000 2.20000000
v 1.08180195 -0.31819805 0.80000000
v 1.08180195 -0.31819805 2.20000000
v 1.17500000 -0.38971143 0.80000000
v 1.17500000 -0.38971143 2.20000000
v 1.28353143 -0.43466662 0.80000000
v 1.28353143 -0.43466662 2.20000000
v 1.40000000 -0.45000000 0.80000000
v 1.40000000 -0.45000000 2.20000000
v 1.51646857 -0.43466662 0.80000000
v 1.51646857 -0.43466662 2.20000000
v 1.62500000 -0.38971143 0.80000000
v 1.62500000 -0.38971143 2.20000000
v 1.71819805 -0.31819805 0.80000000
v 1.71819805 -0.31819805 2.20000000
v 1.78971143 -0.22500000 0.80000000
v 1.78971143 -0.22500000 2.20000000
v 1.83466662 -0.11646857 0.80000000
v 1.83466662 -0.11646857 2.20000000
f 2 4 1
f 5 2 1
f 1 4 3
f 3 5 1
f 2 8 4
f 6 2 5
f 6 8 2
f 4 8 3
f 7 5 3
f 3 8 7
f 7 6 5
f 8 6 7
f 10 12 9
f 13 10 9
f 9 12 11
f 11 13 9
f 10 16 12
f 14 10 13
f 14 16 10
f 12 16 11
f 15 13 11
f 11 16 15
f 15 14 13
f 16 14 15
f 18 17 21
f 18 21 19
f 19 21 22
f 19 22 20
f 21 17 23
f 21 23 22
f 22 23 24
f 22 24 20
f 23 17 25
f 23 25 24
f 24 25 26
f 24 26 20
f 25 17 27
f 25 27 26
f 26 27 28
f 26 28 20
f 27 17 29
f 27 29 28
f 28 29 30
f 28 30 20
f 29 17 31
f 29 31 30
f 30 31 32
f 30 32 20
f 31 17 33
f 31 33 32
f 32 33 34
f 32 34 20
f 33 17 35
f 33 35 34
f 34 35 36
f 34 36 20
f 35 17 37
f 35 37 36
f 36 37 38
f 36 38 20
f 37 17 39
f 37 39 38
f 38 39 40
f 38 40 20
f 39 17 41
f 39 41 40
f 40 41 42
f 40 42 20
f 41 17 43
f 41 43 42
f 42 43 44
f 42 44 20
f 43 17 45
f 43 45 44
f 44 45 46
f 44 46 20
f 45 17 47
f 45 47 46
f 46 47 48
f 46 48 20
f 47 17 49
f 47 49 48
f 48 49 50
f 48 50 20
f 49 17 51
f 49 51 50
f 50 51 52
f 50 52 20
f 51 17 53
f 51 53 52
f 52 53 54
f 52 54 20
f 53 17 55
f 53 55 54
f 54 55 56
f 54 56 20
f 55 17 57
f 55 57 56
f 56 57 58
f 56 58 20
f 57 17 59
f 57 59 58
f 58 59 60
f 58 60 20
f 59 17 61
f 59 61 60
f 60 61 62
f 60 62 20
f 61 17 63
f 61 63 62
f 62 63 64
f 62 64 20
f 63 17 65
f 63 65 64
f 64 65 66
f 64 66 20
f 65 17 18
f 65 18 66
f 66 18 19
f 66 19 20
f 68 67 71
f 68 71 69
f 69 71 72
f 69 72 70
f 71 67 73
f 71 73 72
f 72 73 74
f 72 74 70
f 73 67 75
f 73 75 74
f 74 75 76
f 74 76 70
f 75 67 77
f 75 77 76
f 76 77 78
f 76 78 70
f 77 67 79
f 77 79 78
f 78 79 80
f 78 80 70
f 79 67 81
f 79 81 80
f 80 81 82
f 80 82 70
f 81 67 83
f 81 83 82
f 82 83 84
f 82 84 70
f 83 67 85
f 83 85 84
f 84 85 86
f 84 86 70
f 85 67 87
f 85 87 86
f 86 87 88
f 86 88 70
f 87 67 89
f 87 89 88
f 88 89 90
f 88 90 70
f 89 67 91
f 89 91 90
f 90 91 92
f 90 92 70
f 91 67 93
f 91 93 92
f 92 93 94
f 92 94 70
f 93 67 95
f 93 95 94
f 94 95 96
f 94 96 70
f 95 67 97
f 95 97 96
f 96 97 98
f 96 98 70
f 97 67 99
f 97 99 98
f 98 99 100
f 98 100 70
f 99 67 101
f 99 101 100
f 100 101 102
f 100 102 70
f 101 67 103
f 101 103 102
f 102 103 104
f 102 104 70
f 103 67 105
f 103 105 104
f 104 105 106
f 104 106 70
f 105 67 107
f 105 107 106
f 106 107 108
f 106 108 70
f 107 67 109
f 107 109 108
f 108 109 110
f 108 110 70
f 109 67 111
f 109 111 110
f 110 111 112
f 110 112 70
f 111 67 113
f 111 113 112
f 112 113 114
f 112 114 70
f 113 67 115
f 113 115 114
f 114 115 116
f 114 116 70
f 115 67 68
f 115 68 116
f 116 68 69
f 116 69 70
f 118 117 121
f 118 121 119
f 119 121 122
f 119 122 120
f 121 117 123
f 121 123 122
f 122 123 124
f 122 124 120
f 123 117 125
f 123 125 124
f 124 125 126
f 124 126 120
f 125 117 127
f 125 127 126
f 126 127 128
f 126 128 120
f 127 117 129
f 127 129 128
f 128 129 130
f 128 130 120
f 129 117 131
f 129 131 130
f 130 131 132
f 130 132 120
f 131 117 133
f 131 133 132
f 132 133 134
f 132 134 120
f 133 117 135
f 133 135 134
f 134 135 136
f 134 136 120
f 135 117 137
f 135 137 136
f 136 137 138
f 136 138 120
f 137 117 139
f 137 139 138
f 138 139 140
f 138 140 120
f 139 117 141
f 139 141 140
f 140 141 142
f 140 142 120
f 141 117 143
f 141 143 142
f 142 143 144
f 142 144 120
f 143 117 145
f 143 145 144
f 144 145 146
f 144 146 120
f 145 117 147
f 145 147 146
f 146 147 148
f 146 148 120
f 147 117 149
f 147 149 148
f 148 149 150
f 148 150 120
f 149 117 151
f 149 151 150
f 150 151 152
f 150 152 120
f 151 117 153
f 151 153 152
f 152 153 154
f 152 154 120
f 153 117 155
f 153 155 154
f 154 155 156
f 154 156 120
f 155 117 157
f 155 157 156
f 156 157 158
f 156 158 120
f 157 117 159
f 157 159 158
f 158 159 160
f 158 160 120
f 159 117 161
f 159 161 160
f 160 161 162
f 160 162 120
f 161 117 163
f 161 163 162
f 162 163 164
f 162 164 120
f 163 117 165
f 163 165 164
f 164 165 166
f 164 166 120
f 165 117 118
f 165 118 166
f 166 118 119
f 166 119 120
