# https://github.com/mikedh/trimesh
v -2.25000000 0.00000000 -0.00000000
v -2.25000000 0.00000000 -2.00000000
v 2.25000000 0.00000000 -2.00000000
v 2.25000000 0.00000000 0.00000000
v -2.25000000 0.51763809 -1.93185165
v 2.25000000 0.51763809 -1.93185165
v -2.25000000 1.00000000 -1.73205081
v 2.25000000 1.00000000 -1.73205081
v -2.25000000 1.41421356 -1.41421356
v 2.25000000 1.41421356 -1.41421356
v -2.25000000 1.73205081 -1.00000000
v 2.25000000 1.73205081 -1.00000000
v -2.25000000 1.93185165 -0.51763809
v 2.25000000 1.93185165 -0.51763809
v -2.25000000 2.00000000 -0.00000000
v 2.25000000 2.00000000 0.00000000
v -2.25000000 1.93185165 0.51763809
v 2.25000000 1.93185165 0.51763809
v -2.25000000 1.73205081 1.00000000
v 2.25000000 1.73205081 1.00000000
v -2.25000000 1.41421356 1.41421356
v 2.25000000 1.41421356 1.41421356
v -2.25000000 1.00000000 1.73205081
v 2.25000000 1.00000000 1.73205081
v -2.25000000 0.51763809 1.93185165
v 2.25000000 0.51763809 1.93185165
v -2.25000000 0.00000000 2.00000000
v 2.25000000 0.00000000 2.00000000
v -2.25000000 -0.51763809 1.93185165
v 2.25000000 -0.51763809 1.93185165
v -2.25000000 -1.00000000 1.73205081
v 2.25000000 -1.00000000 1.73205081
v -2.25000000 -1.41421356 1.41421356
v 2.25000000 -1.41421356 1.41421356
v -2.25000000 -1.73205081 1.00000000
v 2.25000000 -1.73205081 1.00000000
v -2.25000000 -1.93185165 0.51763809
v 2.25000000 -1.93185165 0.51763809
v -2.25000000 -2.00000000 0.00000000
v 2.25000000 -2.00000000 0.00000000
v -2.25000000 -1.93185165 -0.51763809
v 2.25000000 -1.93185165 -0.51763809
v -2.25000000 -1.73205081 -1.00000000
v 2.25000000 -1.73205081 -1.00000000
v -2.25000000 -1.41421356 -1.41421356
v 2.25000000 -1.41421356 -1.41421356
v -2.25000000 -1.00000000 -1.73205081
v 2.25000000 -1.00000000 -1.73205081
v -2.25000000 -0.51763809 -1.93185165
v 2.25000000 -0.51763809 -1.93185165
v 0.00000000 0.00000000 1.40000000
v 0.45000000 0.00000000 1.40000000
v 0.45000000 0.00000000 2.80000000
v 0.00000000 0.00000000 2.80000000
v 0.43466662 0.11646857 1.40000000
v 0.43466662 0.11646857 2.80000000
v 0.38971143 0.22500000 1.40000000
v 0.38971143 0.22500000 2.80000000
v 0.31819805 0.31819805 1.40000000
v 0.31819805 0.31819805 2.80000000
v 0.22500000 0.38971143 1.40000000
v 0.22500000 0.38971143 2.80000000
v 0.11646857 0.43466662 1.40000000
v 0.11646857 0.43466662 2.80000000
v 0.00000000 0.45000000 1.40000000
v 0.00000000 0.45000000 2.80000000
v -0.11646857 0.43466662 1.40000000
v -0.11646857 0.43466662 2.80000000
v -0.22500000 0.38971143 1.40000000
v -0.22500000 0.38971143 2.80000000
v -0.31819805 0.31819805 1.40000000
v -0.31819805 0.31819805 2.80000000
v -0.38971143 0.22500000 1.40000000
v -0.38971143 0.22500000 2.80000000
v -0.43466662 0.11646857 1.40000000
v -0.43466662 0.11646857 2.80000000
v -0.45000000 0.00000000 1.40000000
v -0.45000000 0.00000000 2.80000000
v -0.43466662 -0.11646857 1.40000000
v -0.43466662 -0.11646857 2.80000000
v -0.38971143 -0.22500000 1.40000000
v -0.38971143 -0.22500000 2.80000000
v -0.31819805 -0.31819805 1.40000000
v -0.31819805 -0.31819805 2.80000000
v -0.22500000 -0.38971143 1.40000000
v -0.22500000 -0.38971143 2.80000000
v -0.11646857 -0.43466662 1.40000000
v -0.11646857 -0.43466662 2.80000000
v -0.00000000 -0.45000000 1.40000000
v -0.00000000 -0.45000000 2.80000000
v 0.11646857 -0.43466662 1.40000000
v 0.11646857 -0.43466662 2.80000000
v 0.22500000 -0.38971143 1.40000000
v 0.22500000 -0.38971143 2.80000000
v 0.31819805 -0.31819805 1.40000000
v 0.31819805 -0.31819805 2.80000000
v 0.38971143 -0.22500000 1.40000000
v 0.38971143 -0.22500000 2.80000000
v 0.43466662 -0.11646857 1.40000000
v 0.43466662 -0.11646857 2.80000000
v 0.00000000 0.00000000 -2.80000000
v 0.45000000 0.00000000 -2.80000000
v 0.45000000 0.00000000 -1.40000000
v 0.00000000 0.00000000 -1.40000000
v 0.43466662 0.11646857 -2.80000000
v 0.43466662 0.11646857 -1.40000000
v 0.38971143 0.22500000 -2.80000000
v 0.38971143 0.22500000 -1.40000000
v 0.31819805 0.31819805 -2.80000000
v 0.31819805 0.31819805 -1.40000000
v 0.22500000 0.38971143 -2.80000000
v 0.22500000 0.38971143 -1.40000000
v 0.11646857 0.43466662 -2.80000000
v 0.11646857 0.43466662 -1.40000000
v 0.00000000 0.45000000 -2.80000000
v 0.00000000 0.45000000 -1.40000000
v -0.11646857 0.43466662 -2.80000000
v -0.11646857 0.43466662 -1.40000000
v -0.22500000 0.38971143 -2.80000000
v -0.22500000 0.38971143 -1.40000000
v -0.31819805 0.31819805 -2.80000000
v -0.31819805 0.31819805 -1.40000000
v -0.38971143 0.22500000 -2.80000000
v -0.38971143 0.22500000 -1.40000000
v -0.43466662 0.11646857 -2.80000000
v -0.43466662 0.11646857 -1.40000000
v -0.45000000 0.00000000 -2.80000000
v -0.45000000 0.00000000 -1.40000000
v -0.43466662 -0.11646857 -2.80000000
v -0.43466662 -0.11646857 -1.40000000
v -0.38971143 -0.22500000 -2.80000000
v -0.38971143 -0.22500000 -1.40000000
v -0.31819805 -0.31819805 -2.80000000
v -0.31819805 -0.31819805 -1.40000000
v -0.22500000 -0.38971143 -2.80000000
v -0.22500000 -0.38971143 -1.40000000
v -0.11646857 -0.43466662 -2.80000000
v -0.11646857 -0.43466662 -1.40000000
v -0.00000000 -0.45000000 -2.80000000
v -0.00000000 -0.45000000 -1.40000000
v 0.11646857 -0.43466662 -2.80000000
v 0.11646857 -0.43466662 -1.40000000
v 0.22500000 -0.38971143 -2.80000000
v 0.22500000 -0.38971143 -1.40000000
v 0.31819805 -0.31819805 -2.80000000
v 0.31819805 -0.31819805 -1.40000000
v 0.38971143 -0.22500000 -2.80000000
v 0.38971143 -0.22500000 -1.40000000
v 0.43466662 -0.11646857 -2.80000000
v 0.43466662 -0.11646857 -1.40000000
v -2.75000000 -1.75000000 -2.35000000
v -2.75000000 -1.75000000 -2.05000000
v -2.75000000 1.75000000 -2.35000000
v -2.75000000 1.75000000 -2.05000000
v 2.75000000 -1.75000000 -2.35000000
v 2.75000000 -1.75000000 -2.05000000
v 2.75000000 1.75000000 -2.35000000
v 2.75000000 1.75000000 -2.05000000
vn -1.00000000 0.00000000 0.00000000
vn -0.67887441 -0.00000000 -0.73425441
vn 0.67887441 -0.00000000 -0.73425441
vn 1.00000000 0.00000000 0.00000000
vn -0.67887441 0.19003903 -0.70923530
vn 0.67887441 0.19003903 -0.70923530
vn -0.67887441 0.36712721 -0.63588297
vn 0.67887441 0.36712721 -0.63588297
vn -0.67887441 0.51919627 -0.51919627
vn 0.67887441 0.51919627 -0.51919627
vn -0.67887441 0.63588297 -0.36712721
vn 0.67887441 0.63588297 -0.36712721
vn -0.67887441 0.70923530 -0.19003903
vn 0.67887441 0.70923530 -0.19003903
vn -0.67887441 0.73425441 -0.00000000
vn 0.67887441 0.73425441 -0.00000000
vn -0.67887441 0.70923530 0.19003903
vn 0.67887441 0.70923530 0.19003903
vn -0.67887441 0.63588297 0.36712721
vn 0.67887441 0.63588297 0.36712721
vn -0.67887441 0.51919627 0.51919627
vn 0.67887441 0.51919627 0.51919627
vn -0.67887441 0.36712721 0.63588297
vn 0.67887441 0.36712721 0.63588297
vn -0.67887441 0.19003903 0.70923530
vn 0.67887441 0.19003903 0.70923530
vn -0.67887441 0.00000000 0.73425441
vn 0.67887441 0.00000000 0.73425441
vn -0.67887441 -0.19003903 0.70923530
vn 0.67887441 -0.19003903 0.70923530
vn -0.67887441 -0.36712721 0.63588297
vn 0.67887441 -0.36712721 0.63588297
vn -0.67887441 -0.51919627 0.51919627
vn 0.67887441 -0.51919627 0.51919627
vn -0.67887441 -0.63588297 0.36712721
vn 0.67887441 -0.63588297 0.36712721
vn -0.67887441 -0.70923530 0.19003903
vn 0.67887441 -0.70923530 0.19003903
vn -0.67887441 -0.73425441 0.00000000
vn 0.67887441 -0.73425441 0.00000000
vn -0.67887441 -0.70923530 -0.19003903
vn 0.67887441 -0.70923530 -0.19003903
vn -0.67887441 -0.63588297 -0.36712721
vn 0.67887441 -0.63588297 -0.36712721
vn -0.67887441 -0.51919627 -0.51919627
vn 0.67887441 -0.51919627 -0.51919627
vn -0.67887441 -0.36712721 -0.63588297
vn 0.67887441 -0.36712721 -0.63588297
vn -0.67887441 -0.19003903 -0.70923530
vn 0.67887441 -0.19003903 -0.70923530
vn 0.00000000 0.00000000 -1.00000000
vn 0.73425441 -0.00000000 -0.67887441
vn 0.73425441 -0.00000000 0.67887441
vn 0.00000000 0.00000000 1.00000000
vn 0.70923530 0.19003903 -0.67887441
vn 0.70923530 0.19003903 0.67887441
vn 0.63588297 0.36712721 -0.67887441
vn 0.63588297 0.36712721 0.67887441
vn 0.51919627 0.51919627 -0.67887441
vn 0.51919627 0.51919627 0.67887441
vn 0.36712721 0.63588297 -0.67887441
vn 0.36712721 0.63588297 0.67887441
vn 0.19003903 0.70923530 -0.67887441
vn 0.19003903 0.70923530 0.67887441
vn 0.00000000 0.73425441 -0.67887441
vn 0.00000000 0.73425441 0.67887441
vn -0.19003903 0.70923530 -0.67887441
vn -0.19003903 0.70923530 0.67887441
vn -0.36712721 0.63588297 -0.67887441
vn -0.36712721 0.63588297 0.67887441
vn -0.51919627 0.51919627 -0.67887441
vn -0.51919627 0.51919627 0.67887441
vn -0.63588297 0.36712721 -0.67887441
vn -0.63588297 0.36712721 0.67887441
vn -0.70923530 0.19003903 -0.67887441
vn -0.70923530 0.19003903 0.67887441
vn -0.73425441 0.00000000 -0.67887441
vn -0.73425441 0.00000000 0.67887441
vn -0.70923530 -0.19003903 -0.67887441
vn -0.70923530 -0.19003903 0.67887441
vn -0.63588297 -0.36712721 -0.67887441
vn -0.63588297 -0.36712721 0.67887441
vn -0.51919627 -0.51919627 -0.67887441
vn -0.51919627 -0.51919627 0.67887441
vn -0.36712721 -0.63588297 -0.67887441
vn -0.36712721 -0.63588297 0.67887441
vn -0.19003903 -0.70923530 -0.67887441
vn -0.19003903 -0.70923530 0.67887441
vn -0.00000000 -0.73425441 -0.67887441
vn -0.00000000 -0.73425441 0.67887441
vn 0.19003903 -0.70923530 -0.67887441
vn 0.19003903 -0.70923530 0.67887441
vn 0.36712721 -0.63588297 -0.67887441
vn 0.36712721 -0.63588297 0.67887441
vn 0.51919627 -0.51919627 -0.67887441
vn 0.51919627 -0.51919627 0.67887441
vn 0.63588297 -0.36712721 -0.67887441
vn 0.63588297 -0.36712721 0.67887441
vn 0.70923530 -0.19003903 -0.67887441
vn 0.70923530 -0.19003903 0.67887441
vn 0.00000000 0.00000000 -1.00000000
vn 0.73425441 -0.00000000 -0.67887441
vn 0.73425441 -0.00000000 0.67887441
vn 0.00000000 0.00000000 1.00000000
vn 0.70923530 0.19003903 -0.67887441
vn 0.70923530 0.19003903 0.67887441
vn 0.63588297 0.36712721 -0.67887441
vn 0.63588297 0.36712721 0.67887441
vn 0.51919627 0.51919627 -0.67887441
vn 0.51919627 0.51919627 0.67887441
vn 0.36712721 0.63588297 -0.67887441
vn 0.36712721 0.63588297 0.67887441
vn 0.19003903 0.70923530 -0.67887441
vn 0.19003903 0.70923530 0.67887441
vn 0.00000000 0.73425441 -0.67887441
vn 0.00000000 0.73425441 0.67887441
vn -0.19003903 0.70923530 -0.67887441
vn -0.19003903 0.70923530 0.67887441
vn -0.36712721 0.63588297 -0.67887441
vn -0.36712721 0.63588297 0.67887441
vn -0.51919627 0.51919627 -0.67887441
vn -0.51919627 0.51919627 0.67887441
vn -0.63588297 0.36712721 -0.67887441
vn -0.63588297 0.36712721 0.67887441
vn -0.70923530 0.19003903 -0.67887441
vn -0.70923530 0.19003903 0.67887441
vn -0.73425441 0.00000000 -0.67887441
vn -0.73425441 0.00000000 0.67887441
vn -0.70923530 -0.19003903 -0.67887441
vn -0.70923530 -0.19003903 0.67887441
vn -0.63588297 -0.36712721 -0.67887441
vn -0.63588297 -0.36712721 0.67887441
vn -0.51919627 -0.51919627 -0.67887441
vn -0.51919627 -0.51919627 0.67887441
vn -0.36712721 -0.63588297 -0.67887441
vn -0.36712721 -0.63588297 0.67887441
vn -0.19003903 -0.70923530 -0.67887441
vn -0.19003903 -0.70923530 0.67887441
vn -0.00000000 -0.73425441 -0.67887441
vn -0.00000000 -0.73425441 0.67887441
vn 0.19003903 -0.70923530 -0.67887441
vn 0.19003903 -0.70923530 0.67887441
vn 0.36712721 -0.63588297 -0.67887441
vn 0.36712721 -0.63588297 0.67887441
vn 0.51919627 -0.51919627 -0.67887441
vn 0.51919627 -0.51919627 0.67887441
vn 0.63588297 -0.36712721 -0.67887441
vn 0.63588297 -0.36712721 0.67887441
vn 0.70923530 -0.19003903 -0.67887441
vn 0.70923530 -0.19003903 0.67887441
vn -0.57735027 -0.57735027 -0.57735027
vn -0.57735027 -0.57735027 0.57735027
vn -0.57735027 0.57735027 -0.57735027
vn -0.57735027 0.57735027 0.57735027
vn 0.57735027 -0.57735027 -0.57735027
vn 0.57735027 -0.57735027 0.57735027
vn 0.57735027 0.57735027 -0.57735027
vn 0.57735027 0.57735027 0.57735027
f 2//2 1//1 5//5
f 2//2 5//5 3//3
f 3//3 5//5 6//6
f 3//3 6//6 4//4
f 5//5 1//1 7//7
f 5//5 7//7 6//6
f 6//6 7//7 8//8
f 6//6 8//8 4//4
f 7//7 1//1 9//9
f 7//7 9//9 8//8
f 8//8 9//9 10//10
f 8//8 10//10 4//4
f 9//9 1//1 11//11
f 9//9 11//11 10//10
f 10//10 11//11 12//12
f 10//10 12//12 4//4
f 11//11 1//1 13//13
f 11//11 13//13 12//12
f 12//12 13//13 14//14
f 12//12 14//14 4//4
f 13//13 1//1 15//15
f 13//13 15//15 14//14
f 14//14 15//15 16//16
f 14//14 16//16 4//4
f 15//15 1//1 17//17
f 15//15 17//17 16//16
f 16//16 17//17 18//18
f 16//16 18//18 4//4
f 17//17 1//1 19//19
f 17//17 19//19 18//18
f 18//18 19//19 20//20
f 18//18 20//20 4//4
f 19//19 1//1 21//21
f 19//19 21//21 20//20
f 20//20 21//21 22//22
f 20//20 22//22 4//4
f 21//21 1//1 23//23
f 21//21 23//23 22//22
f 22//22 23//23 24//24
f 22//22 24//24 4//4
f 23//23 1//1 25//25
f 23//23 25//25 24//24
f 24//24 25//25 26//26
f 24//24 26//26 4//4
f 25//25 1//1 27//27
f 25//25 27//27 26//26
f 26//26 27//27 28//28
f 26//26 28//28 4//4
f 27//27 1//1 29//29
f 27//27 29//29 28//28
f 28//28 29//29 30//30
f 28//28 30//30 4//4
f 29//29 1//1 31//31
f 29//29 31//31 30//30
f 30//30 31//31 32//32
f 30//30 32//32 4//4
f 31//31 1//1 33//33
f 31//31 33//33 32//32
f 32//32 33//33 34//34
f 32//32 34//34 4//4
f 33//33 1//1 35//35
f 33//33 35//35 34//34
f 34//34 35//35 36//36
f 34//34 36//36 4//4
f 35//35 1//1 37//37
f 35//35 37//37 36//36
f 36//36 37//37 38//38
f 36//36 38//38 4//4
f 37//37 1//1 39//39
f 37//37 39//39 38//38
f 38//38 39//39 40//40
f 38//38 40//40 4//4
f 39//39 1//1 41//41
f 39//39 41//41 40//40
f 40//40 41//41 42//42
f 40//40 42//42 4//4
f 41//41 1//1 43//43
f 41//41 43//43 42//42
f 42//42 43//43 44//44
f 42//42 44//44 4//4
f 43//43 1//1 45//45
f 43//43 45//45 44//44
f 44//44 45//45 46//46
f 44//44 46//46 4//4
f 45//45 1//1 47//47
f 45//45 47//47 46//46
f 46//46 47//47 48//48
f 46//46 48//48 4//4
f 47//47 1//1 49//49
f 47//47 49//49 48//48
f 48//48 49//49 50//50
f 48//48 50//50 4//4
f 49//49 1//1 2//2
f 49//49 2//2 50//50
f 50//50 2//2 3//3
f 50//50 3//3 4//4
f 52//52 51//51 55//55
f 52//52 55//55 53//53
f 53//53 55//55 56//56
f 53//53 56//56 54//54
f 55//55 51//51 57//57
f 55//55 57//57 56//56
f 56//56 57//57 58//58
f 56//56 58//58 54//54
f 57//57 51//51 59//59
f 57//57 59//59 58//58
f 58//58 59//59 60//60
f 58//58 60//60 54//54
f 59//59 51//51 61//61
f 59//59 61//61 60//60
f 60//60 61//61 62//62
f 60//60 62//62 54//54
f 61//61 51//51 63//63
f 61//61 63//63 62//62
f 62//62 63//63 64//64
f 62//62 64//64 54//54
f 63//63 51//51 65//65
f 63//63 65//65 64//64
f 64//64 65//65 66//66
f 64//64 66//66 54//54
f 65//65 51//51 67//67
f 65//65 67//67 66//66
f 66//66 67//67 68//68
f 66//66 68//68 54//54
f 67//67 51//51 69//69
f 67//67 69//69 68//68
f 68//68 69//69 70//70
f 68//68 70//70 54//54
f 69//69 51//51 71//71
f 69//69 71//71 70//70
f 70//70 71//71 72//72
f 70//70 72//72 54//54
f 71//71 51//51 73//73
f 71//71 73//73 72//72
f 72//72 73//73 74//74
f 72//72 74//74 54//54
f 73//73 51//51 75//75
f 73//73 75//75 74//74
f 74//74 75//75 76//76
f 74//74 76//76 54//54
f 75//75 51//51 77//77
f 75//75 77//77 76//76
f 76//76 77//77 78//78
f 76//76 78//78 54//54
f 77//77 51//51 79//79
f 77//77 79//79 78//78
f 78//78 79//79 80//80
f 78//78 80//80 54//54
f 79//79 51//51 81//81
f 79//79 81//81 80//80
f 80//80 81//81 82//82
f 80//80 82//82 54//54
f 81//81 51//51 83//83
f 81//81 83//83 82//82
f 82//82 83//83 84//84
f 82//82 84//84 54//54
f 83//83 51//51 85//85
f 83//83 85//85 84//84
f 84//84 85//85 86//86
f 84//84 86//86 54//54
f 85//85 51//51 87//87
f 85//85 87//87 86//86
f 86//86 87//87 88//88
f 86//86 88//88 54//54
f 87//87 51//51 89//89
f 87//87 89//89 88//88
f 88//88 89//89 90//90
f 88//88 90//90 54//54
f 89//89 51//51 91//91
f 89//89 91//91 90//90
f 90//90 91//91 92//92
f 90//90 92//92 54//54
f 91//91 51//51 93//93
f 91//91 93//93 92//92
f 92//92 93//93 94//94
f 92//92 94//94 54//54
f 93//93 51//51 95//95
f 93//93 95//95 94//94
f 94//94 95//95 96//96
f 94//94 96//96 54//54
f 95//95 51//51 97//97
f 95//95 97//97 96//96
f 96//96 97//97 98//98
f 96//96 98//98 54//54
f 97//97 51//51 99//99
f 97//97 99//99 98//98
f 98//98 99//99 100//100
f 98//98 100//100 54//54
f 99//99 51//51 52//52
f 99//99 52//52 100//100
f 100//100 52//52 53//53
f 100//100 53//53 54//54
f 102//102 101//101 105//105
f 102//102 105//105 103//103
f 103//103 105//105 106//106
f 103//103 106//106 104//104
f 105//105 101//101 107//107
f 105//105 107//107 106//106
f 106//106 107//107 108//108
f 106//106 108//108 104//104
f 107//107 101//101 109//109
f 107//107 109//109 108//108
f 108//108 109//109 110//110
f 108//108 110//110 104//104
f 109//109 101//101 111//111
f 109//109 111//111 110//110
f 110//110 111//111 112//112
f 110//110 112//112 104//104
f 111//111 101//101 113//113
f 111//111 113//113 112//112
f 112//112 113//113 114//114
f 112//112 114//114 104//104
f 113//113 101//101 115//115
f 113//113 115//115 114//114
f 114//114 115//115 116//116
f 114//114 116//116 104//104
f 115//115 101//101 117//117
f 115//115 117//117 116//116
f 116//116 117//117 118//118
f 116//116 118//118 104//104
f 117//117 101//101 119//119
f 117//117 119//119 118//118
f 118//118 119//119 120//120
f 118//118 120//120 104//104
f 119//119 101//101 121//121
f 119//119 121//121 120//120
f 120//120 121//121 122//122
f 120//120 122//122 104//104
f 121//121 101//101 123//123
f 121//121 123//123 122//122
f 122//122 123//123 124//124
f 122//122 124//124 104//104
f 123//123 101//101 125//125
f 123//123 125//125 124//124
f 124//124 125//125 126//126
f 124//124 126//126 104//104
f 125//125 101//101 127//127
f 125//125 127//127 126//126
f 126//126 127//127 128//128
f 126//126 128//128 104//104
f 127//127 101//101 129//129
f 127//127 129//129 128//128
f 128//128 129//129 130//130
f 128//128 130//130 104//104
f 129//129 101//101 131//131
f 129//129 131//131 130//130
f 130//130 131//131 132//132
f 130//130 132//132 104//104
f 131//131 101//101 133//133
f 131//131 133//133 132//132
f 132//132 133//133 134//134
f 132//132 134//134 104//104
f 133//133 101//101 135//135
f 133//133 135//135 134//134
f 134//134 135//135 136//136
f 134//134 136//136 104//104
f 135//135 101//101 137//137
f 135//135 137//137 136//136
f 136//136 137//137 138//138
f 136//136 138//138 104//104
f 137//137 101//101 139//139
f 137//137 139//139 138//138
f 138//138 139//139 140//140
f 138//138 140//140 104//104
f 139//139 101//101 141//141
f 139//139 141//141 140//140
f 140//140 141//141 142//142
f 140//140 142//142 104//104
f 141//141 101//101 143//143
f 141//141 143//143 142//142
f 142//142 143//143 144//144
f 142//142 144//144 104//104
f 143//143 101//101 145//145
f 143//143 145//145 144//144
f 144//144 145//145 146//146
f 144//144 146//146 104//104
f 145//145 101//101 147//147
f 145//145 147//147 146//146
f 146//146 147//147 148//148
f 146//146 148//148 104//104
f 147//147 101//101 149//149
f 147//147 149//149 148//148
f 148//148 149//149 150//150
f 148//148 150//150 104//104
f 149//149 101//101 102//102
f 149//149 102//102 150//150
f 150//150 102//102 103//103
f 150//150 103//103 104//104
f 152//152 154//154 151//151
f 155//155 152//152 151//151
f 151//151 154//154 153//153
f 153//153 155//155 151//151
f 152//152 158//158 154//154
f 156//156 152//152 155//155
f 156//156 158//158 152//152
f 154//154 158//158 153//153
f 157//157 155//155 153//153
f 153//153 158//158 157//157
f 157//157 156//156 155//155
f 158//158 156//156 157//157
