# https://github.com/mikedh/trimesh
v -2.25000000 -2.25000000 -1.70000000
v -2.25000000 -2.25000000 -0.70000000
v -2.25000000 2.25000000 -1.70000000
v -2.25000000 2.25000000 -0.70000000
v 2.25000000 -2.25000000 -1.70000000
v 2.25000000 -2.25000000 -0.70000000
v 2.25000000 2.25000000 -1.70000000
v 2.25000000 2.25000000 -0.70000000
v -2.00000000 -2.00000000 -0.50000000
v -2.00000000 -2.00000000 0.50000000
v -2.00000000 2.00000000 -0.50000000
v -2.00000000 2.00000000 0.50000000
v 2.00000000 -2.00000000 -0.50000000
v 2.00000000 -2.00000000 0.50000000
v 2.00000000 2.00000000 -0.50000000
v 2.00000000 2.00000000 0.50000000
v -1.75000000 -1.75000000 0.70000000
v -1.75000000 -1.75000000 1.70000000
v -1.75000000 1.75000000 0.70000000
v -1.75000000 1.75000000 1.70000000
v 1.75000000 -1.75000000 0.70000000
v 1.75000000 -1.75000000 1.70000000
v 1.75000000 1.75000000 0.70000000
v 1.75000000 1.75000000 1.70000000
v 0.00000000 0.00000000 -2.00000000
v 0.50000000 0.00000000 -2.00000000
v 0.50000000 0.00000000 2.00000000
v 0.00000000 0.00000000 2.00000000
v 0.48296291 0.12940952 -2.00000000
v 0.48296291 0.12940952 2.00000000
v 0.43301270 0.25000000 -2.00000000
v 0.43301270 0.25000000 2.00000000
v 0.35355339 0.35355339 -2.00000000
v 0.35355339 0.35355339 2.00000000
v 0.25000000 0.43301270 -2.00000000
v 0.25000000 0.43301270 2.00000000
v 0.12940952 0.48296291 -2.00000000
v 0.12940952 0.48296291 2.00000000
v 0.00000000 0.50000000 -2.00000000
v 0.00000000 0.50000000 2.00000000
v -0.12940952 0.48296291 -2.00000000
v -0.12940952 0.48296291 2.00000000
v -0.25000000 0.43301270 -2.00000000
v -0.25000000 0.43301270 2.00000000
v -0.35355339 0.35355339 -2.00000000
v -0.35355339 0.35355339 2.00000000
v -0.43301270 0.25000000 -2.00000000
v -0.43301270 0.25000000 2.00000000
v -0.48296291 0.12940952 -2.00000000
v -0.48296291 0.12940952 2.00000000
v -0.50000000 0.00000000 -2.00000000
v -0.50000000 0.00000000 2.00000000
v -0.48296291 -0.12940952 -2.00000000
v -0.48296291 -0.12940952 2.00000000
v -0.43301270 -0.25000000 -2.00000000
v -0.43301270 -0.25000000 2.00000000
v -0.35355339 -0.35355339 -2.00000000
v -0.35355339 -0.35355339 2.00000000
v -0.25000000 -0.43301270 -2.00000000
v -0.25000000 -0.43301270 2.00000000
v -0.12940952 -0.48296291 -2.00000000
v -0.12940952 -0.48296291 2.00000000
v -0.00000000 -0.50000000 -2.00000000
v -0.00000000 -0.50000000 2.00000000
v 0.12940952 -0.48296291 -2.00000000
v 0.12940952 -0.48296291 2.00000000
v 0.25000000 -0.43301270 -2.00000000
v 0.25000000 -0.43301270 2.00000000
v 0.35355339 -0.35355339 -2.00000000
v 0.35355339 -0.35355339 2.00000000
v 0.43301270 -0.25000000 -2.00000000
v 0.43301270 -0.25000000 2.00000000
v 0.48296291 -0.12940952 -2.00000000
v 0.48296291 -0.12940952 2.00000000
vn -0.57735027 -0.57735027 -0.57735027
vn -0.57735027 -0.57735027 0.57735027
vn -0.57735027 0.57735027 -0.57735027
vn -0.57735027 0.57735027 0.57735027
vn 0.57735027 -0.57735027 -0.57735027
vn 0.57735027 -0.57735027 0.57735027
vn 0.57735027 0.57735027 -0.57735027
vn 0.57735027 0.57735027 0.57735027
vn -0.57735027 -0.57735027 -0.57735027
vn -0.57735027 -0.57735027 0.57735027
vn -0.57735027 0.57735027 -0.57735027
vn -0.57735027 0.57735027 0.57735027
vn 0.57735027 -0.57735027 -0.57735027
vn 0.57735027 -0.57735027 0.57735027
vn 0.57735027 0.57735027 -0.57735027
vn 0.57735027 0.57735027 0.57735027
vn -0.57735027 -0.57735027 -0.57735027
vn -0.57735027 -0.57735027 0.57735027
vn -0.57735027 0.57735027 -0.57735027
vn -0.57735027 0.57735027 0.57735027
vn 0.57735027 -0.57735027 -0.57735027
vn 0.57735027 -0.57735027 0.57735027
vn 0.57735027 0.57735027 -0.57735027
vn 0.57735027 0.57735027 0.57735027
vn 0.00000000 0.00000000 -1.00000000
vn 0.73425441 -0.00000000 -0.67887441
vn 0.73425441 -0.00000000 0.67887441
vn 0.00000000 0.00000000 1.00000000
vn 0.70923530 0.19003903 -0.67887441
vn 0.70923530 0.19003903 0.67887441
vn 0.63588297 0.36712721 -0.67887441
vn 0.63588297 0.36712721 0.67887441
vn 0.51919627 0.51919627 -0.67887441
vn 0.51919627 0.51919627 0.67887441
vn 0.36712721 0.63588297 -0.67887441
vn 0.36712721 0.63588297 0.67887441
vn 0.19003903 0.70923530 -0.67887441
vn 0.19003903 0.70923530 0.67887441
vn 0.00000000 0.73425441 -0.67887441
vn 0.00000000 0.73425441 0.67887441
vn -0.19003903 0.70923530 -0.67887441
vn -0.19003903 0.70923530 0.67887441
vn -0.36712721 0.63588297 -0.67887441
vn -0.36712721 0.63588297 0.67887441
vn -0.51919627 0.51919627 -0.67887441
vn -0.51919627 0.51919627 0.67887441
vn -0.63588297 0.36712721 -0.67887441
vn -0.63588297 0.36712721 0.67887441
vn -0.70923530 0.19003903 -0.67887441
vn -0.70923530 0.19003903 0.67887441
vn -0.73425441 0.00000000 -0.67887441
vn -0.73425441 0.00000000 0.67887441
vn -0.70923530 -0.19003903 -0.67887441
vn -0.70923530 -0.19003903 0.67887441
vn -0.63588297 -0.36712721 -0.67887441
vn -0.63588297 -0.36712721 0.67887441
vn -0.51919627 -0.51919627 -0.67887441
vn -0.51919627 -0.51919627 0.67887441
vn -0.36712721 -0.63588297 -0.67887441
vn -0.36712721 -0.63588297 0.67887441
vn -0.19003903 -0.70923530 -0.67887441
vn -0.19003903 -0.70923530 0.67887441
vn -0.00000000 -0.73425441 -0.67887441
vn -0.00000000 -0.73425441 0.67887441
vn 0.19003903 -0.70923530 -0.67887441
vn 0.19003903 -0.70923530 0.67887441
vn 0.36712721 -0.63588297 -0.67887441
vn 0.36712721 -0.63588297 0.67887441
vn 0.51919627 -0.51919627 -0.67887441
vn 0.51919627 -0.51919627 0.67887441
vn 0.63588297 -0.36712721 -0.67887441
vn 0.63588297 -0.36712721 0.67887441
vn 0.70923530 -0.19003903 -0.67887441
vn 0.70923530 -0.19003903 0.67887441
f 2//2 4//4 1//1
f 5//5 2//2 1//1
f 1//1 4//4 3//3
f 3//3 5//5 1//1
f 2//2 8//8 4//4
f 6//6 2//2 5//5
f 6//6 8//8 2//2
f 4//4 8//8 3//3
f 7//7 5//5 3//3
f 3//3 8//8 7//7
f 7//7 6//6 5//5
f 8//8 6//6 7//7
f 10//10 12//12 9//9
f 13//13 10//10 9//9
f 9//9 12//12 11//11
f 11//11 13//13 9//9
f 10//10 16//16 12//12
f 14//14 10//10 13//13
f 14//14 16//16 10//10
f 12//12 16//16 11//11
f 15//15 13//13 11//11
f 11//11 16//16 15//15
f 15//15 14//14 13//13
f 16//16 14//14 15//15
f 18//18 20//20 17//17
f 21//21 18//18 17//17
f 17//17 20//20 19//19
f 19//19 21//21 17//17
f 18//18 24//24 20//20
f 22//22 18//18 21//21
f 22//22 24//24 18//18
f 20//20 24//24 19//19
f 23//23 21//21 19//19
f 19//19 24//24 23//23
f 23//23 22//22 21//21
f 24//24 22//22 23//23
f 26//26 25//25 29//29
f 26//26 29//29 27//27
f 27//27 29//29 30//30
f 27//27 30//30 28//28
f 29//29 25//25 31//31
f 29//29 31//31 30//30
f 30//30 31//31 32//32
f 30//30 32//32 28//28
f 31//31 25//25 33//33
f 31//31 33//33 32//32
f 32//32 33//33 34//34
f 32//32 34//34 28//28
f 33//33 25//25 35//35
f 33//33 35//35 34//34
f 34//34 35//35 36//36
f 34//34 36//36 28//28
f 35//35 25//25 37//37
f 35//35 37//37 36//36
f 36//36 37//37 38//38
f 36//36 38//38 28//28
f 37//37 25//25 39//39
f 37//37 39//39 38//38
f 38//38 39//39 40//40
f 38//38 40//40 28//28
f 39//39 25//25 41//41
f 39//39 41//41 40//40
f 40//40 41//41 42//42
f 40//40 42//42 28//28
f 41//41 25//25 43//43
f 41//41 43//43 42//42
f 42//42 43//43 44//44
f 42//42 44//44 28//28
f 43//43 25//25 45//45
f 43//43 45//45 44//44
f 44//44 45//45 46//46
f 44//44 46//46 28//28
f 45//45 25//25 47//47
f 45//45 47//47 46//46
f 46//46 47//47 48//48
f 46//46 48//48 28//28
f 47//47 25//25 49//49
f 47//47 49//49 48//48
f 48//48 49//49 50//50
f 48//48 50//50 28//28
f 49//49 25//25 51//51
f 49//49 51//51 50//50
f 50//50 51//51 52//52
f 50//50 52//52 28//28
f 51//51 25//25 53//53
f 51//51 53//53 52//52
f 52//52 53//53 54//54
f 52//52 54//54 28//28
f 53//53 25//25 55//55
f 53//53 55//55 54//54
f 54//54 55//55 56//56
f 54//54 56//56 28//28
f 55//55 25//25 57//57
f 55//55 57//57 56//56
f 56//56 57//57 58//58
f 56//56 58//58 28//28
f 57//57 25//25 59//59
f 57//57 59//59 58//58
f 58//58 59//59 60//60
f 58//58 60//60 28//28
f 59//59 25//25 61//61
f 59//59 61//61 60//60
f 60//60 61//61 62//62
f 60//60 62//62 28//28
f 61//61 25//25 63//63
f 61//61 63//63 62//62
f 62//62 63//63 64//64
f 62//62 64//64 28//28
f 63//63 25//25 65//65
f 63//63 65//65 64//64
f 64//64 65//65 66//66
f 64//64 66//66 28//28
f 65//65 25//25 67//67
f 65//65 67//67 66//66
f 66//66 67//67 68//68
f 66//66 68//68 28//28
f 67//67 25//25 69//69
f 67//67 69//69 68//68
f 68//68 69//69 70//70
f 68//68 70//70 28//28
f 69//69 25//25 71//71
f 69//69 71//71 70//70
f 70//70 71//71 72//72
f 70//70 72//72 28//28
f 71//71 25//25 73//73
f 71//71 73//73 72//72
f 72//72 73//73 74//74
f 72//72 74//74 28//28
f 73//73 25//25 26//26
f 73//73 26//26 74//74
f 74//74 26//26 27//27
f 74//74 27//27 28//28
