# https://github.com/mikedh/trimesh
v 0.00000000 0.00000000 -2.50000000
v 0.28000000 0.00000000 -2.50000000
v 0.28000000 0.00000000 2.50000000
v 0.00000000 0.00000000 2.50000000
v 0.27045923 0.07246933 -2.50000000
v 0.27045923 0.07246933 2.50000000
v 0.24248711 0.14000000 -2.50000000
v 0.24248711 0.14000000 2.50000000
v 0.19798990 0.19798990 -2.50000000
v 0.19798990 0.19798990 2.50000000
v 0.14000000 0.24248711 -2.50000000
v 0.14000000 0.24248711 2.50000000
v 0.07246933 0.27045923 -2.50000000
v 0.07246933 0.27045923 2.50000000
v 0.00000000 0.28000000 -2.50000000
v 0.00000000 0.28000000 2.50000000
v -0.07246933 0.27045923 -2.50000000
v -0.07246933 0.27045923 2.50000000
v -0.14000000 0.24248711 -2.50000000
v -0.14000000 0.24248711 2.50000000
v -0.19798990 0.19798990 -2.50000000
v -0.19798990 0.19798990 2.50000000
v -0.24248711 0.14000000 -2.50000000
v -0.24248711 0.14000000 2.50000000
v -0.27045923 0.07246933 -2.50000000
v -0.27045923 0.07246933 2.50000000
v -0.28000000 0.00000000 -2.50000000
v -0.28000000 0.00000000 2.50000000
v -0.27045923 -0.07246933 -2.50000000
v -0.27045923 -0.07246933 2.50000000
v -0.24248711 -0.14000000 -2.50000000
v -0.24248711 -0.14000000 2.50000000
v -0.19798990 -0.19798990 -2.50000000
v -0.19798990 -0.19798990 2.50000000
v -0.14000000 -0.24248711 -2.50000000
v -0.14000000 -0.24248711 2.50000000
v -0.07246933 -0.27045923 -2.50000000
v -0.07246933 -0.27045923 2.50000000
v -0.00000000 -0.28000000 -2.50000000
v -0.00000000 -0.28000000 2.50000000
v 0.07246933 -0.27045923 -2.50000000
v 0.07246933 -0.27045923 2.50000000
v 0.14000000 -0.24248711 -2.50000000
v 0.14000000 -0.24248711 2.50000000
v 0.19798990 -0.19798990 -2.50000000
v 0.19798990 -0.19798990 2.50000000
v 0.24248711 -0.14000000 -2.50000000
v 0.24248711 -0.14000000 2.50000000
v 0.27045923 -0.07246933 -2.50000000
v 0.27045923 -0.07246933 2.50000000
v 1.78000000 0.00000000 -1.00000000
v 1.75588457 0.00000000 -0.91000000
v 1.69000000 0.00000000 -0.84411543
v 1.60000000 0.00000000 -0.82000000
v 1.51000000 0.00000000 -0.84411543
v 1.44411543 0.00000000 -0.91000000
v 1.42000000 0.00000000 -1.00000000
v 1.44411543 0.00000000 -1.09000000
v 1.51000000 0.00000000 -1.15588457
v 1.60000000 0.00000000 -1.18000000
v 1.69000000 0.00000000 -1.15588457
v 1.75588457 0.00000000 -1.09000000
v 1.75295780 0.30909376 -1.00000000
v 1.72920874 0.30490616 -0.91000000
v 1.66432510 0.29346542 -0.84411543
v 1.57569240 0.27783708 -0.82000000
v 1.48705971 0.26220875 -0.84411543
v 1.42217607 0.25076801 -0.91000000
v 1.39842701 0.24658041 -1.00000000
v 1.42217607 0.25076801 -1.09000000
v 1.48705971 0.26220875 -1.15588457
v 1.57569240 0.27783708 -1.18000000
v 1.66432510 0.29346542 -1.15588457
v 1.72920874 0.30490616 -1.09000000
v 1.67265286 0.60879586 -1.00000000
v 1.64999178 0.60054789 -0.91000000
v 1.58808053 0.57801404 -0.84411543
v 1.50350819 0.54723223 -0.82000000
v 1.41893586 0.51645042 -0.84411543
v 1.35702461 0.49391657 -0.91000000
v 1.33436352 0.48566860 -1.00000000
v 1.35702461 0.49391657 -1.09000000
v 1.41893586 0.51645042 -1.15588457
v 1.50350819 0.54723223 -1.18000000
v 1.58808053 0.57801404 -1.15588457
v 1.64999178 0.60054789 -1.09000000
v 1.54152522 0.89000000 -1.00000000
v 1.52064065 0.87794229 -0.91000000
v 1.46358293 0.84500000 -0.84411543
v 1.38564065 0.80000000 -0.82000000
v 1.30769836 0.75500000 -0.84411543
v 1.25064065 0.72205771 -0.91000000
v 1.22975607 0.71000000 -1.00000000
v 1.25064065 0.72205771 -1.09000000
v 1.30769836 0.75500000 -1.15588457
v 1.38564065 0.80000000 -1.18000000
v 1.46358293 0.84500000 -1.15588457
v 1.52064065 0.87794229 -1.09000000
v 1.36355911 1.14416195 -1.00000000
v 1.34508562 1.12866085 -0.91000000
v 1.29461511 1.08631106 -0.84411543
v 1.22567111 1.02846018 -0.82000000
v 1.15672711 0.97060929 -0.84411543
v 1.10625660 0.92825950 -0.91000000
v 1.08778311 0.91275841 -1.00000000
v 1.10625660 0.92825950 -1.09000000
v 1.15672711 0.97060929 -1.15588457
v 1.22567111 1.02846018 -1.18000000
v 1.29461511 1.08631106 -1.15588457
v 1.34508562 1.12866085 -1.09000000
v 1.14416195 1.36355911 -1.00000000
v 1.12866085 1.34508562 -0.91000000
v 1.08631106 1.29461511 -0.84411543
v 1.02846018 1.22567111 -0.82000000
v 0.97060929 1.15672711 -0.84411543
v 0.92825950 1.10625660 -0.91000000
v 0.91275841 1.08778311 -1.00000000
v 0.92825950 1.10625660 -1.09000000
v 0.97060929 1.15672711 -1.15588457
v 1.02846018 1.22567111 -1.18000000
v 1.08631106 1.29461511 -1.15588457
v 1.12866085 1.34508562 -1.09000000
v 0.89000000 1.54152522 -1.00000000
v 0.87794229 1.52064065 -0.91000000
v 0.84500000 1.46358293 -0.84411543
v 0.80000000 1.38564065 -0.82000000
v 0.75500000 1.30769836 -0.84411543
v 0.72205771 1.25064065 -0.91000000
v 0.71000000 1.22975607 -1.00000000
v 0.72205771 1.25064065 -1.09000000
v 0.75500000 1.30769836 -1.15588457
v 0.80000000 1.38564065 -1.18000000
v 0.84500000 1.46358293 -1.15588457
v 0.87794229 1.52064065 -1.09000000
v 0.60879586 1.67265286 -1.00000000
v 0.60054789 1.64999178 -0.91000000
v 0.57801404 1.58808053 -0.84411543
v 0.54723223 1.50350819 -0.82000000
v 0.51645042 1.41893586 -0.84411543
v 0.49391657 1.35702461 -0.91000000
v 0.48566860 1.33436352 -1.00000000
v 0.49391657 1.35702461 -1.09000000
v 0.51645042 1.41893586 -1.15588457
v 0.54723223 1.50350819 -1.18000000
v 0.57801404 1.58808053 -1.15588457
v 0.60054789 1.64999178 -1.09000000
v 0.30909376 1.75295780 -1.00000000
v 0.30490616 1.72920874 -0.91000000
v 0.29346542 1.66432510 -0.84411543
v 0.27783708 1.57569240 -0.82000000
v 0.26220875 1.48705971 -0.84411543
v 0.25076801 1.42217607 -0.91000000
v 0.24658041 1.39842701 -1.00000000
v 0.25076801 1.42217607 -1.09000000
v 0.26220875 1.48705971 -1.15588457
v 0.27783708 1.57569240 -1.18000000
v 0.29346542 1.66432510 -1.15588457
v 0.30490616 1.72920874 -1.09000000
v 0.00000000 1.78000000 -1.00000000
v 0.00000000 1.75588457 -0.91000000
v 0.00000000 1.69000000 -0.84411543
v 0.00000000 1.60000000 -0.82000000
v 0.00000000 1.51000000 -0.84411543
v 0.00000000 1.44411543 -0.91000000
v 0.00000000 1.42000000 -1.00000000
v 0.00000000 1.44411543 -1.09000000
v 0.00000000 1.51000000 -1.15588457
v 0.00000000 1.60000000 -1.18000000
v 0.00000000 1.69000000 -1.15588457
v 0.00000000 1.75588457 -1.09000000
v -0.30909376 1.75295780 -1.00000000
v -0.30490616 1.72920874 -0.91000000
v -0.29346542 1.66432510 -0.84411543
v -0.27783708 1.57569240 -0.82000000
v -0.26220875 1.48705971 -0.84411543
v -0.25076801 1.42217607 -0.91000000
v -0.24658041 1.39842701 -1.00000000
v -0.25076801 1.42217607 -1.09000000
v -0.26220875 1.48705971 -1.15588457
v -0.27783708 1.57569240 -1.18000000
v -0.29346542 1.66432510 -1.15588457
v -0.30490616 1.72920874 -1.09000000
v -0.60879586 1.67265286 -1.00000000
v -0.60054789 1.64999178 -0.91000000
v -0.57801404 1.58808053 -0.84411543
v -0.54723223 1.50350819 -0.82000000
v -0.51645042 1.41893586 -0.84411543
v -0.49391657 1.35702461 -0.91000000
v -0.48566860 1.33436352 -1.00000000
v -0.49391657 1.35702461 -1.09000000
v -0.51645042 1.41893586 -1.15588457
v -0.54723223 1.50350819 -1.18000000
v -0.57801404 1.58808053 -1.15588457
v -0.60054789 1.64999178 -1.09000000
v -0.89000000 1.54152522 -1.00000000
v -0.87794229 1.52064065 -0.91000000
v -0.84500000 1.46358293 -0.84411543
v -0.80000000 1.38564065 -0.82000000
v -0.75500000 1.30769836 -0.84411543
v -0.72205771 1.25064065 -0.91000000
v -0.71000000 1.22975607 -1.00000000
v -0.72205771 1.25064065 -1.09000000
v -0.75500000 1.30769836 -1.15588457
v -0.80000000 1.38564065 -1.18000000
v -0.84500000 1.46358293 -1.15588457
v -0.87794229 1.52064065 -1.09000000
v -1.14416195 1.36355911 -1.00000000
v -1.12866085 1.34508562 -0.91000000
v -1.08631106 1.29461511 -0.84411543
v -1.02846018 1.22567111 -0.82000000
v -0.97060929 1.15672711 -0.84411543
v -0.92825950 1.10625660 -0.91000000
v -0.91275841 1.08778311 -1.00000000
v -0.92825950 1.10625660 -1.09000000
v -0.97060929 1.15672711 -1.15588457
v -1.02846018 1.22567111 -1.18000000
v -1.08631106 1.29461511 -1.15588457
v -1.12866085 1.34508562 -1.09000000
v -1.36355911 1.14416195 -1.00000000
v -1.34508562 1.12866085 -0.91000000
v -1.29461511 1.08631106 -0.84411543
v -1.22567111 1.02846018 -0.82000000
v -1.15672711 0.97060929 -0.84411543
v -1.10625660 0.92825950 -0.91000000
v -1.08778311 0.91275841 -1.00000000
v -1.10625660 0.92825950 -1.09000000
v -1.15672711 0.97060929 -1.15588457
v -1.22567111 1.02846018 -1.18000000
v -1.29461511 1.08631106 -1.15588457
v -1.34508562 1.12866085 -1.09000000
v -1.54152522 0.89000000 -1.00000000
v -1.52064065 0.87794229 -0.91000000
v -1.46358293 0.84500000 -0.84411543
v -1.38564065 0.80000000 -0.82000000
v -1.30769836 0.75500000 -0.84411543
v -1.25064065 0.72205771 -0.91000000
v -1.22975607 0.71000000 -1.00000000
v -1.25064065 0.72205771 -1.09000000
v -1.30769836 0.75500000 -1.15588457
v -1.38564065 0.80000000 -1.18000000
v -1.46358293 0.84500000 -1.15588457
v -1.52064065 0.87794229 -1.09000000
v -1.67265286 0.60879586 -1.00000000
v -1.64999178 0.60054789 -0.91000000
v -1.58808053 0.57801404 -0.84411543
v -1.50350819 0.54723223 -0.82000000
v -1.41893586 0.51645042 -0.84411543
v -1.35702461 0.49391657 -0.91000000
v -1.33436352 0.48566860 -1.00000000
v -1.35702461 0.49391657 -1.09000000
v -1.41893586 0.51645042 -1.15588457
v -1.50350819 0.54723223 -1.18000000
v -1.58808053 0.57801404 -1.15588457
v -1.64999178 0.60054789 -1.09000000
v -1.75295780 0.30909376 -1.00000000
v -1.72920874 0.30490616 -0.91000000
v -1.66432510 0.29346542 -0.84411543
v -1.57569240 0.27783708 -0.82000000
v -1.48705971 0.26220875 -0.84411543
v -1.42217607 0.25076801 -0.91000000
v -1.39842701 0.24658041 -1.00000000
v -1.42217607 0.25076801 -1.09000000
v -1.48705971 0.26220875 -1.15588457
v -1.57569240 0.27783708 -1.18000000
v -1.66432510 0.29346542 -1.15588457
v -1.72920874 0.30490616 -1.09000000
v -1.78000000 0.00000000 -1.00000000
v -1.75588457 0.00000000 -0.91000000
v -1.69000000 0.00000000 -0.84411543
v -1.60000000 0.00000000 -0.82000000
v -1.51000000 0.00000000 -0.84411543
v -1.44411543 0.00000000 -0.91000000
v -1.42000000 0.00000000 -1.00000000
v -1.44411543 0.00000000 -1.09000000
v -1.51000000 0.00000000 -1.15588457
v -1.60000000 0.00000000 -1.18000000
v -1.69000000 0.00000000 -1.15588457
v -1.75588457 0.00000000 -1.09000000
v -1.75295780 -0.30909376 -1.00000000
v -1.72920874 -0.30490616 -0.91000000
v -1.66432510 -0.29346542 -0.84411543
v -1.57569240 -0.27783708 -0.82000000
v -1.48705971 -0.26220875 -0.84411543
v -1.42217607 -0.25076801 -0.91000000
v -1.39842701 -0.24658041 -1.00000000
v -1.42217607 -0.25076801 -1.09000000
v -1.48705971 -0.26220875 -1.15588457
v -1.57569240 -0.27783708 -1.18000000
v -1.66432510 -0.29346542 -1.15588457
v -1.72920874 -0.30490616 -1.09000000
v -1.67265286 -0.60879586 -1.00000000
v -1.64999178 -0.60054789 -0.91000000
v -1.58808053 -0.57801404 -0.84411543
v -1.50350819 -0.54723223 -0.82000000
v -1.41893586 -0.51645042 -0.84411543
v -1.35702461 -0.49391657 -0.91000000
v -1.33436352 -0.48566860 -1.00000000
v -1.35702461 -0.49391657 -1.09000000
v -1.41893586 -0.51645042 -1.15588457
v -1.50350819 -0.54723223 -1.18000000
v -1.58808053 -0.57801404 -1.15588457
v -1.64999178 -0.60054789 -1.09000000
v -1.54152522 -0.89000000 -1.00000000
v -1.52064065 -0.87794229 -0.91000000
v -1.46358293 -0.84500000 -0.84411543
v -1.38564065 -0.80000000 -0.82000000
v -1.30769836 -0.75500000 -0.84411543
v -1.25064065 -0.72205771 -0.91000000
v -1.22975607 -0.71000000 -1.00000000
v -1.25064065 -0.72205771 -1.09000000
v -1.30769836 -0.75500000 -1.15588457
v -1.38564065 -0.80000000 -1.18000000
v -1.46358293 -0.84500000 -1.15588457
v -1.52064065 -0.87794229 -1.09000000
v -1.36355911 -1.14416195 -1.00000000
v -1.34508562 -1.12866085 -0.91000000
v -1.29461511 -1.08631106 -0.84411543
v -1.22567111 -1.02846018 -0.82000000
v -1.15672711 -0.97060929 -0.84411543
v -1.10625660 -0.92825950 -0.91000000
v -1.08778311 -0.91275841 -1.00000000
v -1.10625660 -0.92825950 -1.09000000
v -1.15672711 -0.97060929 -1.15588457
v -1.22567111 -1.02846018 -1.18000000
v -1.29461511 -1.08631106 -1.15588457
v -1.34508562 -1.12866085 -1.09000000
v -1.14416195 -1.36355911 -1.00000000
v -1.12866085 -1.34508562 -0.91000000
v -1.08631106 -1.29461511 -0.84411543
v -1.02846018 -1.22567111 -0.82000000
v -0.97060929 -1.15672711 -0.84411543
v -0.92825950 -1.10625660 -0.91000000
v -0.91275841 -1.08778311 -1.00000000
v -0.92825950 -1.10625660 -1.09000000
v -0.97060929 -1.15672711 -1.15588457
v -1.02846018 -1.22567111 -1.18000000
v -1.08631106 -1.29461511 -1.15588457
v -1.12866085 -1.34508562 -1.09000000
v -0.89000000 -1.54152522 -1.00000000
v -0.87794229 -1.52064065 -0.91000000
v -0.84500000 -1.46358293 -0.84411543
v -0.80000000 -1.38564065 -0.82000000
v -0.75500000 -1.30769836 -0.84411543
v -0.72205771 -1.25064065 -0.91000000
v -0.71000000 -1.22975607 -1.00000000
v -0.72205771 -1.25064065 -1.09000000
v -0.75500000 -1.30769836 -1.15588457
v -0.80000000 -1.38564065 -1.18000000
v -0.84500000 -1.46358293 -1.15588457
v -0.87794229 -1.52064065 -1.09000000
v -0.60879586 -1.67265286 -1.00000000
v -0.60054789 -1.64999178 -0.91000000
v -0.57801404 -1.58808053 -0.84411543
v -0.54723223 -1.50350819 -0.82000000
v -0.51645042 -1.41893586 -0.84411543
v -0.49391657 -1.35702461 -0.91000000
v -0.48566860 -1.33436352 -1.00000000
v -0.49391657 -1.35702461 -1.09000000
v -0.51645042 -1.41893586 -1.15588457
v -0.54723223 -1.50350819 -1.18000000
v -0.57801404 -1.58808053 -1.15588457
v -0.60054789 -1.64999178 -1.09000000
v -0.30909376 -1.75295780 -1.00000000
v -0.30490616 -1.72920874 -0.91000000
v -0.29346542 -1.66432510 -0.84411543
v -0.27783708 -1.57569240 -0.82000000
v -0.26220875 -1.48705971 -0.84411543
v -0.25076801 -1.42217607 -0.91000000
v -0.24658041 -1.39842701 -1.00000000
v -0.25076801 -1.42217607 -1.09000000
v -0.26220875 -1.48705971 -1.15588457
v -0.27783708 -1.57569240 -1.18000000
v -0.29346542 -1.66432510 -1.15588457
v -0.30490616 -1.72920874 -1.09000000
v -0.00000000 -1.78000000 -1.00000000
v -0.00000000 -1.75588457 -0.91000000
v -0.00000000 -1.69000000 -0.84411543
v -0.00000000 -1.60000000 -0.82000000
v -0.00000000 -1.51000000 -0.84411543
v -0.00000000 -1.44411543 -0.91000000
v -0.00000000 -1.42000000 -1.00000000
v -0.00000000 -1.44411543 -1.09000000
v -0.00000000 -1.51000000 -1.15588457
v -0.00000000 -1.60000000 -1.18000000
v -0.00000000 -1.69000000 -1.15588457
v -0.00000000 -1.75588457 -1.09000000
v 0.30909376 -1.75295780 -1.00000000
v 0.30490616 -1.72920874 -0.91000000
v 0.29346542 -1.66432510 -0.84411543
v 0.27783708 -1.57569240 -0.82000000
v 0.26220875 -1.48705971 -0.84411543
v 0.25076801 -1.42217607 -0.91000000
v 0.24658041 -1.39842701 -1.00000000
v 0.25076801 -1.42217607 -1.09000000
v 0.26220875 -1.48705971 -1.15588457
v 0.27783708 -1.57569240 -1.18000000
v 0.29346542 -1.66432510 -1.15588457
v 0.30490616 -1.72920874 -1.09000000
v 0.60879586 -1.67265286 -1.00000000
v 0.60054789 -1.64999178 -0.91000000
v 0.57801404 -1.58808053 -0.84411543
v 0.54723223 -1.50350819 -0.82000000
v 0.51645042 -1.41893586 -0.84411543
v 0.49391657 -1.35702461 -0.91000000
v 0.48566860 -1.33436352 -1.00000000
v 0.49391657 -1.35702461 -1.09000000
v 0.51645042 -1.41893586 -1.15588457
v 0.54723223 -1.50350819 -1.18000000
v 0.57801404 -1.58808053 -1.15588457
v 0.60054789 -1.64999178 -1.09000000
v 0.89000000 -1.54152522 -1.00000000
v 0.87794229 -1.52064065 -0.91000000
v 0.84500000 -1.46358293 -0.84411543
v 0.80000000 -1.38564065 -0.82000000
v 0.75500000 -1.30769836 -0.84411543
v 0.72205771 -1.25064065 -0.91000000
v 0.71000000 -1.22975607 -1.00000000
v 0.72205771 -1.25064065 -1.09000000
v 0.75500000 -1.30769836 -1.15588457
v 0.80000000 -1.38564065 -1.18000000
v 0.84500000 -1.46358293 -1.15588457
v 0.87794229 -1.52064065 -1.09000000
v 1.14416195 -1.36355911 -1.00000000
v 1.12866085 -1.34508562 -0.91000000
v 1.08631106 -1.29461511 -0.84411543
v 1.02846018 -1.22567111 -0.82000000
v 0.97060929 -1.15672711 -0.84411543
v 0.92825950 -1.10625660 -0.91000000
v 0.91275841 -1.08778311 -1.00000000
v 0.92825950 -1.10625660 -1.09000000
v 0.97060929 -1.15672711 -1.15588457
v 1.02846018 -1.22567111 -1.18000000
v 1.08631106 -1.29461511 -1.15588457
v 1.12866085 -1.34508562 -1.09000000
v 1.36355911 -1.14416195 -1.00000000
v 1.34508562 -1.12866085 -0.91000000
v 1.29461511 -1.08631106 -0.84411543
v 1.22567111 -1.02846018 -0.82000000
v 1.15672711 -0.97060929 -0.84411543
v 1.10625660 -0.92825950 -0.91000000
v 1.08778311 -0.91275841 -1.00000000
v 1.10625660 -0.92825950 -1.09000000
v 1.15672711 -0.97060929 -1.15588457
v 1.22567111 -1.02846018 -1.18000000
v 1.29461511 -1.08631106 -1.15588457
v 1.34508562 -1.12866085 -1.09000000
v 1.54152522 -0.89000000 -1.00000000
v 1.52064065 -0.87794229 -0.91000000
v 1.46358293 -0.84500000 -0.84411543
v 1.38564065 -0.80000000 -0.82000000
v 1.30769836 -0.75500000 -0.84411543
v 1.25064065 -0.72205771 -0.91000000
v 1.22975607 -0.71000000 -1.00000000
v 1.25064065 -0.72205771 -1.09000000
v 1.30769836 -0.75500000 -1.15588457
v 1.38564065 -0.80000000 -1.18000000
v 1.46358293 -0.84500000 -1.15588457
v 1.52064065 -0.87794229 -1.09000000
v 1.67265286 -0.60879586 -1.00000000
v 1.64999178 -0.60054789 -0.91000000
v 1.58808053 -0.57801404 -0.84411543
v 1.50350819 -0.54723223 -0.82000000
v 1.41893586 -0.51645042 -0.84411543
v 1.35702461 -0.49391657 -0.91000000
v 1.33436352 -0.48566860 -1.00000000
v 1.35702461 -0.49391657 -1.09000000
v 1.41893586 -0.51645042 -1.15588457
v 1.50350819 -0.54723223 -1.18000000
v 1.58808053 -0.57801404 -1.15588457
v 1.64999178 -0.60054789 -1.09000000
v 1.75295780 -0.30909376 -1.00000000
v 1.72920874 -0.30490616 -0.91000000
v 1.66432510 -0.29346542 -0.84411543
v 1.57569240 -0.27783708 -0.82000000
v 1.48705971 -0.26220875 -0.84411543
v 1.42217607 -0.25076801 -0.91000000
v 1.39842701 -0.24658041 -1.00000000
v 1.42217607 -0.25076801 -1.09000000
v 1.48705971 -0.26220875 -1.15588457
v 1.57569240 -0.27783708 -1.18000000
v 1.66432510 -0.29346542 -1.15588457
v 1.72920874 -0.30490616 -1.09000000
v 1.78000000 0.00000000 1.00000000
v 1.75588457 0.00000000 1.09000000
v 1.69000000 0.00000000 1.15588457
v 1.60000000 0.00000000 1.18000000
v 1.51000000 0.00000000 1.15588457
v 1.44411543 0.00000000 1.09000000
v 1.42000000 0.00000000 1.00000000
v 1.44411543 0.00000000 0.91000000
v 1.51000000 0.00000000 0.84411543
v 1.60000000 0.00000000 0.82000000
v 1.69000000 0.00000000 0.84411543
v 1.75588457 0.00000000 0.91000000
v 1.75295780 0.30909376 1.00000000
v 1.72920874 0.30490616 1.09000000
v 1.66432510 0.29346542 1.15588457
v 1.57569240 0.27783708 1.18000000
v 1.48705971 0.26220875 1.15588457
v 1.42217607 0.25076801 1.09000000
v 1.39842701 0.24658041 1.00000000
v 1.42217607 0.25076801 0.91000000
v 1.48705971 0.26220875 0.84411543
v 1.57569240 0.27783708 0.82000000
v 1.66432510 0.29346542 0.84411543
v 1.72920874 0.30490616 0.91000000
v 1.67265286 0.60879586 1.00000000
v 1.64999178 0.60054789 1.09000000
v 1.58808053 0.57801404 1.15588457
v 1.50350819 0.54723223 1.18000000
v 1.41893586 0.51645042 1.15588457
v 1.35702461 0.49391657 1.09000000
v 1.33436352 0.48566860 1.00000000
v 1.35702461 0.49391657 0.91000000
v 1.41893586 0.51645042 0.84411543
v 1.50350819 0.54723223 0.82000000
v 1.58808053 0.57801404 0.84411543
v 1.64999178 0.60054789 0.91000000
v 1.54152522 0.89000000 1.00000000
v 1.52064065 0.87794229 1.09000000
v 1.46358293 0.84500000 1.15588457
v 1.38564065 0.80000000 1.18000000
v 1.30769836 0.75500000 1.15588457
v 1.25064065 0.72205771 1.09000000
v 1.22975607 0.71000000 1.00000000
v 1.25064065 0.72205771 0.91000000
v 1.30769836 0.75500000 0.84411543
v 1.38564065 0.80000000 0.82000000
v 1.46358293 0.84500000 0.84411543
v 1.52064065 0.87794229 0.91000000
v 1.36355911 1.14416195 1.00000000
v 1.34508562 1.12866085 1.09000000
v 1.29461511 1.08631106 1.15588457
v 1.22567111 1.02846018 1.18000000
v 1.15672711 0.97060929 1.15588457
v 1.10625660 0.92825950 1.09000000
v 1.08778311 0.91275841 1.00000000
v 1.10625660 0.92825950 0.91000000
v 1.15672711 0.97060929 0.84411543
v 1.22567111 1.02846018 0.82000000
v 1.29461511 1.08631106 0.84411543
v 1.34508562 1.12866085 0.91000000
v 1.14416195 1.36355911 1.00000000
v 1.12866085 1.34508562 1.09000000
v 1.08631106 1.29461511 1.15588457
v 1.02846018 1.22567111 1.18000000
v 0.97060929 1.15672711 1.15588457
v 0.92825950 1.10625660 1.09000000
v 0.91275841 1.08778311 1.00000000
v 0.92825950 1.10625660 0.91000000
v 0.97060929 1.15672711 0.84411543
v 1.02846018 1.22567111 0.82000000
v 1.08631106 1.29461511 0.84411543
v 1.12866085 1.34508562 0.91000000
v 0.89000000 1.54152522 1.00000000
v 0.87794229 1.52064065 1.09000000
v 0.84500000 1.46358293 1.15588457
v 0.80000000 1.38564065 1.18000000
v 0.75500000 1.30769836 1.15588457
v 0.72205771 1.25064065 1.09000000
v 0.71000000 1.22975607 1.00000000
v 0.72205771 1.25064065 0.91000000
v 0.75500000 1.30769836 0.84411543
v 0.80000000 1.38564065 0.82000000
v 0.84500000 1.46358293 0.84411543
v 0.87794229 1.52064065 0.91000000
v 0.60879586 1.67265286 1.00000000
v 0.60054789 1.64999178 1.09000000
v 0.57801404 1.58808053 1.15588457
v 0.54723223 1.50350819 1.18000000
v 0.51645042 1.41893586 1.15588457
v 0.49391657 1.35702461 1.09000000
v 0.48566860 1.33436352 1.00000000
v 0.49391657 1.35702461 0.91000000
v 0.51645042 1.41893586 0.84411543
v 0.54723223 1.50350819 0.82000000
v 0.57801404 1.58808053 0.84411543
v 0.60054789 1.64999178 0.91000000
v 0.30909376 1.75295780 1.00000000
v 0.30490616 1.72920874 1.09000000
v 0.29346542 1.66432510 1.15588457
v 0.27783708 1.57569240 1.18000000
v 0.26220875 1.48705971 1.15588457
v 0.25076801 1.42217607 1.09000000
v 0.24658041 1.39842701 1.00000000
v 0.25076801 1.42217607 0.91000000
v 0.26220875 1.48705971 0.84411543
v 0.27783708 1.57569240 0.82000000
v 0.29346542 1.66432510 0.84411543
v 0.30490616 1.72920874 0.91000000
v 0.00000000 1.78000000 1.00000000
v 0.00000000 1.75588457 1.09000000
v 0.00000000 1.69000000 1.15588457
v 0.00000000 1.60000000 1.18000000
v 0.00000000 1.51000000 1.15588457
v 0.00000000 1.44411543 1.09000000
v 0.00000000 1.42000000 1.00000000
v 0.00000000 1.44411543 0.91000000
v 0.00000000 1.51000000 0.84411543
v 0.00000000 1.60000000 0.82000000
v 0.00000000 1.69000000 0.84411543
v 0.00000000 1.75588457 0.91000000
v -0.30909376 1.75295780 1.00000000
v -0.30490616 1.72920874 1.09000000
v -0.29346542 1.66432510 1.15588457
v -0.27783708 1.57569240 1.18000000
v -0.26220875 1.48705971 1.15588457
v -0.25076801 1.42217607 1.09000000
v -0.24658041 1.39842701 1.00000000
v -0.25076801 1.42217607 0.91000000
v -0.26220875 1.48705971 0.84411543
v -0.27783708 1.57569240 0.82000000
v -0.29346542 1.66432510 0.84411543
v -0.30490616 1.72920874 0.91000000
v -0.60879586 1.67265286 1.00000000
v -0.60054789 1.64999178 1.09000000
v -0.57801404 1.58808053 1.15588457
v -0.54723223 1.50350819 1.18000000
v -0.51645042 1.41893586 1.15588457
v -0.49391657 1.35702461 1.09000000
v -0.48566860 1.33436352 1.00000000
v -0.49391657 1.35702461 0.91000000
v -0.51645042 1.41893586 0.84411543
v -0.54723223 1.50350819 0.82000000
v -0.57801404 1.58808053 0.84411543
v -0.60054789 1.64999178 0.91000000
v -0.89000000 1.54152522 1.00000000
v -0.87794229 1.52064065 1.09000000
v -0.84500000 1.46358293 1.15588457
v -0.80000000 1.38564065 1.18000000
v -0.75500000 1.30769836 1.15588457
v -0.72205771 1.25064065 1.09000000
v -0.71000000 1.22975607 1.00000000
v -0.72205771 1.25064065 0.91000000
v -0.75500000 1.30769836 0.84411543
v -0.80000000 1.38564065 0.82000000
v -0.84500000 1.46358293 0.84411543
v -0.87794229 1.52064065 0.91000000
v -1.14416195 1.36355911 1.00000000
v -1.12866085 1.34508562 1.09000000
v -1.08631106 1.29461511 1.15588457
v -1.02846018 1.22567111 1.18000000
v -0.97060929 1.15672711 1.15588457
v -0.92825950 1.10625660 1.09000000
v -0.91275841 1.08778311 1.00000000
v -0.92825950 1.10625660 0.91000000
v -0.97060929 1.15672711 0.84411543
v -1.02846018 1.22567111 0.82000000
v -1.08631106 1.29461511 0.84411543
v -1.12866085 1.34508562 0.91000000
v -1.36355911 1.14416195 1.00000000
v -1.34508562 1.12866085 1.09000000
v -1.29461511 1.08631106 1.15588457
v -1.22567111 1.02846018 1.18000000
v -1.15672711 0.97060929 1.15588457
v -1.10625660 0.92825950 1.09000000
v -1.08778311 0.91275841 1.00000000
v -1.10625660 0.92825950 0.91000000
v -1.15672711 0.97060929 0.84411543
v -1.22567111 1.02846018 0.82000000
v -1.29461511 1.08631106 0.84411543
v -1.34508562 1.12866085 0.91000000
v -1.54152522 0.89000000 1.00000000
v -1.52064065 0.87794229 1.09000000
v -1.46358293 0.84500000 1.15588457
v -1.38564065 0.80000000 1.18000000
v -1.30769836 0.75500000 1.15588457
v -1.25064065 0.72205771 1.09000000
v -1.22975607 0.71000000 1.00000000
v -1.25064065 0.72205771 0.91000000
v -1.30769836 0.75500000 0.84411543
v -1.38564065 0.80000000 0.82000000
v -1.46358293 0.84500000 0.84411543
v -1.52064065 0.87794229 0.91000000
v -1.67265286 0.60879586 1.00000000
v -1.64999178 0.60054789 1.09000000
v -1.58808053 0.57801404 1.15588457
v -1.50350819 0.54723223 1.18000000
v -1.41893586 0.51645042 1.15588457
v -1.35702461 0.49391657 1.09000000
v -1.33436352 0.48566860 1.00000000
v -1.35702461 0.49391657 0.91000000
v -1.41893586 0.51645042 0.84411543
v -1.50350819 0.54723223 0.82000000
v -1.58808053 0.57801404 0.84411543
v -1.64999178 0.60054789 0.91000000
v -1.75295780 0.30909376 1.00000000
v -1.72920874 0.30490616 1.09000000
v -1.66432510 0.29346542 1.15588457
v -1.57569240 0.27783708 1.18000000
v -1.48705971 0.26220875 1.15588457
v -1.42217607 0.25076801 1.09000000
v -1.39842701 0.24658041 1.00000000
v -1.42217607 0.25076801 0.91000000
v -1.48705971 0.26220875 0.84411543
v -1.57569240 0.27783708 0.82000000
v -1.66432510 0.29346542 0.84411543
v -1.72920874 0.30490616 0.91000000
v -1.78000000 0.00000000 1.00000000
v -1.75588457 0.00000000 1.09000000
v -1.69000000 0.00000000 1.15588457
v -1.60000000 0.00000000 1.18000000
v -1.51000000 0.00000000 1.15588457
v -1.44411543 0.00000000 1.09000000
v -1.42000000 0.00000000 1.00000000
v -1.44411543 0.00000000 0.91000000
v -1.51000000 0.00000000 0.84411543
v -1.60000000 0.00000000 0.82000000
v -1.69000000 0.00000000 0.84411543
v -1.75588457 0.00000000 0.91000000
v -1.75295780 -0.30909376 1.00000000
v -1.72920874 -0.30490616 1.09000000
v -1.66432510 -0.29346542 1.15588457
v -1.57569240 -0.27783708 1.18000000
v -1.48705971 -0.26220875 1.15588457
v -1.42217607 -0.25076801 1.09000000
v -1.39842701 -0.24658041 1.00000000
v -1.42217607 -0.25076801 0.91000000
v -1.48705971 -0.26220875 0.84411543
v -1.57569240 -0.27783708 0.82000000
v -1.66432510 -0.29346542 0.84411543
v -1.72920874 -0.30490616 0.91000000
v -1.67265286 -0.60879586 1.00000000
v -1.64999178 -0.60054789 1.09000000
v -1.58808053 -0.57801404 1.15588457
v -1.50350819 -0.54723223 1.18000000
v -1.41893586 -0.51645042 1.15588457
v -1.35702461 -0.49391657 1.09000000
v -1.33436352 -0.48566860 1.00000000
v -1.35702461 -0.49391657 0.91000000
v -1.41893586 -0.51645042 0.84411543
v -1.50350819 -0.54723223 0.82000000
v -1.58808053 -0.57801404 0.84411543
v -1.64999178 -0.60054789 0.91000000
v -1.54152522 -0.89000000 1.00000000
v -1.52064065 -0.87794229 1.09000000
v -1.46358293 -0.84500000 1.15588457
v -1.38564065 -0.80000000 1.18000000
v -1.30769836 -0.75500000 1.15588457
v -1.25064065 -0.72205771 1.09000000
v -1.22975607 -0.71000000 1.00000000
v -1.25064065 -0.72205771 0.91000000
v -1.30769836 -0.75500000 0.84411543
v -1.38564065 -0.80000000 0.82000000
v -1.46358293 -0.84500000 0.84411543
v -1.52064065 -0.87794229 0.91000000
v -1.36355911 -1.14416195 1.00000000
v -1.34508562 -1.12866085 1.09000000
v -1.29461511 -1.08631106 1.15588457
v -1.22567111 -1.02846018 1.18000000
v -1.15672711 -0.97060929 1.15588457
v -1.10625660 -0.92825950 1.09000000
v -1.08778311 -0.91275841 1.00000000
v -1.10625660 -0.92825950 0.91000000
v -1.15672711 -0.97060929 0.84411543
v -1.22567111 -1.02846018 0.82000000
v -1.29461511 -1.08631106 0.84411543
v -1.34508562 -1.12866085 0.91000000
v -1.14416195 -1.36355911 1.00000000
v -1.12866085 -1.34508562 1.09000000
v -1.08631106 -1.29461511 1.15588457
v -1.02846018 -1.22567111 1.18000000
v -0.97060929 -1.15672711 1.15588457
v -0.92825950 -1.10625660 1.09000000
v -0.91275841 -1.08778311 1.00000000
v -0.92825950 -1.10625660 0.91000000
v -0.97060929 -1.15672711 0.84411543
v -1.02846018 -1.22567111 0.82000000
v -1.08631106 -1.29461511 0.84411543
v -1.12866085 -1.34508562 0.91000000
v -0.89000000 -1.54152522 1.00000000
v -0.87794229 -1.52064065 1.09000000
v -0.84500000 -1.46358293 1.15588457
v -0.80000000 -1.38564065 1.18000000
v -0.75500000 -1.30769836 1.15588457
v -0.72205771 -1.25064065 1.09000000
v -0.71000000 -1.22975607 1.00000000
v -0.72205771 -1.25064065 0.91000000
v -0.75500000 -1.30769836 0.84411543
v -0.80000000 -1.38564065 0.82000000
v -0.84500000 -1.46358293 0.84411543
v -0.87794229 -1.52064065 0.91000000
v -0.60879586 -1.67265286 1.00000000
v -0.60054789 -1.64999178 1.09000000
v -0.57801404 -1.58808053 1.15588457
v -0.54723223 -1.50350819 1.18000000
v -0.51645042 -1.41893586 1.15588457
v -0.49391657 -1.35702461 1.09000000
v -0.48566860 -1.33436352 1.00000000
v -0.49391657 -1.35702461 0.91000000
v -0.51645042 -1.41893586 0.84411543
v -0.54723223 -1.50350819 0.82000000
v -0.57801404 -1.58808053 0.84411543
v -0.60054789 -1.64999178 0.91000000
v -0.30909376 -1.75295780 1.00000000
v -0.30490616 -1.72920874 1.09000000
v -0.29346542 -1.66432510 1.15588457
v -0.27783708 -1.57569240 1.18000000
v -0.26220875 -1.48705971 1.15588457
v -0.25076801 -1.42217607 1.09000000
v -0.24658041 -1.39842701 1.00000000
v -0.25076801 -1.42217607 0.91000000
v -0.26220875 -1.48705971 0.84411543
v -0.27783708 -1.57569240 0.82000000
v -0.29346542 -1.66432510 0.84411543
v -0.30490616 -1.72920874 0.91000000
v -0.00000000 -1.78000000 1.00000000
v -0.00000000 -1.75588457 1.09000000
v -0.00000000 -1.69000000 1.15588457
v -0.00000000 -1.60000000 1.18000000
v -0.00000000 -1.51000000 1.15588457
v -0.00000000 -1.44411543 1.09000000
v -0.00000000 -1.42000000 1.00000000
v -0.00000000 -1.44411543 0.91000000
v -0.00000000 -1.51000000 0.84411543
v -0.00000000 -1.60000000 0.82000000
v -0.00000000 -1.69000000 0.84411543
v -0.00000000 -1.75588457 0.91000000
v 0.30909376 -1.75295780 1.00000000
v 0.30490616 -1.72920874 1.09000000
v 0.29346542 -1.66432510 1.15588457
v 0.27783708 -1.57569240 1.18000000
v 0.26220875 -1.48705971 1.15588457
v 0.25076801 -1.42217607 1.09000000
v 0.24658041 -1.39842701 1.00000000
v 0.25076801 -1.42217607 0.91000000
v 0.26220875 -1.48705971 0.84411543
v 0.27783708 -1.57569240 0.82000000
v 0.29346542 -1.66432510 0.84411543
v 0.30490616 -1.72920874 0.91000000
v 0.60879586 -1.67265286 1.00000000
v 0.60054789 -1.64999178 1.09000000
v 0.57801404 -1.58808053 1.15588457
v 0.54723223 -1.50350819 1.18000000
v 0.51645042 -1.41893586 1.15588457
v 0.49391657 -1.35702461 1.09000000
v 0.48566860 -1.33436352 1.00000000
v 0.49391657 -1.35702461 0.91000000
v 0.51645042 -1.41893586 0.84411543
v 0.54723223 -1.50350819 0.82000000
v 0.57801404 -1.58808053 0.84411543
v 0.60054789 -1.64999178 0.91000000
v 0.89000000 -1.54152522 1.00000000
v 0.87794229 -1.52064065 1.09000000
v 0.84500000 -1.46358293 1.15588457
v 0.80000000 -1.38564065 1.18000000
v 0.75500000 -1.30769836 1.15588457
v 0.72205771 -1.25064065 1.09000000
v 0.71000000 -1.22975607 1.00000000
v 0.72205771 -1.25064065 0.91000000
v 0.75500000 -1.30769836 0.84411543
v 0.80000000 -1.38564065 0.82000000
v 0.84500000 -1.46358293 0.84411543
v 0.87794229 -1.52064065 0.91000000
v 1.14416195 -1.36355911 1.00000000
v 1.12866085 -1.34508562 1.09000000
v 1.08631106 -1.29461511 1.15588457
v 1.02846018 -1.22567111 1.18000000
v 0.97060929 -1.15672711 1.15588457
v 0.92825950 -1.10625660 1.09000000
v 0.91275841 -1.08778311 1.00000000
v 0.92825950 -1.10625660 0.91000000
v 0.97060929 -1.15672711 0.84411543
v 1.02846018 -1.22567111 0.82000000
v 1.08631106 -1.29461511 0.84411543
v 1.12866085 -1.34508562 0.91000000
v 1.36355911 -1.14416195 1.00000000
v 1.34508562 -1.12866085 1.09000000
v 1.29461511 -1.08631106 1.15588457
v 1.22567111 -1.02846018 1.18000000
v 1.15672711 -0.97060929 1.15588457
v 1.10625660 -0.92825950 1.09000000
v 1.08778311 -0.91275841 1.00000000
v 1.10625660 -0.92825950 0.91000000
v 1.15672711 -0.97060929 0.84411543
v 1.22567111 -1.02846018 0.82000000
v 1.29461511 -1.08631106 0.84411543
v 1.34508562 -1.12866085 0.91000000
v 1.54152522 -0.89000000 1.00000000
v 1.52064065 -0.87794229 1.09000000
v 1.46358293 -0.84500000 1.15588457
v 1.38564065 -0.80000000 1.18000000
v 1.30769836 -0.75500000 1.15588457
v 1.25064065 -0.72205771 1.09000000
v 1.22975607 -0.71000000 1.00000000
v 1.25064065 -0.72205771 0.91000000
v 1.30769836 -0.75500000 0.84411543
v 1.38564065 -0.80000000 0.82000000
v 1.46358293 -0.84500000 0.84411543
v 1.52064065 -0.87794229 0.91000000
v 1.67265286 -0.60879586 1.00000000
v 1.64999178 -0.60054789 1.09000000
v 1.58808053 -0.57801404 1.15588457
v 1.50350819 -0.54723223 1.18000000
v 1.41893586 -0.51645042 1.15588457
v 1.35702461 -0.49391657 1.09000000
v 1.33436352 -0.48566860 1.00000000
v 1.35702461 -0.49391657 0.91000000
v 1.41893586 -0.51645042 0.84411543
v 1.50350819 -0.54723223 0.82000000
v 1.58808053 -0.57801404 0.84411543
v 1.64999178 -0.60054789 0.91000000
v 1.75295780 -0.30909376 1.00000000
v 1.72920874 -0.30490616 1.09000000
v 1.66432510 -0.29346542 1.15588457
v 1.57569240 -0.27783708 1.18000000
v 1.48705971 -0.26220875 1.15588457
v 1.42217607 -0.25076801 1.09000000
v 1.39842701 -0.24658041 1.00000000
v 1.42217607 -0.25076801 0.91000000
v 1.48705971 -0.26220875 0.84411543
v 1.57569240 -0.27783708 0.82000000
v 1.66432510 -0.29346542 0.84411543
v 1.72920874 -0.30490616 0.91000000
v -2.25000000 -2.25000000 -2.42500000
v -2.25000000 -2.25000000 -2.17500000
v -2.25000000 2.25000000 -2.42500000
v -2.25000000 2.25000000 -2.17500000
v 2.25000000 -2.25000000 -2.42500000
v 2.25000000 -2.25000000 -2.17500000
v 2.25000000 2.25000000 -2.42500000
v 2.25000000 2.25000000 -2.17500000
f 2 1 5
f 2 5 3
f 3 5 6
f 3 6 4
f 5 1 7
f 5 7 6
f 6 7 8
f 6 8 4
f 7 1 9
f 7 9 8
f 8 9 10
f 8 10 4
f 9 1 11
f 9 11 10
f 10 11 12
f 10 12 4
f 11 1 13
f 11 13 12
f 12 13 14
f 12 14 4
f 13 1 15
f 13 15 14
f 14 15 16
f 14 16 4
f 15 1 17
f 15 17 16
f 16 17 18
f 16 18 4
f 17 1 19
f 17 19 18
f 18 19 20
f 18 20 4
f 19 1 21
f 19 21 20
f 20 21 22
f 20 22 4
f 21 1 23
f 21 23 22
f 22 23 24
f 22 24 4
f 23 1 25
f 23 25 24
f 24 25 26
f 24 26 4
f 25 1 27
f 25 27 26
f 26 27 28
f 26 28 4
f 27 1 29
f 27 29 28
f 28 29 30
f 28 30 4
f 29 1 31
f 29 31 30
f 30 31 32
f 30 32 4
f 31 1 33
f 31 33 32
f 32 33 34
f 32 34 4
f 33 1 35
f 33 35 34
f 34 35 36
f 34 36 4
f 35 1 37
f 35 37 36
f 36 37 38
f 36 38 4
f 37 1 39
f 37 39 38
f 38 39 40
f 38 40 4
f 39 1 41
f 39 41 40
f 40 41 42
f 40 42 4
f 41 1 43
f 41 43 42
f 42 43 44
f 42 44 4
f 43 1 45
f 43 45 44
f 44 45 46
f 44 46 4
f 45 1 47
f 45 47 46
f 46 47 48
f 46 48 4
f 47 1 49
f 47 49 48
f 48 49 50
f 48 50 4
f 49 1 2
f 49 2 50
f 50 2 3
f 50 3 4
f 51 63 52
f 52 63 64
f 52 64 53
f 53 64 65
f 53 65 54
f 54 65 66
f 54 66 55
f 55 66 67
f 55 67 56
f 56 67 68
f 56 68 57
f 57 68 69
f 57 69 58
f 58 69 70
f 58 70 59
f 59 70 71
f 59 71 60
f 60 71 72
f 60 72 61
f 61 72 73
f 61 73 62
f 62 73 74
f 62 74 51
f 51 74 63
f 63 75 64
f 64 75 76
f 64 76 65
f 65 76 77
f 65 77 66
f 66 77 78
f 66 78 67
f 67 78 79
f 67 79 68
f 68 79 80
f 68 80 69
f 69 80 81
f 69 81 70
f 70 81 82
f 70 82 71
f 71 82 83
f 71 83 72
f 72 83 84
f 72 84 73
f 73 84 85
f 73 85 74
f 74 85 86
f 74 86 63
f 63 86 75
f 75 87 76
f 76 87 88
f 76 88 77
f 77 88 89
f 77 89 78
f 78 89 90
f 78 90 79
f 79 90 91
f 79 91 80
f 80 91 92
f 80 92 81
f 81 92 93
f 81 93 82
f 82 93 94
f 82 94 83
f 83 94 95
f 83 95 84
f 84 95 96
f 84 96 85
f 85 96 97
f 85 97 86
f 86 97 98
f 86 98 75
f 75 98 87
f 87 99 88
f 88 99 100
f 88 100 89
f 89 100 101
f 89 101 90
f 90 101 102
f 90 102 91
f 91 102 103
f 91 103 92
f 92 103 104
f 92 104 93
f 93 104 105
f 93 105 94
f 94 105 106
f 94 106 95
f 95 106 107
f 95 107 96
f 96 107 108
f 96 108 97
f 97 108 109
f 97 109 98
f 98 109 110
f 98 110 87
f 87 110 99
f 99 111 100
f 100 111 112
f 100 112 101
f 101 112 113
f 101 113 102
f 102 113 114
f 102 114 103
f 103 114 115
f 103 115 104
f 104 115 116
f 104 116 105
f 105 116 117
f 105 117 106
f 106 117 118
f 106 118 107
f 107 118 119
f 107 119 108
f 108 119 120
f 108 120 109
f 109 120 121
f 109 121 110
f 110 121 122
f 110 122 99
f 99 122 111
f 111 123 112
f 112 123 124
f 112 124 113
f 113 124 125
f 113 125 114
f 114 125 126
f 114 126 115
f 115 126 127
f 115 127 116
f 116 127 128
f 116 128 117
f 117 128 129
f 117 129 118
f 118 129 130
f 118 130 119
f 119 130 131
f 119 131 120
f 120 131 132
f 120 132 121
f 121 132 133
f 121 133 122
f 122 133 134
f 122 134 111
f 111 134 123
f 123 135 124
f 124 135 136
f 124 136 125
f 125 136 137
f 125 137 126
f 126 137 138
f 126 138 127
f 127 138 139
f 127 139 128
f 128 139 140
f 128 140 129
f 129 140 141
f 129 141 130
f 130 141 142
f 130 142 131
f 131 142 143
f 131 143 132
f 132 143 144
f 132 144 133
f 133 144 145
f 133 145 134
f 134 145 146
f 134 146 123
f 123 146 135
f 135 147 136
f 136 147 148
f 136 148 137
f 137 148 149
f 137 149 138
f 138 149 150
f 138 150 139
f 139 150 151
f 139 151 140
f 140 151 152
f 140 152 141
f 141 152 153
f 141 153 142
f 142 153 154
f 142 154 143
f 143 154 155
f 143 155 144
f 144 155 156
f 144 156 145
f 145 156 157
f 145 157 146
f 146 157 158
f 146 158 135
f 135 158 147
f 147 159 148
f 148 159 160
f 148 160 149
f 149 160 161
f 149 161 150
f 150 161 162
f 150 162 151
f 151 162 163
f 151 163 152
f 152 163 164
f 152 164 153
f 153 164 165
f 153 165 154
f 154 165 166
f 154 166 155
f 155 166 167
f 155 167 156
f 156 167 168
f 156 168 157
f 157 168 169
f 157 169 158
f 158 169 170
f 158 170 147
f 147 170 159
f 159 171 160
f 160 171 172
f 160 172 161
f 161 172 173
f 161 173 162
f 162 173 174
f 162 174 163
f 163 174 175
f 163 175 164
f 164 175 176
f 164 176 165
f 165 176 177
f 165 177 166
f 166 177 178
f 166 178 167
f 167 178 179
f 167 179 168
f 168 179 180
f 168 180 169
f 169 180 181
f 169 181 170
f 170 181 182
f 170 182 159
f 159 182 171
f 171 183 172
f 172 183 184
f 172 184 173
f 173 184 185
f 173 185 174
f 174 185 186
f 174 186 175
f 175 186 187
f 175 187 176
f 176 187 188
f 176 188 177
f 177 188 189
f 177 189 178
f 178 189 190
f 178 190 179
f 179 190 191
f 179 191 180
f 180 191 192
f 180 192 181
f 181 192 193
f 181 193 182
f 182 193 194
f 182 194 171
f 171 194 183
f 183 195 184
f 184 195 196
f 184 196 185
f 185 196 197
f 185 197 186
f 186 197 198
f 186 198 187
f 187 198 199
f 187 199 188
f 188 199 200
f 188 200 189
f 189 200 201
f 189 201 190
f 190 201 202
f 190 202 191
f 191 202 203
f 191 203 192
f 192 203 204
f 192 204 193
f 193 204 205
f 193 205 194
f 194 205 206
f 194 206 183
f 183 206 195
f 195 207 196
f 196 207 208
f 196 208 197
f 197 208 209
f 197 209 198
f 198 209 210
f 198 210 199
f 199 210 211
f 199 211 200
f 200 211 212
f 200 212 201
f 201 212 213
f 201 213 202
f 202 213 214
f 202 214 203
f 203 214 215
f 203 215 204
f 204 215 216
f 204 216 205
f 205 216 217
f 205 217 206
f 206 217 218
f 206 218 195
f 195 218 207
f 207 219 208
f 208 219 220
f 208 220 209
f 209 220 221
f 209 221 210
f 210 221 222
f 210 222 211
f 211 222 223
f 211 223 212
f 212 223 224
f 212 224 213
f 213 224 225
f 213 225 214
f 214 225 226
f 214 226 215
f 215 226 227
f 215 227 216
f 216 227 228
f 216 228 217
f 217 228 229
f 217 229 218
f 218 229 230
f 218 230 207
f 207 230 219
f 219 231 220
f 220 231 232
f 220 232 221
f 221 232 233
f 221 233 222
f 222 233 234
f 222 234 223
f 223 234 235
f 223 235 224
f 224 235 236
f 224 236 225
f 225 236 237
f 225 237 226
f 226 237 238
f 226 238 227
f 227 238 239
f 227 239 228
f 228 239 240
f 228 240 229
f 229 240 241
f 229 241 230
f 230 241 242
f 230 242 219
f 219 242 231
f 231 243 232
f 232 243 244
f 232 244 233
f 233 244 245
f 233 245 234
f 234 245 246
f 234 246 235
f 235 246 247
f 235 247 236
f 236 247 248
f 236 248 237
f 237 248 249
f 237 249 238
f 238 249 250
f 238 250 239
f 239 250 251
f 239 251 240
f 240 251 252
f 240 252 241
f 241 252 253
f 241 253 242
f 242 253 254
f 242 254 231
f 231 254 243
f 243 255 244
f 244 255 256
f 244 256 245
f 245 256 257
f 245 257 246
f 246 257 258
f 246 258 247
f 247 258 259
f 247 259 248
f 248 259 260
f 248 260 249
f 249 260 261
f 249 261 250
f 250 261 262
f 250 262 251
f 251 262 263
f 251 263 252
f 252 263 264
f 252 264 253
f 253 264 265
f 253 265 254
f 254 265 266
f 254 266 243
f 243 266 255
f 255 267 256
f 256 267 268
f 256 268 257
f 257 268 269
f 257 269 258
f 258 269 270
f 258 270 259
f 259 270 271
f 259 271 260
f 260 271 272
f 260 272 261
f 261 272 273
f 261 273 262
f 262 273 274
f 262 274 263
f 263 274 275
f 263 275 264
f 264 275 276
f 264 276 265
f 265 276 277
f 265 277 266
f 266 277 278
f 266 278 255
f 255 278 267
f 267 279 268
f 268 279 280
f 268 280 269
f 269 280 281
f 269 281 270
f 270 281 282
f 270 282 271
f 271 282 283
f 271 283 272
f 272 283 284
f 272 284 273
f 273 284 285
f 273 285 274
f 274 285 286
f 274 286 275
f 275 286 287
f 275 287 276
f 276 287 288
f 276 288 277
f 277 288 289
f 277 289 278
f 278 289 290
f 278 290 267
f 267 290 279
f 279 291 280
f 280 291 292
f 280 292 281
f 281 292 293
f 281 293 282
f 282 293 294
f 282 294 283
f 283 294 295
f 283 295 284
f 284 295 296
f 284 296 285
f 285 296 297
f 285 297 286
f 286 297 298
f 286 298 287
f 287 298 299
f 287 299 288
f 288 299 300
f 288 300 289
f 289 300 301
f 289 301 290
f 290 301 302
f 290 302 279
f 279 302 291
f 291 303 292
f 292 303 304
f 292 304 293
f 293 304 305
f 293 305 294
f 294 305 306
f 294 306 295
f 295 306 307
f 295 307 296
f 296 307 308
f 296 308 297
f 297 308 309
f 297 309 298
f 298 309 310
f 298 310 299
f 299 310 311
f 299 311 300
f 300 311 312
f 300 312 301
f 301 312 313
f 301 313 302
f 302 313 314
f 302 314 291
f 291 314 303
f 303 315 304
f 304 315 316
f 304 316 305
f 305 316 317
f 305 317 306
f 306 317 318
f 306 318 307
f 307 318 319
f 307 319 308
f 308 319 320
f 308 320 309
f 309 320 321
f 309 321 310
f 310 321 322
f 310 322 311
f 311 322 323
f 311 323 312
f 312 323 324
f 312 324 313
f 313 324 325
f 313 325 314
f 314 325 326
f 314 326 303
f 303 326 315
f 315 327 316
f 316 327 328
f 316 328 317
f 317 328 329
f 317 329 318
f 318 329 330
f 318 330 319
f 319 330 331
f 319 331 320
f 320 331 332
f 320 332 321
f 321 332 333
f 321 333 322
f 322 333 334
f 322 334 323
f 323 334 335
f 323 335 324
f 324 335 336
f 324 336 325
f 325 336 337
f 325 337 326
f 326 337 338
f 326 338 315
f 315 338 327
f 327 339 328
f 328 339 340
f 328 340 329
f 329 340 341
f 329 341 330
f 330 341 342
f 330 342 331
f 331 342 343
f 331 343 332
f 332 343 344
f 332 344 333
f 333 344 345
f 333 345 334
f 334 345 346
f 334 346 335
f 335 346 347
f 335 347 336
f 336 347 348
f 336 348 337
f 337 348 349
f 337 349 338
f 338 349 350
f 338 350 327
f 327 350 339
f 339 351 340
f 340 351 352
f 340 352 341
f 341 352 353
f 341 353 342
f 342 353 354
f 342 354 343
f 343 354 355
f 343 355 344
f 344 355 356
f 344 356 345
f 345 356 357
f 345 357 346
f 346 357 358
f 346 358 347
f 347 358 359
f 347 359 348
f 348 359 360
f 348 360 349
f 349 360 361
f 349 361 350
f 350 361 362
f 350 362 339
f 339 362 351
f 351 363 352
f 352 363 364
f 352 364 353
f 353 364 365
f 353 365 354
f 354 365 366
f 354 366 355
f 355 366 367
f 355 367 356
f 356 367 368
f 356 368 357
f 357 368 369
f 357 369 358
f 358 369 370
f 358 370 359
f 359 370 371
f 359 371 360
f 360 371 372
f 360 372 361
f 361 372 373
f 361 373 362
f 362 373 374
f 362 374 351
f 351 374 363
f 363 375 364
f 364 375 376
f 364 376 365
f 365 376 377
f 365 377 366
f 366 377 378
f 366 378 367
f 367 378 379
f 367 379 368
f 368 379 380
f 368 380 369
f 369 380 381
f 369 381 370
f 370 381 382
f 370 382 371
f 371 382 383
f 371 383 372
f 372 383 384
f 372 384 373
f 373 384 385
f 373 385 374
f 374 385 386
f 374 386 363
f 363 386 375
f 375 387 376
f 376 387 388
f 376 388 377
f 377 388 389
f 377 389 378
f 378 389 390
f 378 390 379
f 379 390 391
f 379 391 380
f 380 391 392
f 380 392 381
f 381 392 393
f 381 393 382
f 382 393 394
f 382 394 383
f 383 394 395
f 383 395 384
f 384 395 396
f 384 396 385
f 385 396 397
f 385 397 386
f 386 397 398
f 386 398 375
f 375 398 387
f 387 399 388
f 388 399 400
f 388 400 389
f 389 400 401
f 389 401 390
f 390 401 402
f 390 402 391
f 391 402 403
f 391 403 392
f 392 403 404
f 392 404 393
f 393 404 405
f 393 405 394
f 394 405 406
f 394 406 395
f 395 406 407
f 395 407 396
f 396 407 408
f 396 408 397
f 397 408 409
f 397 409 398
f 398 409 410
f 398 410 387
f 387 410 399
f 399 411 400
f 400 411 412
f 400 412 401
f 401 412 413
f 401 413 402
f 402 413 414
f 402 414 403
f 403 414 415
f 403 415 404
f 404 415 416
f 404 416 405
f 405 416 417
f 405 417 406
f 406 417 418
f 406 418 407
f 407 418 419
f 407 419 408
f 408 419 420
f 408 420 409
f 409 420 421
f 409 421 410
f 410 421 422
f 410 422 399
f 399 422 411
f 411 423 412
f 412 423 424
f 412 424 413
f 413 424 425
f 413 425 414
f 414 425 426
f 414 426 415
f 415 426 427
f 415 427 416
f 416 427 428
f 416 428 417
f 417 428 429
f 417 429 418
f 418 429 430
f 418 430 419
f 419 430 431
f 419 431 420
f 420 431 432
f 420 432 421
f 421 432 433
f 421 433 422
f 422 433 434
f 422 434 411
f 411 434 423
f 423 435 424
f 424 435 436
f 424 436 425
f 425 436 437
f 425 437 426
f 426 437 438
f 426 438 427
f 427 438 439
f 427 439 428
f 428 439 440
f 428 440 429
f 429 440 441
f 429 441 430
f 430 441 442
f 430 442 431
f 431 442 443
f 431 443 432
f 432 443 444
f 432 444 433
f 433 444 445
f 433 445 434
f 434 445 446
f 434 446 423
f 423 446 435
f 435 447 436
f 436 447 448
f 436 448 437
f 437 448 449
f 437 449 438
f 438 449 450
f 438 450 439
f 439 450 451
f 439 451 440
f 440 451 452
f 440 452 441
f 441 452 453
f 441 453 442
f 442 453 454
f 442 454 443
f 443 454 455
f 443 455 444
f 444 455 456
f 444 456 445
f 445 456 457
f 445 457 446
f 446 457 458
f 446 458 435
f 435 458 447
f 447 459 448
f 448 459 460
f 448 460 449
f 449 460 461
f 449 461 450
f 450 461 462
f 450 462 451
f 451 462 463
f 451 463 452
f 452 463 464
f 452 464 453
f 453 464 465
f 453 465 454
f 454 465 466
f 454 466 455
f 455 466 467
f 455 467 456
f 456 467 468
f 456 468 457
f 457 468 469
f 457 469 458
f 458 469 470
f 458 470 447
f 447 470 459
f 459 471 460
f 460 471 472
f 460 472 461
f 461 472 473
f 461 473 462
f 462 473 474
f 462 474 463
f 463 474 475
f 463 475 464
f 464 475 476
f 464 476 465
f 465 476 477
f 465 477 466
f 466 477 478
f 466 478 467
f 467 478 479
f 467 479 468
f 468 479 480
f 468 480 469
f 469 480 481
f 469 481 470
f 470 481 482
f 470 482 459
f 459 482 471
f 471 51 472
f 472 51 52
f 472 52 473
f 473 52 53
f 473 53 474
f 474 53 54
f 474 54 475
f 475 54 55
f 475 55 476
f 476 55 56
f 476 56 477
f 477 56 57
f 477 57 478
f 478 57 58
f 478 58 479
f 479 58 59
f 479 59 480
f 480 59 60
f 480 60 481
f 481 60 61
f 481 61 482
f 482 61 62
f 482 62 471
f 471 62 51
f 483 495 484
f 484 495 496
f 484 496 485
f 485 496 497
f 485 497 486
f 486 497 498
f 486 498 487
f 487 498 499
f 487 499 488
f 488 499 500
f 488 500 489
f 489 500 501
f 489 501 490
f 490 501 502
f 490 502 491
f 491 502 503
f 491 503 492
f 492 503 504
f 492 504 493
f 493 504 505
f 493 505 494
f 494 505 506
f 494 506 483
f 483 506 495
f 495 507 496
f 496 507 508
f 496 508 497
f 497 508 509
f 497 509 498
f 498 509 510
f 498 510 499
f 499 510 511
f 499 511 500
f 500 511 512
f 500 512 501
f 501 512 513
f 501 513 502
f 502 513 514
f 502 514 503
f 503 514 515
f 503 515 504
f 504 515 516
f 504 516 505
f 505 516 517
f 505 517 506
f 506 517 518
f 506 518 495
f 495 518 507
f 507 519 508
f 508 519 520
f 508 520 509
f 509 520 521
f 509 521 510
f 510 521 522
f 510 522 511
f 511 522 523
f 511 523 512
f 512 523 524
f 512 524 513
f 513 524 525
f 513 525 514
f 514 525 526
f 514 526 515
f 515 526 527
f 515 527 516
f 516 527 528
f 516 528 517
f 517 528 529
f 517 529 518
f 518 529 530
f 518 530 507
f 507 530 519
f 519 531 520
f 520 531 532
f 520 532 521
f 521 532 533
f 521 533 522
f 522 533 534
f 522 534 523
f 523 534 535
f 523 535 524
f 524 535 536
f 524 536 525
f 525 536 537
f 525 537 526
f 526 537 538
f 526 538 527
f 527 538 539
f 527 539 528
f 528 539 540
f 528 540 529
f 529 540 541
f 529 541 530
f 530 541 542
f 530 542 519
f 519 542 531
f 531 543 532
f 532 543 544
f 532 544 533
f 533 544 545
f 533 545 534
f 534 545 546
f 534 546 535
f 535 546 547
f 535 547 536
f 536 547 548
f 536 548 537
f 537 548 549
f 537 549 538
f 538 549 550
f 538 550 539
f 539 550 551
f 539 551 540
f 540 551 552
f 540 552 541
f 541 552 553
f 541 553 542
f 542 553 554
f 542 554 531
f 531 554 543
f 543 555 544
f 544 555 556
f 544 556 545
f 545 556 557
f 545 557 546
f 546 557 558
f 546 558 547
f 547 558 559
f 547 559 548
f 548 559 560
f 548 560 549
f 549 560 561
f 549 561 550
f 550 561 562
f 550 562 551
f 551 562 563
f 551 563 552
f 552 563 564
f 552 564 553
f 553 564 565
f 553 565 554
f 554 565 566
f 554 566 543
f 543 566 555
f 555 567 556
f 556 567 568
f 556 568 557
f 557 568 569
f 557 569 558
f 558 569 570
f 558 570 559
f 559 570 571
f 559 571 560
f 560 571 572
f 560 572 561
f 561 572 573
f 561 573 562
f 562 573 574
f 562 574 563
f 563 574 575
f 563 575 564
f 564 575 576
f 564 576 565
f 565 576 577
f 565 577 566
f 566 577 578
f 566 578 555
f 555 578 567
f 567 579 568
f 568 579 580
f 568 580 569
f 569 580 581
f 569 581 570
f 570 581 582
f 570 582 571
f 571 582 583
f 571 583 572
f 572 583 584
f 572 584 573
f 573 584 585
f 573 585 574
f 574 585 586
f 574 586 575
f 575 586 587
f 575 587 576
f 576 587 588
f 576 588 577
f 577 588 589
f 577 589 578
f 578 589 590
f 578 590 567
f 567 590 579
f 579 591 580
f 580 591 592
f 580 592 581
f 581 592 593
f 581 593 582
f 582 593 594
f 582 594 583
f 583 594 595
f 583 595 584
f 584 595 596
f 584 596 585
f 585 596 597
f 585 597 586
f 586 597 598
f 586 598 587
f 587 598 599
f 587 599 588
f 588 599 600
f 588 600 589
f 589 600 601
f 589 601 590
f 590 601 602
f 590 602 579
f 579 602 591
f 591 603 592
f 592 603 604
f 592 604 593
f 593 604 605
f 593 605 594
f 594 605 606
f 594 606 595
f 595 606 607
f 595 607 596
f 596 607 608
f 596 608 597
f 597 608 609
f 597 609 598
f 598 609 610
f 598 610 599
f 599 610 611
f 599 611 600
f 600 611 612
f 600 612 601
f 601 612 613
f 601 613 602
f 602 613 614
f 602 614 591
f 591 614 603
f 603 615 604
f 604 615 616
f 604 616 605
f 605 616 617
f 605 617 606
f 606 617 618
f 606 618 607
f 607 618 619
f 607 619 608
f 608 619 620
f 608 620 609
f 609 620 621
f 609 621 610
f 610 621 622
f 610 622 611
f 611 622 623
f 611 623 612
f 612 623 624
f 612 624 613
f 613 624 625
f 613 625 614
f 614 625 626
f 614 626 603
f 603 626 615
f 615 627 616
f 616 627 628
f 616 628 617
f 617 628 629
f 617 629 618
f 618 629 630
f 618 630 619
f 619 630 631
f 619 631 620
f 620 631 632
f 620 632 621
f 621 632 633
f 621 633 622
f 622 633 634
f 622 634 623
f 623 634 635
f 623 635 624
f 624 635 636
f 624 636 625
f 625 636 637
f 625 637 626
f 626 637 638
f 626 638 615
f 615 638 627
f 627 639 628
f 628 639 640
f 628 640 629
f 629 640 641
f 629 641 630
f 630 641 642
f 630 642 631
f 631 642 643
f 631 643 632
f 632 643 644
f 632 644 633
f 633 644 645
f 633 645 634
f 634 645 646
f 634 646 635
f 635 646 647
f 635 647 636
f 636 647 648
f 636 648 637
f 637 648 649
f 637 649 638
f 638 649 650
f 638 650 627
f 627 650 639
f 639 651 640
f 640 651 652
f 640 652 641
f 641 652 653
f 641 653 642
f 642 653 654
f 642 654 643
f 643 654 655
f 643 655 644
f 644 655 656
f 644 656 645
f 645 656 657
f 645 657 646
f 646 657 658
f 646 658 647
f 647 658 659
f 647 659 648
f 648 659 660
f 648 660 649
f 649 660 661
f 649 661 650
f 650 661 662
f 650 662 639
f 639 662 651
f 651 663 652
f 652 663 664
f 652 664 653
f 653 664 665
f 653 665 654
f 654 665 666
f 654 666 655
f 655 666 667
f 655 667 656
f 656 667 668
f 656 668 657
f 657 668 669
f 657 669 658
f 658 669 670
f 658 670 659
f 659 670 671
f 659 671 660
f 660 671 672
f 660 672 661
f 661 672 673
f 661 673 662
f 662 673 674
f 662 674 651
f 651 674 663
f 663 675 664
f 664 675 676
f 664 676 665
f 665 676 677
f 665 677 666
f 666 677 678
f 666 678 667
f 667 678 679
f 667 679 668
f 668 679 680
f 668 680 669
f 669 680 681
f 669 681 670
f 670 681 682
f 670 682 671
f 671 682 683
f 671 683 672
f 672 683 684
f 672 684 673
f 673 684 685
f 673 685 674
f 674 685 686
f 674 686 663
f 663 686 675
f 675 687 676
f 676 687 688
f 676 688 677
f 677 688 689
f 677 689 678
f 678 689 690
f 678 690 679
f 679 690 691
f 679 691 680
f 680 691 692
f 680 692 681
f 681 692 693
f 681 693 682
f 682 693 694
f 682 694 683
f 683 694 695
f 683 695 684
f 684 695 696
f 684 696 685
f 685 696 697
f 685 697 686
f 686 697 698
f 686 698 675
f 675 698 687
f 687 699 688
f 688 699 700
f 688 700 689
f 689 700 701
f 689 701 690
f 690 701 702
f 690 702 691
f 691 702 703
f 691 703 692
f 692 703 704
f 692 704 693
f 693 704 705
f 693 705 694
f 694 705 706
f 694 706 695
f 695 706 707
f 695 707 696
f 696 707 708
f 696 708 697
f 697 708 709
f 697 709 698
f 698 709 710
f 698 710 687
f 687 710 699
f 699 711 700
f 700 711 712
f 700 712 701
f 701 712 713
f 701 713 702
f 702 713 714
f 702 714 703
f 703 714 715
f 703 715 704
f 704 715 716
f 704 716 705
f 705 716 717
f 705 717 706
f 706 717 718
f 706 718 707
f 707 718 719
f 707 719 708
f 708 719 720
f 708 720 709
f 709 720 721
f 709 721 710
f 710 721 722
f 710 722 699
f 699 722 711
f 711 723 712
f 712 723 724
f 712 724 713
f 713 724 725
f 713 725 714
f 714 725 726
f 714 726 715
f 715 726 727
f 715 727 716
f 716 727 728
f 716 728 717
f 717 728 729
f 717 729 718
f 718 729 730
f 718 730 719
f 719 730 731
f 719 731 720
f 720 731 732
f 720 732 721
f 721 732 733
f 721 733 722
f 722 733 734
f 722 734 711
f 711 734 723
f 723 735 724
f 724 735 736
f 724 736 725
f 725 736 737
f 725 737 726
f 726 737 738
f 726 738 727
f 727 738 739
f 727 739 728
f 728 739 740
f 728 740 729
f 729 740 741
f 729 741 730
f 730 741 742
f 730 742 731
f 731 742 743
f 731 743 732
f 732 743 744
f 732 744 733
f 733 744 745
f 733 745 734
f 734 745 746
f 734 746 723
f 723 746 735
f 735 747 736
f 736 747 748
f 736 748 737
f 737 748 749
f 737 749 738
f 738 749 750
f 738 750 739
f 739 750 751
f 739 751 740
f 740 751 752
f 740 752 741
f 741 752 753
f 741 753 742
f 742 753 754
f 742 754 743
f 743 754 755
f 743 755 744
f 744 755 756
f 744 756 745
f 745 756 757
f 745 757 746
f 746 757 758
f 746 758 735
f 735 758 747
f 747 759 748
f 748 759 760
f 748 760 749
f 749 760 761
f 749 761 750
f 750 761 762
f 750 762 751
f 751 762 763
f 751 763 752
f 752 763 764
f 752 764 753
f 753 764 765
f 753 765 754
f 754 765 766
f 754 766 755
f 755 766 767
f 755 767 756
f 756 767 768
f 756 768 757
f 757 768 769
f 757 769 758
f 758 769 770
f 758 770 747
f 747 770 759
f 759 771 760
f 760 771 772
f 760 772 761
f 761 772 773
f 761 773 762
f 762 773 774
f 762 774 763
f 763 774 775
f 763 775 764
f 764 775 776
f 764 776 765
f 765 776 777
f 765 777 766
f 766 777 778
f 766 778 767
f 767 778 779
f 767 779 768
f 768 779 780
f 768 780 769
f 769 780 781
f 769 781 770
f 770 781 782
f 770 782 759
f 759 782 771
f 771 783 772
f 772 783 784
f 772 784 773
f 773 784 785
f 773 785 774
f 774 785 786
f 774 786 775
f 775 786 787
f 775 787 776
f 776 787 788
f 776 788 777
f 777 788 789
f 777 789 778
f 778 789 790
f 778 790 779
f 779 790 791
f 779 791 780
f 780 791 792
f 780 792 781
f 781 792 793
f 781 793 782
f 782 793 794
f 782 794 771
f 771 794 783
f 783 795 784
f 784 795 796
f 784 796 785
f 785 796 797
f 785 797 786
f 786 797 798
f 786 798 787
f 787 798 799
f 787 799 788
f 788 799 800
f 788 800 789
f 789 800 801
f 789 801 790
f 790 801 802
f 790 802 791
f 791 802 803
f 791 803 792
f 792 803 804
f 792 804 793
f 793 804 805
f 793 805 794
f 794 805 806
f 794 806 783
f 783 806 795
f 795 807 796
f 796 807 808
f 796 808 797
f 797 808 809
f 797 809 798
f 798 809 810
f 798 810 799
f 799 810 811
f 799 811 800
f 800 811 812
f 800 812 801
f 801 812 813
f 801 813 802
f 802 813 814
f 802 814 803
f 803 814 815
f 803 815 804
f 804 815 816
f 804 816 805
f 805 816 817
f 805 817 806
f 806 817 818
f 806 818 795
f 795 818 807
f 807 819 808
f 808 819 820
f 808 820 809
f 809 820 821
f 809 821 810
f 810 821 822
f 810 822 811
f 811 822 823
f 811 823 812
f 812 823 824
f 812 824 813
f 813 824 825
f 813 825 814
f 814 825 826
f 814 826 815
f 815 826 827
f 815 827 816
f 816 827 828
f 816 828 817
f 817 828 829
f 817 829 818
f 818 829 830
f 818 830 807
f 807 830 819
f 819 831 820
f 820 831 832
f 820 832 821
f 821 832 833
f 821 833 822
f 822 833 834
f 822 834 823
f 823 834 835
f 823 835 824
f 824 835 836
f 824 836 825
f 825 836 837
f 825 837 826
f 826 837 838
f 826 838 827
f 827 838 839
f 827 839 828
f 828 839 840
f 828 840 829
f 829 840 841
f 829 841 830
f 830 841 842
f 830 842 819
f 819 842 831
f 831 843 832
f 832 843 844
f 832 844 833
f 833 844 845
f 833 845 834
f 834 845 846
f 834 846 835
f 835 846 847
f 835 847 836
f 836 847 848
f 836 848 837
f 837 848 849
f 837 849 838
f 838 849 850
f 838 850 839
f 839 850 851
f 839 851 840
f 840 851 852
f 840 852 841
f 841 852 853
f 841 853 842
f 842 853 854
f 842 854 831
f 831 854 843
f 843 855 844
f 844 855 856
f 844 856 845
f 845 856 857
f 845 857 846
f 846 857 858
f 846 858 847
f 847 858 859
f 847 859 848
f 848 859 860
f 848 860 849
f 849 860 861
f 849 861 850
f 850 861 862
f 850 862 851
f 851 862 863
f 851 863 852
f 852 863 864
f 852 864 853
f 853 864 865
f 853 865 854
f 854 865 866
f 854 866 843
f 843 866 855
f 855 867 856
f 856 867 868
f 856 868 857
f 857 868 869
f 857 869 858
f 858 869 870
f 858 870 859
f 859 870 871
f 859 871 860
f 860 871 872
f 860 872 861
f 861 872 873
f 861 873 862
f 862 873 874
f 862 874 863
f 863 874 875
f 863 875 864
f 864 875 876
f 864 876 865
f 865 876 877
f 865 877 866
f 866 877 878
f 866 878 855
f 855 878 867
f 867 879 868
f 868 879 880
f 868 880 869
f 869 880 881
f 869 881 870
f 870 881 882
f 870 882 871
f 871 882 883
f 871 883 872
f 872 883 884
f 872 884 873
f 873 884 885
f 873 885 874
f 874 885 886
f 874 886 875
f 875 886 887
f 875 887 876
f 876 887 888
f 876 888 877
f 877 888 889
f 877 889 878
f 878 889 890
f 878 890 867
f 867 890 879
f 879 891 880
f 880 891 892
f 880 892 881
f 881 892 893
f 881 893 882
f 882 893 894
f 882 894 883
f 883 894 895
f 883 895 884
f 884 895 896
f 884 896 885
f 885 896 897
f 885 897 886
f 886 897 898
f 886 898 887
f 887 898 899
f 887 899 888
f 888 899 900
f 888 900 889
f 889 900 901
f 889 901 890
f 890 901 902
f 890 902 879
f 879 902 891
f 891 903 892
f 892 903 904
f 892 904 893
f 893 904 905
f 893 905 894
f 894 905 906
f 894 906 895
f 895 906 907
f 895 907 896
f 896 907 908
f 896 908 897
f 897 908 909
f 897 909 898
f 898 909 910
f 898 910 899
f 899 910 911
f 899 911 900
f 900 911 912
f 900 912 901
f 901 912 913
f 901 913 902
f 902 913 914
f 902 914 891
f 891 914 903
f 903 483 904
f 904 483 484
f 904 484 905
f 905 484 485
f 905 485 906
f 906 485 486
f 906 486 907
f 907 486 487
f 907 487 908
f 908 487 488
f 908 488 909
f 909 488 489
f 909 489 910
f 910 489 490
f 910 490 911
f 911 490 491
f 911 491 912
f 912 491 492
f 912 492 913
f 913 492 493
f 913 493 914
f 914 493 494
f 914 494 903
f 903 494 483
f 916 918 915
f 919 916 915
f 915 918 917
f 917 919 915
f 916 922 918
f 920 916 919
f 920 922 916
f 918 922 917
f 921 919 917
f 917 922 921
f 921 920 919
f 922 920 921
