# https://github.com/mikedh/trimesh
v 0.00000000 0.00000000 -0.35000000
v 1.50000000 0.00000000 -0.35000000
v 1.50000000 0.00000000 0.35000000
v 0.00000000 0.00000000 0.35000000
v 1.44888874 0.38822857 -0.35000000
v 1.44888874 0.38822857 0.35000000
v 1.29903811 0.75000000 -0.35000000
v 1.29903811 0.75000000 0.35000000
v 1.06066017 1.06066017 -0.35000000
v 1.06066017 1.06066017 0.35000000
v 0.75000000 1.29903811 -0.35000000
v 0.75000000 1.29903811 0.35000000
v 0.38822857 1.44888874 -0.35000000
v 0.38822857 1.44888874 0.35000000
v 0.00000000 1.50000000 -0.35000000
v 0.00000000 1.50000000 0.35000000
v -0.38822857 1.44888874 -0.35000000
v -0.38822857 1.44888874 0.35000000
v -0.75000000 1.29903811 -0.35000000
v -0.75000000 1.29903811 0.35000000
v -1.06066017 1.06066017 -0.35000000
v -1.06066017 1.06066017 0.35000000
v -1.29903811 0.75000000 -0.35000000
v -1.29903811 0.75000000 0.35000000
v -1.44888874 0.38822857 -0.35000000
v -1.44888874 0.38822857 0.35000000
v -1.50000000 0.00000000 -0.35000000
v -1.50000000 0.00000000 0.35000000
v -1.44888874 -0.38822857 -0.35000000
v -1.44888874 -0.38822857 0.35000000
v -1.29903811 -0.75000000 -0.35000000
v -1.29903811 -0.75000000 0.35000000
v -1.06066017 -1.06066017 -0.35000000
v -1.06066017 -1.06066017 0.35000000
v -0.75000000 -1.29903811 -0.35000000
v -0.75000000 -1.29903811 0.35000000
v -0.38822857 -1.44888874 -0.35000000
v -0.38822857 -1.44888874 0.35000000
v -0.00000000 -1.50000000 -0.35000000
v -0.00000000 -1.50000000 0.35000000
v 0.38822857 -1.44888874 -0.35000000
v 0.38822857 -1.44888874 0.35000000
v 0.75000000 -1.29903811 -0.35000000
v 0.75000000 -1.29903811 0.35000000
v 1.06066017 -1.06066017 -0.35000000
v 1.06066017 -1.06066017 0.35000000
v 1.29903811 -0.75000000 -0.35000000
v 1.29903811 -0.75000000 0.35000000
v 1.44888874 -0.38822857 -0.35000000
v 1.44888874 -0.38822857 0.35000000
v 0.00000000 0.00000000 -3.20000000
v 0.15000000 0.00000000 -3.20000000
v 0.15000000 0.00000000 -0.20000000
v 0.00000000 0.00000000 -0.20000000
v 0.14488887 0.03882286 -3.20000000
v 0.14488887 0.03882286 -0.20000000
v 0.12990381 0.07500000 -3.20000000
v 0.12990381 0.07500000 -0.20000000
v 0.10606602 0.10606602 -3.20000000
v 0.10606602 0.10606602 -0.20000000
v 0.07500000 0.12990381 -3.20000000
v 0.07500000 0.12990381 -0.20000000
v 0.03882286 0.14488887 -3.20000000
v 0.03882286 0.14488887 -0.20000000
v 0.00000000 0.15000000 -3.20000000
v 0.00000000 0.15000000 -0.20000000
v -0.03882286 0.14488887 -3.20000000
v -0.03882286 0.14488887 -0.20000000
v -0.07500000 0.12990381 -3.20000000
v -0.07500000 0.12990381 -0.20000000
v -0.10606602 0.10606602 -3.20000000
v -0.10606602 0.10606602 -0.20000000
v -0.12990381 0.07500000 -3.20000000
v -0.12990381 0.07500000 -0.20000000
v -0.14488887 0.03882286 -3.20000000
v -0.14488887 0.03882286 -0.20000000
v -0.15000000 0.00000000 -3.20000000
v -0.15000000 0.00000000 -0.20000000
v -0.14488887 -0.03882286 -3.20000000
v -0.14488887 -0.03882286 -0.20000000
v -0.12990381 -0.07500000 -3.20000000
v -0.12990381 -0.07500000 -0.20000000
v -0.10606602 -0.10606602 -3.20000000
v -0.10606602 -0.10606602 -0.20000000
v -0.07500000 -0.12990381 -3.20000000
v -0.07500000 -0.12990381 -0.20000000
v -0.03882286 -0.14488887 -3.20000000
v -0.03882286 -0.14488887 -0.20000000
v -0.00000000 -0.15000000 -3.20000000
v -0.00000000 -0.15000000 -0.20000000
v 0.03882286 -0.14488887 -3.20000000
v 0.03882286 -0.14488887 -0.20000000
v 0.07500000 -0.12990381 -3.20000000
v 0.07500000 -0.12990381 -0.20000000
v 0.10606602 -0.10606602 -3.20000000
v 0.10606602 -0.10606602 -0.20000000
v 0.12990381 -0.07500000 -3.20000000
v 0.12990381 -0.07500000 -0.20000000
v 0.14488887 -0.03882286 -3.20000000
v 0.14488887 -0.03882286 -0.20000000
v 1.10000000 0.00000000 0.85000000
v 1.35000000 0.00000000 0.85000000
v 1.10000000 0.00000000 2.15000000
v 1.34519632 0.04877258 0.85000000
v 1.33096988 0.09567086 0.85000000
v 1.30786740 0.13889256 0.85000000
v 1.27677670 0.17677670 0.85000000
v 1.23889256 0.20786740 0.85000000
v 1.19567086 0.23096988 0.85000000
v 1.14877258 0.24519632 0.85000000
v 1.10000000 0.25000000 0.85000000
v 1.05122742 0.24519632 0.85000000
v 1.00432914 0.23096988 0.85000000
v 0.96110744 0.20786740 0.85000000
v 0.92322330 0.17677670 0.85000000
v 0.89213260 0.13889256 0.85000000
v 0.86903012 0.09567086 0.85000000
v 0.85480368 0.04877258 0.85000000
v 0.85000000 0.00000000 0.85000000
v 0.85480368 -0.04877258 0.85000000
v 0.86903012 -0.09567086 0.85000000
v 0.89213260 -0.13889256 0.85000000
v 0.92322330 -0.17677670 0.85000000
v 0.96110744 -0.20786740 0.85000000
v 1.00432914 -0.23096988 0.85000000
v 1.05122742 -0.24519632 0.85000000
v 1.10000000 -0.25000000 0.85000000
v 1.14877258 -0.24519632 0.85000000
v 1.19567086 -0.23096988 0.85000000
v 1.23889256 -0.20786740 0.85000000
v 1.27677670 -0.17677670 0.85000000
v 1.30786740 -0.13889256 0.85000000
v 1.33096988 -0.09567086 0.85000000
v 1.34519632 -0.04877258 0.85000000
v 0.55000000 0.95262794 0.85000000
v 0.80000000 0.95262794 0.85000000
v 0.55000000 0.95262794 2.15000000
v 0.79519632 1.00140052 0.85000000
v 0.78096988 1.04829880 0.85000000
v 0.75786740 1.09152050 0.85000000
v 0.72677670 1.12940464 0.85000000
v 0.68889256 1.16049535 0.85000000
v 0.64567086 1.18359783 0.85000000
v 0.59877258 1.19782426 0.85000000
v 0.55000000 1.20262794 0.85000000
v 0.50122742 1.19782426 0.85000000
v 0.45432914 1.18359783 0.85000000
v 0.41110744 1.16049535 0.85000000
v 0.37322330 1.12940464 0.85000000
v 0.34213260 1.09152050 0.85000000
v 0.31903012 1.04829880 0.85000000
v 0.30480368 1.00140052 0.85000000
v 0.30000000 0.95262794 0.85000000
v 0.30480368 0.90385536 0.85000000
v 0.31903012 0.85695709 0.85000000
v 0.34213260 0.81373539 0.85000000
v 0.37322330 0.77585125 0.85000000
v 0.41110744 0.74476054 0.85000000
v 0.45432914 0.72165806 0.85000000
v 0.50122742 0.70743162 0.85000000
v 0.55000000 0.70262794 0.85000000
v 0.59877258 0.70743162 0.85000000
v 0.64567086 0.72165806 0.85000000
v 0.68889256 0.74476054 0.85000000
v 0.72677670 0.77585125 0.85000000
v 0.75786740 0.81373539 0.85000000
v 0.78096988 0.85695709 0.85000000
v 0.79519632 0.90385536 0.85000000
v -0.55000000 0.95262794 0.85000000
v -0.30000000 0.95262794 0.85000000
v -0.55000000 0.95262794 2.15000000
v -0.30480368 1.00140052 0.85000000
v -0.31903012 1.04829880 0.85000000
v -0.34213260 1.09152050 0.85000000
v -0.37322330 1.12940464 0.85000000
v -0.41110744 1.16049535 0.85000000
v -0.45432914 1.18359783 0.85000000
v -0.50122742 1.19782426 0.85000000
v -0.55000000 1.20262794 0.85000000
v -0.59877258 1.19782426 0.85000000
v -0.64567086 1.18359783 0.85000000
v -0.68889256 1.16049535 0.85000000
v -0.72677670 1.12940464 0.85000000
v -0.75786740 1.09152050 0.85000000
v -0.78096988 1.04829880 0.85000000
v -0.79519632 1.00140052 0.85000000
v -0.80000000 0.95262794 0.85000000
v -0.79519632 0.90385536 0.85000000
v -0.78096988 0.85695709 0.85000000
v -0.75786740 0.81373539 0.85000000
v -0.72677670 0.77585125 0.85000000
v -0.68889256 0.74476054 0.85000000
v -0.64567086 0.72165806 0.85000000
v -0.59877258 0.70743162 0.85000000
v -0.55000000 0.70262794 0.85000000
v -0.50122742 0.70743162 0.85000000
v -0.45432914 0.72165806 0.85000000
v -0.41110744 0.74476054 0.85000000
v -0.37322330 0.77585125 0.85000000
v -0.34213260 0.81373539 0.85000000
v -0.31903012 0.85695709 0.85000000
v -0.30480368 0.90385536 0.85000000
v -1.10000000 0.00000000 0.85000000
v -0.85000000 0.00000000 0.85000000
v -1.10000000 0.00000000 2.15000000
v -0.85480368 0.04877258 0.85000000
v -0.86903012 0.09567086 0.85000000
v -0.89213260 0.13889256 0.85000000
v -0.92322330 0.17677670 0.85000000
v -0.96110744 0.20786740 0.85000000
v -1.00432914 0.23096988 0.85000000
v -1.05122742 0.24519632 0.85000000
v -1.10000000 0.25000000 0.85000000
v -1.14877258 0.24519632 0.85000000
v -1.19567086 0.23096988 0.85000000
v -1.23889256 0.20786740 0.85000000
v -1.27677670 0.17677670 0.85000000
v -1.30786740 0.13889256 0.85000000
v -1.33096988 0.09567086 0.85000000
v -1.34519632 0.04877258 0.85000000
v -1.35000000 0.00000000 0.85000000
v -1.34519632 -0.04877258 0.85000000
v -1.33096988 -0.09567086 0.85000000
v -1.30786740 -0.13889256 0.85000000
v -1.27677670 -0.17677670 0.85000000
v -1.23889256 -0.20786740 0.85000000
v -1.19567086 -0.23096988 0.85000000
v -1.14877258 -0.24519632 0.85000000
v -1.10000000 -0.25000000 0.85000000
v -1.05122742 -0.24519632 0.85000000
v -1.00432914 -0.23096988 0.85000000
v -0.96110744 -0.20786740 0.85000000
v -0.92322330 -0.17677670 0.85000000
v -0.89213260 -0.13889256 0.85000000
v -0.86903012 -0.09567086 0.85000000
v -0.85480368 -0.04877258 0.85000000
v -0.55000000 -0.95262794 0.85000000
v -0.30000000 -0.95262794 0.85000000
v -0.55000000 -0.95262794 2.15000000
v -0.30480368 -0.90385536 0.85000000
v -0.31903012 -0.85695709 0.85000000
v -0.34213260 -0.81373539 0.85000000
v -0.37322330 -0.77585125 0.85000000
v -0.41110744 -0.74476054 0.85000000
v -0.45432914 -0.72165806 0.85000000
v -0.50122742 -0.70743162 0.85000000
v -0.55000000 -0.70262794 0.85000000
v -0.59877258 -0.70743162 0.85000000
v -0.64567086 -0.72165806 0.85000000
v -0.68889256 -0.74476054 0.85000000
v -0.72677670 -0.77585125 0.85000000
v -0.75786740 -0.81373539 0.85000000
v -0.78096988 -0.85695709 0.85000000
v -0.79519632 -0.90385536 0.85000000
v -0.80000000 -0.95262794 0.85000000
v -0.79519632 -1.00140052 0.85000000
v -0.78096988 -1.04829880 0.85000000
v -0.75786740 -1.09152050 0.85000000
v -0.72677670 -1.12940464 0.85000000
v -0.68889256 -1.16049535 0.85000000
v -0.64567086 -1.18359783 0.85000000
v -0.59877258 -1.19782426 0.85000000
v -0.55000000 -1.20262794 0.85000000
v -0.50122742 -1.19782426 0.85000000
v -0.45432914 -1.18359783 0.85000000
v -0.41110744 -1.16049535 0.85000000
v -0.37322330 -1.12940464 0.85000000
v -0.34213260 -1.09152050 0.85000000
v -0.31903012 -1.04829880 0.85000000
v -0.30480368 -1.00140052 0.85000000
v 0.55000000 -0.95262794 0.85000000
v 0.80000000 -0.95262794 0.85000000
v 0.55000000 -0.95262794 2.15000000
v 0.79519632 -0.90385536 0.85000000
v 0.78096988 -0.85695709 0.85000000
v 0.75786740 -0.81373539 0.85000000
v 0.72677670 -0.77585125 0.85000000
v 0.68889256 -0.74476054 0.85000000
v 0.64567086 -0.72165806 0.85000000
v 0.59877258 -0.70743162 0.85000000
v 0.55000000 -0.70262794 0.85000000
v 0.50122742 -0.70743162 0.85000000
v 0.45432914 -0.72165806 0.85000000
v 0.41110744 -0.74476054 0.85000000
v 0.37322330 -0.77585125 0.85000000
v 0.34213260 -0.81373539 0.85000000
v 0.31903012 -0.85695709 0.85000000
v 0.30480368 -0.90385536 0.85000000
v 0.30000000 -0.95262794 0.85000000
v 0.30480368 -1.00140052 0.85000000
v 0.31903012 -1.04829880 0.85000000
v 0.34213260 -1.09152050 0.85000000
v 0.37322330 -1.12940464 0.85000000
v 0.41110744 -1.16049535 0.85000000
v 0.45432914 -1.18359783 0.85000000
v 0.50122742 -1.19782426 0.85000000
v 0.55000000 -1.20262794 0.85000000
v 0.59877258 -1.19782426 0.85000000
v 0.64567086 -1.18359783 0.85000000
v 0.68889256 -1.16049535 0.85000000
v 0.72677670 -1.12940464 0.85000000
v 0.75786740 -1.09152050 0.85000000
v 0.78096988 -1.04829880 0.85000000
v 0.79519632 -1.00140052 0.85000000
f 2 1 5
f 2 5 3
f 3 5 6
f 3 6 4
f 5 1 7
f 5 7 6
f 6 7 8
f 6 8 4
f 7 1 9
f 7 9 8
f 8 9 10
f 8 10 4
f 9 1 11
f 9 11 10
f 10 11 12
f 10 12 4
f 11 1 13
f 11 13 12
f 12 13 14
f 12 14 4
f 13 1 15
f 13 15 14
f 14 15 16
f 14 16 4
f 15 1 17
f 15 17 16
f 16 17 18
f 16 18 4
f 17 1 19
f 17 19 18
f 18 19 20
f 18 20 4
f 19 1 21
f 19 21 20
f 20 21 22
f 20 22 4
f 21 1 23
f 21 23 22
f 22 23 24
f 22 24 4
f 23 1 25
f 23 25 24
f 24 25 26
f 24 26 4
f 25 1 27
f 25 27 26
f 26 27 28
f 26 28 4
f 27 1 29
f 27 29 28
f 28 29 30
f 28 30 4
f 29 1 31
f 29 31 30
f 30 31 32
f 30 32 4
f 31 1 33
f 31 33 32
f 32 33 34
f 32 34 4
f 33 1 35
f 33 35 34
f 34 35 36
f 34 36 4
f 35 1 37
f 35 37 36
f 36 37 38
f 36 38 4
f 37 1 39
f 37 39 38
f 38 39 40
f 38 40 4
f 39 1 41
f 39 41 40
f 40 41 42
f 40 42 4
f 41 1 43
f 41 43 42
f 42 43 44
f 42 44 4
f 43 1 45
f 43 45 44
f 44 45 46
f 44 46 4
f 45 1 47
f 45 47 46
f 46 47 48
f 46 48 4
f 47 1 49
f 47 49 48
f 48 49 50
f 48 50 4
f 49 1 2
f 49 2 50
f 50 2 3
f 50 3 4
f 52 51 55
f 52 55 53
f 53 55 56
f 53 56 54
f 55 51 57
f 55 57 56
f 56 57 58
f 56 58 54
f 57 51 59
f 57 59 58
f 58 59 60
f 58 60 54
f 59 51 61
f 59 61 60
f 60 61 62
f 60 62 54
f 61 51 63
f 61 63 62
f 62 63 64
f 62 64 54
f 63 51 65
f 63 65 64
f 64 65 66
f 64 66 54
f 65 51 67
f 65 67 66
f 66 67 68
f 66 68 54
f 67 51 69
f 67 69 68
f 68 69 70
f 68 70 54
f 69 51 71
f 69 71 70
f 70 71 72
f 70 72 54
f 71 51 73
f 71 73 72
f 72 73 74
f 72 74 54
f 73 51 75
f 73 75 74
f 74 75 76
f 74 76 54
f 75 51 77
f 75 77 76
f 76 77 78
f 76 78 54
f 77 51 79
f 77 79 78
f 78 79 80
f 78 80 54
f 79 51 81
f 79 81 80
f 80 81 82
f 80 82 54
f 81 51 83
f 81 83 82
f 82 83 84
f 82 84 54
f 83 51 85
f 83 85 84
f 84 85 86
f 84 86 54
f 85 51 87
f 85 87 86
f 86 87 88
f 86 88 54
f 87 51 89
f 87 89 88
f 88 89 90
f 88 90 54
f 89 51 91
f 89 91 90
f 90 91 92
f 90 92 54
f 91 51 93
f 91 93 92
f 92 93 94
f 92 94 54
f 93 51 95
f 93 95 94
f 94 95 96
f 94 96 54
f 95 51 97
f 95 97 96
f 96 97 98
f 96 98 54
f 97 51 99
f 97 99 98
f 98 99 100
f 98 100 54
f 99 51 52
f 99 52 100
f 100 52 53
f 100 53 54
f 102 101 104
f 102 104 103
f 104 101 105
f 104 105 103
f 105 101 106
f 105 106 103
f 106 101 107
f 106 107 103
f 107 101 108
f 107 108 103
f 108 101 109
f 108 109 103
f 109 101 110
f 109 110 103
f 110 101 111
f 110 111 103
f 111 101 112
f 111 112 103
f 112 101 113
f 112 113 103
f 113 101 114
f 113 114 103
f 114 101 115
f 114 115 103
f 115 101 116
f 115 116 103
f 116 101 117
f 116 117 103
f 117 101 118
f 117 118 103
f 118 101 119
f 118 119 103
f 119 101 120
f 119 120 103
f 120 101 121
f 120 121 103
f 121 101 122
f 121 122 103
f 122 101 123
f 122 123 103
f 123 101 124
f 123 124 103
f 124 101 125
f 124 125 103
f 125 101 126
f 125 126 103
f 126 101 127
f 126 127 103
f 127 101 128
f 127 128 103
f 128 101 129
f 128 129 103
f 129 101 130
f 129 130 103
f 130 101 131
f 130 131 103
f 131 101 132
f 131 132 103
f 132 101 133
f 132 133 103
f 133 101 134
f 133 134 103
f 134 101 102
f 134 102 103
f 136 135 138
f 136 138 137
f 138 135 139
f 138 139 137
f 139 135 140
f 139 140 137
f 140 135 141
f 140 141 137
f 141 135 142
f 141 142 137
f 142 135 143
f 142 143 137
f 143 135 144
f 143 144 137
f 144 135 145
f 144 145 137
f 145 135 146
f 145 146 137
f 146 135 147
f 146 147 137
f 147 135 148
f 147 148 137
f 148 135 149
f 148 149 137
f 149 135 150
f 149 150 137
f 150 135 151
f 150 151 137
f 151 135 152
f 151 152 137
f 152 135 153
f 152 153 137
f 153 135 154
f 153 154 137
f 154 135 155
f 154 155 137
f 155 135 156
f 155 156 137
f 156 135 157
f 156 157 137
f 157 135 158
f 157 158 137
f 158 135 159
f 158 159 137
f 159 135 160
f 159 160 137
f 160 135 161
f 160 161 137
f 161 135 162
f 161 162 137
f 162 135 163
f 162 163 137
f 163 135 164
f 163 164 137
f 164 135 165
f 164 165 137
f 165 135 166
f 165 166 137
f 166 135 167
f 166 167 137
f 167 135 168
f 167 168 137
f 168 135 136
f 168 136 137
f 170 169 172
f 170 172 171
f 172 169 173
f 172 173 171
f 173 169 174
f 173 174 171
f 174 169 175
f 174 175 171
f 175 169 176
f 175 176 171
f 176 169 177
f 176 177 171
f 177 169 178
f 177 178 171
f 178 169 179
f 178 179 171
f 179 169 180
f 179 180 171
f 180 169 181
f 180 181 171
f 181 169 182
f 181 182 171
f 182 169 183
f 182 183 171
f 183 169 184
f 183 184 171
f 184 169 185
f 184 185 171
f 185 169 186
f 185 186 171
f 186 169 187
f 186 187 171
f 187 169 188
f 187 188 171
f 188 169 189
f 188 189 171
f 189 169 190
f 189 190 171
f 190 169 191
f 190 191 171
f 191 169 192
f 191 192 171
f 192 169 193
f 192 193 171
f 193 169 194
f 193 194 171
f 194 169 195
f 194 195 171
f 195 169 196
f 195 196 171
f 196 169 197
f 196 197 171
f 197 169 198
f 197 198 171
f 198 169 199
f 198 199 171
f 199 169 200
f 199 200 171
f 200 169 201
f 200 201 171
f 201 169 202
f 201 202 171
f 202 169 170
f 202 170 171
f 204 203 206
f 204 206 205
f 206 203 207
f 206 207 205
f 207 203 208
f 207 208 205
f 208 203 209
f 208 209 205
f 209 203 210
f 209 210 205
f 210 203 211
f 210 211 205
f 211 203 212
f 211 212 205
f 212 203 213
f 212 213 205
f 213 203 214
f 213 214 205
f 214 203 215
f 214 215 205
f 215 203 216
f 215 216 205
f 216 203 217
f 216 217 205
f 217 203 218
f 217 218 205
f 218 203 219
f 218 219 205
f 219 203 220
f 219 220 205
f 220 203 221
f 220 221 205
f 221 203 222
f 221 222 205
f 222 203 223
f 222 223 205
f 223 203 224
f 223 224 205
f 224 203 225
f 224 225 205
f 225 203 226
f 225 226 205
f 226 203 227
f 226 227 205
f 227 203 228
f 227 228 205
f 228 203 229
f 228 229 205
f 229 203 230
f 229 230 205
f 230 203 231
f 230 231 205
f 231 203 232
f 231 232 205
f 232 203 233
f 232 233 205
f 233 203 234
f 233 234 205
f 234 203 235
f 234 235 205
f 235 203 236
f 235 236 205
f 236 203 204
f 236 204 205
f 238 237 240
f 238 240 239
f 240 237 241
f 240 241 239
f 241 237 242
f 241 242 239
f 242 237 243
f 242 243 239
f 243 237 244
f 243 244 239
f 244 237 245
f 244 245 239
f 245 237 246
f 245 246 239
f 246 237 247
f 246 247 239
f 247 237 248
f 247 248 239
f 248 237 249
f 248 249 239
f 249 237 250
f 249 250 239
f 250 237 251
f 250 251 239
f 251 237 252
f 251 252 239
f 252 237 253
f 252 253 239
f 253 237 254
f 253 254 239
f 254 237 255
f 254 255 239
f 255 237 256
f 255 256 239
f 256 237 257
f 256 257 239
f 257 237 258
f 257 258 239
f 258 237 259
f 258 259 239
f 259 237 260
f 259 260 239
f 260 237 261
f 260 261 239
f 261 237 262
f 261 262 239
f 262 237 263
f 262 263 239
f 263 237 264
f 263 264 239
f 264 237 265
f 264 265 239
f 265 237 266
f 265 266 239
f 266 237 267
f 266 267 239
f 267 237 268
f 267 268 239
f 268 237 269
f 268 269 239
f 269 237 270
f 269 270 239
f 270 237 238
f 270 238 239
f 272 271 274
f 272 274 273
f 274 271 275
f 274 275 273
f 275 271 276
f 275 276 273
f 276 271 277
f 276 277 273
f 277 271 278
f 277 278 273
f 278 271 279
f 278 279 273
f 279 271 280
f 279 280 273
f 280 271 281
f 280 281 273
f 281 271 282
f 281 282 273
f 282 271 283
f 282 283 273
f 283 271 284
f 283 284 273
f 284 271 285
f 284 285 273
f 285 271 286
f 285 286 273
f 286 271 287
f 286 287 273
f 287 271 288
f 287 288 273
f 288 271 289
f 288 289 273
f 289 271 290
f 289 290 273
f 290 271 291
f 290 291 273
f 291 271 292
f 291 292 273
f 292 271 293
f 292 293 273
f 293 271 294
f 293 294 273
f 294 271 295
f 294 295 273
f 295 271 296
f 295 296 273
f 296 271 297
f 296 297 273
f 297 271 298
f 297 298 273
f 298 271 299
f 298 299 273
f 299 271 300
f 299 300 273
f 300 271 301
f 300 301 273
f 301 271 302
f 301 302 273
f 302 271 303
f 302 303 273
f 303 271 304
f 303 304 273
f 304 271 272
f 304 272 273
