# https://github.com/mikedh/trimesh
v -17.63156500 -11.77199000 -4.90000000
v -17.63156500 -11.77199000 13.30000000
v -17.63156500 10.92844900 -4.90000000
v -17.63156500 10.92844900 13.30000000
v 4.69512500 -11.77199000 -4.90000000
v 4.69512500 -11.77199000 13.30000000
v 4.69512500 10.92844900 -4.90000000
v 4.69512500 10.92844900 13.30000000
v -9.23718400 -2.29081700 13.30000000
v -9.23718400 -2.29081700 68.30000000
v -9.23718400 2.07346000 13.30000000
v -9.23718400 2.07346000 68.30000000
v -4.94476300 -2.29081700 13.30000000
v -4.94476300 -2.29081700 68.30000000
v -4.94476300 2.07346000 13.30000000
v -4.94476300 2.07346000 68.30000000
v -12.20374700 -5.64145400 68.30000000
v -12.20374700 -5.64145400 76.62000000
v -12.20374700 5.20280200 68.30000000
v -12.20374700 5.20280200 76.62000000
v -1.53803600 -5.64145400 68.30000000
v -1.53803600 -5.64145400 76.62000000
v -1.53803600 5.20280200 68.30000000
v -1.53803600 5.20280200 76.62000000
v -22.81011100 -6.22840200 0.00000000
v -22.81011100 -6.22840200 9.10000000
v -22.81011100 42.64464900 0.00000000
v -22.81011100 42.64464900 9.10000000
v -2.28133600 -6.22840200 0.00000000
v -2.28133600 -6.22840200 9.10000000
v -2.28133600 42.64464900 0.00000000
v -2.28133600 42.64464900 9.10000000
v -18.78527800 -33.18410800 0.00000000
v -18.78527800 -33.18410800 9.10000000
v -18.78527800 -1.20782200 0.00000000
v -18.78527800 -1.20782200 9.10000000
v 28.52907600 -33.18410800 0.00000000
v 28.52907600 -33.18410800 9.10000000
v 28.52907600 -1.20782200 0.00000000
v 28.52907600 -1.20782200 9.10000000
vn -0.57735027 -0.57735027 -0.57735027
vn -0.57735027 -0.57735027 0.57735027
vn -0.57735027 0.57735027 -0.57735027
vn -0.57735027 0.57735027 0.57735027
vn 0.57735027 -0.57735027 -0.57735027
vn 0.57735027 -0.57735027 0.57735027
vn 0.57735027 0.57735027 -0.57735027
vn 0.57735027 0.57735027 0.57735027
vn -0.57735027 -0.57735027 -0.57735027
vn -0.57735027 -0.57735027 0.57735027
vn -0.57735027 0.57735027 -0.57735027
vn -0.57735027 0.57735027 0.57735027
vn 0.57735027 -0.57735027 -0.57735027
vn 0.57735027 -0.57735027 0.57735027
vn 0.57735027 0.57735027 -0.57735027
vn 0.57735027 0.57735027 0.57735027
vn -0.57735027 -0.57735027 -0.57735027
vn -0.57735027 -0.57735027 0.57735027
vn -0.57735027 0.57735027 -0.57735027
vn -0.57735027 0.57735027 0.57735027
vn 0.57735027 -0.57735027 -0.57735027
vn 0.57735027 -0.57735027 0.57735027
vn 0.57735027 0.57735027 -0.57735027
vn 0.57735027 0.57735027 0.57735027
vn -0.57735027 -0.57735027 -0.57735027
vn -0.57735027 -0.57735027 0.57735027
vn -0.57735027 0.57735027 -0.57735027
vn -0.57735027 0.57735027 0.57735027
vn 0.57735027 -0.57735027 -0.57735027
vn 0.57735027 -0.57735027 0.57735027
vn 0.57735027 0.57735027 -0.57735027
vn 0.57735027 0.57735027 0.57735027
vn -0.57735027 -0.57735027 -0.57735027
vn -0.57735027 -0.57735027 0.57735027
vn -0.57735027 0.57735027 -0.57735027
vn -0.57735027 0.57735027 0.57735027
vn 0.57735027 -0.57735027 -0.57735027
vn 0.57735027 -0.57735027 0.57735027
vn 0.57735027 0.57735027 -0.57735027
vn 0.57735027 0.57735027 0.57735027
f 2//2 4//4 1//1
f 5//5 2//2 1//1
f 1//1 4//4 3//3
f 3//3 5//5 1//1
f 2//2 8//8 4//4
f 6//6 2//2 5//5
f 6//6 8//8 2//2
f 4//4 8//8 3//3
f 7//7 5//5 3//3
f 3//3 8//8 7//7
f 7//7 6//6 5//5
f 8//8 6//6 7//7
f 10//10 12//12 9//9
f 13//13 10//10 9//9
f 9//9 12//12 11//11
f 11//11 13//13 9//9
f 10//10 16//16 12//12
f 14//14 10//10 13//13
f 14//14 16//16 10//10
f 12//12 16//16 11//11
f 15//15 13//13 11//11
f 11//11 16//16 15//15
f 15//15 14//14 13//13
f 16//16 14//14 15//15
f 18//18 20//20 17//17
f 21//21 18//18 17//17
f 17//17 20//20 19//19
f 19//19 21//21 17//17
f 18//18 24//24 20//20
f 22//22 18//18 21//21
f 22//22 24//24 18//18
f 20//20 24//24 19//19
f 23//23 21//21 19//19
f 19//19 24//24 23//23
f 23//23 22//22 21//21
f 24//24 22//22 23//23
f 26//26 28//28 25//25
f 29//29 26//26 25//25
f 25//25 28//28 27//27
f 27//27 29//29 25//25
f 26//26 32//32 28//28
f 30//30 26//26 29//29
f 30//30 32//32 26//26
f 28//28 32//32 27//27
f 31//31 29//29 27//27
f 27//27 32//32 31//31
f 31//31 30//30 29//29
f 32//32 30//30 31//31
f 34//34 36//36 33//33
f 37//37 34//34 33//33
f 33//33 36//36 35//35
f 35//35 37//37 33//33
f 34//34 40//40 36//36
f 38//38 34//34 37//37
f 38//38 40//40 34//34
f 36//36 40//40 35//35
f 39//39 37//37 35//35
f 35//35 40//40 39//39
f 39//39 38//38 37//37
f 40//40 38//38 39//39
