<?xml version="1.0" encoding="UTF-8"?>
<svg xmlns="http://www.w3.org/2000/svg" width="100%" height="auto" viewBox="0 0 1600 1000" preserveAspectRatio="xMidYMin meet" role="img" aria-labelledby="FREE_FLOW_BATTERIES-T1-07-title FREE_FLOW_BATTERIES-T1-07-desc" data-twin-id="free_flow_batteries" data-drawing-id="FREE_FLOW_BATTERIES-T1-07" data-representation-class="INTERACTION_PROXY" data-package-kind="INTERACTION_PROXY_REVIEW_SHELL" data-evidence-ceiling="E" data-source-binding-state="NONE_PROXY_ONLY" data-dimension-authority="NONE" data-type1-complete="false" data-release-eligible="false" data-release-state="REVIEW_ONLY_NOT_PUBLICLY_RELEASED">
<title id="FREE_FLOW_BATTERIES-T1-07-title">Free Flow Batteries T1-07 Type 1 review sheet</title>
<desc id="FREE_FLOW_BATTERIES-T1-07-desc">Evidence / verification / unknowns / claim boundary. E_CLASS_INCOMPLETE_REVIEW_SHELL. Review only; not engineering authority, physical validation or public release.</desc>
<metadata>{"dimension_authority":"NONE","drawing_id":"FREE_FLOW_BATTERIES-T1-07","feature_addressability":"WHOLE_PROXY_ONLY","next_gate":"safe reference-module geometry/BMS/enclosure plus measured evidence","package_evidence_ceiling":"E","package_kind":"INTERACTION_PROXY_REVIEW_SHELL","package_state":"E_CLASS_INCOMPLETE_REVIEW_SHELL","projection_input_obj":"assets/models/free_flow_batteries.obj","projection_input_obj_sha256":"42542651d030f8fedf347444b5513365eb29f2ac1dabe4b83501681ab92e0055","proxy_model_extents_m":[5.2,3.6,2.2],"purpose":"Evidence / verification / unknowns / claim boundary","release_eligible":false,"release_state":"REVIEW_ONLY_NOT_PUBLICLY_RELEASED","representation_class":"INTERACTION_PROXY","sheet_domain_state":"REVIEW_ONLY","sheet_id":"T1-07","source_binding_state":"NONE_PROXY_ONLY","twin_id":"free_flow_batteries","type1_complete":false,"units":"m"}</metadata>
<style>.sheet{fill:#fff;stroke:#111;stroke-width:2}.border,.viewbox{fill:none;stroke:#555;stroke-width:1}.geometry{stroke:#111;stroke-width:1;fill:none;vector-effect:non-scaling-stroke}.datum{stroke:#555;stroke-width:1;stroke-dasharray:8 5}.title{font:700 24px system-ui,sans-serif}.subtitle{font:16px system-ui,sans-serif;fill:#333}.section-title{font:700 13px system-ui,sans-serif}.body,.label{font:12px ui-monospace,monospace;fill:#222}.proxy-watermark{font:700 12px system-ui,sans-serif;fill:#111;letter-spacing:1.5px}.gate{fill:#111}.gate-text{font:700 12px system-ui,sans-serif;fill:#fff;letter-spacing:1px}</style>
<g id="L00-SHEET" data-layer="L00-SHEET">
<rect x="18" y="18" width="1564" height="964" class="sheet"/>
<text x="48" y="62" class="title">TYPE 1 SVG · FREE FLOW BATTERIES · T1-07</text>
<text x="48" y="88" class="subtitle">Evidence / verification / unknowns / claim boundary</text>
<line x1="18" y1="900" x2="1582" y2="900" class="border"/>
<text x="48" y="930" class="body">Drawing ID: FREE_FLOW_BATTERIES-T1-07 · Units: m · Scale: FIT · Coordinate frame: LOCAL REVIEW</text>
<text x="48" y="954" class="body">Representation: INTERACTION_PROXY · Revision: 1 · Release: REVIEW ONLY</text>
</g>
<g id="L10-CONTEXT" data-layer="L10-CONTEXT">
<text x="48" y="130" class="section-title">PROJECTION INPUT — NOT SOURCE AUTHORITY</text>
<text x="48" y="152" class="body">Interaction-proxy input</text>
<text x="48" y="170" class="body">assets/models/free_flow_batteries.obj SHA-256</text>
<text x="48" y="188" class="body">42542651d030f8fedf347444b5513365</text>
<text x="48" y="206" class="body">eb29f2ac1dabe4b83501681ab92e0055. The hash</text>
<text x="48" y="224" class="body">identifies only this review proxy; source binding</text>
<text x="48" y="242" class="body">is NONE_PROXY_ONLY.</text>
</g>
<g id="L20-AUTH-GEOMETRY" data-layer="L20-AUTH-GEOMETRY">

</g>
<g id="L21-DERIVED-GEOMETRY" data-layer="L21-DERIVED-GEOMETRY">

</g>
<g id="L22-PROVISIONAL-GEOMETRY" data-layer="L22-PROVISIONAL-GEOMETRY">
<rect x="430" y="230" width="740" height="450" class="viewbox"/>
<text x="442" y="252" class="label">ISOMETRIC</text>
<path id="FREE_FLOW_BATTERIES-T1-07-ISOMETRIC-proxy-wireframe" data-feature-class="INTERACTION_PROXY_WIREFRAME" d="M 569.060 507.424 L 569.060 374.091 M 569.060 507.424 L 758.011 398.333 M 569.060 507.424 L 758.011 265.000 M 569.060 374.091 L 758.011 265.000 M 758.011 398.333 L 758.011 265.000 M 569.060 507.424 L 841.989 665.000 M 569.060 374.091 L 841.989 665.000 M 758.011 398.333 L 841.989 665.000 M 569.060 374.091 L 841.989 531.667 M 841.989 665.000 L 841.989 531.667 M 758.011 398.333 L 1030.940 555.909 M 841.989 665.000 L 1030.940 555.909 M 841.989 531.667 L 1030.940 555.909 M 569.060 374.091 L 1030.940 422.576 M 758.011 398.333 L 1030.940 422.576 M 758.011 265.000 L 1030.940 422.576 M 841.989 531.667 L 1030.940 422.576 M 1030.940 555.909 L 1030.940 422.576 M 663.535 498.333 L 687.154 511.970 M 687.154 511.970 L 687.154 408.939 M 687.154 408.939 L 663.535 395.303 M 663.535 498.333 L 692.462 507.976 M 687.154 511.970 L 692.462 507.976 M 687.154 408.939 L 692.462 507.976 M 687.154 408.939 L 692.462 404.945 M 663.535 395.303 L 692.462 404.945 M 692.462 507.976 L 692.462 404.945 M 663.535 498.333 L 695.799 503.325 M 692.462 507.976 L 695.799 503.325 M 692.462 404.945 L 695.799 503.325 M 663.535 395.303 L 695.799 400.294 M 692.462 404.945 L 695.799 400.294 M 695.799 503.325 L 695.799 400.294 M 663.535 498.333 L 696.938 498.333 M 695.799 503.325 L 696.938 498.333 M 695.799 400.294 L 696.938 498.333 M 663.535 395.303 L 696.938 395.303 M 695.799 400.294 L 696.938 395.303 M 696.938 498.333 L 696.938 395.303 M 663.535 498.333 L 695.799 493.342 M 696.938 498.333 L 695.799 493.342 M 696.938 395.303 L 695.799 493.342 M 663.535 395.303 L 695.799 390.312 M 696.938 395.303 L 695.799 390.312 M 695.799 493.342 L 695.799 390.312 M 663.535 498.333 L 692.462 488.691 M 695.799 493.342 L 692.462 488.691 M 695.799 390.312 L 692.462 488.691 M 663.535 395.303 L 692.462 385.661 M 695.799 390.312 L 692.462 385.661 M 692.462 488.691 L 692.462 385.661 M 663.535 498.333 L 687.154 484.697 M 692.462 488.691 L 687.154 484.697 M 692.462 385.661 L 687.154 484.697 M 663.535 395.303 L 687.154 381.667 M 692.462 385.661 L 687.154 381.667 M 687.154 484.697 L 687.154 381.667 M 663.535 498.333 L 680.236 481.632 M 687.154 484.697 L 680.236 481.632 M 687.154 381.667 L 680.236 481.632 M 663.535 395.303 L 680.236 378.602 M 687.154 381.667 L 680.236 378.602 M 680.236 481.632 L 680.236 378.602 M 663.535 498.333 L 672.180 479.706 M 680.236 481.632 L 672.180 479.706 M 680.236 378.602 L 672.180 479.706 M 663.535 395.303 L 672.180 376.675 M 680.236 378.602 L 672.180 376.675 M 672.180 479.706 L 672.180 376.675 M 663.535 498.333 L 663.535 479.049 M 672.180 479.706 L 663.535 479.049 M 672.180 376.675 L 663.535 479.049 M 663.535 395.303 L 663.535 376.018 M 672.180 376.675 L 663.535 376.018 M 663.535 479.049 L 663.535 376.018 M 663.535 498.333 L 654.890 479.706 M 663.535 479.049 L 654.890 479.706 M 663.535 376.018 L 654.890 479.706 M 663.535 395.303 L 654.890 376.675 M 663.535 376.018 L 654.890 376.675 M 654.890 479.706 L 654.890 376.675 M 663.535 498.333 L 646.834 481.632 M 654.890 479.706 L 646.834 481.632 M 654.890 376.675 L 646.834 481.632 M 663.535 395.303 L 646.834 378.602 M 654.890 376.675 L 646.834 378.602 M 646.834 481.632 L 646.834 378.602 M 663.535 498.333 L 639.917 484.697 M 646.834 481.632 L 639.917 484.697 M 646.834 378.602 L 639.917 484.697 M 663.535 395.303 L 639.917 381.667 M 646.834 378.602 L 639.917 381.667 M 639.917 484.697 L 639.917 381.667 M 663.535 498.333 L 634.608 488.691 M 639.917 484.697 L 634.608 488.691 M 639.917 381.667 L 634.608 488.691 M 663.535 395.303 L 634.608 385.661 M 639.917 381.667 L 634.608 385.661 M 634.608 488.691 L 634.608 385.661 M 663.535 498.333 L 631.271 493.342 M 634.608 488.691 L 631.271 493.342 M 634.608 385.661 L 631.271 493.342 M 663.535 395.303 L 631.271 390.312 M 634.608 385.661 L 631.271 390.312 M 631.271 493.342 L 631.271 390.312 M 663.535 498.333 L 630.133 498.333 M 631.271 493.342 L 630.133 498.333 M 631.271 390.312 L 630.133 498.333 M 663.535 395.303 L 630.133 395.303 M 631.271 390.312 L 630.133 395.303 M 630.133 498.333 L 630.133 395.303 M 663.535 498.333 L 631.271 503.325 M 630.133 498.333 L 631.271 503.325 M 630.133 395.303 L 631.271 503.325 M 663.535 395.303 L 631.271 400.294 M 630.133 395.303 L 631.271 400.294 M 631.271 503.325 L 631.271 400.294 M 663.535 498.333 L 634.608 507.976 M 631.271 503.325 L 634.608 507.976 M 631.271 400.294 L 634.608 507.976 M 663.535 395.303 L 634.608 404.945 M 631.271 400.294 L 634.608 404.945 M 634.608 507.976 L 634.608 404.945 M 663.535 498.333 L 639.917 511.970 M 634.608 507.976 L 639.917 511.970 M 634.608 404.945 L 639.917 511.970 M 663.535 395.303 L 639.917 408.939 M 634.608 404.945 L 639.917 408.939 M 639.917 511.970 L 639.917 408.939 M 663.535 498.333 L 646.834 515.034 M 639.917 511.970 L 646.834 515.034 M 639.917 408.939 L 646.834 515.034 M 663.535 395.303 L 646.834 412.004 M 639.917 408.939 L 646.834 412.004 M 646.834 515.034 L 646.834 412.004 M 663.535 498.333 L 654.890 516.961 M 646.834 515.034 L 654.890 516.961 M 646.834 412.004 L 654.890 516.961 M 663.535 395.303 L 654.890 413.931 M 646.834 412.004 L 654.890 413.931 M 654.890 516.961 L 654.890 413.931 M 663.535 498.333 L 663.535 517.618 M 654.890 516.961 L 663.535 517.618 M 654.890 413.931 L 663.535 517.618 M 663.535 395.303 L 663.535 414.588 M 654.890 413.931 L 663.535 414.588 M 663.535 517.618 L 663.535 414.588 M 663.535 498.333 L 672.180 516.961 M 663.535 517.618 L 672.180 516.961 M 663.535 414.588 L 672.180 516.961 M 663.535 395.303 L 672.180 413.931 M 663.535 414.588 L 672.180 413.931 M 672.180 516.961 L 672.180 413.931 M 663.535 498.333 L 680.236 515.034 M 687.154 511.970 L 680.236 515.034 M 672.180 516.961 L 680.236 515.034 M 672.180 413.931 L 680.236 515.034 M 687.154 511.970 L 680.236 412.004 M 687.154 408.939 L 680.236 412.004 M 663.535 395.303 L 680.236 412.004 M 672.180 413.931 L 680.236 412.004 M 680.236 515.034 L 680.236 412.004 M 716.022 468.030 L 739.641 481.667 M 739.641 481.667 L 739.641 378.636 M 739.641 378.636 L 716.022 365.000 M 716.022 468.030 L 744.949 477.673 M 739.641 481.667 L 744.949 477.673 M 739.641 378.636 L 744.949 477.673 M 739.641 378.636 L 744.949 374.642 M 716.022 365.000 L 744.949 374.642 M 744.949 477.673 L 744.949 374.642 M 716.022 468.030 L 748.286 473.022 M 744.949 477.673 L 748.286 473.022 M 744.949 374.642 L 748.286 473.022 M 716.022 365.000 L 748.286 369.991 M 744.949 374.642 L 748.286 369.991 M 748.286 473.022 L 748.286 369.991 M 716.022 468.030 L 749.424 468.030 M 748.286 473.022 L 749.424 468.030 M 748.286 369.991 L 749.424 468.030 M 716.022 365.000 L 749.424 365.000 M 748.286 369.991 L 749.424 365.000 M 749.424 468.030 L 749.424 365.000 M 716.022 468.030 L 748.286 463.039 M 749.424 468.030 L 748.286 463.039 M 749.424 365.000 L 748.286 463.039 M 716.022 365.000 L 748.286 360.009 M 749.424 365.000 L 748.286 360.009 M 748.286 463.039 L 748.286 360.009 M 716.022 468.030 L 744.949 458.388 M 748.286 463.039 L 744.949 458.388 M 748.286 360.009 L 744.949 458.388 M 716.022 365.000 L 744.949 355.358 M 748.286 360.009 L 744.949 355.358 M 744.949 458.388 L 744.949 355.358 M 716.022 468.030 L 739.641 454.394 M 744.949 458.388 L 739.641 454.394 M 744.949 355.358 L 739.641 454.394 M 716.022 365.000 L 739.641 351.364 M 744.949 355.358 L 739.641 351.364 M 739.641 454.394 L 739.641 351.364 M 716.022 468.030 L 732.723 451.329 M 739.641 454.394 L 732.723 451.329 M 739.641 351.364 L 732.723 451.329 M 716.022 365.000 L 732.723 348.299 M 739.641 351.364 L 732.723 348.299 M 732.723 451.329 L 732.723 348.299 M 716.022 468.030 L 724.667 449.403 M 732.723 451.329 L 724.667 449.403 M 732.723 348.299 L 724.667 449.403 M 716.022 365.000 L 724.667 346.372 M 732.723 348.299 L 724.667 346.372 M 724.667 449.403 L 724.667 346.372 M 716.022 468.030 L 716.022 448.746 M 724.667 449.403 L 716.022 448.746 M 724.667 346.372 L 716.022 448.746 M 716.022 365.000 L 716.022 345.715 M 724.667 346.372 L 716.022 345.715 M 716.022 448.746 L 716.022 345.715 M 716.022 468.030 L 707.377 449.403 M 716.022 448.746 L 707.377 449.403 M 716.022 345.715 L 707.377 449.403 M 716.022 365.000 L 707.377 346.372 M 716.022 345.715 L 707.377 346.372 M 707.377 449.403 L 707.377 346.372 M 716.022 468.030 L 699.321 451.329 M 707.377 449.403 L 699.321 451.329 M 707.377 346.372 L 699.321 451.329 M 716.022 365.000 L 699.321 348.299 M 707.377 346.372 L 699.321 348.299 M 699.321 451.329 L 699.321 348.299 M 716.022 468.030 L 692.403 454.394 M 699.321 451.329 L 692.403 454.394 M 699.321 348.299 L 692.403 454.394 M 716.022 365.000 L 692.403 351.364 M 699.321 348.299 L 692.403 351.364 M 692.403 454.394 L 692.403 351.364 M 716.022 468.030 L 687.095 458.388 M 692.403 454.394 L 687.095 458.388 M 692.403 351.364 L 687.095 458.388 M 716.022 365.000 L 687.095 355.358 M 692.403 351.364 L 687.095 355.358 M 687.095 458.388 L 687.095 355.358 M 716.022 468.030 L 683.758 463.039 M 687.095 458.388 L 683.758 463.039 M 687.095 355.358 L 683.758 463.039 M 716.022 365.000 L 683.758 360.009 M 687.095 355.358 L 683.758 360.009 M 683.758 463.039 L 683.758 360.009 M 716.022 468.030 L 682.620 468.030 M 683.758 463.039 L 682.620 468.030 M 683.758 360.009 L 682.620 468.030 M 716.022 365.000 L 682.620 365.000 M 683.758 360.009 L 682.620 365.000 M 682.620 468.030 L 682.620 365.000 M 716.022 468.030 L 683.758 473.022 M 682.620 468.030 L 683.758 473.022 M 682.620 365.000 L 683.758 473.022 M 716.022 365.000 L 683.758 369.991 M 682.620 365.000 L 683.758 369.991 M 683.758 473.022 L 683.758 369.991 M 716.022 468.030 L 687.095 477.673 M 683.758 473.022 L 687.095 477.673 M 683.758 369.991 L 687.095 477.673 M 716.022 365.000 L 687.095 374.642 M 683.758 369.991 L 687.095 374.642 M 687.095 477.673 L 687.095 374.642 M 716.022 468.030 L 692.403 481.667 M 687.095 477.673 L 692.403 481.667 M 687.095 374.642 L 692.403 481.667 M 716.022 365.000 L 692.403 378.636 M 687.095 374.642 L 692.403 378.636 M 692.403 481.667 L 692.403 378.636 M 716.022 468.030 L 699.321 484.731 M 692.403 481.667 L 699.321 484.731 M 692.403 378.636 L 699.321 484.731 M 716.022 365.000 L 699.321 381.701 M 692.403 378.636 L 699.321 381.701 M 699.321 484.731 L 699.321 381.701 M 716.022 468.030 L 707.377 486.658 M 699.321 484.731 L 707.377 486.658 M 699.321 381.701 L 707.377 486.658 M 716.022 365.000 L 707.377 383.628 M 699.321 381.701 L 707.377 383.628 M 707.377 486.658 L 707.377 383.628 M 716.022 468.030 L 716.022 487.315 M 707.377 486.658 L 716.022 487.315 M 707.377 383.628 L 716.022 487.315 M 716.022 365.000 L 716.022 384.285 M 707.377 383.628 L 716.022 384.285 M 716.022 487.315 L 716.022 384.285 M 716.022 468.030 L 724.667 486.658 M 716.022 487.315 L 724.667 486.658 M 716.022 384.285 L 724.667 486.658 M 716.022 365.000 L 724.667 383.628 M 716.022 384.285 L 724.667 383.628 M 724.667 486.658 L 724.667 383.628 M 716.022 468.030 L 732.723 484.731 M 739.641 481.667 L 732.723 484.731 M 724.667 486.658 L 732.723 484.731 M 724.667 383.628 L 732.723 484.731 M 739.641 481.667 L 732.723 381.701 M 739.641 378.636 L 732.723 381.701 M 716.022 365.000 L 732.723 381.701 M 724.667 383.628 L 732.723 381.701 M 732.723 484.731 L 732.723 381.701 M 768.508 437.727 L 792.127 451.364 M 792.127 451.364 L 792.127 348.333 M 792.127 348.333 L 768.508 334.697 M 768.508 437.727 L 797.435 447.370 M 792.127 451.364 L 797.435 447.370 M 792.127 348.333 L 797.435 447.370 M 792.127 348.333 L 797.435 344.339 M 768.508 334.697 L 797.435 344.339 M 797.435 447.370 L 797.435 344.339 M 768.508 437.727 L 800.772 442.719 M 797.435 447.370 L 800.772 442.719 M 797.435 344.339 L 800.772 442.719 M 768.508 334.697 L 800.772 339.688 M 797.435 344.339 L 800.772 339.688 M 800.772 442.719 L 800.772 339.688 M 768.508 437.727 L 801.910 437.727 M 800.772 442.719 L 801.910 437.727 M 800.772 339.688 L 801.910 437.727 M 768.508 334.697 L 801.910 334.697 M 800.772 339.688 L 801.910 334.697 M 801.910 437.727 L 801.910 334.697 M 768.508 437.727 L 800.772 432.736 M 801.910 437.727 L 800.772 432.736 M 801.910 334.697 L 800.772 432.736 M 768.508 334.697 L 800.772 329.706 M 801.910 334.697 L 800.772 329.706 M 800.772 432.736 L 800.772 329.706 M 768.508 437.727 L 797.435 428.085 M 800.772 432.736 L 797.435 428.085 M 800.772 329.706 L 797.435 428.085 M 768.508 334.697 L 797.435 325.055 M 800.772 329.706 L 797.435 325.055 M 797.435 428.085 L 797.435 325.055 M 768.508 437.727 L 792.127 424.091 M 797.435 428.085 L 792.127 424.091 M 797.435 325.055 L 792.127 424.091 M 768.508 334.697 L 792.127 321.061 M 797.435 325.055 L 792.127 321.061 M 792.127 424.091 L 792.127 321.061 M 768.508 437.727 L 785.209 421.026 M 792.127 424.091 L 785.209 421.026 M 792.127 321.061 L 785.209 421.026 M 768.508 334.697 L 785.209 317.996 M 792.127 321.061 L 785.209 317.996 M 785.209 421.026 L 785.209 317.996 M 768.508 437.727 L 777.153 419.100 M 785.209 421.026 L 777.153 419.100 M 785.209 317.996 L 777.153 419.100 M 768.508 334.697 L 777.153 316.069 M 785.209 317.996 L 777.153 316.069 M 777.153 419.100 L 777.153 316.069 M 768.508 437.727 L 768.508 418.443 M 777.153 419.100 L 768.508 418.443 M 777.153 316.069 L 768.508 418.443 M 768.508 334.697 L 768.508 315.412 M 777.153 316.069 L 768.508 315.412 M 768.508 418.443 L 768.508 315.412 M 768.508 437.727 L 759.863 419.100 M 768.508 418.443 L 759.863 419.100 M 768.508 315.412 L 759.863 419.100 M 768.508 334.697 L 759.863 316.069 M 768.508 315.412 L 759.863 316.069 M 759.863 419.100 L 759.863 316.069 M 768.508 437.727 L 751.807 421.026 M 759.863 419.100 L 751.807 421.026 M 759.863 316.069 L 751.807 421.026 M 768.508 334.697 L 751.807 317.996 M 759.863 316.069 L 751.807 317.996 M 751.807 421.026 L 751.807 317.996 M 768.508 437.727 L 744.889 424.091 M 751.807 421.026 L 744.889 424.091 M 751.807 317.996 L 744.889 424.091 M 768.508 334.697 L 744.889 321.061 M 751.807 317.996 L 744.889 321.061 M 744.889 424.091 L 744.889 321.061 M 768.508 437.727 L 739.581 428.085 M 744.889 424.091 L 739.581 428.085 M 744.889 321.061 L 739.581 428.085 M 768.508 334.697 L 739.581 325.055 M 744.889 321.061 L 739.581 325.055 M 739.581 428.085 L 739.581 325.055 M 768.508 437.727 L 736.244 432.736 M 739.581 428.085 L 736.244 432.736 M 739.581 325.055 L 736.244 432.736 M 768.508 334.697 L 736.244 329.706 M 739.581 325.055 L 736.244 329.706 M 736.244 432.736 L 736.244 329.706 M 768.508 437.727 L 735.106 437.727 M 736.244 432.736 L 735.106 437.727 M 736.244 329.706 L 735.106 437.727 M 768.508 334.697 L 735.106 334.697 M 736.244 329.706 L 735.106 334.697 M 735.106 437.727 L 735.106 334.697 M 768.508 437.727 L 736.244 442.719 M 735.106 437.727 L 736.244 442.719 M 735.106 334.697 L 736.244 442.719 M 768.508 334.697 L 736.244 339.688 M 735.106 334.697 L 736.244 339.688 M 736.244 442.719 L 736.244 339.688 M 768.508 437.727 L 739.581 447.370 M 736.244 442.719 L 739.581 447.370 M 736.244 339.688 L 739.581 447.370 M 768.508 334.697 L 739.581 344.339 M 736.244 339.688 L 739.581 344.339 M 739.581 447.370 L 739.581 344.339 M 768.508 437.727 L 744.889 451.364 M 739.581 447.370 L 744.889 451.364 M 739.581 344.339 L 744.889 451.364 M 768.508 334.697 L 744.889 348.333 M 739.581 344.339 L 744.889 348.333 M 744.889 451.364 L 744.889 348.333 M 768.508 437.727 L 751.807 454.428 M 744.889 451.364 L 751.807 454.428 M 744.889 348.333 L 751.807 454.428 M 768.508 334.697 L 751.807 351.398 M 744.889 348.333 L 751.807 351.398 M 751.807 454.428 L 751.807 351.398 M 768.508 437.727 L 759.863 456.355 M 751.807 454.428 L 759.863 456.355 M 751.807 351.398 L 759.863 456.355 M 768.508 334.697 L 759.863 353.325 M 751.807 351.398 L 759.863 353.325 M 759.863 456.355 L 759.863 353.325 M 768.508 437.727 L 768.508 457.012 M 759.863 456.355 L 768.508 457.012 M 759.863 353.325 L 768.508 457.012 M 768.508 334.697 L 768.508 353.982 M 759.863 353.325 L 768.508 353.982 M 768.508 457.012 L 768.508 353.982 M 768.508 437.727 L 777.153 456.355 M 768.508 457.012 L 777.153 456.355 M 768.508 353.982 L 777.153 456.355 M 768.508 334.697 L 777.153 353.325 M 768.508 353.982 L 777.153 353.325 M 777.153 456.355 L 777.153 353.325 M 768.508 437.727 L 785.209 454.428 M 792.127 451.364 L 785.209 454.428 M 777.153 456.355 L 785.209 454.428 M 777.153 353.325 L 785.209 454.428 M 792.127 451.364 L 785.209 351.398 M 792.127 348.333 L 785.209 351.398 M 768.508 334.697 L 785.209 351.398 M 777.153 353.325 L 785.209 351.398 M 785.209 454.428 L 785.209 351.398 M 747.514 546.818 L 771.132 560.455 M 771.132 560.455 L 771.132 457.424 M 771.132 457.424 L 747.514 443.788 M 747.514 546.818 L 776.441 556.461 M 771.132 560.455 L 776.441 556.461 M 771.132 457.424 L 776.441 556.461 M 771.132 457.424 L 776.441 453.430 M 747.514 443.788 L 776.441 453.430 M 776.441 556.461 L 776.441 453.430 M 747.514 546.818 L 779.778 551.809 M 776.441 556.461 L 779.778 551.809 M 776.441 453.430 L 779.778 551.809 M 747.514 443.788 L 779.778 448.779 M 776.441 453.430 L 779.778 448.779 M 779.778 551.809 L 779.778 448.779 M 747.514 546.818 L 780.916 546.818 M 779.778 551.809 L 780.916 546.818 M 779.778 448.779 L 780.916 546.818 M 747.514 443.788 L 780.916 443.788 M 779.778 448.779 L 780.916 443.788 M 780.916 546.818 L 780.916 443.788 M 747.514 546.818 L 779.778 541.827 M 780.916 546.818 L 779.778 541.827 M 780.916 443.788 L 779.778 541.827 M 747.514 443.788 L 779.778 438.797 M 780.916 443.788 L 779.778 438.797 M 779.778 541.827 L 779.778 438.797 M 747.514 546.818 L 776.441 537.176 M 779.778 541.827 L 776.441 537.176 M 779.778 438.797 L 776.441 537.176 M 747.514 443.788 L 776.441 434.146 M 779.778 438.797 L 776.441 434.146 M 776.441 537.176 L 776.441 434.146 M 747.514 546.818 L 771.132 533.182 M 776.441 537.176 L 771.132 533.182 M 776.441 434.146 L 771.132 533.182 M 747.514 443.788 L 771.132 430.152 M 776.441 434.146 L 771.132 430.152 M 771.132 533.182 L 771.132 430.152 M 747.514 546.818 L 764.215 530.117 M 771.132 533.182 L 764.215 530.117 M 771.132 430.152 L 764.215 530.117 M 747.514 443.788 L 764.215 427.087 M 771.132 430.152 L 764.215 427.087 M 764.215 530.117 L 764.215 427.087 M 747.514 546.818 L 756.159 528.191 M 764.215 530.117 L 756.159 528.191 M 764.215 427.087 L 756.159 528.191 M 747.514 443.788 L 756.159 425.160 M 764.215 427.087 L 756.159 425.160 M 756.159 528.191 L 756.159 425.160 M 747.514 546.818 L 747.514 527.533 M 756.159 528.191 L 747.514 527.533 M 756.159 425.160 L 747.514 527.533 M 747.514 443.788 L 747.514 424.503 M 756.159 425.160 L 747.514 424.503 M 747.514 527.533 L 747.514 424.503 M 747.514 546.818 L 738.869 528.191 M 747.514 527.533 L 738.869 528.191 M 747.514 424.503 L 738.869 528.191 M 747.514 443.788 L 738.869 425.160 M 747.514 424.503 L 738.869 425.160 M 738.869 528.191 L 738.869 425.160 M 747.514 546.818 L 730.813 530.117 M 738.869 528.191 L 730.813 530.117 M 738.869 425.160 L 730.813 530.117 M 747.514 443.788 L 730.813 427.087 M 738.869 425.160 L 730.813 427.087 M 730.813 530.117 L 730.813 427.087 M 747.514 546.818 L 723.895 533.182 M 730.813 530.117 L 723.895 533.182 M 730.813 427.087 L 723.895 533.182 M 747.514 443.788 L 723.895 430.152 M 730.813 427.087 L 723.895 430.152 M 723.895 533.182 L 723.895 430.152 M 747.514 546.818 L 718.587 537.176 M 723.895 533.182 L 718.587 537.176 M 723.895 430.152 L 718.587 537.176 M 747.514 443.788 L 718.587 434.146 M 723.895 430.152 L 718.587 434.146 M 718.587 537.176 L 718.587 434.146 M 747.514 546.818 L 715.250 541.827 M 718.587 537.176 L 715.250 541.827 M 718.587 434.146 L 715.250 541.827 M 747.514 443.788 L 715.250 438.797 M 718.587 434.146 L 715.250 438.797 M 715.250 541.827 L 715.250 438.797 M 747.514 546.818 L 714.111 546.818 M 715.250 541.827 L 714.111 546.818 M 715.250 438.797 L 714.111 546.818 M 747.514 443.788 L 714.111 443.788 M 715.250 438.797 L 714.111 443.788 M 714.111 546.818 L 714.111 443.788 M 747.514 546.818 L 715.250 551.809 M 714.111 546.818 L 715.250 551.809 M 714.111 443.788 L 715.250 551.809 M 747.514 443.788 L 715.250 448.779 M 714.111 443.788 L 715.250 448.779 M 715.250 551.809 L 715.250 448.779 M 747.514 546.818 L 718.587 556.461 M 715.250 551.809 L 718.587 556.461 M 715.250 448.779 L 718.587 556.461 M 747.514 443.788 L 718.587 453.430 M 715.250 448.779 L 718.587 453.430 M 718.587 556.461 L 718.587 453.430 M 747.514 546.818 L 723.895 560.455 M 718.587 556.461 L 723.895 560.455 M 718.587 453.430 L 723.895 560.455 M 747.514 443.788 L 723.895 457.424 M 718.587 453.430 L 723.895 457.424 M 723.895 560.455 L 723.895 457.424 M 747.514 546.818 L 730.813 563.519 M 723.895 560.455 L 730.813 563.519 M 723.895 457.424 L 730.813 563.519 M 747.514 443.788 L 730.813 460.489 M 723.895 457.424 L 730.813 460.489 M 730.813 563.519 L 730.813 460.489 M 747.514 546.818 L 738.869 565.446 M 730.813 563.519 L 738.869 565.446 M 730.813 460.489 L 738.869 565.446 M 747.514 443.788 L 738.869 462.415 M 730.813 460.489 L 738.869 462.415 M 738.869 565.446 L 738.869 462.415 M 747.514 546.818 L 747.514 566.103 M 738.869 565.446 L 747.514 566.103 M 738.869 462.415 L 747.514 566.103 M 747.514 443.788 L 747.514 463.073 M 738.869 462.415 L 747.514 463.073 M 747.514 566.103 L 747.514 463.073 M 747.514 546.818 L 756.159 565.446 M 747.514 566.103 L 756.159 565.446 M 747.514 463.073 L 756.159 565.446 M 747.514 443.788 L 756.159 462.415 M 747.514 463.073 L 756.159 462.415 M 756.159 565.446 L 756.159 462.415 M 747.514 546.818 L 764.215 563.519 M 771.132 560.455 L 764.215 563.519 M 756.159 565.446 L 764.215 563.519 M 756.159 462.415 L 764.215 563.519 M 771.132 560.455 L 764.215 460.489 M 771.132 457.424 L 764.215 460.489 M 747.514 443.788 L 764.215 460.489 M 756.159 462.415 L 764.215 460.489 M 764.215 563.519 L 764.215 460.489 M 800.000 516.515 L 823.619 530.152 M 823.619 530.152 L 823.619 427.121 M 823.619 427.121 L 800.000 413.485 M 800.000 516.515 L 828.927 526.158 M 823.619 530.152 L 828.927 526.158 M 823.619 427.121 L 828.927 526.158 M 823.619 427.121 L 828.927 423.127 M 800.000 413.485 L 828.927 423.127 M 828.927 526.158 L 828.927 423.127 M 800.000 516.515 L 832.264 521.506 M 828.927 526.158 L 832.264 521.506 M 828.927 423.127 L 832.264 521.506 M 800.000 413.485 L 832.264 418.476 M 828.927 423.127 L 832.264 418.476 M 832.264 521.506 L 832.264 418.476 M 800.000 516.515 L 833.402 516.515 M 832.264 521.506 L 833.402 516.515 M 832.264 418.476 L 833.402 516.515 M 800.000 413.485 L 833.402 413.485 M 832.264 418.476 L 833.402 413.485 M 833.402 516.515 L 833.402 413.485 M 800.000 516.515 L 832.264 511.524 M 833.402 516.515 L 832.264 511.524 M 833.402 413.485 L 832.264 511.524 M 800.000 413.485 L 832.264 408.494 M 833.402 413.485 L 832.264 408.494 M 832.264 511.524 L 832.264 408.494 M 800.000 516.515 L 828.927 506.873 M 832.264 511.524 L 828.927 506.873 M 832.264 408.494 L 828.927 506.873 M 800.000 413.485 L 828.927 403.842 M 832.264 408.494 L 828.927 403.842 M 828.927 506.873 L 828.927 403.842 M 800.000 516.515 L 823.619 502.879 M 828.927 506.873 L 823.619 502.879 M 828.927 403.842 L 823.619 502.879 M 800.000 413.485 L 823.619 399.848 M 828.927 403.842 L 823.619 399.848 M 823.619 502.879 L 823.619 399.848 M 800.000 516.515 L 816.701 499.814 M 823.619 502.879 L 816.701 499.814 M 823.619 399.848 L 816.701 499.814 M 800.000 413.485 L 816.701 396.784 M 823.619 399.848 L 816.701 396.784 M 816.701 499.814 L 816.701 396.784 M 800.000 516.515 L 808.645 497.888 M 816.701 499.814 L 808.645 497.888 M 816.701 396.784 L 808.645 497.888 M 800.000 413.485 L 808.645 394.857 M 816.701 396.784 L 808.645 394.857 M 808.645 497.888 L 808.645 394.857 M 800.000 516.515 L 800.000 497.230 M 808.645 497.888 L 800.000 497.230 M 808.645 394.857 L 800.000 497.230 M 800.000 413.485 L 800.000 394.200 M 808.645 394.857 L 800.000 394.200 M 800.000 497.230 L 800.000 394.200 M 800.000 516.515 L 791.355 497.888 M 800.000 497.230 L 791.355 497.888 M 800.000 394.200 L 791.355 497.888 M 800.000 413.485 L 791.355 394.857 M 800.000 394.200 L 791.355 394.857 M 791.355 497.888 L 791.355 394.857 M 800.000 516.515 L 783.299 499.814 M 791.355 497.888 L 783.299 499.814 M 791.355 394.857 L 783.299 499.814 M 800.000 413.485 L 783.299 396.784 M 791.355 394.857 L 783.299 396.784 M 783.299 499.814 L 783.299 396.784 M 800.000 516.515 L 776.381 502.879 M 783.299 499.814 L 776.381 502.879 M 783.299 396.784 L 776.381 502.879 M 800.000 413.485 L 776.381 399.848 M 783.299 396.784 L 776.381 399.848 M 776.381 502.879 L 776.381 399.848 M 800.000 516.515 L 771.073 506.873 M 776.381 502.879 L 771.073 506.873 M 776.381 399.848 L 771.073 506.873 M 800.000 413.485 L 771.073 403.842 M 776.381 399.848 L 771.073 403.842 M 771.073 506.873 L 771.073 403.842 M 800.000 516.515 L 767.736 511.524 M 771.073 506.873 L 767.736 511.524 M 771.073 403.842 L 767.736 511.524 M 800.000 413.485 L 767.736 408.494 M 771.073 403.842 L 767.736 408.494 M 767.736 511.524 L 767.736 408.494 M 800.000 516.515 L 766.598 516.515 M 767.736 511.524 L 766.598 516.515 M 767.736 408.494 L 766.598 516.515 M 800.000 413.485 L 766.598 413.485 M 767.736 408.494 L 766.598 413.485 M 766.598 516.515 L 766.598 413.485 M 800.000 516.515 L 767.736 521.506 M 766.598 516.515 L 767.736 521.506 M 766.598 413.485 L 767.736 521.506 M 800.000 413.485 L 767.736 418.476 M 766.598 413.485 L 767.736 418.476 M 767.736 521.506 L 767.736 418.476 M 800.000 516.515 L 771.073 526.158 M 767.736 521.506 L 771.073 526.158 M 767.736 418.476 L 771.073 526.158 M 800.000 413.485 L 771.073 423.127 M 767.736 418.476 L 771.073 423.127 M 771.073 526.158 L 771.073 423.127 M 800.000 516.515 L 776.381 530.152 M 771.073 526.158 L 776.381 530.152 M 771.073 423.127 L 776.381 530.152 M 800.000 413.485 L 776.381 427.121 M 771.073 423.127 L 776.381 427.121 M 776.381 530.152 L 776.381 427.121 M 800.000 516.515 L 783.299 533.216 M 776.381 530.152 L 783.299 533.216 M 776.381 427.121 L 783.299 533.216 M 800.000 413.485 L 783.299 430.186 M 776.381 427.121 L 783.299 430.186 M 783.299 533.216 L 783.299 430.186 M 800.000 516.515 L 791.355 535.143 M 783.299 533.216 L 791.355 535.143 M 783.299 430.186 L 791.355 535.143 M 800.000 413.485 L 791.355 432.112 M 783.299 430.186 L 791.355 432.112 M 791.355 535.143 L 791.355 432.112 M 800.000 516.515 L 800.000 535.800 M 791.355 535.143 L 800.000 535.800 M 791.355 432.112 L 800.000 535.800 M 800.000 413.485 L 800.000 432.770 M 791.355 432.112 L 800.000 432.770 M 800.000 535.800 L 800.000 432.770 M 800.000 516.515 L 808.645 535.143 M 800.000 535.800 L 808.645 535.143 M 800.000 432.770 L 808.645 535.143 M 800.000 413.485 L 808.645 432.112 M 800.000 432.770 L 808.645 432.112 M 808.645 535.143 L 808.645 432.112 M 800.000 516.515 L 816.701 533.216 M 823.619 530.152 L 816.701 533.216 M 808.645 535.143 L 816.701 533.216 M 808.645 432.112 L 816.701 533.216 M 823.619 530.152 L 816.701 430.186 M 823.619 427.121 L 816.701 430.186 M 800.000 413.485 L 816.701 430.186 M 808.645 432.112 L 816.701 430.186 M 816.701 533.216 L 816.701 430.186 M 852.486 486.212 L 876.105 499.848 M 876.105 499.848 L 876.105 396.818 M 876.105 396.818 L 852.486 383.182 M 852.486 486.212 L 881.413 495.854 M 876.105 499.848 L 881.413 495.854 M 876.105 396.818 L 881.413 495.854 M 876.105 396.818 L 881.413 392.824 M 852.486 383.182 L 881.413 392.824 M 881.413 495.854 L 881.413 392.824 M 852.486 486.212 L 884.750 491.203 M 881.413 495.854 L 884.750 491.203 M 881.413 392.824 L 884.750 491.203 M 852.486 383.182 L 884.750 388.173 M 881.413 392.824 L 884.750 388.173 M 884.750 491.203 L 884.750 388.173 M 852.486 486.212 L 885.889 486.212 M 884.750 491.203 L 885.889 486.212 M 884.750 388.173 L 885.889 486.212 M 852.486 383.182 L 885.889 383.182 M 884.750 388.173 L 885.889 383.182 M 885.889 486.212 L 885.889 383.182 M 852.486 486.212 L 884.750 481.221 M 885.889 486.212 L 884.750 481.221 M 885.889 383.182 L 884.750 481.221 M 852.486 383.182 L 884.750 378.191 M 885.889 383.182 L 884.750 378.191 M 884.750 481.221 L 884.750 378.191 M 852.486 486.212 L 881.413 476.570 M 884.750 481.221 L 881.413 476.570 M 884.750 378.191 L 881.413 476.570 M 852.486 383.182 L 881.413 373.539 M 884.750 378.191 L 881.413 373.539 M 881.413 476.570 L 881.413 373.539 M 852.486 486.212 L 876.105 472.576 M 881.413 476.570 L 876.105 472.576 M 881.413 373.539 L 876.105 472.576 M 852.486 383.182 L 876.105 369.545 M 881.413 373.539 L 876.105 369.545 M 876.105 472.576 L 876.105 369.545 M 852.486 486.212 L 869.187 469.511 M 876.105 472.576 L 869.187 469.511 M 876.105 369.545 L 869.187 469.511 M 852.486 383.182 L 869.187 366.481 M 876.105 369.545 L 869.187 366.481 M 869.187 469.511 L 869.187 366.481 M 852.486 486.212 L 861.131 467.585 M 869.187 469.511 L 861.131 467.585 M 869.187 366.481 L 861.131 467.585 M 852.486 383.182 L 861.131 364.554 M 869.187 366.481 L 861.131 364.554 M 861.131 467.585 L 861.131 364.554 M 852.486 486.212 L 852.486 466.927 M 861.131 467.585 L 852.486 466.927 M 861.131 364.554 L 852.486 466.927 M 852.486 383.182 L 852.486 363.897 M 861.131 364.554 L 852.486 363.897 M 852.486 466.927 L 852.486 363.897 M 852.486 486.212 L 843.841 467.585 M 852.486 466.927 L 843.841 467.585 M 852.486 363.897 L 843.841 467.585 M 852.486 383.182 L 843.841 364.554 M 852.486 363.897 L 843.841 364.554 M 843.841 467.585 L 843.841 364.554 M 852.486 486.212 L 835.785 469.511 M 843.841 467.585 L 835.785 469.511 M 843.841 364.554 L 835.785 469.511 M 852.486 383.182 L 835.785 366.481 M 843.841 364.554 L 835.785 366.481 M 835.785 469.511 L 835.785 366.481 M 852.486 486.212 L 828.868 472.576 M 835.785 469.511 L 828.868 472.576 M 835.785 366.481 L 828.868 472.576 M 852.486 383.182 L 828.868 369.545 M 835.785 366.481 L 828.868 369.545 M 828.868 472.576 L 828.868 369.545 M 852.486 486.212 L 823.559 476.570 M 828.868 472.576 L 823.559 476.570 M 828.868 369.545 L 823.559 476.570 M 852.486 383.182 L 823.559 373.539 M 828.868 369.545 L 823.559 373.539 M 823.559 476.570 L 823.559 373.539 M 852.486 486.212 L 820.222 481.221 M 823.559 476.570 L 820.222 481.221 M 823.559 373.539 L 820.222 481.221 M 852.486 383.182 L 820.222 378.191 M 823.559 373.539 L 820.222 378.191 M 820.222 481.221 L 820.222 378.191 M 852.486 486.212 L 819.084 486.212 M 820.222 481.221 L 819.084 486.212 M 820.222 378.191 L 819.084 486.212 M 852.486 383.182 L 819.084 383.182 M 820.222 378.191 L 819.084 383.182 M 819.084 486.212 L 819.084 383.182 M 852.486 486.212 L 820.222 491.203 M 819.084 486.212 L 820.222 491.203 M 819.084 383.182 L 820.222 491.203 M 852.486 383.182 L 820.222 388.173 M 819.084 383.182 L 820.222 388.173 M 820.222 491.203 L 820.222 388.173 M 852.486 486.212 L 823.559 495.854 M 820.222 491.203 L 823.559 495.854 M 820.222 388.173 L 823.559 495.854 M 852.486 383.182 L 823.559 392.824 M 820.222 388.173 L 823.559 392.824 M 823.559 495.854 L 823.559 392.824 M 852.486 486.212 L 828.868 499.848 M 823.559 495.854 L 828.868 499.848 M 823.559 392.824 L 828.868 499.848 M 852.486 383.182 L 828.868 396.818 M 823.559 392.824 L 828.868 396.818 M 828.868 499.848 L 828.868 396.818 M 852.486 486.212 L 835.785 502.913 M 828.868 499.848 L 835.785 502.913 M 828.868 396.818 L 835.785 502.913 M 852.486 383.182 L 835.785 399.883 M 828.868 396.818 L 835.785 399.883 M 835.785 502.913 L 835.785 399.883 M 852.486 486.212 L 843.841 504.840 M 835.785 502.913 L 843.841 504.840 M 835.785 399.883 L 843.841 504.840 M 852.486 383.182 L 843.841 401.809 M 835.785 399.883 L 843.841 401.809 M 843.841 504.840 L 843.841 401.809 M 852.486 486.212 L 852.486 505.497 M 843.841 504.840 L 852.486 505.497 M 843.841 401.809 L 852.486 505.497 M 852.486 383.182 L 852.486 402.467 M 843.841 401.809 L 852.486 402.467 M 852.486 505.497 L 852.486 402.467 M 852.486 486.212 L 861.131 504.840 M 852.486 505.497 L 861.131 504.840 M 852.486 402.467 L 861.131 504.840 M 852.486 383.182 L 861.131 401.809 M 852.486 402.467 L 861.131 401.809 M 861.131 504.840 L 861.131 401.809 M 852.486 486.212 L 869.187 502.913 M 876.105 499.848 L 869.187 502.913 M 861.131 504.840 L 869.187 502.913 M 861.131 401.809 L 869.187 502.913 M 876.105 499.848 L 869.187 399.883 M 876.105 396.818 L 869.187 399.883 M 852.486 383.182 L 869.187 399.883 M 861.131 401.809 L 869.187 399.883 M 869.187 502.913 L 869.187 399.883 M 831.492 595.303 L 855.111 608.939 M 855.111 608.939 L 855.111 505.909 M 855.111 505.909 L 831.492 492.273 M 831.492 595.303 L 860.419 604.945 M 855.111 608.939 L 860.419 604.945 M 855.111 505.909 L 860.419 604.945 M 855.111 505.909 L 860.419 501.915 M 831.492 492.273 L 860.419 501.915 M 860.419 604.945 L 860.419 501.915 M 831.492 595.303 L 863.756 600.294 M 860.419 604.945 L 863.756 600.294 M 860.419 501.915 L 863.756 600.294 M 831.492 492.273 L 863.756 497.264 M 860.419 501.915 L 863.756 497.264 M 863.756 600.294 L 863.756 497.264 M 831.492 595.303 L 864.894 595.303 M 863.756 600.294 L 864.894 595.303 M 863.756 497.264 L 864.894 595.303 M 831.492 492.273 L 864.894 492.273 M 863.756 497.264 L 864.894 492.273 M 864.894 595.303 L 864.894 492.273 M 831.492 595.303 L 863.756 590.312 M 864.894 595.303 L 863.756 590.312 M 864.894 492.273 L 863.756 590.312 M 831.492 492.273 L 863.756 487.281 M 864.894 492.273 L 863.756 487.281 M 863.756 590.312 L 863.756 487.281 M 831.492 595.303 L 860.419 585.661 M 863.756 590.312 L 860.419 585.661 M 863.756 487.281 L 860.419 585.661 M 831.492 492.273 L 860.419 482.630 M 863.756 487.281 L 860.419 482.630 M 860.419 585.661 L 860.419 482.630 M 831.492 595.303 L 855.111 581.667 M 860.419 585.661 L 855.111 581.667 M 860.419 482.630 L 855.111 581.667 M 831.492 492.273 L 855.111 478.636 M 860.419 482.630 L 855.111 478.636 M 855.111 581.667 L 855.111 478.636 M 831.492 595.303 L 848.193 578.602 M 855.111 581.667 L 848.193 578.602 M 855.111 478.636 L 848.193 578.602 M 831.492 492.273 L 848.193 475.572 M 855.111 478.636 L 848.193 475.572 M 848.193 578.602 L 848.193 475.572 M 831.492 595.303 L 840.137 576.675 M 848.193 578.602 L 840.137 576.675 M 848.193 475.572 L 840.137 576.675 M 831.492 492.273 L 840.137 473.645 M 848.193 475.572 L 840.137 473.645 M 840.137 576.675 L 840.137 473.645 M 831.492 595.303 L 831.492 576.018 M 840.137 576.675 L 831.492 576.018 M 840.137 473.645 L 831.492 576.018 M 831.492 492.273 L 831.492 472.988 M 840.137 473.645 L 831.492 472.988 M 831.492 576.018 L 831.492 472.988 M 831.492 595.303 L 822.847 576.675 M 831.492 576.018 L 822.847 576.675 M 831.492 472.988 L 822.847 576.675 M 831.492 492.273 L 822.847 473.645 M 831.492 472.988 L 822.847 473.645 M 822.847 576.675 L 822.847 473.645 M 831.492 595.303 L 814.791 578.602 M 822.847 576.675 L 814.791 578.602 M 822.847 473.645 L 814.791 578.602 M 831.492 492.273 L 814.791 475.572 M 822.847 473.645 L 814.791 475.572 M 814.791 578.602 L 814.791 475.572 M 831.492 595.303 L 807.873 581.667 M 814.791 578.602 L 807.873 581.667 M 814.791 475.572 L 807.873 581.667 M 831.492 492.273 L 807.873 478.636 M 814.791 475.572 L 807.873 478.636 M 807.873 581.667 L 807.873 478.636 M 831.492 595.303 L 802.565 585.661 M 807.873 581.667 L 802.565 585.661 M 807.873 478.636 L 802.565 585.661 M 831.492 492.273 L 802.565 482.630 M 807.873 478.636 L 802.565 482.630 M 802.565 585.661 L 802.565 482.630 M 831.492 595.303 L 799.228 590.312 M 802.565 585.661 L 799.228 590.312 M 802.565 482.630 L 799.228 590.312 M 831.492 492.273 L 799.228 487.281 M 802.565 482.630 L 799.228 487.281 M 799.228 590.312 L 799.228 487.281 M 831.492 595.303 L 798.090 595.303 M 799.228 590.312 L 798.090 595.303 M 799.228 487.281 L 798.090 595.303 M 831.492 492.273 L 798.090 492.273 M 799.228 487.281 L 798.090 492.273 M 798.090 595.303 L 798.090 492.273 M 831.492 595.303 L 799.228 600.294 M 798.090 595.303 L 799.228 600.294 M 798.090 492.273 L 799.228 600.294 M 831.492 492.273 L 799.228 497.264 M 798.090 492.273 L 799.228 497.264 M 799.228 600.294 L 799.228 497.264 M 831.492 595.303 L 802.565 604.945 M 799.228 600.294 L 802.565 604.945 M 799.228 497.264 L 802.565 604.945 M 831.492 492.273 L 802.565 501.915 M 799.228 497.264 L 802.565 501.915 M 802.565 604.945 L 802.565 501.915 M 831.492 595.303 L 807.873 608.939 M 802.565 604.945 L 807.873 608.939 M 802.565 501.915 L 807.873 608.939 M 831.492 492.273 L 807.873 505.909 M 802.565 501.915 L 807.873 505.909 M 807.873 608.939 L 807.873 505.909 M 831.492 595.303 L 814.791 612.004 M 807.873 608.939 L 814.791 612.004 M 807.873 505.909 L 814.791 612.004 M 831.492 492.273 L 814.791 508.974 M 807.873 505.909 L 814.791 508.974 M 814.791 612.004 L 814.791 508.974 M 831.492 595.303 L 822.847 613.931 M 814.791 612.004 L 822.847 613.931 M 814.791 508.974 L 822.847 613.931 M 831.492 492.273 L 822.847 510.900 M 814.791 508.974 L 822.847 510.900 M 822.847 613.931 L 822.847 510.900 M 831.492 595.303 L 831.492 614.588 M 822.847 613.931 L 831.492 614.588 M 822.847 510.900 L 831.492 614.588 M 831.492 492.273 L 831.492 511.557 M 822.847 510.900 L 831.492 511.557 M 831.492 614.588 L 831.492 511.557 M 831.492 595.303 L 840.137 613.931 M 831.492 614.588 L 840.137 613.931 M 831.492 511.557 L 840.137 613.931 M 831.492 492.273 L 840.137 510.900 M 831.492 511.557 L 840.137 510.900 M 840.137 613.931 L 840.137 510.900 M 831.492 595.303 L 848.193 612.004 M 855.111 608.939 L 848.193 612.004 M 840.137 613.931 L 848.193 612.004 M 840.137 510.900 L 848.193 612.004 M 855.111 608.939 L 848.193 508.974 M 855.111 505.909 L 848.193 508.974 M 831.492 492.273 L 848.193 508.974 M 840.137 510.900 L 848.193 508.974 M 848.193 612.004 L 848.193 508.974 M 883.978 565.000 L 907.597 578.636 M 907.597 578.636 L 907.597 475.606 M 907.597 475.606 L 883.978 461.970 M 883.978 565.000 L 912.905 574.642 M 907.597 578.636 L 912.905 574.642 M 907.597 475.606 L 912.905 574.642 M 907.597 475.606 L 912.905 471.612 M 883.978 461.970 L 912.905 471.612 M 912.905 574.642 L 912.905 471.612 M 883.978 565.000 L 916.242 569.991 M 912.905 574.642 L 916.242 569.991 M 912.905 471.612 L 916.242 569.991 M 883.978 461.970 L 916.242 466.961 M 912.905 471.612 L 916.242 466.961 M 916.242 569.991 L 916.242 466.961 M 883.978 565.000 L 917.380 565.000 M 916.242 569.991 L 917.380 565.000 M 916.242 466.961 L 917.380 565.000 M 883.978 461.970 L 917.380 461.970 M 916.242 466.961 L 917.380 461.970 M 917.380 565.000 L 917.380 461.970 M 883.978 565.000 L 916.242 560.009 M 917.380 565.000 L 916.242 560.009 M 917.380 461.970 L 916.242 560.009 M 883.978 461.970 L 916.242 456.978 M 917.380 461.970 L 916.242 456.978 M 916.242 560.009 L 916.242 456.978 M 883.978 565.000 L 912.905 555.358 M 916.242 560.009 L 912.905 555.358 M 916.242 456.978 L 912.905 555.358 M 883.978 461.970 L 912.905 452.327 M 916.242 456.978 L 912.905 452.327 M 912.905 555.358 L 912.905 452.327 M 883.978 565.000 L 907.597 551.364 M 912.905 555.358 L 907.597 551.364 M 912.905 452.327 L 907.597 551.364 M 883.978 461.970 L 907.597 448.333 M 912.905 452.327 L 907.597 448.333 M 907.597 551.364 L 907.597 448.333 M 883.978 565.000 L 900.679 548.299 M 907.597 551.364 L 900.679 548.299 M 907.597 448.333 L 900.679 548.299 M 883.978 461.970 L 900.679 445.269 M 907.597 448.333 L 900.679 445.269 M 900.679 548.299 L 900.679 445.269 M 883.978 565.000 L 892.623 546.372 M 900.679 548.299 L 892.623 546.372 M 900.679 445.269 L 892.623 546.372 M 883.978 461.970 L 892.623 443.342 M 900.679 445.269 L 892.623 443.342 M 892.623 546.372 L 892.623 443.342 M 883.978 565.000 L 883.978 545.715 M 892.623 546.372 L 883.978 545.715 M 892.623 443.342 L 883.978 545.715 M 883.978 461.970 L 883.978 442.685 M 892.623 443.342 L 883.978 442.685 M 883.978 545.715 L 883.978 442.685 M 883.978 565.000 L 875.333 546.372 M 883.978 545.715 L 875.333 546.372 M 883.978 442.685 L 875.333 546.372 M 883.978 461.970 L 875.333 443.342 M 883.978 442.685 L 875.333 443.342 M 875.333 546.372 L 875.333 443.342 M 883.978 565.000 L 867.277 548.299 M 875.333 546.372 L 867.277 548.299 M 875.333 443.342 L 867.277 548.299 M 883.978 461.970 L 867.277 445.269 M 875.333 443.342 L 867.277 445.269 M 867.277 548.299 L 867.277 445.269 M 883.978 565.000 L 860.359 551.364 M 867.277 548.299 L 860.359 551.364 M 867.277 445.269 L 860.359 551.364 M 883.978 461.970 L 860.359 448.333 M 867.277 445.269 L 860.359 448.333 M 860.359 551.364 L 860.359 448.333 M 883.978 565.000 L 855.051 555.358 M 860.359 551.364 L 855.051 555.358 M 860.359 448.333 L 855.051 555.358 M 883.978 461.970 L 855.051 452.327 M 860.359 448.333 L 855.051 452.327 M 855.051 555.358 L 855.051 452.327 M 883.978 565.000 L 851.714 560.009 M 855.051 555.358 L 851.714 560.009 M 855.051 452.327 L 851.714 560.009 M 883.978 461.970 L 851.714 456.978 M 855.051 452.327 L 851.714 456.978 M 851.714 560.009 L 851.714 456.978 M 883.978 565.000 L 850.576 565.000 M 851.714 560.009 L 850.576 565.000 M 851.714 456.978 L 850.576 565.000 M 883.978 461.970 L 850.576 461.970 M 851.714 456.978 L 850.576 461.970 M 850.576 565.000 L 850.576 461.970 M 883.978 565.000 L 851.714 569.991 M 850.576 565.000 L 851.714 569.991 M 850.576 461.970 L 851.714 569.991 M 883.978 461.970 L 851.714 466.961 M 850.576 461.970 L 851.714 466.961 M 851.714 569.991 L 851.714 466.961 M 883.978 565.000 L 855.051 574.642 M 851.714 569.991 L 855.051 574.642 M 851.714 466.961 L 855.051 574.642 M 883.978 461.970 L 855.051 471.612 M 851.714 466.961 L 855.051 471.612 M 855.051 574.642 L 855.051 471.612 M 883.978 565.000 L 860.359 578.636 M 855.051 574.642 L 860.359 578.636 M 855.051 471.612 L 860.359 578.636 M 883.978 461.970 L 860.359 475.606 M 855.051 471.612 L 860.359 475.606 M 860.359 578.636 L 860.359 475.606 M 883.978 565.000 L 867.277 581.701 M 860.359 578.636 L 867.277 581.701 M 860.359 475.606 L 867.277 581.701 M 883.978 461.970 L 867.277 478.671 M 860.359 475.606 L 867.277 478.671 M 867.277 581.701 L 867.277 478.671 M 883.978 565.000 L 875.333 583.628 M 867.277 581.701 L 875.333 583.628 M 867.277 478.671 L 875.333 583.628 M 883.978 461.970 L 875.333 480.597 M 867.277 478.671 L 875.333 480.597 M 875.333 583.628 L 875.333 480.597 M 883.978 565.000 L 883.978 584.285 M 875.333 583.628 L 883.978 584.285 M 875.333 480.597 L 883.978 584.285 M 883.978 461.970 L 883.978 481.254 M 875.333 480.597 L 883.978 481.254 M 883.978 584.285 L 883.978 481.254 M 883.978 565.000 L 892.623 583.628 M 883.978 584.285 L 892.623 583.628 M 883.978 481.254 L 892.623 583.628 M 883.978 461.970 L 892.623 480.597 M 883.978 481.254 L 892.623 480.597 M 892.623 583.628 L 892.623 480.597 M 883.978 565.000 L 900.679 581.701 M 907.597 578.636 L 900.679 581.701 M 892.623 583.628 L 900.679 581.701 M 892.623 480.597 L 900.679 581.701 M 907.597 578.636 L 900.679 478.671 M 907.597 475.606 L 900.679 478.671 M 883.978 461.970 L 900.679 478.671 M 892.623 480.597 L 900.679 478.671 M 900.679 581.701 L 900.679 478.671 M 936.465 534.697 L 960.083 548.333 M 960.083 548.333 L 960.083 445.303 M 960.083 445.303 L 936.465 431.667 M 936.465 534.697 L 965.392 544.339 M 960.083 548.333 L 965.392 544.339 M 960.083 445.303 L 965.392 544.339 M 960.083 445.303 L 965.392 441.309 M 936.465 431.667 L 965.392 441.309 M 965.392 544.339 L 965.392 441.309 M 936.465 534.697 L 968.729 539.688 M 965.392 544.339 L 968.729 539.688 M 965.392 441.309 L 968.729 539.688 M 936.465 431.667 L 968.729 436.658 M 965.392 441.309 L 968.729 436.658 M 968.729 539.688 L 968.729 436.658 M 936.465 534.697 L 969.867 534.697 M 968.729 539.688 L 969.867 534.697 M 968.729 436.658 L 969.867 534.697 M 936.465 431.667 L 969.867 431.667 M 968.729 436.658 L 969.867 431.667 M 969.867 534.697 L 969.867 431.667 M 936.465 534.697 L 968.729 529.706 M 969.867 534.697 L 968.729 529.706 M 969.867 431.667 L 968.729 529.706 M 936.465 431.667 L 968.729 426.675 M 969.867 431.667 L 968.729 426.675 M 968.729 529.706 L 968.729 426.675 M 936.465 534.697 L 965.392 525.055 M 968.729 529.706 L 965.392 525.055 M 968.729 426.675 L 965.392 525.055 M 936.465 431.667 L 965.392 422.024 M 968.729 426.675 L 965.392 422.024 M 965.392 525.055 L 965.392 422.024 M 936.465 534.697 L 960.083 521.061 M 965.392 525.055 L 960.083 521.061 M 965.392 422.024 L 960.083 521.061 M 936.465 431.667 L 960.083 418.030 M 965.392 422.024 L 960.083 418.030 M 960.083 521.061 L 960.083 418.030 M 936.465 534.697 L 953.166 517.996 M 960.083 521.061 L 953.166 517.996 M 960.083 418.030 L 953.166 517.996 M 936.465 431.667 L 953.166 414.966 M 960.083 418.030 L 953.166 414.966 M 953.166 517.996 L 953.166 414.966 M 936.465 534.697 L 945.110 516.069 M 953.166 517.996 L 945.110 516.069 M 953.166 414.966 L 945.110 516.069 M 936.465 431.667 L 945.110 413.039 M 953.166 414.966 L 945.110 413.039 M 945.110 516.069 L 945.110 413.039 M 936.465 534.697 L 936.465 515.412 M 945.110 516.069 L 936.465 515.412 M 945.110 413.039 L 936.465 515.412 M 936.465 431.667 L 936.465 412.382 M 945.110 413.039 L 936.465 412.382 M 936.465 515.412 L 936.465 412.382 M 936.465 534.697 L 927.820 516.069 M 936.465 515.412 L 927.820 516.069 M 936.465 412.382 L 927.820 516.069 M 936.465 431.667 L 927.820 413.039 M 936.465 412.382 L 927.820 413.039 M 927.820 516.069 L 927.820 413.039 M 936.465 534.697 L 919.764 517.996 M 927.820 516.069 L 919.764 517.996 M 927.820 413.039 L 919.764 517.996 M 936.465 431.667 L 919.764 414.966 M 927.820 413.039 L 919.764 414.966 M 919.764 517.996 L 919.764 414.966 M 936.465 534.697 L 912.846 521.061 M 919.764 517.996 L 912.846 521.061 M 919.764 414.966 L 912.846 521.061 M 936.465 431.667 L 912.846 418.030 M 919.764 414.966 L 912.846 418.030 M 912.846 521.061 L 912.846 418.030 M 936.465 534.697 L 907.538 525.055 M 912.846 521.061 L 907.538 525.055 M 912.846 418.030 L 907.538 525.055 M 936.465 431.667 L 907.538 422.024 M 912.846 418.030 L 907.538 422.024 M 907.538 525.055 L 907.538 422.024 M 936.465 534.697 L 904.201 529.706 M 907.538 525.055 L 904.201 529.706 M 907.538 422.024 L 904.201 529.706 M 936.465 431.667 L 904.201 426.675 M 907.538 422.024 L 904.201 426.675 M 904.201 529.706 L 904.201 426.675 M 936.465 534.697 L 903.062 534.697 M 904.201 529.706 L 903.062 534.697 M 904.201 426.675 L 903.062 534.697 M 936.465 431.667 L 903.062 431.667 M 904.201 426.675 L 903.062 431.667 M 903.062 534.697 L 903.062 431.667 M 936.465 534.697 L 904.201 539.688 M 903.062 534.697 L 904.201 539.688 M 903.062 431.667 L 904.201 539.688 M 936.465 431.667 L 904.201 436.658 M 903.062 431.667 L 904.201 436.658 M 904.201 539.688 L 904.201 436.658 M 936.465 534.697 L 907.538 544.339 M 904.201 539.688 L 907.538 544.339 M 904.201 436.658 L 907.538 544.339 M 936.465 431.667 L 907.538 441.309 M 904.201 436.658 L 907.538 441.309 M 907.538 544.339 L 907.538 441.309 M 936.465 534.697 L 912.846 548.333 M 907.538 544.339 L 912.846 548.333 M 907.538 441.309 L 912.846 548.333 M 936.465 431.667 L 912.846 445.303 M 907.538 441.309 L 912.846 445.303 M 912.846 548.333 L 912.846 445.303 M 936.465 534.697 L 919.764 551.398 M 912.846 548.333 L 919.764 551.398 M 912.846 445.303 L 919.764 551.398 M 936.465 431.667 L 919.764 448.368 M 912.846 445.303 L 919.764 448.368 M 919.764 551.398 L 919.764 448.368 M 936.465 534.697 L 927.820 553.325 M 919.764 551.398 L 927.820 553.325 M 919.764 448.368 L 927.820 553.325 M 936.465 431.667 L 927.820 450.294 M 919.764 448.368 L 927.820 450.294 M 927.820 553.325 L 927.820 450.294 M 936.465 534.697 L 936.465 553.982 M 927.820 553.325 L 936.465 553.982 M 927.820 450.294 L 936.465 553.982 M 936.465 431.667 L 936.465 450.951 M 927.820 450.294 L 936.465 450.951 M 936.465 553.982 L 936.465 450.951 M 936.465 534.697 L 945.110 553.325 M 936.465 553.982 L 945.110 553.325 M 936.465 450.951 L 945.110 553.325 M 936.465 431.667 L 945.110 450.294 M 936.465 450.951 L 945.110 450.294 M 945.110 553.325 L 945.110 450.294 M 936.465 534.697 L 953.166 551.398 M 960.083 548.333 L 953.166 551.398 M 945.110 553.325 L 953.166 551.398 M 945.110 450.294 L 953.166 551.398 M 960.083 548.333 L 953.166 448.368 M 960.083 445.303 L 953.166 448.368 M 936.465 431.667 L 953.166 448.368 M 945.110 450.294 L 953.166 448.368 M 953.166 551.398 L 953.166 448.368" class="geometry"/>
</g>
<g id="L30-HIDDEN" data-layer="L30-HIDDEN">

</g>
<g id="L31-CENTRE-DATUM" data-layer="L31-CENTRE-DATUM">
<line id="DATUM-X" x1="80" y1="700" x2="300" y2="700" class="datum"/>
<line id="DATUM-Z" x1="80" y1="700" x2="80" y2="520" class="datum"/>
<text x="306" y="706" class="label">+X</text><text x="66" y="510" class="label">+Z</text>
</g>
<g id="L40-SECTIONS" data-layer="L40-SECTIONS">

</g>
<g id="L50-DIMENSIONS" data-layer="L50-DIMENSIONS">
<text x="48" y="710" class="section-title">E-CLASS PROXY MODEL ENVELOPE</text>
<text x="48" y="732" class="body">X 5.2 m · Y 3.6 m · Z 2.2 m. Values describe only the</text>
<text x="48" y="750" class="body">interaction proxy model; dimension authority is NONE.</text>
</g>
<g id="L60-MATERIALS" data-layer="L60-MATERIALS">
<text x="560" y="710" class="section-title">MATERIAL STATE</text>
<text x="560" y="732" class="body">Material identity, grade, finish, thickness, batch and physical</text>
<text x="560" y="750" class="body">qualification remain UNKNOWN unless separately bound in the</text>
<text x="560" y="768" class="body">owning canon.</text>
</g>
<g id="L70-INTERFACES" data-layer="L70-INTERFACES">
<text x="1072" y="710" class="section-title">INTERFACE STATE</text>
<text x="1072" y="732" class="body">Critical physical, electrical, structural, fluid, control and</text>
<text x="1072" y="750" class="body">ecological interfaces remain evidence-gated; no connection</text>
<text x="1072" y="768" class="body">capacity is inferred from geometry.</text>
</g>
<g id="L75-SENSORS" data-layer="L75-SENSORS">
<text x="48" y="808" class="section-title">TELEMETRY STATE</text>
<text x="48" y="830" class="body">No LIVE state is asserted. Sensor identity, physical location, calibration, raw</text>
<text x="48" y="848" class="body">dataset hash, uncertainty and last-valid observation remain required.</text>
</g>
<g id="L80-SIMULATION" data-layer="L80-SIMULATION">
<text x="820" y="808" class="section-title">SIMULATION STATE</text>
<text x="820" y="830" class="body">No solver result or measured performance is promoted by this projection. Reproducible</text>
<text x="820" y="848" class="body">inputs, boundary conditions, solver version, residuals and output hashes remain</text>
<text x="820" y="866" class="body">required.</text>
</g>
<g id="L90-EVIDENCE" data-layer="L90-EVIDENCE">
<text x="440" y="130" class="section-title">EVIDENCE CLASS</text>
<text x="440" y="152" class="body">INTERACTION_PROXY. Projection input hash is bound;</text>
<text x="440" y="170" class="body">source binding remains NONE_PROXY_ONLY. Evidence</text>
<text x="440" y="188" class="body">ceiling E; migration priority P7 and fidelity F2.</text>
</g>
<g id="L91-UNKNOWNS" data-layer="L91-UNKNOWNS">
<text x="800" y="130" class="section-title">OPEN GATE</text>
<text x="800" y="152" class="body">safe reference-module geometry/BMS/enclosure plus</text>
<text x="800" y="170" class="body">measured evidence</text>
</g>
<g id="L95-ANNOTATIONS" data-layer="L95-ANNOTATIONS">
<text x="1160" y="130" class="section-title">SHEET LIMIT</text>
<text x="1160" y="152" class="body">This is a machine-addressable review projection.</text>
<text x="1160" y="170" class="body">Blank or gated domains are deliberate and must not</text>
<text x="1160" y="188" class="body">be aesthetically filled with invented values.</text>
</g>
<g id="L99-CLAIM-GATE" data-layer="L99-CLAIM-GATE">
<text x="800" y="112" text-anchor="middle" class="proxy-watermark">INTERACTION PROXY / INCOMPLETE REVIEW SHELL</text>
<rect x="18" y="962" width="1564" height="20" class="gate"/>
<text x="800" y="977" text-anchor="middle" class="gate-text">NOT ENGINEERING AUTHORITY · NOT PHYSICAL VALIDATION · NOT PUBLICLY RELEASED</text>
</g>
</svg>
